G04 #@! TF.GenerationSoftware,KiCad,Pcbnew,(5.1.4)-1*
G04 #@! TF.CreationDate,2020-02-11T18:35:20-06:00*
G04 #@! TF.ProjectId,SensorBoard,53656e73-6f72-4426-9f61-72642e6b6963,rev?*
G04 #@! TF.SameCoordinates,Original*
G04 #@! TF.FileFunction,Copper,L1,Top*
G04 #@! TF.FilePolarity,Positive*
%FSLAX46Y46*%
G04 Gerber Fmt 4.6, Leading zero omitted, Abs format (unit mm)*
G04 Created by KiCad (PCBNEW (5.1.4)-1) date 2020-02-11 18:35:20*
%MOMM*%
%LPD*%
G04 APERTURE LIST*
%ADD10C,0.100000*%
%ADD11C,1.700000*%
%ADD12O,1.700000X2.000000*%
%ADD13O,1.600000X1.600000*%
%ADD14R,1.600000X1.600000*%
%ADD15C,1.998980*%
%ADD16O,1.950000X1.700000*%
%ADD17O,2.000000X1.700000*%
%ADD18C,5.000000*%
%ADD19C,0.500000*%
%ADD20C,1.270000*%
G04 APERTURE END LIST*
D10*
G36*
X134482504Y-61739204D02*
G01*
X134506773Y-61742804D01*
X134530571Y-61748765D01*
X134553671Y-61757030D01*
X134575849Y-61767520D01*
X134596893Y-61780133D01*
X134616598Y-61794747D01*
X134634777Y-61811223D01*
X134651253Y-61829402D01*
X134665867Y-61849107D01*
X134678480Y-61870151D01*
X134688970Y-61892329D01*
X134697235Y-61915429D01*
X134703196Y-61939227D01*
X134706796Y-61963496D01*
X134708000Y-61988000D01*
X134708000Y-63488000D01*
X134706796Y-63512504D01*
X134703196Y-63536773D01*
X134697235Y-63560571D01*
X134688970Y-63583671D01*
X134678480Y-63605849D01*
X134665867Y-63626893D01*
X134651253Y-63646598D01*
X134634777Y-63664777D01*
X134616598Y-63681253D01*
X134596893Y-63695867D01*
X134575849Y-63708480D01*
X134553671Y-63718970D01*
X134530571Y-63727235D01*
X134506773Y-63733196D01*
X134482504Y-63736796D01*
X134458000Y-63738000D01*
X133258000Y-63738000D01*
X133233496Y-63736796D01*
X133209227Y-63733196D01*
X133185429Y-63727235D01*
X133162329Y-63718970D01*
X133140151Y-63708480D01*
X133119107Y-63695867D01*
X133099402Y-63681253D01*
X133081223Y-63664777D01*
X133064747Y-63646598D01*
X133050133Y-63626893D01*
X133037520Y-63605849D01*
X133027030Y-63583671D01*
X133018765Y-63560571D01*
X133012804Y-63536773D01*
X133009204Y-63512504D01*
X133008000Y-63488000D01*
X133008000Y-61988000D01*
X133009204Y-61963496D01*
X133012804Y-61939227D01*
X133018765Y-61915429D01*
X133027030Y-61892329D01*
X133037520Y-61870151D01*
X133050133Y-61849107D01*
X133064747Y-61829402D01*
X133081223Y-61811223D01*
X133099402Y-61794747D01*
X133119107Y-61780133D01*
X133140151Y-61767520D01*
X133162329Y-61757030D01*
X133185429Y-61748765D01*
X133209227Y-61742804D01*
X133233496Y-61739204D01*
X133258000Y-61738000D01*
X134458000Y-61738000D01*
X134482504Y-61739204D01*
X134482504Y-61739204D01*
G37*
D11*
X133858000Y-62738000D03*
D12*
X131358000Y-62738000D03*
D13*
X158750000Y-116840000D03*
X143510000Y-116840000D03*
X158750000Y-81280000D03*
X143510000Y-114300000D03*
X158750000Y-83820000D03*
X143510000Y-111760000D03*
X158750000Y-86360000D03*
X143510000Y-109220000D03*
X158750000Y-88900000D03*
X143510000Y-106680000D03*
X158750000Y-91440000D03*
X143510000Y-104140000D03*
X158750000Y-93980000D03*
X143510000Y-101600000D03*
X158750000Y-96520000D03*
X143510000Y-99060000D03*
X158750000Y-99060000D03*
X143510000Y-96520000D03*
X158750000Y-101600000D03*
X143510000Y-93980000D03*
X158750000Y-104140000D03*
X143510000Y-91440000D03*
X158750000Y-106680000D03*
X143510000Y-88900000D03*
X158750000Y-109220000D03*
X143510000Y-86360000D03*
X158750000Y-111760000D03*
X143510000Y-83820000D03*
X158750000Y-114300000D03*
D14*
X143510000Y-81280000D03*
D15*
X164719000Y-71501000D03*
X164719000Y-68961000D03*
X164719000Y-66421000D03*
X164719000Y-63881000D03*
X164719000Y-61341000D03*
X162179000Y-61341000D03*
X162179000Y-63881000D03*
X162179000Y-66421000D03*
X162179000Y-68961000D03*
X162179000Y-71501000D03*
X159639000Y-71501000D03*
X159639000Y-68961000D03*
X159639000Y-66421000D03*
X159639000Y-63881000D03*
X159639000Y-61341000D03*
X157099000Y-61341000D03*
X157099000Y-63881000D03*
X157099000Y-66421000D03*
X157099000Y-68961000D03*
X157099000Y-71501000D03*
X154559000Y-71501000D03*
X154559000Y-68961000D03*
X154559000Y-66421000D03*
X154559000Y-63881000D03*
X154559000Y-61341000D03*
X152019000Y-61341000D03*
X152019000Y-63881000D03*
X152019000Y-66421000D03*
X152019000Y-68961000D03*
X152019000Y-71501000D03*
X149479000Y-71501000D03*
X149479000Y-68961000D03*
X149479000Y-66421000D03*
X149479000Y-63881000D03*
X149479000Y-61341000D03*
X146939000Y-61341000D03*
X146939000Y-63881000D03*
X146939000Y-66421000D03*
X146939000Y-68961000D03*
X146939000Y-71501000D03*
X144399000Y-71501000D03*
X144399000Y-68961000D03*
X144399000Y-66421000D03*
X144399000Y-63881000D03*
X144399000Y-61341000D03*
X141859000Y-61341000D03*
X141859000Y-63881000D03*
X141859000Y-66421000D03*
X141859000Y-68961000D03*
X141859000Y-71501000D03*
X139319000Y-71501000D03*
X139319000Y-68961000D03*
X139319000Y-66421000D03*
X139319000Y-63881000D03*
X139319000Y-61341000D03*
X161290000Y-116840000D03*
X161290000Y-114300000D03*
X161290000Y-111760000D03*
X161290000Y-109220000D03*
X161290000Y-106680000D03*
X161290000Y-104140000D03*
X161290000Y-101600000D03*
X161290000Y-99060000D03*
X161290000Y-96520000D03*
X161290000Y-93980000D03*
X161290000Y-91440000D03*
X161290000Y-88900000D03*
X161290000Y-86360000D03*
X161290000Y-83820000D03*
X161290000Y-81280000D03*
X140970000Y-81280000D03*
X140970000Y-83820000D03*
X140970000Y-86360000D03*
X140970000Y-88900000D03*
X140970000Y-91440000D03*
X140970000Y-93980000D03*
X140970000Y-96520000D03*
X140970000Y-99060000D03*
X140970000Y-101600000D03*
X140970000Y-104140000D03*
X140970000Y-106680000D03*
X140970000Y-109220000D03*
X140970000Y-111760000D03*
X140970000Y-114300000D03*
X140970000Y-116840000D03*
D16*
X132588000Y-117736000D03*
X132588000Y-115236000D03*
X132588000Y-112736000D03*
D10*
G36*
X133337504Y-109387204D02*
G01*
X133361773Y-109390804D01*
X133385571Y-109396765D01*
X133408671Y-109405030D01*
X133430849Y-109415520D01*
X133451893Y-109428133D01*
X133471598Y-109442747D01*
X133489777Y-109459223D01*
X133506253Y-109477402D01*
X133520867Y-109497107D01*
X133533480Y-109518151D01*
X133543970Y-109540329D01*
X133552235Y-109563429D01*
X133558196Y-109587227D01*
X133561796Y-109611496D01*
X133563000Y-109636000D01*
X133563000Y-110836000D01*
X133561796Y-110860504D01*
X133558196Y-110884773D01*
X133552235Y-110908571D01*
X133543970Y-110931671D01*
X133533480Y-110953849D01*
X133520867Y-110974893D01*
X133506253Y-110994598D01*
X133489777Y-111012777D01*
X133471598Y-111029253D01*
X133451893Y-111043867D01*
X133430849Y-111056480D01*
X133408671Y-111066970D01*
X133385571Y-111075235D01*
X133361773Y-111081196D01*
X133337504Y-111084796D01*
X133313000Y-111086000D01*
X131863000Y-111086000D01*
X131838496Y-111084796D01*
X131814227Y-111081196D01*
X131790429Y-111075235D01*
X131767329Y-111066970D01*
X131745151Y-111056480D01*
X131724107Y-111043867D01*
X131704402Y-111029253D01*
X131686223Y-111012777D01*
X131669747Y-110994598D01*
X131655133Y-110974893D01*
X131642520Y-110953849D01*
X131632030Y-110931671D01*
X131623765Y-110908571D01*
X131617804Y-110884773D01*
X131614204Y-110860504D01*
X131613000Y-110836000D01*
X131613000Y-109636000D01*
X131614204Y-109611496D01*
X131617804Y-109587227D01*
X131623765Y-109563429D01*
X131632030Y-109540329D01*
X131642520Y-109518151D01*
X131655133Y-109497107D01*
X131669747Y-109477402D01*
X131686223Y-109459223D01*
X131704402Y-109442747D01*
X131724107Y-109428133D01*
X131745151Y-109415520D01*
X131767329Y-109405030D01*
X131790429Y-109396765D01*
X131814227Y-109390804D01*
X131838496Y-109387204D01*
X131863000Y-109386000D01*
X133313000Y-109386000D01*
X133337504Y-109387204D01*
X133337504Y-109387204D01*
G37*
D11*
X132588000Y-110236000D03*
D16*
X132588000Y-102496000D03*
X132588000Y-99996000D03*
X132588000Y-97496000D03*
D10*
G36*
X133337504Y-94147204D02*
G01*
X133361773Y-94150804D01*
X133385571Y-94156765D01*
X133408671Y-94165030D01*
X133430849Y-94175520D01*
X133451893Y-94188133D01*
X133471598Y-94202747D01*
X133489777Y-94219223D01*
X133506253Y-94237402D01*
X133520867Y-94257107D01*
X133533480Y-94278151D01*
X133543970Y-94300329D01*
X133552235Y-94323429D01*
X133558196Y-94347227D01*
X133561796Y-94371496D01*
X133563000Y-94396000D01*
X133563000Y-95596000D01*
X133561796Y-95620504D01*
X133558196Y-95644773D01*
X133552235Y-95668571D01*
X133543970Y-95691671D01*
X133533480Y-95713849D01*
X133520867Y-95734893D01*
X133506253Y-95754598D01*
X133489777Y-95772777D01*
X133471598Y-95789253D01*
X133451893Y-95803867D01*
X133430849Y-95816480D01*
X133408671Y-95826970D01*
X133385571Y-95835235D01*
X133361773Y-95841196D01*
X133337504Y-95844796D01*
X133313000Y-95846000D01*
X131863000Y-95846000D01*
X131838496Y-95844796D01*
X131814227Y-95841196D01*
X131790429Y-95835235D01*
X131767329Y-95826970D01*
X131745151Y-95816480D01*
X131724107Y-95803867D01*
X131704402Y-95789253D01*
X131686223Y-95772777D01*
X131669747Y-95754598D01*
X131655133Y-95734893D01*
X131642520Y-95713849D01*
X131632030Y-95691671D01*
X131623765Y-95668571D01*
X131617804Y-95644773D01*
X131614204Y-95620504D01*
X131613000Y-95596000D01*
X131613000Y-94396000D01*
X131614204Y-94371496D01*
X131617804Y-94347227D01*
X131623765Y-94323429D01*
X131632030Y-94300329D01*
X131642520Y-94278151D01*
X131655133Y-94257107D01*
X131669747Y-94237402D01*
X131686223Y-94219223D01*
X131704402Y-94202747D01*
X131724107Y-94188133D01*
X131745151Y-94175520D01*
X131767329Y-94165030D01*
X131790429Y-94156765D01*
X131814227Y-94150804D01*
X131838496Y-94147204D01*
X131863000Y-94146000D01*
X133313000Y-94146000D01*
X133337504Y-94147204D01*
X133337504Y-94147204D01*
G37*
D11*
X132588000Y-94996000D03*
D16*
X132588000Y-87510000D03*
X132588000Y-85010000D03*
X132588000Y-82510000D03*
D10*
G36*
X133337504Y-79161204D02*
G01*
X133361773Y-79164804D01*
X133385571Y-79170765D01*
X133408671Y-79179030D01*
X133430849Y-79189520D01*
X133451893Y-79202133D01*
X133471598Y-79216747D01*
X133489777Y-79233223D01*
X133506253Y-79251402D01*
X133520867Y-79271107D01*
X133533480Y-79292151D01*
X133543970Y-79314329D01*
X133552235Y-79337429D01*
X133558196Y-79361227D01*
X133561796Y-79385496D01*
X133563000Y-79410000D01*
X133563000Y-80610000D01*
X133561796Y-80634504D01*
X133558196Y-80658773D01*
X133552235Y-80682571D01*
X133543970Y-80705671D01*
X133533480Y-80727849D01*
X133520867Y-80748893D01*
X133506253Y-80768598D01*
X133489777Y-80786777D01*
X133471598Y-80803253D01*
X133451893Y-80817867D01*
X133430849Y-80830480D01*
X133408671Y-80840970D01*
X133385571Y-80849235D01*
X133361773Y-80855196D01*
X133337504Y-80858796D01*
X133313000Y-80860000D01*
X131863000Y-80860000D01*
X131838496Y-80858796D01*
X131814227Y-80855196D01*
X131790429Y-80849235D01*
X131767329Y-80840970D01*
X131745151Y-80830480D01*
X131724107Y-80817867D01*
X131704402Y-80803253D01*
X131686223Y-80786777D01*
X131669747Y-80768598D01*
X131655133Y-80748893D01*
X131642520Y-80727849D01*
X131632030Y-80705671D01*
X131623765Y-80682571D01*
X131617804Y-80658773D01*
X131614204Y-80634504D01*
X131613000Y-80610000D01*
X131613000Y-79410000D01*
X131614204Y-79385496D01*
X131617804Y-79361227D01*
X131623765Y-79337429D01*
X131632030Y-79314329D01*
X131642520Y-79292151D01*
X131655133Y-79271107D01*
X131669747Y-79251402D01*
X131686223Y-79233223D01*
X131704402Y-79216747D01*
X131724107Y-79202133D01*
X131745151Y-79189520D01*
X131767329Y-79179030D01*
X131790429Y-79170765D01*
X131814227Y-79164804D01*
X131838496Y-79161204D01*
X131863000Y-79160000D01*
X133313000Y-79160000D01*
X133337504Y-79161204D01*
X133337504Y-79161204D01*
G37*
D11*
X132588000Y-80010000D03*
D17*
X167259000Y-83780000D03*
D10*
G36*
X168033504Y-80431204D02*
G01*
X168057773Y-80434804D01*
X168081571Y-80440765D01*
X168104671Y-80449030D01*
X168126849Y-80459520D01*
X168147893Y-80472133D01*
X168167598Y-80486747D01*
X168185777Y-80503223D01*
X168202253Y-80521402D01*
X168216867Y-80541107D01*
X168229480Y-80562151D01*
X168239970Y-80584329D01*
X168248235Y-80607429D01*
X168254196Y-80631227D01*
X168257796Y-80655496D01*
X168259000Y-80680000D01*
X168259000Y-81880000D01*
X168257796Y-81904504D01*
X168254196Y-81928773D01*
X168248235Y-81952571D01*
X168239970Y-81975671D01*
X168229480Y-81997849D01*
X168216867Y-82018893D01*
X168202253Y-82038598D01*
X168185777Y-82056777D01*
X168167598Y-82073253D01*
X168147893Y-82087867D01*
X168126849Y-82100480D01*
X168104671Y-82110970D01*
X168081571Y-82119235D01*
X168057773Y-82125196D01*
X168033504Y-82128796D01*
X168009000Y-82130000D01*
X166509000Y-82130000D01*
X166484496Y-82128796D01*
X166460227Y-82125196D01*
X166436429Y-82119235D01*
X166413329Y-82110970D01*
X166391151Y-82100480D01*
X166370107Y-82087867D01*
X166350402Y-82073253D01*
X166332223Y-82056777D01*
X166315747Y-82038598D01*
X166301133Y-82018893D01*
X166288520Y-81997849D01*
X166278030Y-81975671D01*
X166269765Y-81952571D01*
X166263804Y-81928773D01*
X166260204Y-81904504D01*
X166259000Y-81880000D01*
X166259000Y-80680000D01*
X166260204Y-80655496D01*
X166263804Y-80631227D01*
X166269765Y-80607429D01*
X166278030Y-80584329D01*
X166288520Y-80562151D01*
X166301133Y-80541107D01*
X166315747Y-80521402D01*
X166332223Y-80503223D01*
X166350402Y-80486747D01*
X166370107Y-80472133D01*
X166391151Y-80459520D01*
X166413329Y-80449030D01*
X166436429Y-80440765D01*
X166460227Y-80434804D01*
X166484496Y-80431204D01*
X166509000Y-80430000D01*
X168009000Y-80430000D01*
X168033504Y-80431204D01*
X168033504Y-80431204D01*
G37*
D11*
X167259000Y-81280000D03*
D16*
X166624000Y-91864800D03*
X166624000Y-94364800D03*
X166624000Y-96864800D03*
D10*
G36*
X167373504Y-98516004D02*
G01*
X167397773Y-98519604D01*
X167421571Y-98525565D01*
X167444671Y-98533830D01*
X167466849Y-98544320D01*
X167487893Y-98556933D01*
X167507598Y-98571547D01*
X167525777Y-98588023D01*
X167542253Y-98606202D01*
X167556867Y-98625907D01*
X167569480Y-98646951D01*
X167579970Y-98669129D01*
X167588235Y-98692229D01*
X167594196Y-98716027D01*
X167597796Y-98740296D01*
X167599000Y-98764800D01*
X167599000Y-99964800D01*
X167597796Y-99989304D01*
X167594196Y-100013573D01*
X167588235Y-100037371D01*
X167579970Y-100060471D01*
X167569480Y-100082649D01*
X167556867Y-100103693D01*
X167542253Y-100123398D01*
X167525777Y-100141577D01*
X167507598Y-100158053D01*
X167487893Y-100172667D01*
X167466849Y-100185280D01*
X167444671Y-100195770D01*
X167421571Y-100204035D01*
X167397773Y-100209996D01*
X167373504Y-100213596D01*
X167349000Y-100214800D01*
X165899000Y-100214800D01*
X165874496Y-100213596D01*
X165850227Y-100209996D01*
X165826429Y-100204035D01*
X165803329Y-100195770D01*
X165781151Y-100185280D01*
X165760107Y-100172667D01*
X165740402Y-100158053D01*
X165722223Y-100141577D01*
X165705747Y-100123398D01*
X165691133Y-100103693D01*
X165678520Y-100082649D01*
X165668030Y-100060471D01*
X165659765Y-100037371D01*
X165653804Y-100013573D01*
X165650204Y-99989304D01*
X165649000Y-99964800D01*
X165649000Y-98764800D01*
X165650204Y-98740296D01*
X165653804Y-98716027D01*
X165659765Y-98692229D01*
X165668030Y-98669129D01*
X165678520Y-98646951D01*
X165691133Y-98625907D01*
X165705747Y-98606202D01*
X165722223Y-98588023D01*
X165740402Y-98571547D01*
X165760107Y-98556933D01*
X165781151Y-98544320D01*
X165803329Y-98533830D01*
X165826429Y-98525565D01*
X165850227Y-98519604D01*
X165874496Y-98516004D01*
X165899000Y-98514800D01*
X167349000Y-98514800D01*
X167373504Y-98516004D01*
X167373504Y-98516004D01*
G37*
D11*
X166624000Y-99364800D03*
D18*
X169164000Y-57150000D03*
X126365000Y-57150000D03*
X126365000Y-123952000D03*
D19*
X158750000Y-116840000D02*
X161290000Y-116840000D01*
X143510000Y-116840000D02*
X140970000Y-116840000D01*
D20*
X167259000Y-81280000D02*
X161290000Y-81280000D01*
X158750000Y-81280000D02*
X161290000Y-81280000D01*
X141859000Y-61341000D02*
X141859000Y-63881000D01*
X141859000Y-63881000D02*
X141859000Y-66421000D01*
X141859000Y-68961000D02*
X141859000Y-66421000D01*
X141859000Y-71501000D02*
X141859000Y-68961000D01*
X167259000Y-77978000D02*
X167259000Y-81280000D01*
X165354000Y-76073000D02*
X167259000Y-77978000D01*
X133858000Y-62738000D02*
X133858000Y-72390000D01*
X133858000Y-72390000D02*
X137541000Y-76073000D01*
X145017508Y-76073000D02*
X145161000Y-76073000D01*
X141859000Y-72914492D02*
X145017508Y-76073000D01*
X141859000Y-71501000D02*
X141859000Y-72914492D01*
X137541000Y-76073000D02*
X145161000Y-76073000D01*
X145161000Y-76073000D02*
X165354000Y-76073000D01*
D19*
X140970000Y-114300000D02*
X143510000Y-114300000D01*
X139319000Y-60591519D02*
X139319000Y-61341000D01*
X166330000Y-83820000D02*
X166370000Y-83780000D01*
X132588000Y-117736000D02*
X132463000Y-117736000D01*
X132588000Y-117736000D02*
X132713000Y-117736000D01*
X132588000Y-87510000D02*
X132463000Y-87510000D01*
X132463000Y-102496000D02*
X132588000Y-102496000D01*
X140970000Y-111760000D02*
X143510000Y-111760000D01*
X161290000Y-86360000D02*
X158750000Y-86360000D01*
X140970000Y-109220000D02*
X143510000Y-109220000D01*
X132588000Y-82510000D02*
X132713000Y-82510000D01*
X148082000Y-104648000D02*
X143510000Y-109220000D01*
X148082000Y-80518000D02*
X148082000Y-104648000D01*
X132588000Y-82510000D02*
X134063000Y-82510000D01*
X146069000Y-78505000D02*
X146113500Y-78549500D01*
X138068000Y-78505000D02*
X146069000Y-78505000D01*
X146113500Y-78549500D02*
X148082000Y-80518000D01*
X134063000Y-82510000D02*
X138068000Y-78505000D01*
X161290000Y-88900000D02*
X158750000Y-88900000D01*
X125222000Y-87376000D02*
X132588000Y-80010000D01*
X129794000Y-110236000D02*
X125222000Y-114808000D01*
X132588000Y-110236000D02*
X129794000Y-110236000D01*
X130302000Y-94996000D02*
X125222000Y-100076000D01*
X132588000Y-94996000D02*
X130302000Y-94996000D01*
X125222000Y-114808000D02*
X125222000Y-100076000D01*
X125222000Y-100076000D02*
X125222000Y-87376000D01*
X164254800Y-91864800D02*
X161290000Y-88900000D01*
X166624000Y-91864800D02*
X164254800Y-91864800D01*
X151638000Y-96012000D02*
X158750000Y-88900000D01*
X151638000Y-117602000D02*
X151638000Y-96012000D01*
X144018000Y-125222000D02*
X151638000Y-117602000D01*
X134620000Y-125222000D02*
X125222000Y-115824000D01*
X136271000Y-125222000D02*
X134620000Y-125222000D01*
X125222000Y-114808000D02*
X125222000Y-115824000D01*
X136271000Y-125222000D02*
X144018000Y-125222000D01*
X140970000Y-106680000D02*
X143510000Y-106680000D01*
X161290000Y-91440000D02*
X158750000Y-91440000D01*
X140970000Y-104140000D02*
X143510000Y-104140000D01*
X140970000Y-104902000D02*
X140970000Y-104140000D01*
X132588000Y-115236000D02*
X134063000Y-115236000D01*
X138746500Y-106363500D02*
X140970000Y-104140000D01*
X138746500Y-110552500D02*
X138746500Y-106363500D01*
X134063000Y-115236000D02*
X138746500Y-110552500D01*
X161290000Y-93980000D02*
X158750000Y-93980000D01*
X140970000Y-101600000D02*
X143510000Y-101600000D01*
X132713000Y-112736000D02*
X137668000Y-107781000D01*
X132588000Y-112736000D02*
X132713000Y-112736000D01*
X137668000Y-104902000D02*
X140970000Y-101600000D01*
X137668000Y-107781000D02*
X137668000Y-104902000D01*
X158750000Y-96520000D02*
X161290000Y-96520000D01*
X161330000Y-96560000D02*
X161290000Y-96520000D01*
X166279200Y-96520000D02*
X166624000Y-96864800D01*
X161290000Y-96520000D02*
X166279200Y-96520000D01*
X140970000Y-99060000D02*
X143510000Y-99060000D01*
X132588000Y-97496000D02*
X132463000Y-97496000D01*
X132588000Y-97496000D02*
X130088000Y-97496000D01*
X130088000Y-97496000D02*
X126746000Y-100838000D01*
X126746000Y-100838000D02*
X126746000Y-105283000D01*
X126746000Y-105283000D02*
X129540000Y-108077000D01*
X132080000Y-107950000D02*
X140970000Y-99060000D01*
X131953000Y-108077000D02*
X132080000Y-107950000D01*
X129540000Y-108077000D02*
X131953000Y-108077000D01*
X158750000Y-99060000D02*
X161290000Y-99060000D01*
X166319200Y-99060000D02*
X166624000Y-99364800D01*
X161290000Y-99060000D02*
X166319200Y-99060000D01*
X140970000Y-96520000D02*
X143510000Y-96520000D01*
X137494000Y-99996000D02*
X140970000Y-96520000D01*
X132588000Y-99996000D02*
X137494000Y-99996000D01*
X158750000Y-101600000D02*
X161290000Y-101600000D01*
X140970000Y-93980000D02*
X143510000Y-93980000D01*
X132588000Y-85010000D02*
X132588000Y-85546509D01*
X134063000Y-85010000D02*
X135890000Y-86837000D01*
X132588000Y-85010000D02*
X134063000Y-85010000D01*
X135890000Y-88900000D02*
X140970000Y-93980000D01*
X135890000Y-86837000D02*
X135890000Y-88900000D01*
X158750000Y-104140000D02*
X161290000Y-104140000D01*
X140970000Y-91440000D02*
X143510000Y-91440000D01*
X158750000Y-106680000D02*
X161290000Y-106680000D01*
X140970000Y-88900000D02*
X143510000Y-88900000D01*
X158750000Y-109220000D02*
X161290000Y-109220000D01*
X140970000Y-86360000D02*
X143510000Y-86360000D01*
X158750000Y-111760000D02*
X161290000Y-111760000D01*
X140970000Y-83820000D02*
X143510000Y-83820000D01*
X158750000Y-114300000D02*
X161290000Y-114300000D01*
X140970000Y-81280000D02*
X143510000Y-81280000D01*
M02*
