G04 #@! TF.GenerationSoftware,KiCad,Pcbnew,(5.1.4)-1*
G04 #@! TF.CreationDate,2020-02-11T18:35:20-06:00*
G04 #@! TF.ProjectId,SensorBoard,53656e73-6f72-4426-9f61-72642e6b6963,rev?*
G04 #@! TF.SameCoordinates,Original*
G04 #@! TF.FileFunction,Legend,Bot*
G04 #@! TF.FilePolarity,Positive*
%FSLAX46Y46*%
G04 Gerber Fmt 4.6, Leading zero omitted, Abs format (unit mm)*
G04 Created by KiCad (PCBNEW (5.1.4)-1) date 2020-02-11 18:35:20*
%MOMM*%
%LPD*%
G04 APERTURE LIST*
%ADD10C,0.150000*%
G04 APERTURE END LIST*
D10*
X169092619Y-112609000D02*
X170092619Y-112609000D01*
X169378333Y-112275666D01*
X170092619Y-111942333D01*
X169092619Y-111942333D01*
X169092619Y-111037571D02*
X169616428Y-111037571D01*
X169711666Y-111085190D01*
X169759285Y-111180428D01*
X169759285Y-111370904D01*
X169711666Y-111466142D01*
X169140238Y-111037571D02*
X169092619Y-111132809D01*
X169092619Y-111370904D01*
X169140238Y-111466142D01*
X169235476Y-111513761D01*
X169330714Y-111513761D01*
X169425952Y-111466142D01*
X169473571Y-111370904D01*
X169473571Y-111132809D01*
X169521190Y-111037571D01*
X169092619Y-110561380D02*
X169759285Y-110561380D01*
X169568809Y-110561380D02*
X169664047Y-110513761D01*
X169711666Y-110466142D01*
X169759285Y-110370904D01*
X169759285Y-110275666D01*
X169092619Y-109942333D02*
X170092619Y-109942333D01*
X169473571Y-109847095D02*
X169092619Y-109561380D01*
X169759285Y-109561380D02*
X169378333Y-109942333D01*
X169092619Y-107609000D02*
X170092619Y-107609000D01*
X170997619Y-112590476D02*
X171997619Y-112590476D01*
X171997619Y-112352380D01*
X171950000Y-112209523D01*
X171854761Y-112114285D01*
X171759523Y-112066666D01*
X171569047Y-112019047D01*
X171426190Y-112019047D01*
X171235714Y-112066666D01*
X171140476Y-112114285D01*
X171045238Y-112209523D01*
X170997619Y-112352380D01*
X170997619Y-112590476D01*
X171045238Y-111209523D02*
X170997619Y-111304761D01*
X170997619Y-111495238D01*
X171045238Y-111590476D01*
X171140476Y-111638095D01*
X171521428Y-111638095D01*
X171616666Y-111590476D01*
X171664285Y-111495238D01*
X171664285Y-111304761D01*
X171616666Y-111209523D01*
X171521428Y-111161904D01*
X171426190Y-111161904D01*
X171330952Y-111638095D01*
X171045238Y-110780952D02*
X170997619Y-110685714D01*
X170997619Y-110495238D01*
X171045238Y-110399999D01*
X171140476Y-110352380D01*
X171188095Y-110352380D01*
X171283333Y-110399999D01*
X171330952Y-110495238D01*
X171330952Y-110638095D01*
X171378571Y-110733333D01*
X171473809Y-110780952D01*
X171521428Y-110780952D01*
X171616666Y-110733333D01*
X171664285Y-110638095D01*
X171664285Y-110495238D01*
X171616666Y-110399999D01*
X170997619Y-109923809D02*
X171664285Y-109923809D01*
X171997619Y-109923809D02*
X171950000Y-109971428D01*
X171902380Y-109923809D01*
X171950000Y-109876190D01*
X171997619Y-109923809D01*
X171902380Y-109923809D01*
X171664285Y-109447619D02*
X170997619Y-109447619D01*
X171569047Y-109447619D02*
X171616666Y-109400000D01*
X171664285Y-109304761D01*
X171664285Y-109161904D01*
X171616666Y-109066666D01*
X171521428Y-109019047D01*
X170997619Y-109019047D01*
X171664285Y-108114285D02*
X170854761Y-108114285D01*
X170759523Y-108161904D01*
X170711904Y-108209523D01*
X170664285Y-108304761D01*
X170664285Y-108447619D01*
X170711904Y-108542857D01*
X171045238Y-108114285D02*
X170997619Y-108209523D01*
X170997619Y-108400000D01*
X171045238Y-108495238D01*
X171092857Y-108542857D01*
X171188095Y-108590476D01*
X171473809Y-108590476D01*
X171569047Y-108542857D01*
X171616666Y-108495238D01*
X171664285Y-108400000D01*
X171664285Y-108209523D01*
X171616666Y-108114285D01*
X171045238Y-107257142D02*
X170997619Y-107352380D01*
X170997619Y-107542857D01*
X171045238Y-107638095D01*
X171140476Y-107685714D01*
X171521428Y-107685714D01*
X171616666Y-107638095D01*
X171664285Y-107542857D01*
X171664285Y-107352380D01*
X171616666Y-107257142D01*
X171521428Y-107209523D01*
X171426190Y-107209523D01*
X171330952Y-107685714D01*
X170997619Y-106780952D02*
X171664285Y-106780952D01*
X171473809Y-106780952D02*
X171569047Y-106733333D01*
X171616666Y-106685714D01*
X171664285Y-106590476D01*
X171664285Y-106495238D01*
X171045238Y-106209523D02*
X170997619Y-106114285D01*
X170997619Y-105923809D01*
X171045238Y-105828571D01*
X171140476Y-105780952D01*
X171188095Y-105780952D01*
X171283333Y-105828571D01*
X171330952Y-105923809D01*
X171330952Y-106066666D01*
X171378571Y-106161904D01*
X171473809Y-106209523D01*
X171521428Y-106209523D01*
X171616666Y-106161904D01*
X171664285Y-106066666D01*
X171664285Y-105923809D01*
X171616666Y-105828571D01*
X171092857Y-105352380D02*
X171045238Y-105304761D01*
X170997619Y-105352380D01*
X171045238Y-105400000D01*
X171092857Y-105352380D01*
X170997619Y-105352380D01*
X171616666Y-105352380D02*
X171569047Y-105304761D01*
X171521428Y-105352380D01*
X171569047Y-105400000D01*
X171616666Y-105352380D01*
X171521428Y-105352380D01*
X171997619Y-103828571D02*
X171283333Y-103828571D01*
X171140476Y-103876190D01*
X171045238Y-103971428D01*
X170997619Y-104114285D01*
X170997619Y-104209523D01*
X170997619Y-102923809D02*
X171521428Y-102923809D01*
X171616666Y-102971428D01*
X171664285Y-103066666D01*
X171664285Y-103257142D01*
X171616666Y-103352380D01*
X171045238Y-102923809D02*
X170997619Y-103019047D01*
X170997619Y-103257142D01*
X171045238Y-103352380D01*
X171140476Y-103400000D01*
X171235714Y-103400000D01*
X171330952Y-103352380D01*
X171378571Y-103257142D01*
X171378571Y-103019047D01*
X171426190Y-102923809D01*
X171045238Y-102019047D02*
X170997619Y-102114285D01*
X170997619Y-102304761D01*
X171045238Y-102400000D01*
X171092857Y-102447619D01*
X171188095Y-102495238D01*
X171473809Y-102495238D01*
X171569047Y-102447619D01*
X171616666Y-102400000D01*
X171664285Y-102304761D01*
X171664285Y-102114285D01*
X171616666Y-102019047D01*
X170997619Y-101447619D02*
X171045238Y-101542857D01*
X171092857Y-101590476D01*
X171188095Y-101638095D01*
X171473809Y-101638095D01*
X171569047Y-101590476D01*
X171616666Y-101542857D01*
X171664285Y-101447619D01*
X171664285Y-101304761D01*
X171616666Y-101209523D01*
X171569047Y-101161904D01*
X171473809Y-101114285D01*
X171188095Y-101114285D01*
X171092857Y-101161904D01*
X171045238Y-101209523D01*
X170997619Y-101304761D01*
X170997619Y-101447619D01*
X170997619Y-100685714D02*
X171997619Y-100685714D01*
X171616666Y-100685714D02*
X171664285Y-100590476D01*
X171664285Y-100400000D01*
X171616666Y-100304761D01*
X171569047Y-100257142D01*
X171473809Y-100209523D01*
X171188095Y-100209523D01*
X171092857Y-100257142D01*
X171045238Y-100304761D01*
X170997619Y-100400000D01*
X170997619Y-100590476D01*
X171045238Y-100685714D01*
X170997619Y-99019047D02*
X171997619Y-99019047D01*
X170997619Y-98447619D02*
X171569047Y-98876190D01*
X171997619Y-98447619D02*
X171426190Y-99019047D01*
X170997619Y-98019047D02*
X171664285Y-98019047D01*
X171997619Y-98019047D02*
X171950000Y-98066666D01*
X171902380Y-98019047D01*
X171950000Y-97971428D01*
X171997619Y-98019047D01*
X171902380Y-98019047D01*
X170997619Y-97542857D02*
X171664285Y-97542857D01*
X171569047Y-97542857D02*
X171616666Y-97495238D01*
X171664285Y-97400000D01*
X171664285Y-97257142D01*
X171616666Y-97161904D01*
X171521428Y-97114285D01*
X170997619Y-97114285D01*
X171521428Y-97114285D02*
X171616666Y-97066666D01*
X171664285Y-96971428D01*
X171664285Y-96828571D01*
X171616666Y-96733333D01*
X171521428Y-96685714D01*
X170997619Y-96685714D01*
X171045238Y-96161904D02*
X170997619Y-96161904D01*
X170902380Y-96209523D01*
X170854761Y-96257142D01*
X171997619Y-94780952D02*
X171997619Y-94590476D01*
X171950000Y-94495238D01*
X171854761Y-94400000D01*
X171664285Y-94352380D01*
X171330952Y-94352380D01*
X171140476Y-94400000D01*
X171045238Y-94495238D01*
X170997619Y-94590476D01*
X170997619Y-94780952D01*
X171045238Y-94876190D01*
X171140476Y-94971428D01*
X171330952Y-95019047D01*
X171664285Y-95019047D01*
X171854761Y-94971428D01*
X171950000Y-94876190D01*
X171997619Y-94780952D01*
X170997619Y-93780952D02*
X171045238Y-93876190D01*
X171140476Y-93923809D01*
X171997619Y-93923809D01*
X170997619Y-93400000D02*
X171664285Y-93400000D01*
X171997619Y-93400000D02*
X171950000Y-93447619D01*
X171902380Y-93400000D01*
X171950000Y-93352380D01*
X171997619Y-93400000D01*
X171902380Y-93400000D01*
X171664285Y-93019047D02*
X170997619Y-92780952D01*
X171664285Y-92542857D01*
X170997619Y-92161904D02*
X171664285Y-92161904D01*
X171997619Y-92161904D02*
X171950000Y-92209523D01*
X171902380Y-92161904D01*
X171950000Y-92114285D01*
X171997619Y-92161904D01*
X171902380Y-92161904D01*
X170997619Y-91257142D02*
X171521428Y-91257142D01*
X171616666Y-91304761D01*
X171664285Y-91400000D01*
X171664285Y-91590476D01*
X171616666Y-91685714D01*
X171045238Y-91257142D02*
X170997619Y-91352380D01*
X170997619Y-91590476D01*
X171045238Y-91685714D01*
X171140476Y-91733333D01*
X171235714Y-91733333D01*
X171330952Y-91685714D01*
X171378571Y-91590476D01*
X171378571Y-91352380D01*
X171426190Y-91257142D01*
X171997619Y-90114285D02*
X170997619Y-89876190D01*
X171711904Y-89685714D01*
X170997619Y-89495238D01*
X171997619Y-89257142D01*
X170997619Y-88733333D02*
X171045238Y-88828571D01*
X171092857Y-88876190D01*
X171188095Y-88923809D01*
X171473809Y-88923809D01*
X171569047Y-88876190D01*
X171616666Y-88828571D01*
X171664285Y-88733333D01*
X171664285Y-88590476D01*
X171616666Y-88495238D01*
X171569047Y-88447619D01*
X171473809Y-88400000D01*
X171188095Y-88400000D01*
X171092857Y-88447619D01*
X171045238Y-88495238D01*
X170997619Y-88590476D01*
X170997619Y-88733333D01*
X170997619Y-87828571D02*
X171045238Y-87923809D01*
X171140476Y-87971428D01*
X171997619Y-87971428D01*
X171664285Y-87590476D02*
X171664285Y-87209523D01*
X170997619Y-87447619D02*
X171854761Y-87447619D01*
X171950000Y-87400000D01*
X171997619Y-87304761D01*
X171997619Y-87209523D01*
X170997619Y-86733333D02*
X171045238Y-86828571D01*
X171140476Y-86876190D01*
X171997619Y-86876190D01*
X171045238Y-85971428D02*
X170997619Y-86066666D01*
X170997619Y-86257142D01*
X171045238Y-86352380D01*
X171140476Y-86400000D01*
X171521428Y-86400000D01*
X171616666Y-86352380D01*
X171664285Y-86257142D01*
X171664285Y-86066666D01*
X171616666Y-85971428D01*
X171521428Y-85923809D01*
X171426190Y-85923809D01*
X171330952Y-86400000D01*
X171664285Y-85590476D02*
X170997619Y-85352380D01*
X171664285Y-85114285D02*
X170997619Y-85352380D01*
X170759523Y-85447619D01*
X170711904Y-85495238D01*
X170664285Y-85590476D01*
X171045238Y-84685714D02*
X170997619Y-84685714D01*
X170902380Y-84733333D01*
X170854761Y-84780952D01*
X171092857Y-82923809D02*
X171045238Y-82971428D01*
X170997619Y-83114285D01*
X170997619Y-83209523D01*
X171045238Y-83352380D01*
X171140476Y-83447619D01*
X171235714Y-83495238D01*
X171426190Y-83542857D01*
X171569047Y-83542857D01*
X171759523Y-83495238D01*
X171854761Y-83447619D01*
X171950000Y-83352380D01*
X171997619Y-83209523D01*
X171997619Y-83114285D01*
X171950000Y-82971428D01*
X171902380Y-82923809D01*
X170997619Y-82495238D02*
X171997619Y-82495238D01*
X170997619Y-82066666D02*
X171521428Y-82066666D01*
X171616666Y-82114285D01*
X171664285Y-82209523D01*
X171664285Y-82352380D01*
X171616666Y-82447619D01*
X171569047Y-82495238D01*
X170997619Y-81590476D02*
X171664285Y-81590476D01*
X171473809Y-81590476D02*
X171569047Y-81542857D01*
X171616666Y-81495238D01*
X171664285Y-81400000D01*
X171664285Y-81304761D01*
X170997619Y-80971428D02*
X171664285Y-80971428D01*
X171997619Y-80971428D02*
X171950000Y-81019047D01*
X171902380Y-80971428D01*
X171950000Y-80923809D01*
X171997619Y-80971428D01*
X171902380Y-80971428D01*
X171045238Y-80542857D02*
X170997619Y-80447619D01*
X170997619Y-80257142D01*
X171045238Y-80161904D01*
X171140476Y-80114285D01*
X171188095Y-80114285D01*
X171283333Y-80161904D01*
X171330952Y-80257142D01*
X171330952Y-80400000D01*
X171378571Y-80495238D01*
X171473809Y-80542857D01*
X171521428Y-80542857D01*
X171616666Y-80495238D01*
X171664285Y-80400000D01*
X171664285Y-80257142D01*
X171616666Y-80161904D01*
X171997619Y-79066666D02*
X171997619Y-78495238D01*
X170997619Y-78780952D02*
X171997619Y-78780952D01*
X170997619Y-78161904D02*
X171664285Y-78161904D01*
X171473809Y-78161904D02*
X171569047Y-78114285D01*
X171616666Y-78066666D01*
X171664285Y-77971428D01*
X171664285Y-77876190D01*
X170997619Y-77114285D02*
X171521428Y-77114285D01*
X171616666Y-77161904D01*
X171664285Y-77257142D01*
X171664285Y-77447619D01*
X171616666Y-77542857D01*
X171045238Y-77114285D02*
X170997619Y-77209523D01*
X170997619Y-77447619D01*
X171045238Y-77542857D01*
X171140476Y-77590476D01*
X171235714Y-77590476D01*
X171330952Y-77542857D01*
X171378571Y-77447619D01*
X171378571Y-77209523D01*
X171426190Y-77114285D01*
X171664285Y-76638095D02*
X170997619Y-76638095D01*
X171569047Y-76638095D02*
X171616666Y-76590476D01*
X171664285Y-76495238D01*
X171664285Y-76352380D01*
X171616666Y-76257142D01*
X171521428Y-76209523D01*
X170997619Y-76209523D01*
X171045238Y-75685714D02*
X170997619Y-75685714D01*
X170902380Y-75733333D01*
X170854761Y-75780952D01*
X171997619Y-74209523D02*
X171283333Y-74209523D01*
X171140476Y-74257142D01*
X171045238Y-74352380D01*
X170997619Y-74495238D01*
X170997619Y-74590476D01*
X170997619Y-73590476D02*
X171045238Y-73685714D01*
X171092857Y-73733333D01*
X171188095Y-73780952D01*
X171473809Y-73780952D01*
X171569047Y-73733333D01*
X171616666Y-73685714D01*
X171664285Y-73590476D01*
X171664285Y-73447619D01*
X171616666Y-73352380D01*
X171569047Y-73304761D01*
X171473809Y-73257142D01*
X171188095Y-73257142D01*
X171092857Y-73304761D01*
X171045238Y-73352380D01*
X170997619Y-73447619D01*
X170997619Y-73590476D01*
X170997619Y-72828571D02*
X171664285Y-72828571D01*
X171473809Y-72828571D02*
X171569047Y-72780952D01*
X171616666Y-72733333D01*
X171664285Y-72638095D01*
X171664285Y-72542857D01*
X171664285Y-71780952D02*
X170854761Y-71780952D01*
X170759523Y-71828571D01*
X170711904Y-71876190D01*
X170664285Y-71971428D01*
X170664285Y-72114285D01*
X170711904Y-72209523D01*
X171045238Y-71780952D02*
X170997619Y-71876190D01*
X170997619Y-72066666D01*
X171045238Y-72161904D01*
X171092857Y-72209523D01*
X171188095Y-72257142D01*
X171473809Y-72257142D01*
X171569047Y-72209523D01*
X171616666Y-72161904D01*
X171664285Y-72066666D01*
X171664285Y-71876190D01*
X171616666Y-71780952D01*
X171045238Y-70923809D02*
X170997619Y-71019047D01*
X170997619Y-71209523D01*
X171045238Y-71304761D01*
X171140476Y-71352380D01*
X171521428Y-71352380D01*
X171616666Y-71304761D01*
X171664285Y-71209523D01*
X171664285Y-71019047D01*
X171616666Y-70923809D01*
X171521428Y-70876190D01*
X171426190Y-70876190D01*
X171330952Y-71352380D01*
X171521428Y-69685714D02*
X171521428Y-69352380D01*
X170997619Y-69209523D02*
X170997619Y-69685714D01*
X171997619Y-69685714D01*
X171997619Y-69209523D01*
X170997619Y-68876190D02*
X171664285Y-68352380D01*
X171664285Y-68876190D02*
X170997619Y-68352380D01*
X170997619Y-67971428D02*
X171664285Y-67971428D01*
X171997619Y-67971428D02*
X171950000Y-68019047D01*
X171902380Y-67971428D01*
X171950000Y-67923809D01*
X171997619Y-67971428D01*
X171902380Y-67971428D01*
X171664285Y-67495238D02*
X170997619Y-67495238D01*
X171569047Y-67495238D02*
X171616666Y-67447619D01*
X171664285Y-67352380D01*
X171664285Y-67209523D01*
X171616666Y-67114285D01*
X171521428Y-67066666D01*
X170997619Y-67066666D01*
X170997619Y-66590476D02*
X171664285Y-66590476D01*
X171997619Y-66590476D02*
X171950000Y-66638095D01*
X171902380Y-66590476D01*
X171950000Y-66542857D01*
X171997619Y-66590476D01*
X171902380Y-66590476D01*
X170997619Y-65685714D02*
X171521428Y-65685714D01*
X171616666Y-65733333D01*
X171664285Y-65828571D01*
X171664285Y-66019047D01*
X171616666Y-66114285D01*
X171045238Y-65685714D02*
X170997619Y-65780952D01*
X170997619Y-66019047D01*
X171045238Y-66114285D01*
X171140476Y-66161904D01*
X171235714Y-66161904D01*
X171330952Y-66114285D01*
X171378571Y-66019047D01*
X171378571Y-65780952D01*
X171426190Y-65685714D01*
X171045238Y-65161904D02*
X170997619Y-65161904D01*
X170902380Y-65209523D01*
X170854761Y-65257142D01*
M02*
