G04 #@! TF.GenerationSoftware,KiCad,Pcbnew,(5.1.4)-1*
G04 #@! TF.CreationDate,2020-02-11T18:35:20-06:00*
G04 #@! TF.ProjectId,SensorBoard,53656e73-6f72-4426-9f61-72642e6b6963,rev?*
G04 #@! TF.SameCoordinates,Original*
G04 #@! TF.FileFunction,Other,Fab,Bot*
%FSLAX46Y46*%
G04 Gerber Fmt 4.6, Leading zero omitted, Abs format (unit mm)*
G04 Created by KiCad (PCBNEW (5.1.4)-1) date 2020-02-11 18:35:20*
%MOMM*%
%LPD*%
G04 APERTURE LIST*
%ADD10C,0.150000*%
G04 APERTURE END LIST*
D10*
X134203238Y-60690380D02*
X133869904Y-61690380D01*
X133536571Y-60690380D01*
X133012761Y-60690380D02*
X132822285Y-60690380D01*
X132727047Y-60738000D01*
X132631809Y-60833238D01*
X132584190Y-61023714D01*
X132584190Y-61357047D01*
X132631809Y-61547523D01*
X132727047Y-61642761D01*
X132822285Y-61690380D01*
X133012761Y-61690380D01*
X133108000Y-61642761D01*
X133203238Y-61547523D01*
X133250857Y-61357047D01*
X133250857Y-61023714D01*
X133203238Y-60833238D01*
X133108000Y-60738000D01*
X133012761Y-60690380D01*
X131727047Y-61023714D02*
X131727047Y-61690380D01*
X132155619Y-61023714D02*
X132155619Y-61547523D01*
X132108000Y-61642761D01*
X132012761Y-61690380D01*
X131869904Y-61690380D01*
X131774666Y-61642761D01*
X131727047Y-61595142D01*
X131393714Y-61023714D02*
X131012761Y-61023714D01*
X131250857Y-60690380D02*
X131250857Y-61547523D01*
X131203238Y-61642761D01*
X131108000Y-61690380D01*
X131012761Y-61690380D01*
X165211380Y-81506190D02*
X166211380Y-81839523D01*
X165211380Y-82172857D01*
X166211380Y-82506190D02*
X165544714Y-82506190D01*
X165211380Y-82506190D02*
X165259000Y-82458571D01*
X165306619Y-82506190D01*
X165259000Y-82553809D01*
X165211380Y-82506190D01*
X165306619Y-82506190D01*
X165544714Y-82982380D02*
X166211380Y-82982380D01*
X165639952Y-82982380D02*
X165592333Y-83030000D01*
X165544714Y-83125238D01*
X165544714Y-83268095D01*
X165592333Y-83363333D01*
X165687571Y-83410952D01*
X166211380Y-83410952D01*
M02*
