G04 #@! TF.GenerationSoftware,KiCad,Pcbnew,(5.1.4)-1*
G04 #@! TF.CreationDate,2020-02-11T18:35:20-06:00*
G04 #@! TF.ProjectId,SensorBoard,53656e73-6f72-4426-9f61-72642e6b6963,rev?*
G04 #@! TF.SameCoordinates,Original*
G04 #@! TF.FileFunction,Other,User*
%FSLAX46Y46*%
G04 Gerber Fmt 4.6, Leading zero omitted, Abs format (unit mm)*
G04 Created by KiCad (PCBNEW (5.1.4)-1) date 2020-02-11 18:35:20*
%MOMM*%
%LPD*%
G04 APERTURE LIST*
%ADD10C,0.050000*%
G04 APERTURE END LIST*
D10*
X136858000Y-64838000D02*
X136858000Y-60038000D01*
X136858000Y-60038000D02*
X128358000Y-60038000D01*
X128358000Y-60038000D02*
X128358000Y-64838000D01*
X128358000Y-64838000D02*
X136858000Y-64838000D01*
X160260000Y-123440000D02*
X141980000Y-123440000D01*
X160260000Y-123440000D02*
X160260000Y-77220000D01*
X141980000Y-77220000D02*
X141980000Y-123440000D01*
X141980000Y-77220000D02*
X160260000Y-77220000D01*
X166219000Y-73001000D02*
X163219000Y-73001000D01*
X166219000Y-73001000D02*
X166219000Y-70001000D01*
X163219000Y-70001000D02*
X163219000Y-73001000D01*
X163219000Y-70001000D02*
X166219000Y-70001000D01*
X163219000Y-67461000D02*
X166219000Y-67461000D01*
X163219000Y-67461000D02*
X163219000Y-70461000D01*
X166219000Y-70461000D02*
X166219000Y-67461000D01*
X166219000Y-70461000D02*
X163219000Y-70461000D01*
X166219000Y-67921000D02*
X163219000Y-67921000D01*
X166219000Y-67921000D02*
X166219000Y-64921000D01*
X163219000Y-64921000D02*
X163219000Y-67921000D01*
X163219000Y-64921000D02*
X166219000Y-64921000D01*
X163219000Y-62381000D02*
X166219000Y-62381000D01*
X163219000Y-62381000D02*
X163219000Y-65381000D01*
X166219000Y-65381000D02*
X166219000Y-62381000D01*
X166219000Y-65381000D02*
X163219000Y-65381000D01*
X166219000Y-62841000D02*
X163219000Y-62841000D01*
X166219000Y-62841000D02*
X166219000Y-59841000D01*
X163219000Y-59841000D02*
X163219000Y-62841000D01*
X163219000Y-59841000D02*
X166219000Y-59841000D01*
X160679000Y-59841000D02*
X163679000Y-59841000D01*
X160679000Y-59841000D02*
X160679000Y-62841000D01*
X163679000Y-62841000D02*
X163679000Y-59841000D01*
X163679000Y-62841000D02*
X160679000Y-62841000D01*
X163679000Y-65381000D02*
X160679000Y-65381000D01*
X163679000Y-65381000D02*
X163679000Y-62381000D01*
X160679000Y-62381000D02*
X160679000Y-65381000D01*
X160679000Y-62381000D02*
X163679000Y-62381000D01*
X160679000Y-64921000D02*
X163679000Y-64921000D01*
X160679000Y-64921000D02*
X160679000Y-67921000D01*
X163679000Y-67921000D02*
X163679000Y-64921000D01*
X163679000Y-67921000D02*
X160679000Y-67921000D01*
X163679000Y-70461000D02*
X160679000Y-70461000D01*
X163679000Y-70461000D02*
X163679000Y-67461000D01*
X160679000Y-67461000D02*
X160679000Y-70461000D01*
X160679000Y-67461000D02*
X163679000Y-67461000D01*
X160679000Y-70001000D02*
X163679000Y-70001000D01*
X160679000Y-70001000D02*
X160679000Y-73001000D01*
X163679000Y-73001000D02*
X163679000Y-70001000D01*
X163679000Y-73001000D02*
X160679000Y-73001000D01*
X161139000Y-73001000D02*
X158139000Y-73001000D01*
X161139000Y-73001000D02*
X161139000Y-70001000D01*
X158139000Y-70001000D02*
X158139000Y-73001000D01*
X158139000Y-70001000D02*
X161139000Y-70001000D01*
X158139000Y-67461000D02*
X161139000Y-67461000D01*
X158139000Y-67461000D02*
X158139000Y-70461000D01*
X161139000Y-70461000D02*
X161139000Y-67461000D01*
X161139000Y-70461000D02*
X158139000Y-70461000D01*
X161139000Y-67921000D02*
X158139000Y-67921000D01*
X161139000Y-67921000D02*
X161139000Y-64921000D01*
X158139000Y-64921000D02*
X158139000Y-67921000D01*
X158139000Y-64921000D02*
X161139000Y-64921000D01*
X158139000Y-62381000D02*
X161139000Y-62381000D01*
X158139000Y-62381000D02*
X158139000Y-65381000D01*
X161139000Y-65381000D02*
X161139000Y-62381000D01*
X161139000Y-65381000D02*
X158139000Y-65381000D01*
X161139000Y-62841000D02*
X158139000Y-62841000D01*
X161139000Y-62841000D02*
X161139000Y-59841000D01*
X158139000Y-59841000D02*
X158139000Y-62841000D01*
X158139000Y-59841000D02*
X161139000Y-59841000D01*
X155599000Y-59841000D02*
X158599000Y-59841000D01*
X155599000Y-59841000D02*
X155599000Y-62841000D01*
X158599000Y-62841000D02*
X158599000Y-59841000D01*
X158599000Y-62841000D02*
X155599000Y-62841000D01*
X158599000Y-65381000D02*
X155599000Y-65381000D01*
X158599000Y-65381000D02*
X158599000Y-62381000D01*
X155599000Y-62381000D02*
X155599000Y-65381000D01*
X155599000Y-62381000D02*
X158599000Y-62381000D01*
X155599000Y-64921000D02*
X158599000Y-64921000D01*
X155599000Y-64921000D02*
X155599000Y-67921000D01*
X158599000Y-67921000D02*
X158599000Y-64921000D01*
X158599000Y-67921000D02*
X155599000Y-67921000D01*
X158599000Y-70461000D02*
X155599000Y-70461000D01*
X158599000Y-70461000D02*
X158599000Y-67461000D01*
X155599000Y-67461000D02*
X155599000Y-70461000D01*
X155599000Y-67461000D02*
X158599000Y-67461000D01*
X155599000Y-70001000D02*
X158599000Y-70001000D01*
X155599000Y-70001000D02*
X155599000Y-73001000D01*
X158599000Y-73001000D02*
X158599000Y-70001000D01*
X158599000Y-73001000D02*
X155599000Y-73001000D01*
X156059000Y-73001000D02*
X153059000Y-73001000D01*
X156059000Y-73001000D02*
X156059000Y-70001000D01*
X153059000Y-70001000D02*
X153059000Y-73001000D01*
X153059000Y-70001000D02*
X156059000Y-70001000D01*
X153059000Y-67461000D02*
X156059000Y-67461000D01*
X153059000Y-67461000D02*
X153059000Y-70461000D01*
X156059000Y-70461000D02*
X156059000Y-67461000D01*
X156059000Y-70461000D02*
X153059000Y-70461000D01*
X156059000Y-67921000D02*
X153059000Y-67921000D01*
X156059000Y-67921000D02*
X156059000Y-64921000D01*
X153059000Y-64921000D02*
X153059000Y-67921000D01*
X153059000Y-64921000D02*
X156059000Y-64921000D01*
X153059000Y-62381000D02*
X156059000Y-62381000D01*
X153059000Y-62381000D02*
X153059000Y-65381000D01*
X156059000Y-65381000D02*
X156059000Y-62381000D01*
X156059000Y-65381000D02*
X153059000Y-65381000D01*
X156059000Y-62841000D02*
X153059000Y-62841000D01*
X156059000Y-62841000D02*
X156059000Y-59841000D01*
X153059000Y-59841000D02*
X153059000Y-62841000D01*
X153059000Y-59841000D02*
X156059000Y-59841000D01*
X150519000Y-59841000D02*
X153519000Y-59841000D01*
X150519000Y-59841000D02*
X150519000Y-62841000D01*
X153519000Y-62841000D02*
X153519000Y-59841000D01*
X153519000Y-62841000D02*
X150519000Y-62841000D01*
X153519000Y-65381000D02*
X150519000Y-65381000D01*
X153519000Y-65381000D02*
X153519000Y-62381000D01*
X150519000Y-62381000D02*
X150519000Y-65381000D01*
X150519000Y-62381000D02*
X153519000Y-62381000D01*
X150519000Y-64921000D02*
X153519000Y-64921000D01*
X150519000Y-64921000D02*
X150519000Y-67921000D01*
X153519000Y-67921000D02*
X153519000Y-64921000D01*
X153519000Y-67921000D02*
X150519000Y-67921000D01*
X153519000Y-70461000D02*
X150519000Y-70461000D01*
X153519000Y-70461000D02*
X153519000Y-67461000D01*
X150519000Y-67461000D02*
X150519000Y-70461000D01*
X150519000Y-67461000D02*
X153519000Y-67461000D01*
X150519000Y-70001000D02*
X153519000Y-70001000D01*
X150519000Y-70001000D02*
X150519000Y-73001000D01*
X153519000Y-73001000D02*
X153519000Y-70001000D01*
X153519000Y-73001000D02*
X150519000Y-73001000D01*
X150979000Y-73001000D02*
X147979000Y-73001000D01*
X150979000Y-73001000D02*
X150979000Y-70001000D01*
X147979000Y-70001000D02*
X147979000Y-73001000D01*
X147979000Y-70001000D02*
X150979000Y-70001000D01*
X147979000Y-67461000D02*
X150979000Y-67461000D01*
X147979000Y-67461000D02*
X147979000Y-70461000D01*
X150979000Y-70461000D02*
X150979000Y-67461000D01*
X150979000Y-70461000D02*
X147979000Y-70461000D01*
X150979000Y-67921000D02*
X147979000Y-67921000D01*
X150979000Y-67921000D02*
X150979000Y-64921000D01*
X147979000Y-64921000D02*
X147979000Y-67921000D01*
X147979000Y-64921000D02*
X150979000Y-64921000D01*
X147979000Y-62381000D02*
X150979000Y-62381000D01*
X147979000Y-62381000D02*
X147979000Y-65381000D01*
X150979000Y-65381000D02*
X150979000Y-62381000D01*
X150979000Y-65381000D02*
X147979000Y-65381000D01*
X150979000Y-62841000D02*
X147979000Y-62841000D01*
X150979000Y-62841000D02*
X150979000Y-59841000D01*
X147979000Y-59841000D02*
X147979000Y-62841000D01*
X147979000Y-59841000D02*
X150979000Y-59841000D01*
X145439000Y-59841000D02*
X148439000Y-59841000D01*
X145439000Y-59841000D02*
X145439000Y-62841000D01*
X148439000Y-62841000D02*
X148439000Y-59841000D01*
X148439000Y-62841000D02*
X145439000Y-62841000D01*
X148439000Y-65381000D02*
X145439000Y-65381000D01*
X148439000Y-65381000D02*
X148439000Y-62381000D01*
X145439000Y-62381000D02*
X145439000Y-65381000D01*
X145439000Y-62381000D02*
X148439000Y-62381000D01*
X145439000Y-64921000D02*
X148439000Y-64921000D01*
X145439000Y-64921000D02*
X145439000Y-67921000D01*
X148439000Y-67921000D02*
X148439000Y-64921000D01*
X148439000Y-67921000D02*
X145439000Y-67921000D01*
X148439000Y-70461000D02*
X145439000Y-70461000D01*
X148439000Y-70461000D02*
X148439000Y-67461000D01*
X145439000Y-67461000D02*
X145439000Y-70461000D01*
X145439000Y-67461000D02*
X148439000Y-67461000D01*
X145439000Y-70001000D02*
X148439000Y-70001000D01*
X145439000Y-70001000D02*
X145439000Y-73001000D01*
X148439000Y-73001000D02*
X148439000Y-70001000D01*
X148439000Y-73001000D02*
X145439000Y-73001000D01*
X145899000Y-73001000D02*
X142899000Y-73001000D01*
X145899000Y-73001000D02*
X145899000Y-70001000D01*
X142899000Y-70001000D02*
X142899000Y-73001000D01*
X142899000Y-70001000D02*
X145899000Y-70001000D01*
X142899000Y-67461000D02*
X145899000Y-67461000D01*
X142899000Y-67461000D02*
X142899000Y-70461000D01*
X145899000Y-70461000D02*
X145899000Y-67461000D01*
X145899000Y-70461000D02*
X142899000Y-70461000D01*
X145899000Y-67921000D02*
X142899000Y-67921000D01*
X145899000Y-67921000D02*
X145899000Y-64921000D01*
X142899000Y-64921000D02*
X142899000Y-67921000D01*
X142899000Y-64921000D02*
X145899000Y-64921000D01*
X142899000Y-62381000D02*
X145899000Y-62381000D01*
X142899000Y-62381000D02*
X142899000Y-65381000D01*
X145899000Y-65381000D02*
X145899000Y-62381000D01*
X145899000Y-65381000D02*
X142899000Y-65381000D01*
X145899000Y-62841000D02*
X142899000Y-62841000D01*
X145899000Y-62841000D02*
X145899000Y-59841000D01*
X142899000Y-59841000D02*
X142899000Y-62841000D01*
X142899000Y-59841000D02*
X145899000Y-59841000D01*
X140359000Y-59841000D02*
X143359000Y-59841000D01*
X140359000Y-59841000D02*
X140359000Y-62841000D01*
X143359000Y-62841000D02*
X143359000Y-59841000D01*
X143359000Y-62841000D02*
X140359000Y-62841000D01*
X143359000Y-65381000D02*
X140359000Y-65381000D01*
X143359000Y-65381000D02*
X143359000Y-62381000D01*
X140359000Y-62381000D02*
X140359000Y-65381000D01*
X140359000Y-62381000D02*
X143359000Y-62381000D01*
X140359000Y-64921000D02*
X143359000Y-64921000D01*
X140359000Y-64921000D02*
X140359000Y-67921000D01*
X143359000Y-67921000D02*
X143359000Y-64921000D01*
X143359000Y-67921000D02*
X140359000Y-67921000D01*
X143359000Y-70461000D02*
X140359000Y-70461000D01*
X143359000Y-70461000D02*
X143359000Y-67461000D01*
X140359000Y-67461000D02*
X140359000Y-70461000D01*
X140359000Y-67461000D02*
X143359000Y-67461000D01*
X140359000Y-70001000D02*
X143359000Y-70001000D01*
X140359000Y-70001000D02*
X140359000Y-73001000D01*
X143359000Y-73001000D02*
X143359000Y-70001000D01*
X143359000Y-73001000D02*
X140359000Y-73001000D01*
X140819000Y-73001000D02*
X137819000Y-73001000D01*
X140819000Y-73001000D02*
X140819000Y-70001000D01*
X137819000Y-70001000D02*
X137819000Y-73001000D01*
X137819000Y-70001000D02*
X140819000Y-70001000D01*
X137819000Y-67461000D02*
X140819000Y-67461000D01*
X137819000Y-67461000D02*
X137819000Y-70461000D01*
X140819000Y-70461000D02*
X140819000Y-67461000D01*
X140819000Y-70461000D02*
X137819000Y-70461000D01*
X140819000Y-67921000D02*
X137819000Y-67921000D01*
X140819000Y-67921000D02*
X140819000Y-64921000D01*
X137819000Y-64921000D02*
X137819000Y-67921000D01*
X137819000Y-64921000D02*
X140819000Y-64921000D01*
X137819000Y-62381000D02*
X140819000Y-62381000D01*
X137819000Y-62381000D02*
X137819000Y-65381000D01*
X140819000Y-65381000D02*
X140819000Y-62381000D01*
X140819000Y-65381000D02*
X137819000Y-65381000D01*
X140819000Y-62841000D02*
X137819000Y-62841000D01*
X140819000Y-62841000D02*
X140819000Y-59841000D01*
X137819000Y-59841000D02*
X137819000Y-62841000D01*
X137819000Y-59841000D02*
X140819000Y-59841000D01*
X159790000Y-115340000D02*
X162790000Y-115340000D01*
X159790000Y-115340000D02*
X159790000Y-118340000D01*
X162790000Y-118340000D02*
X162790000Y-115340000D01*
X162790000Y-118340000D02*
X159790000Y-118340000D01*
X162790000Y-115800000D02*
X159790000Y-115800000D01*
X162790000Y-115800000D02*
X162790000Y-112800000D01*
X159790000Y-112800000D02*
X159790000Y-115800000D01*
X159790000Y-112800000D02*
X162790000Y-112800000D01*
X159790000Y-110260000D02*
X162790000Y-110260000D01*
X159790000Y-110260000D02*
X159790000Y-113260000D01*
X162790000Y-113260000D02*
X162790000Y-110260000D01*
X162790000Y-113260000D02*
X159790000Y-113260000D01*
X162790000Y-110720000D02*
X159790000Y-110720000D01*
X162790000Y-110720000D02*
X162790000Y-107720000D01*
X159790000Y-107720000D02*
X159790000Y-110720000D01*
X159790000Y-107720000D02*
X162790000Y-107720000D01*
X159790000Y-105180000D02*
X162790000Y-105180000D01*
X159790000Y-105180000D02*
X159790000Y-108180000D01*
X162790000Y-108180000D02*
X162790000Y-105180000D01*
X162790000Y-108180000D02*
X159790000Y-108180000D01*
X162790000Y-105640000D02*
X159790000Y-105640000D01*
X162790000Y-105640000D02*
X162790000Y-102640000D01*
X159790000Y-102640000D02*
X159790000Y-105640000D01*
X159790000Y-102640000D02*
X162790000Y-102640000D01*
X159790000Y-100100000D02*
X162790000Y-100100000D01*
X159790000Y-100100000D02*
X159790000Y-103100000D01*
X162790000Y-103100000D02*
X162790000Y-100100000D01*
X162790000Y-103100000D02*
X159790000Y-103100000D01*
X162790000Y-100560000D02*
X159790000Y-100560000D01*
X162790000Y-100560000D02*
X162790000Y-97560000D01*
X159790000Y-97560000D02*
X159790000Y-100560000D01*
X159790000Y-97560000D02*
X162790000Y-97560000D01*
X159790000Y-95020000D02*
X162790000Y-95020000D01*
X159790000Y-95020000D02*
X159790000Y-98020000D01*
X162790000Y-98020000D02*
X162790000Y-95020000D01*
X162790000Y-98020000D02*
X159790000Y-98020000D01*
X162790000Y-95480000D02*
X159790000Y-95480000D01*
X162790000Y-95480000D02*
X162790000Y-92480000D01*
X159790000Y-92480000D02*
X159790000Y-95480000D01*
X159790000Y-92480000D02*
X162790000Y-92480000D01*
X159790000Y-89940000D02*
X162790000Y-89940000D01*
X159790000Y-89940000D02*
X159790000Y-92940000D01*
X162790000Y-92940000D02*
X162790000Y-89940000D01*
X162790000Y-92940000D02*
X159790000Y-92940000D01*
X162790000Y-90400000D02*
X159790000Y-90400000D01*
X162790000Y-90400000D02*
X162790000Y-87400000D01*
X159790000Y-87400000D02*
X159790000Y-90400000D01*
X159790000Y-87400000D02*
X162790000Y-87400000D01*
X159790000Y-84860000D02*
X162790000Y-84860000D01*
X159790000Y-84860000D02*
X159790000Y-87860000D01*
X162790000Y-87860000D02*
X162790000Y-84860000D01*
X162790000Y-87860000D02*
X159790000Y-87860000D01*
X162790000Y-85320000D02*
X159790000Y-85320000D01*
X162790000Y-85320000D02*
X162790000Y-82320000D01*
X159790000Y-82320000D02*
X159790000Y-85320000D01*
X159790000Y-82320000D02*
X162790000Y-82320000D01*
X159790000Y-79780000D02*
X162790000Y-79780000D01*
X159790000Y-79780000D02*
X159790000Y-82780000D01*
X162790000Y-82780000D02*
X162790000Y-79780000D01*
X162790000Y-82780000D02*
X159790000Y-82780000D01*
X142470000Y-82780000D02*
X139470000Y-82780000D01*
X142470000Y-82780000D02*
X142470000Y-79780000D01*
X139470000Y-79780000D02*
X139470000Y-82780000D01*
X139470000Y-79780000D02*
X142470000Y-79780000D01*
X139470000Y-82320000D02*
X142470000Y-82320000D01*
X139470000Y-82320000D02*
X139470000Y-85320000D01*
X142470000Y-85320000D02*
X142470000Y-82320000D01*
X142470000Y-85320000D02*
X139470000Y-85320000D01*
X142470000Y-87860000D02*
X139470000Y-87860000D01*
X142470000Y-87860000D02*
X142470000Y-84860000D01*
X139470000Y-84860000D02*
X139470000Y-87860000D01*
X139470000Y-84860000D02*
X142470000Y-84860000D01*
X139470000Y-87400000D02*
X142470000Y-87400000D01*
X139470000Y-87400000D02*
X139470000Y-90400000D01*
X142470000Y-90400000D02*
X142470000Y-87400000D01*
X142470000Y-90400000D02*
X139470000Y-90400000D01*
X142470000Y-92940000D02*
X139470000Y-92940000D01*
X142470000Y-92940000D02*
X142470000Y-89940000D01*
X139470000Y-89940000D02*
X139470000Y-92940000D01*
X139470000Y-89940000D02*
X142470000Y-89940000D01*
X139470000Y-92480000D02*
X142470000Y-92480000D01*
X139470000Y-92480000D02*
X139470000Y-95480000D01*
X142470000Y-95480000D02*
X142470000Y-92480000D01*
X142470000Y-95480000D02*
X139470000Y-95480000D01*
X142470000Y-98020000D02*
X139470000Y-98020000D01*
X142470000Y-98020000D02*
X142470000Y-95020000D01*
X139470000Y-95020000D02*
X139470000Y-98020000D01*
X139470000Y-95020000D02*
X142470000Y-95020000D01*
X139470000Y-97560000D02*
X142470000Y-97560000D01*
X139470000Y-97560000D02*
X139470000Y-100560000D01*
X142470000Y-100560000D02*
X142470000Y-97560000D01*
X142470000Y-100560000D02*
X139470000Y-100560000D01*
X142470000Y-103100000D02*
X139470000Y-103100000D01*
X142470000Y-103100000D02*
X142470000Y-100100000D01*
X139470000Y-100100000D02*
X139470000Y-103100000D01*
X139470000Y-100100000D02*
X142470000Y-100100000D01*
X139470000Y-102640000D02*
X142470000Y-102640000D01*
X139470000Y-102640000D02*
X139470000Y-105640000D01*
X142470000Y-105640000D02*
X142470000Y-102640000D01*
X142470000Y-105640000D02*
X139470000Y-105640000D01*
X142470000Y-108180000D02*
X139470000Y-108180000D01*
X142470000Y-108180000D02*
X142470000Y-105180000D01*
X139470000Y-105180000D02*
X139470000Y-108180000D01*
X139470000Y-105180000D02*
X142470000Y-105180000D01*
X139470000Y-107720000D02*
X142470000Y-107720000D01*
X139470000Y-107720000D02*
X139470000Y-110720000D01*
X142470000Y-110720000D02*
X142470000Y-107720000D01*
X142470000Y-110720000D02*
X139470000Y-110720000D01*
X142470000Y-113260000D02*
X139470000Y-113260000D01*
X142470000Y-113260000D02*
X142470000Y-110260000D01*
X139470000Y-110260000D02*
X139470000Y-113260000D01*
X139470000Y-110260000D02*
X142470000Y-110260000D01*
X139470000Y-112800000D02*
X142470000Y-112800000D01*
X139470000Y-112800000D02*
X139470000Y-115800000D01*
X142470000Y-115800000D02*
X142470000Y-112800000D01*
X142470000Y-115800000D02*
X139470000Y-115800000D01*
X142470000Y-118340000D02*
X139470000Y-118340000D01*
X142470000Y-118340000D02*
X142470000Y-115340000D01*
X139470000Y-115340000D02*
X139470000Y-118340000D01*
X139470000Y-115340000D02*
X142470000Y-115340000D01*
X134688000Y-120736000D02*
X134688000Y-107236000D01*
X129888000Y-120736000D02*
X134688000Y-120736000D01*
X129888000Y-107236000D02*
X129888000Y-120736000D01*
X134688000Y-107236000D02*
X129888000Y-107236000D01*
X134688000Y-105496000D02*
X134688000Y-91996000D01*
X129888000Y-105496000D02*
X134688000Y-105496000D01*
X129888000Y-91996000D02*
X129888000Y-105496000D01*
X134688000Y-91996000D02*
X129888000Y-91996000D01*
X134688000Y-90510000D02*
X134688000Y-77010000D01*
X129888000Y-90510000D02*
X134688000Y-90510000D01*
X129888000Y-77010000D02*
X129888000Y-90510000D01*
X134688000Y-77010000D02*
X129888000Y-77010000D01*
X169359000Y-86780000D02*
X169359000Y-78280000D01*
X164559000Y-86780000D02*
X169359000Y-86780000D01*
X164559000Y-78280000D02*
X164559000Y-86780000D01*
X169359000Y-78280000D02*
X164559000Y-78280000D01*
X164524000Y-88864800D02*
X164524000Y-102364800D01*
X169324000Y-88864800D02*
X164524000Y-88864800D01*
X169324000Y-102364800D02*
X169324000Y-88864800D01*
X164524000Y-102364800D02*
X169324000Y-102364800D01*
M02*
