G04 #@! TF.GenerationSoftware,KiCad,Pcbnew,(5.1.4)-1*
G04 #@! TF.CreationDate,2020-02-11T18:35:20-06:00*
G04 #@! TF.ProjectId,SensorBoard,53656e73-6f72-4426-9f61-72642e6b6963,rev?*
G04 #@! TF.SameCoordinates,Original*
G04 #@! TF.FileFunction,Soldermask,Top*
G04 #@! TF.FilePolarity,Negative*
%FSLAX46Y46*%
G04 Gerber Fmt 4.6, Leading zero omitted, Abs format (unit mm)*
G04 Created by KiCad (PCBNEW (5.1.4)-1) date 2020-02-11 18:35:20*
%MOMM*%
%LPD*%
G04 APERTURE LIST*
%ADD10C,0.100000*%
G04 APERTURE END LIST*
D10*
G36*
X132808025Y-116840000D02*
G01*
X132889627Y-116848037D01*
X133059466Y-116899557D01*
X133215991Y-116983222D01*
X133244749Y-117006823D01*
X133353186Y-117095814D01*
X133436448Y-117197271D01*
X133465778Y-117233009D01*
X133549443Y-117389534D01*
X133600963Y-117559373D01*
X133618359Y-117736000D01*
X133600963Y-117912627D01*
X133549443Y-118082466D01*
X133465778Y-118238991D01*
X133436448Y-118274729D01*
X133353186Y-118376186D01*
X133251729Y-118459448D01*
X133215991Y-118488778D01*
X133059466Y-118572443D01*
X132889627Y-118623963D01*
X132823442Y-118630482D01*
X132757260Y-118637000D01*
X132418740Y-118637000D01*
X132352558Y-118630482D01*
X132286373Y-118623963D01*
X132116534Y-118572443D01*
X131960009Y-118488778D01*
X131924271Y-118459448D01*
X131822814Y-118376186D01*
X131739552Y-118274729D01*
X131710222Y-118238991D01*
X131626557Y-118082466D01*
X131575037Y-117912627D01*
X131557641Y-117736000D01*
X131575037Y-117559373D01*
X131626557Y-117389534D01*
X131710222Y-117233009D01*
X131739552Y-117197271D01*
X131822814Y-117095814D01*
X131931251Y-117006823D01*
X131960009Y-116983222D01*
X132116534Y-116899557D01*
X132286373Y-116848037D01*
X132367975Y-116840000D01*
X132418740Y-116835000D01*
X132757260Y-116835000D01*
X132808025Y-116840000D01*
X132808025Y-116840000D01*
G37*
G36*
X161596416Y-115829879D02*
G01*
X161787592Y-115909067D01*
X161787594Y-115909068D01*
X161906888Y-115988778D01*
X161959648Y-116024031D01*
X162105969Y-116170352D01*
X162220933Y-116342408D01*
X162300121Y-116533584D01*
X162340490Y-116736534D01*
X162340490Y-116943466D01*
X162300121Y-117146416D01*
X162220933Y-117337592D01*
X162220932Y-117337594D01*
X162105969Y-117509648D01*
X161959648Y-117655969D01*
X161787594Y-117770932D01*
X161787593Y-117770933D01*
X161787592Y-117770933D01*
X161596416Y-117850121D01*
X161393466Y-117890490D01*
X161186534Y-117890490D01*
X160983584Y-117850121D01*
X160792408Y-117770933D01*
X160792407Y-117770933D01*
X160792406Y-117770932D01*
X160620352Y-117655969D01*
X160474031Y-117509648D01*
X160359068Y-117337594D01*
X160359067Y-117337592D01*
X160279879Y-117146416D01*
X160239510Y-116943466D01*
X160239510Y-116736534D01*
X160279879Y-116533584D01*
X160359067Y-116342408D01*
X160474031Y-116170352D01*
X160620352Y-116024031D01*
X160673112Y-115988778D01*
X160792406Y-115909068D01*
X160792408Y-115909067D01*
X160983584Y-115829879D01*
X161186534Y-115789510D01*
X161393466Y-115789510D01*
X161596416Y-115829879D01*
X161596416Y-115829879D01*
G37*
G36*
X141276416Y-115829879D02*
G01*
X141467592Y-115909067D01*
X141467594Y-115909068D01*
X141586888Y-115988778D01*
X141639648Y-116024031D01*
X141785969Y-116170352D01*
X141900933Y-116342408D01*
X141980121Y-116533584D01*
X142020490Y-116736534D01*
X142020490Y-116943466D01*
X141980121Y-117146416D01*
X141900933Y-117337592D01*
X141900932Y-117337594D01*
X141785969Y-117509648D01*
X141639648Y-117655969D01*
X141467594Y-117770932D01*
X141467593Y-117770933D01*
X141467592Y-117770933D01*
X141276416Y-117850121D01*
X141073466Y-117890490D01*
X140866534Y-117890490D01*
X140663584Y-117850121D01*
X140472408Y-117770933D01*
X140472407Y-117770933D01*
X140472406Y-117770932D01*
X140300352Y-117655969D01*
X140154031Y-117509648D01*
X140039068Y-117337594D01*
X140039067Y-117337592D01*
X139959879Y-117146416D01*
X139919510Y-116943466D01*
X139919510Y-116736534D01*
X139959879Y-116533584D01*
X140039067Y-116342408D01*
X140154031Y-116170352D01*
X140300352Y-116024031D01*
X140353112Y-115988778D01*
X140472406Y-115909068D01*
X140472408Y-115909067D01*
X140663584Y-115829879D01*
X140866534Y-115789510D01*
X141073466Y-115789510D01*
X141276416Y-115829879D01*
X141276416Y-115829879D01*
G37*
G36*
X158916823Y-116001313D02*
G01*
X159077242Y-116049976D01*
X159209906Y-116120886D01*
X159225078Y-116128996D01*
X159354659Y-116235341D01*
X159461004Y-116364922D01*
X159461005Y-116364924D01*
X159540024Y-116512758D01*
X159588687Y-116673177D01*
X159605117Y-116840000D01*
X159588687Y-117006823D01*
X159540024Y-117167242D01*
X159469114Y-117299906D01*
X159461004Y-117315078D01*
X159354659Y-117444659D01*
X159225078Y-117551004D01*
X159225076Y-117551005D01*
X159077242Y-117630024D01*
X158916823Y-117678687D01*
X158791804Y-117691000D01*
X158708196Y-117691000D01*
X158583177Y-117678687D01*
X158422758Y-117630024D01*
X158274924Y-117551005D01*
X158274922Y-117551004D01*
X158145341Y-117444659D01*
X158038996Y-117315078D01*
X158030886Y-117299906D01*
X157959976Y-117167242D01*
X157911313Y-117006823D01*
X157894883Y-116840000D01*
X157911313Y-116673177D01*
X157959976Y-116512758D01*
X158038995Y-116364924D01*
X158038996Y-116364922D01*
X158145341Y-116235341D01*
X158274922Y-116128996D01*
X158290094Y-116120886D01*
X158422758Y-116049976D01*
X158583177Y-116001313D01*
X158708196Y-115989000D01*
X158791804Y-115989000D01*
X158916823Y-116001313D01*
X158916823Y-116001313D01*
G37*
G36*
X143676823Y-116001313D02*
G01*
X143837242Y-116049976D01*
X143969906Y-116120886D01*
X143985078Y-116128996D01*
X144114659Y-116235341D01*
X144221004Y-116364922D01*
X144221005Y-116364924D01*
X144300024Y-116512758D01*
X144348687Y-116673177D01*
X144365117Y-116840000D01*
X144348687Y-117006823D01*
X144300024Y-117167242D01*
X144229114Y-117299906D01*
X144221004Y-117315078D01*
X144114659Y-117444659D01*
X143985078Y-117551004D01*
X143985076Y-117551005D01*
X143837242Y-117630024D01*
X143676823Y-117678687D01*
X143551804Y-117691000D01*
X143468196Y-117691000D01*
X143343177Y-117678687D01*
X143182758Y-117630024D01*
X143034924Y-117551005D01*
X143034922Y-117551004D01*
X142905341Y-117444659D01*
X142798996Y-117315078D01*
X142790886Y-117299906D01*
X142719976Y-117167242D01*
X142671313Y-117006823D01*
X142654883Y-116840000D01*
X142671313Y-116673177D01*
X142719976Y-116512758D01*
X142798995Y-116364924D01*
X142798996Y-116364922D01*
X142905341Y-116235341D01*
X143034922Y-116128996D01*
X143050094Y-116120886D01*
X143182758Y-116049976D01*
X143343177Y-116001313D01*
X143468196Y-115989000D01*
X143551804Y-115989000D01*
X143676823Y-116001313D01*
X143676823Y-116001313D01*
G37*
G36*
X132823443Y-114341519D02*
G01*
X132889627Y-114348037D01*
X133059466Y-114399557D01*
X133059468Y-114399558D01*
X133066779Y-114403466D01*
X133215991Y-114483222D01*
X133251729Y-114512552D01*
X133353186Y-114595814D01*
X133436448Y-114697271D01*
X133465778Y-114733009D01*
X133549443Y-114889534D01*
X133600963Y-115059373D01*
X133618359Y-115236000D01*
X133600963Y-115412627D01*
X133549443Y-115582466D01*
X133465778Y-115738991D01*
X133436448Y-115774729D01*
X133353186Y-115876186D01*
X133251729Y-115959448D01*
X133215991Y-115988778D01*
X133215989Y-115988779D01*
X133101499Y-116049976D01*
X133059466Y-116072443D01*
X132889627Y-116123963D01*
X132838535Y-116128995D01*
X132757260Y-116137000D01*
X132418740Y-116137000D01*
X132337465Y-116128995D01*
X132286373Y-116123963D01*
X132116534Y-116072443D01*
X132074502Y-116049976D01*
X131960011Y-115988779D01*
X131960009Y-115988778D01*
X131924271Y-115959448D01*
X131822814Y-115876186D01*
X131739552Y-115774729D01*
X131710222Y-115738991D01*
X131626557Y-115582466D01*
X131575037Y-115412627D01*
X131557641Y-115236000D01*
X131575037Y-115059373D01*
X131626557Y-114889534D01*
X131710222Y-114733009D01*
X131739552Y-114697271D01*
X131822814Y-114595814D01*
X131924271Y-114512552D01*
X131960009Y-114483222D01*
X132109221Y-114403466D01*
X132116532Y-114399558D01*
X132116534Y-114399557D01*
X132286373Y-114348037D01*
X132352557Y-114341519D01*
X132418740Y-114335000D01*
X132757260Y-114335000D01*
X132823443Y-114341519D01*
X132823443Y-114341519D01*
G37*
G36*
X161596416Y-113289879D02*
G01*
X161787592Y-113369067D01*
X161787594Y-113369068D01*
X161907220Y-113449000D01*
X161959648Y-113484031D01*
X162105969Y-113630352D01*
X162220933Y-113802408D01*
X162300121Y-113993584D01*
X162340490Y-114196534D01*
X162340490Y-114403466D01*
X162300121Y-114606416D01*
X162220933Y-114797592D01*
X162220932Y-114797594D01*
X162105969Y-114969648D01*
X161959648Y-115115969D01*
X161787594Y-115230932D01*
X161787593Y-115230933D01*
X161787592Y-115230933D01*
X161596416Y-115310121D01*
X161393466Y-115350490D01*
X161186534Y-115350490D01*
X160983584Y-115310121D01*
X160792408Y-115230933D01*
X160792407Y-115230933D01*
X160792406Y-115230932D01*
X160620352Y-115115969D01*
X160474031Y-114969648D01*
X160359068Y-114797594D01*
X160359067Y-114797592D01*
X160279879Y-114606416D01*
X160239510Y-114403466D01*
X160239510Y-114196534D01*
X160279879Y-113993584D01*
X160359067Y-113802408D01*
X160474031Y-113630352D01*
X160620352Y-113484031D01*
X160672780Y-113449000D01*
X160792406Y-113369068D01*
X160792408Y-113369067D01*
X160983584Y-113289879D01*
X161186534Y-113249510D01*
X161393466Y-113249510D01*
X161596416Y-113289879D01*
X161596416Y-113289879D01*
G37*
G36*
X141276416Y-113289879D02*
G01*
X141467592Y-113369067D01*
X141467594Y-113369068D01*
X141587220Y-113449000D01*
X141639648Y-113484031D01*
X141785969Y-113630352D01*
X141900933Y-113802408D01*
X141980121Y-113993584D01*
X142020490Y-114196534D01*
X142020490Y-114403466D01*
X141980121Y-114606416D01*
X141900933Y-114797592D01*
X141900932Y-114797594D01*
X141785969Y-114969648D01*
X141639648Y-115115969D01*
X141467594Y-115230932D01*
X141467593Y-115230933D01*
X141467592Y-115230933D01*
X141276416Y-115310121D01*
X141073466Y-115350490D01*
X140866534Y-115350490D01*
X140663584Y-115310121D01*
X140472408Y-115230933D01*
X140472407Y-115230933D01*
X140472406Y-115230932D01*
X140300352Y-115115969D01*
X140154031Y-114969648D01*
X140039068Y-114797594D01*
X140039067Y-114797592D01*
X139959879Y-114606416D01*
X139919510Y-114403466D01*
X139919510Y-114196534D01*
X139959879Y-113993584D01*
X140039067Y-113802408D01*
X140154031Y-113630352D01*
X140300352Y-113484031D01*
X140352780Y-113449000D01*
X140472406Y-113369068D01*
X140472408Y-113369067D01*
X140663584Y-113289879D01*
X140866534Y-113249510D01*
X141073466Y-113249510D01*
X141276416Y-113289879D01*
X141276416Y-113289879D01*
G37*
G36*
X158916823Y-113461313D02*
G01*
X159077242Y-113509976D01*
X159194109Y-113572443D01*
X159225078Y-113588996D01*
X159354659Y-113695341D01*
X159461004Y-113824922D01*
X159461005Y-113824924D01*
X159540024Y-113972758D01*
X159588687Y-114133177D01*
X159605117Y-114300000D01*
X159588687Y-114466823D01*
X159540024Y-114627242D01*
X159483490Y-114733009D01*
X159461004Y-114775078D01*
X159354659Y-114904659D01*
X159225078Y-115011004D01*
X159225076Y-115011005D01*
X159077242Y-115090024D01*
X158916823Y-115138687D01*
X158791804Y-115151000D01*
X158708196Y-115151000D01*
X158583177Y-115138687D01*
X158422758Y-115090024D01*
X158274924Y-115011005D01*
X158274922Y-115011004D01*
X158145341Y-114904659D01*
X158038996Y-114775078D01*
X158016510Y-114733009D01*
X157959976Y-114627242D01*
X157911313Y-114466823D01*
X157894883Y-114300000D01*
X157911313Y-114133177D01*
X157959976Y-113972758D01*
X158038995Y-113824924D01*
X158038996Y-113824922D01*
X158145341Y-113695341D01*
X158274922Y-113588996D01*
X158305891Y-113572443D01*
X158422758Y-113509976D01*
X158583177Y-113461313D01*
X158708196Y-113449000D01*
X158791804Y-113449000D01*
X158916823Y-113461313D01*
X158916823Y-113461313D01*
G37*
G36*
X143676823Y-113461313D02*
G01*
X143837242Y-113509976D01*
X143954109Y-113572443D01*
X143985078Y-113588996D01*
X144114659Y-113695341D01*
X144221004Y-113824922D01*
X144221005Y-113824924D01*
X144300024Y-113972758D01*
X144348687Y-114133177D01*
X144365117Y-114300000D01*
X144348687Y-114466823D01*
X144300024Y-114627242D01*
X144243490Y-114733009D01*
X144221004Y-114775078D01*
X144114659Y-114904659D01*
X143985078Y-115011004D01*
X143985076Y-115011005D01*
X143837242Y-115090024D01*
X143676823Y-115138687D01*
X143551804Y-115151000D01*
X143468196Y-115151000D01*
X143343177Y-115138687D01*
X143182758Y-115090024D01*
X143034924Y-115011005D01*
X143034922Y-115011004D01*
X142905341Y-114904659D01*
X142798996Y-114775078D01*
X142776510Y-114733009D01*
X142719976Y-114627242D01*
X142671313Y-114466823D01*
X142654883Y-114300000D01*
X142671313Y-114133177D01*
X142719976Y-113972758D01*
X142798995Y-113824924D01*
X142798996Y-113824922D01*
X142905341Y-113695341D01*
X143034922Y-113588996D01*
X143065891Y-113572443D01*
X143182758Y-113509976D01*
X143343177Y-113461313D01*
X143468196Y-113449000D01*
X143551804Y-113449000D01*
X143676823Y-113461313D01*
X143676823Y-113461313D01*
G37*
G36*
X132823442Y-111841518D02*
G01*
X132889627Y-111848037D01*
X133059466Y-111899557D01*
X133215991Y-111983222D01*
X133251729Y-112012552D01*
X133353186Y-112095814D01*
X133436448Y-112197271D01*
X133465778Y-112233009D01*
X133549443Y-112389534D01*
X133600963Y-112559373D01*
X133618359Y-112736000D01*
X133600963Y-112912627D01*
X133549443Y-113082466D01*
X133465778Y-113238991D01*
X133457145Y-113249510D01*
X133353186Y-113376186D01*
X133251729Y-113459448D01*
X133215991Y-113488778D01*
X133059466Y-113572443D01*
X132889627Y-113623963D01*
X132824757Y-113630352D01*
X132757260Y-113637000D01*
X132418740Y-113637000D01*
X132351243Y-113630352D01*
X132286373Y-113623963D01*
X132116534Y-113572443D01*
X131960009Y-113488778D01*
X131924271Y-113459448D01*
X131822814Y-113376186D01*
X131718855Y-113249510D01*
X131710222Y-113238991D01*
X131626557Y-113082466D01*
X131575037Y-112912627D01*
X131557641Y-112736000D01*
X131575037Y-112559373D01*
X131626557Y-112389534D01*
X131710222Y-112233009D01*
X131739552Y-112197271D01*
X131822814Y-112095814D01*
X131924271Y-112012552D01*
X131960009Y-111983222D01*
X132116534Y-111899557D01*
X132286373Y-111848037D01*
X132352558Y-111841518D01*
X132418740Y-111835000D01*
X132757260Y-111835000D01*
X132823442Y-111841518D01*
X132823442Y-111841518D01*
G37*
G36*
X161596416Y-110749879D02*
G01*
X161787592Y-110829067D01*
X161787594Y-110829068D01*
X161851846Y-110872000D01*
X161959648Y-110944031D01*
X162105969Y-111090352D01*
X162220933Y-111262408D01*
X162300121Y-111453584D01*
X162340490Y-111656534D01*
X162340490Y-111863466D01*
X162300121Y-112066416D01*
X162220933Y-112257592D01*
X162220932Y-112257594D01*
X162105969Y-112429648D01*
X161959648Y-112575969D01*
X161787594Y-112690932D01*
X161787593Y-112690933D01*
X161787592Y-112690933D01*
X161596416Y-112770121D01*
X161393466Y-112810490D01*
X161186534Y-112810490D01*
X160983584Y-112770121D01*
X160792408Y-112690933D01*
X160792407Y-112690933D01*
X160792406Y-112690932D01*
X160620352Y-112575969D01*
X160474031Y-112429648D01*
X160359068Y-112257594D01*
X160359067Y-112257592D01*
X160279879Y-112066416D01*
X160239510Y-111863466D01*
X160239510Y-111656534D01*
X160279879Y-111453584D01*
X160359067Y-111262408D01*
X160474031Y-111090352D01*
X160620352Y-110944031D01*
X160728154Y-110872000D01*
X160792406Y-110829068D01*
X160792408Y-110829067D01*
X160983584Y-110749879D01*
X161186534Y-110709510D01*
X161393466Y-110709510D01*
X161596416Y-110749879D01*
X161596416Y-110749879D01*
G37*
G36*
X141276416Y-110749879D02*
G01*
X141467592Y-110829067D01*
X141467594Y-110829068D01*
X141531846Y-110872000D01*
X141639648Y-110944031D01*
X141785969Y-111090352D01*
X141900933Y-111262408D01*
X141980121Y-111453584D01*
X142020490Y-111656534D01*
X142020490Y-111863466D01*
X141980121Y-112066416D01*
X141900933Y-112257592D01*
X141900932Y-112257594D01*
X141785969Y-112429648D01*
X141639648Y-112575969D01*
X141467594Y-112690932D01*
X141467593Y-112690933D01*
X141467592Y-112690933D01*
X141276416Y-112770121D01*
X141073466Y-112810490D01*
X140866534Y-112810490D01*
X140663584Y-112770121D01*
X140472408Y-112690933D01*
X140472407Y-112690933D01*
X140472406Y-112690932D01*
X140300352Y-112575969D01*
X140154031Y-112429648D01*
X140039068Y-112257594D01*
X140039067Y-112257592D01*
X139959879Y-112066416D01*
X139919510Y-111863466D01*
X139919510Y-111656534D01*
X139959879Y-111453584D01*
X140039067Y-111262408D01*
X140154031Y-111090352D01*
X140300352Y-110944031D01*
X140408154Y-110872000D01*
X140472406Y-110829068D01*
X140472408Y-110829067D01*
X140663584Y-110749879D01*
X140866534Y-110709510D01*
X141073466Y-110709510D01*
X141276416Y-110749879D01*
X141276416Y-110749879D01*
G37*
G36*
X158916823Y-110921313D02*
G01*
X159077242Y-110969976D01*
X159169382Y-111019226D01*
X159225078Y-111048996D01*
X159354659Y-111155341D01*
X159461004Y-111284922D01*
X159461005Y-111284924D01*
X159540024Y-111432758D01*
X159588687Y-111593177D01*
X159605117Y-111760000D01*
X159588687Y-111926823D01*
X159540024Y-112087242D01*
X159469114Y-112219906D01*
X159461004Y-112235078D01*
X159354659Y-112364659D01*
X159225078Y-112471004D01*
X159225076Y-112471005D01*
X159077242Y-112550024D01*
X158916823Y-112598687D01*
X158791804Y-112611000D01*
X158708196Y-112611000D01*
X158583177Y-112598687D01*
X158422758Y-112550024D01*
X158274924Y-112471005D01*
X158274922Y-112471004D01*
X158145341Y-112364659D01*
X158038996Y-112235078D01*
X158030886Y-112219906D01*
X157959976Y-112087242D01*
X157911313Y-111926823D01*
X157894883Y-111760000D01*
X157911313Y-111593177D01*
X157959976Y-111432758D01*
X158038995Y-111284924D01*
X158038996Y-111284922D01*
X158145341Y-111155341D01*
X158274922Y-111048996D01*
X158330618Y-111019226D01*
X158422758Y-110969976D01*
X158583177Y-110921313D01*
X158708196Y-110909000D01*
X158791804Y-110909000D01*
X158916823Y-110921313D01*
X158916823Y-110921313D01*
G37*
G36*
X143676823Y-110921313D02*
G01*
X143837242Y-110969976D01*
X143929382Y-111019226D01*
X143985078Y-111048996D01*
X144114659Y-111155341D01*
X144221004Y-111284922D01*
X144221005Y-111284924D01*
X144300024Y-111432758D01*
X144348687Y-111593177D01*
X144365117Y-111760000D01*
X144348687Y-111926823D01*
X144300024Y-112087242D01*
X144229114Y-112219906D01*
X144221004Y-112235078D01*
X144114659Y-112364659D01*
X143985078Y-112471004D01*
X143985076Y-112471005D01*
X143837242Y-112550024D01*
X143676823Y-112598687D01*
X143551804Y-112611000D01*
X143468196Y-112611000D01*
X143343177Y-112598687D01*
X143182758Y-112550024D01*
X143034924Y-112471005D01*
X143034922Y-112471004D01*
X142905341Y-112364659D01*
X142798996Y-112235078D01*
X142790886Y-112219906D01*
X142719976Y-112087242D01*
X142671313Y-111926823D01*
X142654883Y-111760000D01*
X142671313Y-111593177D01*
X142719976Y-111432758D01*
X142798995Y-111284924D01*
X142798996Y-111284922D01*
X142905341Y-111155341D01*
X143034922Y-111048996D01*
X143090618Y-111019226D01*
X143182758Y-110969976D01*
X143343177Y-110921313D01*
X143468196Y-110909000D01*
X143551804Y-110909000D01*
X143676823Y-110921313D01*
X143676823Y-110921313D01*
G37*
G36*
X133471600Y-109338989D02*
G01*
X133504652Y-109349015D01*
X133535103Y-109365292D01*
X133561799Y-109387201D01*
X133583708Y-109413897D01*
X133599985Y-109444348D01*
X133610011Y-109477400D01*
X133614000Y-109517903D01*
X133614000Y-110954097D01*
X133610011Y-110994600D01*
X133599985Y-111027652D01*
X133583708Y-111058103D01*
X133561799Y-111084799D01*
X133535103Y-111106708D01*
X133504652Y-111122985D01*
X133471600Y-111133011D01*
X133431097Y-111137000D01*
X131744903Y-111137000D01*
X131704400Y-111133011D01*
X131671348Y-111122985D01*
X131640897Y-111106708D01*
X131614201Y-111084799D01*
X131592292Y-111058103D01*
X131576015Y-111027652D01*
X131565989Y-110994600D01*
X131562000Y-110954097D01*
X131562000Y-109517903D01*
X131565989Y-109477400D01*
X131576015Y-109444348D01*
X131592292Y-109413897D01*
X131614201Y-109387201D01*
X131640897Y-109365292D01*
X131671348Y-109349015D01*
X131704400Y-109338989D01*
X131744903Y-109335000D01*
X133431097Y-109335000D01*
X133471600Y-109338989D01*
X133471600Y-109338989D01*
G37*
G36*
X161596416Y-108209879D02*
G01*
X161787592Y-108289067D01*
X161787594Y-108289068D01*
X161907220Y-108369000D01*
X161959648Y-108404031D01*
X162105969Y-108550352D01*
X162220933Y-108722408D01*
X162300121Y-108913584D01*
X162340490Y-109116534D01*
X162340490Y-109323466D01*
X162300121Y-109526416D01*
X162220933Y-109717592D01*
X162220932Y-109717594D01*
X162105969Y-109889648D01*
X161959648Y-110035969D01*
X161787594Y-110150932D01*
X161787593Y-110150933D01*
X161787592Y-110150933D01*
X161596416Y-110230121D01*
X161393466Y-110270490D01*
X161186534Y-110270490D01*
X160983584Y-110230121D01*
X160792408Y-110150933D01*
X160792407Y-110150933D01*
X160792406Y-110150932D01*
X160620352Y-110035969D01*
X160474031Y-109889648D01*
X160359068Y-109717594D01*
X160359067Y-109717592D01*
X160279879Y-109526416D01*
X160239510Y-109323466D01*
X160239510Y-109116534D01*
X160279879Y-108913584D01*
X160359067Y-108722408D01*
X160474031Y-108550352D01*
X160620352Y-108404031D01*
X160672780Y-108369000D01*
X160792406Y-108289068D01*
X160792408Y-108289067D01*
X160983584Y-108209879D01*
X161186534Y-108169510D01*
X161393466Y-108169510D01*
X161596416Y-108209879D01*
X161596416Y-108209879D01*
G37*
G36*
X141276416Y-108209879D02*
G01*
X141467592Y-108289067D01*
X141467594Y-108289068D01*
X141587220Y-108369000D01*
X141639648Y-108404031D01*
X141785969Y-108550352D01*
X141900933Y-108722408D01*
X141980121Y-108913584D01*
X142020490Y-109116534D01*
X142020490Y-109323466D01*
X141980121Y-109526416D01*
X141900933Y-109717592D01*
X141900932Y-109717594D01*
X141785969Y-109889648D01*
X141639648Y-110035969D01*
X141467594Y-110150932D01*
X141467593Y-110150933D01*
X141467592Y-110150933D01*
X141276416Y-110230121D01*
X141073466Y-110270490D01*
X140866534Y-110270490D01*
X140663584Y-110230121D01*
X140472408Y-110150933D01*
X140472407Y-110150933D01*
X140472406Y-110150932D01*
X140300352Y-110035969D01*
X140154031Y-109889648D01*
X140039068Y-109717594D01*
X140039067Y-109717592D01*
X139959879Y-109526416D01*
X139919510Y-109323466D01*
X139919510Y-109116534D01*
X139959879Y-108913584D01*
X140039067Y-108722408D01*
X140154031Y-108550352D01*
X140300352Y-108404031D01*
X140352780Y-108369000D01*
X140472406Y-108289068D01*
X140472408Y-108289067D01*
X140663584Y-108209879D01*
X140866534Y-108169510D01*
X141073466Y-108169510D01*
X141276416Y-108209879D01*
X141276416Y-108209879D01*
G37*
G36*
X158916823Y-108381313D02*
G01*
X159077242Y-108429976D01*
X159209906Y-108500886D01*
X159225078Y-108508996D01*
X159354659Y-108615341D01*
X159461004Y-108744922D01*
X159461005Y-108744924D01*
X159540024Y-108892758D01*
X159588687Y-109053177D01*
X159605117Y-109220000D01*
X159588687Y-109386823D01*
X159540024Y-109547242D01*
X159511824Y-109600000D01*
X159461004Y-109695078D01*
X159354659Y-109824659D01*
X159225078Y-109931004D01*
X159225076Y-109931005D01*
X159077242Y-110010024D01*
X158916823Y-110058687D01*
X158791804Y-110071000D01*
X158708196Y-110071000D01*
X158583177Y-110058687D01*
X158422758Y-110010024D01*
X158274924Y-109931005D01*
X158274922Y-109931004D01*
X158145341Y-109824659D01*
X158038996Y-109695078D01*
X157988176Y-109600000D01*
X157959976Y-109547242D01*
X157911313Y-109386823D01*
X157894883Y-109220000D01*
X157911313Y-109053177D01*
X157959976Y-108892758D01*
X158038995Y-108744924D01*
X158038996Y-108744922D01*
X158145341Y-108615341D01*
X158274922Y-108508996D01*
X158290094Y-108500886D01*
X158422758Y-108429976D01*
X158583177Y-108381313D01*
X158708196Y-108369000D01*
X158791804Y-108369000D01*
X158916823Y-108381313D01*
X158916823Y-108381313D01*
G37*
G36*
X143676823Y-108381313D02*
G01*
X143837242Y-108429976D01*
X143969906Y-108500886D01*
X143985078Y-108508996D01*
X144114659Y-108615341D01*
X144221004Y-108744922D01*
X144221005Y-108744924D01*
X144300024Y-108892758D01*
X144348687Y-109053177D01*
X144365117Y-109220000D01*
X144348687Y-109386823D01*
X144300024Y-109547242D01*
X144271824Y-109600000D01*
X144221004Y-109695078D01*
X144114659Y-109824659D01*
X143985078Y-109931004D01*
X143985076Y-109931005D01*
X143837242Y-110010024D01*
X143676823Y-110058687D01*
X143551804Y-110071000D01*
X143468196Y-110071000D01*
X143343177Y-110058687D01*
X143182758Y-110010024D01*
X143034924Y-109931005D01*
X143034922Y-109931004D01*
X142905341Y-109824659D01*
X142798996Y-109695078D01*
X142748176Y-109600000D01*
X142719976Y-109547242D01*
X142671313Y-109386823D01*
X142654883Y-109220000D01*
X142671313Y-109053177D01*
X142719976Y-108892758D01*
X142798995Y-108744924D01*
X142798996Y-108744922D01*
X142905341Y-108615341D01*
X143034922Y-108508996D01*
X143050094Y-108500886D01*
X143182758Y-108429976D01*
X143343177Y-108381313D01*
X143468196Y-108369000D01*
X143551804Y-108369000D01*
X143676823Y-108381313D01*
X143676823Y-108381313D01*
G37*
G36*
X161596416Y-105669879D02*
G01*
X161787592Y-105749067D01*
X161787594Y-105749068D01*
X161907220Y-105829000D01*
X161959648Y-105864031D01*
X162105969Y-106010352D01*
X162220933Y-106182408D01*
X162300121Y-106373584D01*
X162340490Y-106576534D01*
X162340490Y-106783466D01*
X162300121Y-106986416D01*
X162220933Y-107177592D01*
X162220932Y-107177594D01*
X162105969Y-107349648D01*
X161959648Y-107495969D01*
X161787594Y-107610932D01*
X161787593Y-107610933D01*
X161787592Y-107610933D01*
X161596416Y-107690121D01*
X161393466Y-107730490D01*
X161186534Y-107730490D01*
X160983584Y-107690121D01*
X160792408Y-107610933D01*
X160792407Y-107610933D01*
X160792406Y-107610932D01*
X160620352Y-107495969D01*
X160474031Y-107349648D01*
X160359068Y-107177594D01*
X160359067Y-107177592D01*
X160279879Y-106986416D01*
X160239510Y-106783466D01*
X160239510Y-106576534D01*
X160279879Y-106373584D01*
X160359067Y-106182408D01*
X160474031Y-106010352D01*
X160620352Y-105864031D01*
X160672780Y-105829000D01*
X160792406Y-105749068D01*
X160792408Y-105749067D01*
X160983584Y-105669879D01*
X161186534Y-105629510D01*
X161393466Y-105629510D01*
X161596416Y-105669879D01*
X161596416Y-105669879D01*
G37*
G36*
X141276416Y-105669879D02*
G01*
X141467592Y-105749067D01*
X141467594Y-105749068D01*
X141587220Y-105829000D01*
X141639648Y-105864031D01*
X141785969Y-106010352D01*
X141900933Y-106182408D01*
X141980121Y-106373584D01*
X142020490Y-106576534D01*
X142020490Y-106783466D01*
X141980121Y-106986416D01*
X141900933Y-107177592D01*
X141900932Y-107177594D01*
X141785969Y-107349648D01*
X141639648Y-107495969D01*
X141467594Y-107610932D01*
X141467593Y-107610933D01*
X141467592Y-107610933D01*
X141276416Y-107690121D01*
X141073466Y-107730490D01*
X140866534Y-107730490D01*
X140663584Y-107690121D01*
X140472408Y-107610933D01*
X140472407Y-107610933D01*
X140472406Y-107610932D01*
X140300352Y-107495969D01*
X140154031Y-107349648D01*
X140039068Y-107177594D01*
X140039067Y-107177592D01*
X139959879Y-106986416D01*
X139919510Y-106783466D01*
X139919510Y-106576534D01*
X139959879Y-106373584D01*
X140039067Y-106182408D01*
X140154031Y-106010352D01*
X140300352Y-105864031D01*
X140352780Y-105829000D01*
X140472406Y-105749068D01*
X140472408Y-105749067D01*
X140663584Y-105669879D01*
X140866534Y-105629510D01*
X141073466Y-105629510D01*
X141276416Y-105669879D01*
X141276416Y-105669879D01*
G37*
G36*
X158916823Y-105841313D02*
G01*
X159077242Y-105889976D01*
X159209906Y-105960886D01*
X159225078Y-105968996D01*
X159354659Y-106075341D01*
X159461004Y-106204922D01*
X159461005Y-106204924D01*
X159540024Y-106352758D01*
X159588687Y-106513177D01*
X159605117Y-106680000D01*
X159588687Y-106846823D01*
X159540024Y-107007242D01*
X159469114Y-107139906D01*
X159461004Y-107155078D01*
X159354659Y-107284659D01*
X159225078Y-107391004D01*
X159225076Y-107391005D01*
X159077242Y-107470024D01*
X158916823Y-107518687D01*
X158791804Y-107531000D01*
X158708196Y-107531000D01*
X158583177Y-107518687D01*
X158422758Y-107470024D01*
X158274924Y-107391005D01*
X158274922Y-107391004D01*
X158145341Y-107284659D01*
X158038996Y-107155078D01*
X158030886Y-107139906D01*
X157959976Y-107007242D01*
X157911313Y-106846823D01*
X157894883Y-106680000D01*
X157911313Y-106513177D01*
X157959976Y-106352758D01*
X158038995Y-106204924D01*
X158038996Y-106204922D01*
X158145341Y-106075341D01*
X158274922Y-105968996D01*
X158290094Y-105960886D01*
X158422758Y-105889976D01*
X158583177Y-105841313D01*
X158708196Y-105829000D01*
X158791804Y-105829000D01*
X158916823Y-105841313D01*
X158916823Y-105841313D01*
G37*
G36*
X143676823Y-105841313D02*
G01*
X143837242Y-105889976D01*
X143969906Y-105960886D01*
X143985078Y-105968996D01*
X144114659Y-106075341D01*
X144221004Y-106204922D01*
X144221005Y-106204924D01*
X144300024Y-106352758D01*
X144348687Y-106513177D01*
X144365117Y-106680000D01*
X144348687Y-106846823D01*
X144300024Y-107007242D01*
X144229114Y-107139906D01*
X144221004Y-107155078D01*
X144114659Y-107284659D01*
X143985078Y-107391004D01*
X143985076Y-107391005D01*
X143837242Y-107470024D01*
X143676823Y-107518687D01*
X143551804Y-107531000D01*
X143468196Y-107531000D01*
X143343177Y-107518687D01*
X143182758Y-107470024D01*
X143034924Y-107391005D01*
X143034922Y-107391004D01*
X142905341Y-107284659D01*
X142798996Y-107155078D01*
X142790886Y-107139906D01*
X142719976Y-107007242D01*
X142671313Y-106846823D01*
X142654883Y-106680000D01*
X142671313Y-106513177D01*
X142719976Y-106352758D01*
X142798995Y-106204924D01*
X142798996Y-106204922D01*
X142905341Y-106075341D01*
X143034922Y-105968996D01*
X143050094Y-105960886D01*
X143182758Y-105889976D01*
X143343177Y-105841313D01*
X143468196Y-105829000D01*
X143551804Y-105829000D01*
X143676823Y-105841313D01*
X143676823Y-105841313D01*
G37*
G36*
X141276416Y-103129879D02*
G01*
X141467592Y-103209067D01*
X141467594Y-103209068D01*
X141587220Y-103289000D01*
X141639648Y-103324031D01*
X141785969Y-103470352D01*
X141900933Y-103642408D01*
X141980121Y-103833584D01*
X142020490Y-104036534D01*
X142020490Y-104243466D01*
X141980121Y-104446416D01*
X141900933Y-104637592D01*
X141900932Y-104637594D01*
X141785969Y-104809648D01*
X141639648Y-104955969D01*
X141467594Y-105070932D01*
X141467593Y-105070933D01*
X141467592Y-105070933D01*
X141276416Y-105150121D01*
X141073466Y-105190490D01*
X140866534Y-105190490D01*
X140663584Y-105150121D01*
X140472408Y-105070933D01*
X140472407Y-105070933D01*
X140472406Y-105070932D01*
X140300352Y-104955969D01*
X140154031Y-104809648D01*
X140039068Y-104637594D01*
X140039067Y-104637592D01*
X139959879Y-104446416D01*
X139919510Y-104243466D01*
X139919510Y-104036534D01*
X139959879Y-103833584D01*
X140039067Y-103642408D01*
X140154031Y-103470352D01*
X140300352Y-103324031D01*
X140352780Y-103289000D01*
X140472406Y-103209068D01*
X140472408Y-103209067D01*
X140663584Y-103129879D01*
X140866534Y-103089510D01*
X141073466Y-103089510D01*
X141276416Y-103129879D01*
X141276416Y-103129879D01*
G37*
G36*
X161596416Y-103129879D02*
G01*
X161787592Y-103209067D01*
X161787594Y-103209068D01*
X161907220Y-103289000D01*
X161959648Y-103324031D01*
X162105969Y-103470352D01*
X162220933Y-103642408D01*
X162300121Y-103833584D01*
X162340490Y-104036534D01*
X162340490Y-104243466D01*
X162300121Y-104446416D01*
X162220933Y-104637592D01*
X162220932Y-104637594D01*
X162105969Y-104809648D01*
X161959648Y-104955969D01*
X161787594Y-105070932D01*
X161787593Y-105070933D01*
X161787592Y-105070933D01*
X161596416Y-105150121D01*
X161393466Y-105190490D01*
X161186534Y-105190490D01*
X160983584Y-105150121D01*
X160792408Y-105070933D01*
X160792407Y-105070933D01*
X160792406Y-105070932D01*
X160620352Y-104955969D01*
X160474031Y-104809648D01*
X160359068Y-104637594D01*
X160359067Y-104637592D01*
X160279879Y-104446416D01*
X160239510Y-104243466D01*
X160239510Y-104036534D01*
X160279879Y-103833584D01*
X160359067Y-103642408D01*
X160474031Y-103470352D01*
X160620352Y-103324031D01*
X160672780Y-103289000D01*
X160792406Y-103209068D01*
X160792408Y-103209067D01*
X160983584Y-103129879D01*
X161186534Y-103089510D01*
X161393466Y-103089510D01*
X161596416Y-103129879D01*
X161596416Y-103129879D01*
G37*
G36*
X158916823Y-103301313D02*
G01*
X159077242Y-103349976D01*
X159209906Y-103420886D01*
X159225078Y-103428996D01*
X159354659Y-103535341D01*
X159461004Y-103664922D01*
X159461005Y-103664924D01*
X159540024Y-103812758D01*
X159588687Y-103973177D01*
X159605117Y-104140000D01*
X159588687Y-104306823D01*
X159540024Y-104467242D01*
X159469114Y-104599906D01*
X159461004Y-104615078D01*
X159354659Y-104744659D01*
X159225078Y-104851004D01*
X159225076Y-104851005D01*
X159077242Y-104930024D01*
X158916823Y-104978687D01*
X158791804Y-104991000D01*
X158708196Y-104991000D01*
X158583177Y-104978687D01*
X158422758Y-104930024D01*
X158274924Y-104851005D01*
X158274922Y-104851004D01*
X158145341Y-104744659D01*
X158038996Y-104615078D01*
X158030886Y-104599906D01*
X157959976Y-104467242D01*
X157911313Y-104306823D01*
X157894883Y-104140000D01*
X157911313Y-103973177D01*
X157959976Y-103812758D01*
X158038995Y-103664924D01*
X158038996Y-103664922D01*
X158145341Y-103535341D01*
X158274922Y-103428996D01*
X158290094Y-103420886D01*
X158422758Y-103349976D01*
X158583177Y-103301313D01*
X158708196Y-103289000D01*
X158791804Y-103289000D01*
X158916823Y-103301313D01*
X158916823Y-103301313D01*
G37*
G36*
X143676823Y-103301313D02*
G01*
X143837242Y-103349976D01*
X143969906Y-103420886D01*
X143985078Y-103428996D01*
X144114659Y-103535341D01*
X144221004Y-103664922D01*
X144221005Y-103664924D01*
X144300024Y-103812758D01*
X144348687Y-103973177D01*
X144365117Y-104140000D01*
X144348687Y-104306823D01*
X144300024Y-104467242D01*
X144229114Y-104599906D01*
X144221004Y-104615078D01*
X144114659Y-104744659D01*
X143985078Y-104851004D01*
X143985076Y-104851005D01*
X143837242Y-104930024D01*
X143676823Y-104978687D01*
X143551804Y-104991000D01*
X143468196Y-104991000D01*
X143343177Y-104978687D01*
X143182758Y-104930024D01*
X143034924Y-104851005D01*
X143034922Y-104851004D01*
X142905341Y-104744659D01*
X142798996Y-104615078D01*
X142790886Y-104599906D01*
X142719976Y-104467242D01*
X142671313Y-104306823D01*
X142654883Y-104140000D01*
X142671313Y-103973177D01*
X142719976Y-103812758D01*
X142798995Y-103664924D01*
X142798996Y-103664922D01*
X142905341Y-103535341D01*
X143034922Y-103428996D01*
X143050094Y-103420886D01*
X143182758Y-103349976D01*
X143343177Y-103301313D01*
X143468196Y-103289000D01*
X143551804Y-103289000D01*
X143676823Y-103301313D01*
X143676823Y-103301313D01*
G37*
G36*
X132808025Y-101600000D02*
G01*
X132889627Y-101608037D01*
X133059466Y-101659557D01*
X133215991Y-101743222D01*
X133244749Y-101766823D01*
X133353186Y-101855814D01*
X133436448Y-101957271D01*
X133465778Y-101993009D01*
X133549443Y-102149534D01*
X133600963Y-102319373D01*
X133618359Y-102496000D01*
X133600963Y-102672627D01*
X133549443Y-102842466D01*
X133465778Y-102998991D01*
X133436448Y-103034729D01*
X133353186Y-103136186D01*
X133251729Y-103219448D01*
X133215991Y-103248778D01*
X133059466Y-103332443D01*
X132889627Y-103383963D01*
X132823442Y-103390482D01*
X132757260Y-103397000D01*
X132418740Y-103397000D01*
X132352558Y-103390482D01*
X132286373Y-103383963D01*
X132116534Y-103332443D01*
X131960009Y-103248778D01*
X131924271Y-103219448D01*
X131822814Y-103136186D01*
X131739552Y-103034729D01*
X131710222Y-102998991D01*
X131626557Y-102842466D01*
X131575037Y-102672627D01*
X131557641Y-102496000D01*
X131575037Y-102319373D01*
X131626557Y-102149534D01*
X131710222Y-101993009D01*
X131739552Y-101957271D01*
X131822814Y-101855814D01*
X131931251Y-101766823D01*
X131960009Y-101743222D01*
X132116534Y-101659557D01*
X132286373Y-101608037D01*
X132367975Y-101600000D01*
X132418740Y-101595000D01*
X132757260Y-101595000D01*
X132808025Y-101600000D01*
X132808025Y-101600000D01*
G37*
G36*
X161596416Y-100589879D02*
G01*
X161787592Y-100669067D01*
X161787594Y-100669068D01*
X161906888Y-100748778D01*
X161959648Y-100784031D01*
X162105969Y-100930352D01*
X162220933Y-101102408D01*
X162300121Y-101293584D01*
X162340490Y-101496534D01*
X162340490Y-101703466D01*
X162300121Y-101906416D01*
X162220933Y-102097592D01*
X162220932Y-102097594D01*
X162105969Y-102269648D01*
X161959648Y-102415969D01*
X161787594Y-102530932D01*
X161787593Y-102530933D01*
X161787592Y-102530933D01*
X161596416Y-102610121D01*
X161393466Y-102650490D01*
X161186534Y-102650490D01*
X160983584Y-102610121D01*
X160792408Y-102530933D01*
X160792407Y-102530933D01*
X160792406Y-102530932D01*
X160620352Y-102415969D01*
X160474031Y-102269648D01*
X160359068Y-102097594D01*
X160359067Y-102097592D01*
X160279879Y-101906416D01*
X160239510Y-101703466D01*
X160239510Y-101496534D01*
X160279879Y-101293584D01*
X160359067Y-101102408D01*
X160474031Y-100930352D01*
X160620352Y-100784031D01*
X160673112Y-100748778D01*
X160792406Y-100669068D01*
X160792408Y-100669067D01*
X160983584Y-100589879D01*
X161186534Y-100549510D01*
X161393466Y-100549510D01*
X161596416Y-100589879D01*
X161596416Y-100589879D01*
G37*
G36*
X141276416Y-100589879D02*
G01*
X141467592Y-100669067D01*
X141467594Y-100669068D01*
X141586888Y-100748778D01*
X141639648Y-100784031D01*
X141785969Y-100930352D01*
X141900933Y-101102408D01*
X141980121Y-101293584D01*
X142020490Y-101496534D01*
X142020490Y-101703466D01*
X141980121Y-101906416D01*
X141900933Y-102097592D01*
X141900932Y-102097594D01*
X141785969Y-102269648D01*
X141639648Y-102415969D01*
X141467594Y-102530932D01*
X141467593Y-102530933D01*
X141467592Y-102530933D01*
X141276416Y-102610121D01*
X141073466Y-102650490D01*
X140866534Y-102650490D01*
X140663584Y-102610121D01*
X140472408Y-102530933D01*
X140472407Y-102530933D01*
X140472406Y-102530932D01*
X140300352Y-102415969D01*
X140154031Y-102269648D01*
X140039068Y-102097594D01*
X140039067Y-102097592D01*
X139959879Y-101906416D01*
X139919510Y-101703466D01*
X139919510Y-101496534D01*
X139959879Y-101293584D01*
X140039067Y-101102408D01*
X140154031Y-100930352D01*
X140300352Y-100784031D01*
X140353112Y-100748778D01*
X140472406Y-100669068D01*
X140472408Y-100669067D01*
X140663584Y-100589879D01*
X140866534Y-100549510D01*
X141073466Y-100549510D01*
X141276416Y-100589879D01*
X141276416Y-100589879D01*
G37*
G36*
X158916823Y-100761313D02*
G01*
X159077242Y-100809976D01*
X159209906Y-100880886D01*
X159225078Y-100888996D01*
X159354659Y-100995341D01*
X159461004Y-101124922D01*
X159461005Y-101124924D01*
X159540024Y-101272758D01*
X159588687Y-101433177D01*
X159605117Y-101600000D01*
X159588687Y-101766823D01*
X159540024Y-101927242D01*
X159469114Y-102059906D01*
X159461004Y-102075078D01*
X159354659Y-102204659D01*
X159225078Y-102311004D01*
X159225076Y-102311005D01*
X159077242Y-102390024D01*
X158916823Y-102438687D01*
X158791804Y-102451000D01*
X158708196Y-102451000D01*
X158583177Y-102438687D01*
X158422758Y-102390024D01*
X158274924Y-102311005D01*
X158274922Y-102311004D01*
X158145341Y-102204659D01*
X158038996Y-102075078D01*
X158030886Y-102059906D01*
X157959976Y-101927242D01*
X157911313Y-101766823D01*
X157894883Y-101600000D01*
X157911313Y-101433177D01*
X157959976Y-101272758D01*
X158038995Y-101124924D01*
X158038996Y-101124922D01*
X158145341Y-100995341D01*
X158274922Y-100888996D01*
X158290094Y-100880886D01*
X158422758Y-100809976D01*
X158583177Y-100761313D01*
X158708196Y-100749000D01*
X158791804Y-100749000D01*
X158916823Y-100761313D01*
X158916823Y-100761313D01*
G37*
G36*
X143676823Y-100761313D02*
G01*
X143837242Y-100809976D01*
X143969906Y-100880886D01*
X143985078Y-100888996D01*
X144114659Y-100995341D01*
X144221004Y-101124922D01*
X144221005Y-101124924D01*
X144300024Y-101272758D01*
X144348687Y-101433177D01*
X144365117Y-101600000D01*
X144348687Y-101766823D01*
X144300024Y-101927242D01*
X144229114Y-102059906D01*
X144221004Y-102075078D01*
X144114659Y-102204659D01*
X143985078Y-102311004D01*
X143985076Y-102311005D01*
X143837242Y-102390024D01*
X143676823Y-102438687D01*
X143551804Y-102451000D01*
X143468196Y-102451000D01*
X143343177Y-102438687D01*
X143182758Y-102390024D01*
X143034924Y-102311005D01*
X143034922Y-102311004D01*
X142905341Y-102204659D01*
X142798996Y-102075078D01*
X142790886Y-102059906D01*
X142719976Y-101927242D01*
X142671313Y-101766823D01*
X142654883Y-101600000D01*
X142671313Y-101433177D01*
X142719976Y-101272758D01*
X142798995Y-101124924D01*
X142798996Y-101124922D01*
X142905341Y-100995341D01*
X143034922Y-100888996D01*
X143050094Y-100880886D01*
X143182758Y-100809976D01*
X143343177Y-100761313D01*
X143468196Y-100749000D01*
X143551804Y-100749000D01*
X143676823Y-100761313D01*
X143676823Y-100761313D01*
G37*
G36*
X132823442Y-99101518D02*
G01*
X132889627Y-99108037D01*
X133059466Y-99159557D01*
X133059468Y-99159558D01*
X133066779Y-99163466D01*
X133215991Y-99243222D01*
X133251729Y-99272552D01*
X133353186Y-99355814D01*
X133436448Y-99457271D01*
X133465778Y-99493009D01*
X133549443Y-99649534D01*
X133600963Y-99819373D01*
X133618359Y-99996000D01*
X133600963Y-100172627D01*
X133549443Y-100342466D01*
X133465778Y-100498991D01*
X133436448Y-100534729D01*
X133353186Y-100636186D01*
X133251729Y-100719448D01*
X133215991Y-100748778D01*
X133215989Y-100748779D01*
X133101499Y-100809976D01*
X133059466Y-100832443D01*
X132889627Y-100883963D01*
X132838535Y-100888995D01*
X132757260Y-100897000D01*
X132418740Y-100897000D01*
X132337465Y-100888995D01*
X132286373Y-100883963D01*
X132116534Y-100832443D01*
X132074502Y-100809976D01*
X131960011Y-100748779D01*
X131960009Y-100748778D01*
X131924271Y-100719448D01*
X131822814Y-100636186D01*
X131739552Y-100534729D01*
X131710222Y-100498991D01*
X131626557Y-100342466D01*
X131575037Y-100172627D01*
X131557641Y-99996000D01*
X131575037Y-99819373D01*
X131626557Y-99649534D01*
X131710222Y-99493009D01*
X131739552Y-99457271D01*
X131822814Y-99355814D01*
X131924271Y-99272552D01*
X131960009Y-99243222D01*
X132109221Y-99163466D01*
X132116532Y-99159558D01*
X132116534Y-99159557D01*
X132286373Y-99108037D01*
X132352558Y-99101518D01*
X132418740Y-99095000D01*
X132757260Y-99095000D01*
X132823442Y-99101518D01*
X132823442Y-99101518D01*
G37*
G36*
X167507600Y-98467789D02*
G01*
X167540652Y-98477815D01*
X167571103Y-98494092D01*
X167597799Y-98516001D01*
X167619708Y-98542697D01*
X167635985Y-98573148D01*
X167646011Y-98606200D01*
X167650000Y-98646703D01*
X167650000Y-100082897D01*
X167646011Y-100123400D01*
X167635985Y-100156452D01*
X167619708Y-100186903D01*
X167597799Y-100213599D01*
X167571103Y-100235508D01*
X167540652Y-100251785D01*
X167507600Y-100261811D01*
X167467097Y-100265800D01*
X165780903Y-100265800D01*
X165740400Y-100261811D01*
X165707348Y-100251785D01*
X165676897Y-100235508D01*
X165650201Y-100213599D01*
X165628292Y-100186903D01*
X165612015Y-100156452D01*
X165601989Y-100123400D01*
X165598000Y-100082897D01*
X165598000Y-98646703D01*
X165601989Y-98606200D01*
X165612015Y-98573148D01*
X165628292Y-98542697D01*
X165650201Y-98516001D01*
X165676897Y-98494092D01*
X165707348Y-98477815D01*
X165740400Y-98467789D01*
X165780903Y-98463800D01*
X167467097Y-98463800D01*
X167507600Y-98467789D01*
X167507600Y-98467789D01*
G37*
G36*
X141276416Y-98049879D02*
G01*
X141467592Y-98129067D01*
X141467594Y-98129068D01*
X141639648Y-98244031D01*
X141785969Y-98390352D01*
X141886908Y-98541417D01*
X141900933Y-98562408D01*
X141980121Y-98753584D01*
X142020490Y-98956534D01*
X142020490Y-99163466D01*
X141980121Y-99366416D01*
X141900933Y-99557592D01*
X141900932Y-99557594D01*
X141785969Y-99729648D01*
X141639648Y-99875969D01*
X141467594Y-99990932D01*
X141467593Y-99990933D01*
X141467592Y-99990933D01*
X141276416Y-100070121D01*
X141073466Y-100110490D01*
X140866534Y-100110490D01*
X140663584Y-100070121D01*
X140472408Y-99990933D01*
X140472407Y-99990933D01*
X140472406Y-99990932D01*
X140300352Y-99875969D01*
X140154031Y-99729648D01*
X140039068Y-99557594D01*
X140039067Y-99557592D01*
X139959879Y-99366416D01*
X139919510Y-99163466D01*
X139919510Y-98956534D01*
X139959879Y-98753584D01*
X140039067Y-98562408D01*
X140053093Y-98541417D01*
X140154031Y-98390352D01*
X140300352Y-98244031D01*
X140472406Y-98129068D01*
X140472408Y-98129067D01*
X140663584Y-98049879D01*
X140866534Y-98009510D01*
X141073466Y-98009510D01*
X141276416Y-98049879D01*
X141276416Y-98049879D01*
G37*
G36*
X161596416Y-98049879D02*
G01*
X161787592Y-98129067D01*
X161787594Y-98129068D01*
X161959648Y-98244031D01*
X162105969Y-98390352D01*
X162206908Y-98541417D01*
X162220933Y-98562408D01*
X162300121Y-98753584D01*
X162340490Y-98956534D01*
X162340490Y-99163466D01*
X162300121Y-99366416D01*
X162220933Y-99557592D01*
X162220932Y-99557594D01*
X162105969Y-99729648D01*
X161959648Y-99875969D01*
X161787594Y-99990932D01*
X161787593Y-99990933D01*
X161787592Y-99990933D01*
X161596416Y-100070121D01*
X161393466Y-100110490D01*
X161186534Y-100110490D01*
X160983584Y-100070121D01*
X160792408Y-99990933D01*
X160792407Y-99990933D01*
X160792406Y-99990932D01*
X160620352Y-99875969D01*
X160474031Y-99729648D01*
X160359068Y-99557594D01*
X160359067Y-99557592D01*
X160279879Y-99366416D01*
X160239510Y-99163466D01*
X160239510Y-98956534D01*
X160279879Y-98753584D01*
X160359067Y-98562408D01*
X160373093Y-98541417D01*
X160474031Y-98390352D01*
X160620352Y-98244031D01*
X160792406Y-98129068D01*
X160792408Y-98129067D01*
X160983584Y-98049879D01*
X161186534Y-98009510D01*
X161393466Y-98009510D01*
X161596416Y-98049879D01*
X161596416Y-98049879D01*
G37*
G36*
X143676823Y-98221313D02*
G01*
X143837242Y-98269976D01*
X143954109Y-98332443D01*
X143985078Y-98348996D01*
X144114659Y-98455341D01*
X144221004Y-98584922D01*
X144221005Y-98584924D01*
X144300024Y-98732758D01*
X144348687Y-98893177D01*
X144365117Y-99060000D01*
X144348687Y-99226823D01*
X144300024Y-99387242D01*
X144243490Y-99493009D01*
X144221004Y-99535078D01*
X144114659Y-99664659D01*
X143985078Y-99771004D01*
X143985076Y-99771005D01*
X143837242Y-99850024D01*
X143676823Y-99898687D01*
X143551804Y-99911000D01*
X143468196Y-99911000D01*
X143343177Y-99898687D01*
X143182758Y-99850024D01*
X143034924Y-99771005D01*
X143034922Y-99771004D01*
X142905341Y-99664659D01*
X142798996Y-99535078D01*
X142776510Y-99493009D01*
X142719976Y-99387242D01*
X142671313Y-99226823D01*
X142654883Y-99060000D01*
X142671313Y-98893177D01*
X142719976Y-98732758D01*
X142798995Y-98584924D01*
X142798996Y-98584922D01*
X142905341Y-98455341D01*
X143034922Y-98348996D01*
X143065891Y-98332443D01*
X143182758Y-98269976D01*
X143343177Y-98221313D01*
X143468196Y-98209000D01*
X143551804Y-98209000D01*
X143676823Y-98221313D01*
X143676823Y-98221313D01*
G37*
G36*
X158916823Y-98221313D02*
G01*
X159077242Y-98269976D01*
X159194109Y-98332443D01*
X159225078Y-98348996D01*
X159354659Y-98455341D01*
X159461004Y-98584922D01*
X159461005Y-98584924D01*
X159540024Y-98732758D01*
X159588687Y-98893177D01*
X159605117Y-99060000D01*
X159588687Y-99226823D01*
X159540024Y-99387242D01*
X159483490Y-99493009D01*
X159461004Y-99535078D01*
X159354659Y-99664659D01*
X159225078Y-99771004D01*
X159225076Y-99771005D01*
X159077242Y-99850024D01*
X158916823Y-99898687D01*
X158791804Y-99911000D01*
X158708196Y-99911000D01*
X158583177Y-99898687D01*
X158422758Y-99850024D01*
X158274924Y-99771005D01*
X158274922Y-99771004D01*
X158145341Y-99664659D01*
X158038996Y-99535078D01*
X158016510Y-99493009D01*
X157959976Y-99387242D01*
X157911313Y-99226823D01*
X157894883Y-99060000D01*
X157911313Y-98893177D01*
X157959976Y-98732758D01*
X158038995Y-98584924D01*
X158038996Y-98584922D01*
X158145341Y-98455341D01*
X158274922Y-98348996D01*
X158305891Y-98332443D01*
X158422758Y-98269976D01*
X158583177Y-98221313D01*
X158708196Y-98209000D01*
X158791804Y-98209000D01*
X158916823Y-98221313D01*
X158916823Y-98221313D01*
G37*
G36*
X132823443Y-96601519D02*
G01*
X132889627Y-96608037D01*
X133059466Y-96659557D01*
X133215991Y-96743222D01*
X133251729Y-96772552D01*
X133353186Y-96855814D01*
X133436448Y-96957271D01*
X133465778Y-96993009D01*
X133549443Y-97149534D01*
X133600963Y-97319373D01*
X133618359Y-97496000D01*
X133600963Y-97672627D01*
X133549443Y-97842466D01*
X133465778Y-97998991D01*
X133457145Y-98009510D01*
X133353186Y-98136186D01*
X133251729Y-98219448D01*
X133215991Y-98248778D01*
X133059466Y-98332443D01*
X132889627Y-98383963D01*
X132824757Y-98390352D01*
X132757260Y-98397000D01*
X132418740Y-98397000D01*
X132351243Y-98390352D01*
X132286373Y-98383963D01*
X132116534Y-98332443D01*
X131960009Y-98248778D01*
X131924271Y-98219448D01*
X131822814Y-98136186D01*
X131718855Y-98009510D01*
X131710222Y-97998991D01*
X131626557Y-97842466D01*
X131575037Y-97672627D01*
X131557641Y-97496000D01*
X131575037Y-97319373D01*
X131626557Y-97149534D01*
X131710222Y-96993009D01*
X131739552Y-96957271D01*
X131822814Y-96855814D01*
X131924271Y-96772552D01*
X131960009Y-96743222D01*
X132116534Y-96659557D01*
X132286373Y-96608037D01*
X132352557Y-96601519D01*
X132418740Y-96595000D01*
X132757260Y-96595000D01*
X132823443Y-96601519D01*
X132823443Y-96601519D01*
G37*
G36*
X166859442Y-95970318D02*
G01*
X166925627Y-95976837D01*
X167095466Y-96028357D01*
X167095468Y-96028358D01*
X167173729Y-96070190D01*
X167251991Y-96112022D01*
X167287729Y-96141352D01*
X167389186Y-96224614D01*
X167472448Y-96326071D01*
X167501778Y-96361809D01*
X167585443Y-96518334D01*
X167636963Y-96688173D01*
X167654359Y-96864800D01*
X167636963Y-97041427D01*
X167585443Y-97211266D01*
X167501778Y-97367791D01*
X167499144Y-97371000D01*
X167389186Y-97504986D01*
X167287729Y-97588248D01*
X167251991Y-97617578D01*
X167095466Y-97701243D01*
X166925627Y-97752763D01*
X166859443Y-97759281D01*
X166793260Y-97765800D01*
X166454740Y-97765800D01*
X166388558Y-97759282D01*
X166322373Y-97752763D01*
X166152534Y-97701243D01*
X165996009Y-97617578D01*
X165960271Y-97588248D01*
X165858814Y-97504986D01*
X165748856Y-97371000D01*
X165746222Y-97367791D01*
X165662557Y-97211266D01*
X165611037Y-97041427D01*
X165593641Y-96864800D01*
X165611037Y-96688173D01*
X165662557Y-96518334D01*
X165746222Y-96361809D01*
X165775552Y-96326071D01*
X165858814Y-96224614D01*
X165960271Y-96141352D01*
X165996009Y-96112022D01*
X166074271Y-96070190D01*
X166152532Y-96028358D01*
X166152534Y-96028357D01*
X166322373Y-95976837D01*
X166388557Y-95970319D01*
X166454740Y-95963800D01*
X166793260Y-95963800D01*
X166859442Y-95970318D01*
X166859442Y-95970318D01*
G37*
G36*
X161596416Y-95509879D02*
G01*
X161787592Y-95589067D01*
X161787594Y-95589068D01*
X161959648Y-95704031D01*
X162105969Y-95850352D01*
X162190484Y-95976837D01*
X162220933Y-96022408D01*
X162300121Y-96213584D01*
X162340490Y-96416534D01*
X162340490Y-96623466D01*
X162300121Y-96826416D01*
X162220933Y-97017592D01*
X162220932Y-97017594D01*
X162105969Y-97189648D01*
X161959648Y-97335969D01*
X161787594Y-97450932D01*
X161787593Y-97450933D01*
X161787592Y-97450933D01*
X161596416Y-97530121D01*
X161393466Y-97570490D01*
X161186534Y-97570490D01*
X160983584Y-97530121D01*
X160792408Y-97450933D01*
X160792407Y-97450933D01*
X160792406Y-97450932D01*
X160620352Y-97335969D01*
X160474031Y-97189648D01*
X160359068Y-97017594D01*
X160359067Y-97017592D01*
X160279879Y-96826416D01*
X160239510Y-96623466D01*
X160239510Y-96416534D01*
X160279879Y-96213584D01*
X160359067Y-96022408D01*
X160389517Y-95976837D01*
X160474031Y-95850352D01*
X160620352Y-95704031D01*
X160792406Y-95589068D01*
X160792408Y-95589067D01*
X160983584Y-95509879D01*
X161186534Y-95469510D01*
X161393466Y-95469510D01*
X161596416Y-95509879D01*
X161596416Y-95509879D01*
G37*
G36*
X141276416Y-95509879D02*
G01*
X141467592Y-95589067D01*
X141467594Y-95589068D01*
X141639648Y-95704031D01*
X141785969Y-95850352D01*
X141870484Y-95976837D01*
X141900933Y-96022408D01*
X141980121Y-96213584D01*
X142020490Y-96416534D01*
X142020490Y-96623466D01*
X141980121Y-96826416D01*
X141900933Y-97017592D01*
X141900932Y-97017594D01*
X141785969Y-97189648D01*
X141639648Y-97335969D01*
X141467594Y-97450932D01*
X141467593Y-97450933D01*
X141467592Y-97450933D01*
X141276416Y-97530121D01*
X141073466Y-97570490D01*
X140866534Y-97570490D01*
X140663584Y-97530121D01*
X140472408Y-97450933D01*
X140472407Y-97450933D01*
X140472406Y-97450932D01*
X140300352Y-97335969D01*
X140154031Y-97189648D01*
X140039068Y-97017594D01*
X140039067Y-97017592D01*
X139959879Y-96826416D01*
X139919510Y-96623466D01*
X139919510Y-96416534D01*
X139959879Y-96213584D01*
X140039067Y-96022408D01*
X140069517Y-95976837D01*
X140154031Y-95850352D01*
X140300352Y-95704031D01*
X140472406Y-95589068D01*
X140472408Y-95589067D01*
X140663584Y-95509879D01*
X140866534Y-95469510D01*
X141073466Y-95469510D01*
X141276416Y-95509879D01*
X141276416Y-95509879D01*
G37*
G36*
X143676823Y-95681313D02*
G01*
X143837242Y-95729976D01*
X143929382Y-95779226D01*
X143985078Y-95808996D01*
X144114659Y-95915341D01*
X144221004Y-96044922D01*
X144221005Y-96044924D01*
X144300024Y-96192758D01*
X144348687Y-96353177D01*
X144365117Y-96520000D01*
X144348687Y-96686823D01*
X144300024Y-96847242D01*
X144290639Y-96864800D01*
X144221004Y-96995078D01*
X144114659Y-97124659D01*
X143985078Y-97231004D01*
X143985076Y-97231005D01*
X143837242Y-97310024D01*
X143676823Y-97358687D01*
X143551804Y-97371000D01*
X143468196Y-97371000D01*
X143343177Y-97358687D01*
X143182758Y-97310024D01*
X143034924Y-97231005D01*
X143034922Y-97231004D01*
X142905341Y-97124659D01*
X142798996Y-96995078D01*
X142729361Y-96864800D01*
X142719976Y-96847242D01*
X142671313Y-96686823D01*
X142654883Y-96520000D01*
X142671313Y-96353177D01*
X142719976Y-96192758D01*
X142798995Y-96044924D01*
X142798996Y-96044922D01*
X142905341Y-95915341D01*
X143034922Y-95808996D01*
X143090618Y-95779226D01*
X143182758Y-95729976D01*
X143343177Y-95681313D01*
X143468196Y-95669000D01*
X143551804Y-95669000D01*
X143676823Y-95681313D01*
X143676823Y-95681313D01*
G37*
G36*
X158916823Y-95681313D02*
G01*
X159077242Y-95729976D01*
X159169382Y-95779226D01*
X159225078Y-95808996D01*
X159354659Y-95915341D01*
X159461004Y-96044922D01*
X159461005Y-96044924D01*
X159540024Y-96192758D01*
X159588687Y-96353177D01*
X159605117Y-96520000D01*
X159588687Y-96686823D01*
X159540024Y-96847242D01*
X159530639Y-96864800D01*
X159461004Y-96995078D01*
X159354659Y-97124659D01*
X159225078Y-97231004D01*
X159225076Y-97231005D01*
X159077242Y-97310024D01*
X158916823Y-97358687D01*
X158791804Y-97371000D01*
X158708196Y-97371000D01*
X158583177Y-97358687D01*
X158422758Y-97310024D01*
X158274924Y-97231005D01*
X158274922Y-97231004D01*
X158145341Y-97124659D01*
X158038996Y-96995078D01*
X157969361Y-96864800D01*
X157959976Y-96847242D01*
X157911313Y-96686823D01*
X157894883Y-96520000D01*
X157911313Y-96353177D01*
X157959976Y-96192758D01*
X158038995Y-96044924D01*
X158038996Y-96044922D01*
X158145341Y-95915341D01*
X158274922Y-95808996D01*
X158330618Y-95779226D01*
X158422758Y-95729976D01*
X158583177Y-95681313D01*
X158708196Y-95669000D01*
X158791804Y-95669000D01*
X158916823Y-95681313D01*
X158916823Y-95681313D01*
G37*
G36*
X133471600Y-94098989D02*
G01*
X133504652Y-94109015D01*
X133535103Y-94125292D01*
X133561799Y-94147201D01*
X133583708Y-94173897D01*
X133599985Y-94204348D01*
X133610011Y-94237400D01*
X133614000Y-94277903D01*
X133614000Y-95714097D01*
X133610011Y-95754600D01*
X133599985Y-95787652D01*
X133583708Y-95818103D01*
X133561799Y-95844799D01*
X133535103Y-95866708D01*
X133504652Y-95882985D01*
X133471600Y-95893011D01*
X133431097Y-95897000D01*
X131744903Y-95897000D01*
X131704400Y-95893011D01*
X131671348Y-95882985D01*
X131640897Y-95866708D01*
X131614201Y-95844799D01*
X131592292Y-95818103D01*
X131576015Y-95787652D01*
X131565989Y-95754600D01*
X131562000Y-95714097D01*
X131562000Y-94277903D01*
X131565989Y-94237400D01*
X131576015Y-94204348D01*
X131592292Y-94173897D01*
X131614201Y-94147201D01*
X131640897Y-94125292D01*
X131671348Y-94109015D01*
X131704400Y-94098989D01*
X131744903Y-94095000D01*
X133431097Y-94095000D01*
X133471600Y-94098989D01*
X133471600Y-94098989D01*
G37*
G36*
X166859443Y-93470319D02*
G01*
X166925627Y-93476837D01*
X167095466Y-93528357D01*
X167251991Y-93612022D01*
X167287729Y-93641352D01*
X167389186Y-93724614D01*
X167472448Y-93826071D01*
X167501778Y-93861809D01*
X167585443Y-94018334D01*
X167636963Y-94188173D01*
X167654359Y-94364800D01*
X167636963Y-94541427D01*
X167585443Y-94711266D01*
X167501778Y-94867791D01*
X167472448Y-94903529D01*
X167389186Y-95004986D01*
X167287729Y-95088248D01*
X167251991Y-95117578D01*
X167095466Y-95201243D01*
X166925627Y-95252763D01*
X166859443Y-95259281D01*
X166793260Y-95265800D01*
X166454740Y-95265800D01*
X166388558Y-95259282D01*
X166322373Y-95252763D01*
X166152534Y-95201243D01*
X165996009Y-95117578D01*
X165960271Y-95088248D01*
X165858814Y-95004986D01*
X165775552Y-94903529D01*
X165746222Y-94867791D01*
X165662557Y-94711266D01*
X165611037Y-94541427D01*
X165593641Y-94364800D01*
X165611037Y-94188173D01*
X165662557Y-94018334D01*
X165746222Y-93861809D01*
X165775552Y-93826071D01*
X165858814Y-93724614D01*
X165960271Y-93641352D01*
X165996009Y-93612022D01*
X166152534Y-93528357D01*
X166322373Y-93476837D01*
X166388557Y-93470319D01*
X166454740Y-93463800D01*
X166793260Y-93463800D01*
X166859443Y-93470319D01*
X166859443Y-93470319D01*
G37*
G36*
X161596416Y-92969879D02*
G01*
X161787592Y-93049067D01*
X161787594Y-93049068D01*
X161907220Y-93129000D01*
X161959648Y-93164031D01*
X162105969Y-93310352D01*
X162220933Y-93482408D01*
X162300121Y-93673584D01*
X162340490Y-93876534D01*
X162340490Y-94083466D01*
X162300121Y-94286416D01*
X162220933Y-94477592D01*
X162220932Y-94477594D01*
X162105969Y-94649648D01*
X161959648Y-94795969D01*
X161787594Y-94910932D01*
X161787593Y-94910933D01*
X161787592Y-94910933D01*
X161596416Y-94990121D01*
X161393466Y-95030490D01*
X161186534Y-95030490D01*
X160983584Y-94990121D01*
X160792408Y-94910933D01*
X160792407Y-94910933D01*
X160792406Y-94910932D01*
X160620352Y-94795969D01*
X160474031Y-94649648D01*
X160359068Y-94477594D01*
X160359067Y-94477592D01*
X160279879Y-94286416D01*
X160239510Y-94083466D01*
X160239510Y-93876534D01*
X160279879Y-93673584D01*
X160359067Y-93482408D01*
X160474031Y-93310352D01*
X160620352Y-93164031D01*
X160672780Y-93129000D01*
X160792406Y-93049068D01*
X160792408Y-93049067D01*
X160983584Y-92969879D01*
X161186534Y-92929510D01*
X161393466Y-92929510D01*
X161596416Y-92969879D01*
X161596416Y-92969879D01*
G37*
G36*
X141276416Y-92969879D02*
G01*
X141467592Y-93049067D01*
X141467594Y-93049068D01*
X141587220Y-93129000D01*
X141639648Y-93164031D01*
X141785969Y-93310352D01*
X141900933Y-93482408D01*
X141980121Y-93673584D01*
X142020490Y-93876534D01*
X142020490Y-94083466D01*
X141980121Y-94286416D01*
X141900933Y-94477592D01*
X141900932Y-94477594D01*
X141785969Y-94649648D01*
X141639648Y-94795969D01*
X141467594Y-94910932D01*
X141467593Y-94910933D01*
X141467592Y-94910933D01*
X141276416Y-94990121D01*
X141073466Y-95030490D01*
X140866534Y-95030490D01*
X140663584Y-94990121D01*
X140472408Y-94910933D01*
X140472407Y-94910933D01*
X140472406Y-94910932D01*
X140300352Y-94795969D01*
X140154031Y-94649648D01*
X140039068Y-94477594D01*
X140039067Y-94477592D01*
X139959879Y-94286416D01*
X139919510Y-94083466D01*
X139919510Y-93876534D01*
X139959879Y-93673584D01*
X140039067Y-93482408D01*
X140154031Y-93310352D01*
X140300352Y-93164031D01*
X140352780Y-93129000D01*
X140472406Y-93049068D01*
X140472408Y-93049067D01*
X140663584Y-92969879D01*
X140866534Y-92929510D01*
X141073466Y-92929510D01*
X141276416Y-92969879D01*
X141276416Y-92969879D01*
G37*
G36*
X158916823Y-93141313D02*
G01*
X159077242Y-93189976D01*
X159209906Y-93260886D01*
X159225078Y-93268996D01*
X159354659Y-93375341D01*
X159461004Y-93504922D01*
X159461005Y-93504924D01*
X159540024Y-93652758D01*
X159588687Y-93813177D01*
X159605117Y-93980000D01*
X159588687Y-94146823D01*
X159540024Y-94307242D01*
X159469114Y-94439906D01*
X159461004Y-94455078D01*
X159354659Y-94584659D01*
X159225078Y-94691004D01*
X159225076Y-94691005D01*
X159077242Y-94770024D01*
X158916823Y-94818687D01*
X158791804Y-94831000D01*
X158708196Y-94831000D01*
X158583177Y-94818687D01*
X158422758Y-94770024D01*
X158274924Y-94691005D01*
X158274922Y-94691004D01*
X158145341Y-94584659D01*
X158038996Y-94455078D01*
X158030886Y-94439906D01*
X157959976Y-94307242D01*
X157911313Y-94146823D01*
X157894883Y-93980000D01*
X157911313Y-93813177D01*
X157959976Y-93652758D01*
X158038995Y-93504924D01*
X158038996Y-93504922D01*
X158145341Y-93375341D01*
X158274922Y-93268996D01*
X158290094Y-93260886D01*
X158422758Y-93189976D01*
X158583177Y-93141313D01*
X158708196Y-93129000D01*
X158791804Y-93129000D01*
X158916823Y-93141313D01*
X158916823Y-93141313D01*
G37*
G36*
X143676823Y-93141313D02*
G01*
X143837242Y-93189976D01*
X143969906Y-93260886D01*
X143985078Y-93268996D01*
X144114659Y-93375341D01*
X144221004Y-93504922D01*
X144221005Y-93504924D01*
X144300024Y-93652758D01*
X144348687Y-93813177D01*
X144365117Y-93980000D01*
X144348687Y-94146823D01*
X144300024Y-94307242D01*
X144229114Y-94439906D01*
X144221004Y-94455078D01*
X144114659Y-94584659D01*
X143985078Y-94691004D01*
X143985076Y-94691005D01*
X143837242Y-94770024D01*
X143676823Y-94818687D01*
X143551804Y-94831000D01*
X143468196Y-94831000D01*
X143343177Y-94818687D01*
X143182758Y-94770024D01*
X143034924Y-94691005D01*
X143034922Y-94691004D01*
X142905341Y-94584659D01*
X142798996Y-94455078D01*
X142790886Y-94439906D01*
X142719976Y-94307242D01*
X142671313Y-94146823D01*
X142654883Y-93980000D01*
X142671313Y-93813177D01*
X142719976Y-93652758D01*
X142798995Y-93504924D01*
X142798996Y-93504922D01*
X142905341Y-93375341D01*
X143034922Y-93268996D01*
X143050094Y-93260886D01*
X143182758Y-93189976D01*
X143343177Y-93141313D01*
X143468196Y-93129000D01*
X143551804Y-93129000D01*
X143676823Y-93141313D01*
X143676823Y-93141313D01*
G37*
G36*
X166859443Y-90970319D02*
G01*
X166925627Y-90976837D01*
X167095466Y-91028357D01*
X167251991Y-91112022D01*
X167252891Y-91112761D01*
X167389186Y-91224614D01*
X167472448Y-91326071D01*
X167501778Y-91361809D01*
X167585443Y-91518334D01*
X167636963Y-91688173D01*
X167654359Y-91864800D01*
X167636963Y-92041427D01*
X167585443Y-92211266D01*
X167501778Y-92367791D01*
X167499200Y-92370932D01*
X167389186Y-92504986D01*
X167287729Y-92588248D01*
X167251991Y-92617578D01*
X167095466Y-92701243D01*
X166925627Y-92752763D01*
X166859443Y-92759281D01*
X166793260Y-92765800D01*
X166454740Y-92765800D01*
X166388558Y-92759282D01*
X166322373Y-92752763D01*
X166152534Y-92701243D01*
X165996009Y-92617578D01*
X165960271Y-92588248D01*
X165858814Y-92504986D01*
X165748800Y-92370932D01*
X165746222Y-92367791D01*
X165662557Y-92211266D01*
X165611037Y-92041427D01*
X165593641Y-91864800D01*
X165611037Y-91688173D01*
X165662557Y-91518334D01*
X165746222Y-91361809D01*
X165775552Y-91326071D01*
X165858814Y-91224614D01*
X165995109Y-91112761D01*
X165996009Y-91112022D01*
X166152534Y-91028357D01*
X166322373Y-90976837D01*
X166388557Y-90970319D01*
X166454740Y-90963800D01*
X166793260Y-90963800D01*
X166859443Y-90970319D01*
X166859443Y-90970319D01*
G37*
G36*
X161596416Y-90429879D02*
G01*
X161787592Y-90509067D01*
X161787594Y-90509068D01*
X161907220Y-90589000D01*
X161959648Y-90624031D01*
X162105969Y-90770352D01*
X162220933Y-90942408D01*
X162300121Y-91133584D01*
X162340490Y-91336534D01*
X162340490Y-91543466D01*
X162300121Y-91746416D01*
X162220933Y-91937592D01*
X162220932Y-91937594D01*
X162105969Y-92109648D01*
X161959648Y-92255969D01*
X161787594Y-92370932D01*
X161787593Y-92370933D01*
X161787592Y-92370933D01*
X161596416Y-92450121D01*
X161393466Y-92490490D01*
X161186534Y-92490490D01*
X160983584Y-92450121D01*
X160792408Y-92370933D01*
X160792407Y-92370933D01*
X160792406Y-92370932D01*
X160620352Y-92255969D01*
X160474031Y-92109648D01*
X160359068Y-91937594D01*
X160359067Y-91937592D01*
X160279879Y-91746416D01*
X160239510Y-91543466D01*
X160239510Y-91336534D01*
X160279879Y-91133584D01*
X160359067Y-90942408D01*
X160474031Y-90770352D01*
X160620352Y-90624031D01*
X160672780Y-90589000D01*
X160792406Y-90509068D01*
X160792408Y-90509067D01*
X160983584Y-90429879D01*
X161186534Y-90389510D01*
X161393466Y-90389510D01*
X161596416Y-90429879D01*
X161596416Y-90429879D01*
G37*
G36*
X141276416Y-90429879D02*
G01*
X141467592Y-90509067D01*
X141467594Y-90509068D01*
X141587220Y-90589000D01*
X141639648Y-90624031D01*
X141785969Y-90770352D01*
X141900933Y-90942408D01*
X141980121Y-91133584D01*
X142020490Y-91336534D01*
X142020490Y-91543466D01*
X141980121Y-91746416D01*
X141900933Y-91937592D01*
X141900932Y-91937594D01*
X141785969Y-92109648D01*
X141639648Y-92255969D01*
X141467594Y-92370932D01*
X141467593Y-92370933D01*
X141467592Y-92370933D01*
X141276416Y-92450121D01*
X141073466Y-92490490D01*
X140866534Y-92490490D01*
X140663584Y-92450121D01*
X140472408Y-92370933D01*
X140472407Y-92370933D01*
X140472406Y-92370932D01*
X140300352Y-92255969D01*
X140154031Y-92109648D01*
X140039068Y-91937594D01*
X140039067Y-91937592D01*
X139959879Y-91746416D01*
X139919510Y-91543466D01*
X139919510Y-91336534D01*
X139959879Y-91133584D01*
X140039067Y-90942408D01*
X140154031Y-90770352D01*
X140300352Y-90624031D01*
X140352780Y-90589000D01*
X140472406Y-90509068D01*
X140472408Y-90509067D01*
X140663584Y-90429879D01*
X140866534Y-90389510D01*
X141073466Y-90389510D01*
X141276416Y-90429879D01*
X141276416Y-90429879D01*
G37*
G36*
X143676823Y-90601313D02*
G01*
X143837242Y-90649976D01*
X143969906Y-90720886D01*
X143985078Y-90728996D01*
X144114659Y-90835341D01*
X144221004Y-90964922D01*
X144221005Y-90964924D01*
X144300024Y-91112758D01*
X144348687Y-91273177D01*
X144365117Y-91440000D01*
X144348687Y-91606823D01*
X144300024Y-91767242D01*
X144247878Y-91864800D01*
X144221004Y-91915078D01*
X144114659Y-92044659D01*
X143985078Y-92151004D01*
X143985076Y-92151005D01*
X143837242Y-92230024D01*
X143676823Y-92278687D01*
X143551804Y-92291000D01*
X143468196Y-92291000D01*
X143343177Y-92278687D01*
X143182758Y-92230024D01*
X143034924Y-92151005D01*
X143034922Y-92151004D01*
X142905341Y-92044659D01*
X142798996Y-91915078D01*
X142772122Y-91864800D01*
X142719976Y-91767242D01*
X142671313Y-91606823D01*
X142654883Y-91440000D01*
X142671313Y-91273177D01*
X142719976Y-91112758D01*
X142798995Y-90964924D01*
X142798996Y-90964922D01*
X142905341Y-90835341D01*
X143034922Y-90728996D01*
X143050094Y-90720886D01*
X143182758Y-90649976D01*
X143343177Y-90601313D01*
X143468196Y-90589000D01*
X143551804Y-90589000D01*
X143676823Y-90601313D01*
X143676823Y-90601313D01*
G37*
G36*
X158916823Y-90601313D02*
G01*
X159077242Y-90649976D01*
X159209906Y-90720886D01*
X159225078Y-90728996D01*
X159354659Y-90835341D01*
X159461004Y-90964922D01*
X159461005Y-90964924D01*
X159540024Y-91112758D01*
X159588687Y-91273177D01*
X159605117Y-91440000D01*
X159588687Y-91606823D01*
X159540024Y-91767242D01*
X159487878Y-91864800D01*
X159461004Y-91915078D01*
X159354659Y-92044659D01*
X159225078Y-92151004D01*
X159225076Y-92151005D01*
X159077242Y-92230024D01*
X158916823Y-92278687D01*
X158791804Y-92291000D01*
X158708196Y-92291000D01*
X158583177Y-92278687D01*
X158422758Y-92230024D01*
X158274924Y-92151005D01*
X158274922Y-92151004D01*
X158145341Y-92044659D01*
X158038996Y-91915078D01*
X158012122Y-91864800D01*
X157959976Y-91767242D01*
X157911313Y-91606823D01*
X157894883Y-91440000D01*
X157911313Y-91273177D01*
X157959976Y-91112758D01*
X158038995Y-90964924D01*
X158038996Y-90964922D01*
X158145341Y-90835341D01*
X158274922Y-90728996D01*
X158290094Y-90720886D01*
X158422758Y-90649976D01*
X158583177Y-90601313D01*
X158708196Y-90589000D01*
X158791804Y-90589000D01*
X158916823Y-90601313D01*
X158916823Y-90601313D01*
G37*
G36*
X161596416Y-87889879D02*
G01*
X161787592Y-87969067D01*
X161787594Y-87969068D01*
X161959648Y-88084031D01*
X162105969Y-88230352D01*
X162183539Y-88346443D01*
X162220933Y-88402408D01*
X162300121Y-88593584D01*
X162340490Y-88796534D01*
X162340490Y-89003466D01*
X162300121Y-89206416D01*
X162220933Y-89397592D01*
X162220932Y-89397594D01*
X162105969Y-89569648D01*
X161959648Y-89715969D01*
X161787594Y-89830932D01*
X161787593Y-89830933D01*
X161787592Y-89830933D01*
X161596416Y-89910121D01*
X161393466Y-89950490D01*
X161186534Y-89950490D01*
X160983584Y-89910121D01*
X160792408Y-89830933D01*
X160792407Y-89830933D01*
X160792406Y-89830932D01*
X160620352Y-89715969D01*
X160474031Y-89569648D01*
X160359068Y-89397594D01*
X160359067Y-89397592D01*
X160279879Y-89206416D01*
X160239510Y-89003466D01*
X160239510Y-88796534D01*
X160279879Y-88593584D01*
X160359067Y-88402408D01*
X160396462Y-88346443D01*
X160474031Y-88230352D01*
X160620352Y-88084031D01*
X160792406Y-87969068D01*
X160792408Y-87969067D01*
X160983584Y-87889879D01*
X161186534Y-87849510D01*
X161393466Y-87849510D01*
X161596416Y-87889879D01*
X161596416Y-87889879D01*
G37*
G36*
X141276416Y-87889879D02*
G01*
X141467592Y-87969067D01*
X141467594Y-87969068D01*
X141639648Y-88084031D01*
X141785969Y-88230352D01*
X141863539Y-88346443D01*
X141900933Y-88402408D01*
X141980121Y-88593584D01*
X142020490Y-88796534D01*
X142020490Y-89003466D01*
X141980121Y-89206416D01*
X141900933Y-89397592D01*
X141900932Y-89397594D01*
X141785969Y-89569648D01*
X141639648Y-89715969D01*
X141467594Y-89830932D01*
X141467593Y-89830933D01*
X141467592Y-89830933D01*
X141276416Y-89910121D01*
X141073466Y-89950490D01*
X140866534Y-89950490D01*
X140663584Y-89910121D01*
X140472408Y-89830933D01*
X140472407Y-89830933D01*
X140472406Y-89830932D01*
X140300352Y-89715969D01*
X140154031Y-89569648D01*
X140039068Y-89397594D01*
X140039067Y-89397592D01*
X139959879Y-89206416D01*
X139919510Y-89003466D01*
X139919510Y-88796534D01*
X139959879Y-88593584D01*
X140039067Y-88402408D01*
X140076462Y-88346443D01*
X140154031Y-88230352D01*
X140300352Y-88084031D01*
X140472406Y-87969068D01*
X140472408Y-87969067D01*
X140663584Y-87889879D01*
X140866534Y-87849510D01*
X141073466Y-87849510D01*
X141276416Y-87889879D01*
X141276416Y-87889879D01*
G37*
G36*
X143676823Y-88061313D02*
G01*
X143837242Y-88109976D01*
X143969906Y-88180886D01*
X143985078Y-88188996D01*
X144114659Y-88295341D01*
X144221004Y-88424922D01*
X144221005Y-88424924D01*
X144300024Y-88572758D01*
X144348687Y-88733177D01*
X144365117Y-88900000D01*
X144348687Y-89066823D01*
X144300024Y-89227242D01*
X144229114Y-89359906D01*
X144221004Y-89375078D01*
X144114659Y-89504659D01*
X143985078Y-89611004D01*
X143985076Y-89611005D01*
X143837242Y-89690024D01*
X143676823Y-89738687D01*
X143551804Y-89751000D01*
X143468196Y-89751000D01*
X143343177Y-89738687D01*
X143182758Y-89690024D01*
X143034924Y-89611005D01*
X143034922Y-89611004D01*
X142905341Y-89504659D01*
X142798996Y-89375078D01*
X142790886Y-89359906D01*
X142719976Y-89227242D01*
X142671313Y-89066823D01*
X142654883Y-88900000D01*
X142671313Y-88733177D01*
X142719976Y-88572758D01*
X142798995Y-88424924D01*
X142798996Y-88424922D01*
X142905341Y-88295341D01*
X143034922Y-88188996D01*
X143050094Y-88180886D01*
X143182758Y-88109976D01*
X143343177Y-88061313D01*
X143468196Y-88049000D01*
X143551804Y-88049000D01*
X143676823Y-88061313D01*
X143676823Y-88061313D01*
G37*
G36*
X158916823Y-88061313D02*
G01*
X159077242Y-88109976D01*
X159209906Y-88180886D01*
X159225078Y-88188996D01*
X159354659Y-88295341D01*
X159461004Y-88424922D01*
X159461005Y-88424924D01*
X159540024Y-88572758D01*
X159588687Y-88733177D01*
X159605117Y-88900000D01*
X159588687Y-89066823D01*
X159540024Y-89227242D01*
X159469114Y-89359906D01*
X159461004Y-89375078D01*
X159354659Y-89504659D01*
X159225078Y-89611004D01*
X159225076Y-89611005D01*
X159077242Y-89690024D01*
X158916823Y-89738687D01*
X158791804Y-89751000D01*
X158708196Y-89751000D01*
X158583177Y-89738687D01*
X158422758Y-89690024D01*
X158274924Y-89611005D01*
X158274922Y-89611004D01*
X158145341Y-89504659D01*
X158038996Y-89375078D01*
X158030886Y-89359906D01*
X157959976Y-89227242D01*
X157911313Y-89066823D01*
X157894883Y-88900000D01*
X157911313Y-88733177D01*
X157959976Y-88572758D01*
X158038995Y-88424924D01*
X158038996Y-88424922D01*
X158145341Y-88295341D01*
X158274922Y-88188996D01*
X158290094Y-88180886D01*
X158422758Y-88109976D01*
X158583177Y-88061313D01*
X158708196Y-88049000D01*
X158791804Y-88049000D01*
X158916823Y-88061313D01*
X158916823Y-88061313D01*
G37*
G36*
X132823443Y-86615519D02*
G01*
X132889627Y-86622037D01*
X133059466Y-86673557D01*
X133215991Y-86757222D01*
X133251729Y-86786552D01*
X133353186Y-86869814D01*
X133431022Y-86964659D01*
X133465778Y-87007009D01*
X133549443Y-87163534D01*
X133600963Y-87333373D01*
X133618359Y-87510000D01*
X133600963Y-87686627D01*
X133549443Y-87856466D01*
X133465778Y-88012991D01*
X133436448Y-88048729D01*
X133353186Y-88150186D01*
X133255502Y-88230352D01*
X133215991Y-88262778D01*
X133059466Y-88346443D01*
X132889627Y-88397963D01*
X132844495Y-88402408D01*
X132757260Y-88411000D01*
X132418740Y-88411000D01*
X132331505Y-88402408D01*
X132286373Y-88397963D01*
X132116534Y-88346443D01*
X131960009Y-88262778D01*
X131920498Y-88230352D01*
X131822814Y-88150186D01*
X131739552Y-88048729D01*
X131710222Y-88012991D01*
X131626557Y-87856466D01*
X131575037Y-87686627D01*
X131557641Y-87510000D01*
X131575037Y-87333373D01*
X131626557Y-87163534D01*
X131710222Y-87007009D01*
X131744978Y-86964659D01*
X131822814Y-86869814D01*
X131924271Y-86786552D01*
X131960009Y-86757222D01*
X132116534Y-86673557D01*
X132286373Y-86622037D01*
X132352557Y-86615519D01*
X132418740Y-86609000D01*
X132757260Y-86609000D01*
X132823443Y-86615519D01*
X132823443Y-86615519D01*
G37*
G36*
X141276416Y-85349879D02*
G01*
X141467592Y-85429067D01*
X141467594Y-85429068D01*
X141639648Y-85544031D01*
X141785969Y-85690352D01*
X141834363Y-85762778D01*
X141900933Y-85862408D01*
X141980121Y-86053584D01*
X142020490Y-86256534D01*
X142020490Y-86463466D01*
X141980121Y-86666416D01*
X141900933Y-86857592D01*
X141900932Y-86857594D01*
X141785969Y-87029648D01*
X141639648Y-87175969D01*
X141467594Y-87290932D01*
X141467593Y-87290933D01*
X141467592Y-87290933D01*
X141276416Y-87370121D01*
X141073466Y-87410490D01*
X140866534Y-87410490D01*
X140663584Y-87370121D01*
X140472408Y-87290933D01*
X140472407Y-87290933D01*
X140472406Y-87290932D01*
X140300352Y-87175969D01*
X140154031Y-87029648D01*
X140039068Y-86857594D01*
X140039067Y-86857592D01*
X139959879Y-86666416D01*
X139919510Y-86463466D01*
X139919510Y-86256534D01*
X139959879Y-86053584D01*
X140039067Y-85862408D01*
X140105638Y-85762778D01*
X140154031Y-85690352D01*
X140300352Y-85544031D01*
X140472406Y-85429068D01*
X140472408Y-85429067D01*
X140663584Y-85349879D01*
X140866534Y-85309510D01*
X141073466Y-85309510D01*
X141276416Y-85349879D01*
X141276416Y-85349879D01*
G37*
G36*
X161596416Y-85349879D02*
G01*
X161787592Y-85429067D01*
X161787594Y-85429068D01*
X161959648Y-85544031D01*
X162105969Y-85690352D01*
X162154363Y-85762778D01*
X162220933Y-85862408D01*
X162300121Y-86053584D01*
X162340490Y-86256534D01*
X162340490Y-86463466D01*
X162300121Y-86666416D01*
X162220933Y-86857592D01*
X162220932Y-86857594D01*
X162105969Y-87029648D01*
X161959648Y-87175969D01*
X161787594Y-87290932D01*
X161787593Y-87290933D01*
X161787592Y-87290933D01*
X161596416Y-87370121D01*
X161393466Y-87410490D01*
X161186534Y-87410490D01*
X160983584Y-87370121D01*
X160792408Y-87290933D01*
X160792407Y-87290933D01*
X160792406Y-87290932D01*
X160620352Y-87175969D01*
X160474031Y-87029648D01*
X160359068Y-86857594D01*
X160359067Y-86857592D01*
X160279879Y-86666416D01*
X160239510Y-86463466D01*
X160239510Y-86256534D01*
X160279879Y-86053584D01*
X160359067Y-85862408D01*
X160425638Y-85762778D01*
X160474031Y-85690352D01*
X160620352Y-85544031D01*
X160792406Y-85429068D01*
X160792408Y-85429067D01*
X160983584Y-85349879D01*
X161186534Y-85309510D01*
X161393466Y-85309510D01*
X161596416Y-85349879D01*
X161596416Y-85349879D01*
G37*
G36*
X143676823Y-85521313D02*
G01*
X143837242Y-85569976D01*
X143969906Y-85640886D01*
X143985078Y-85648996D01*
X144114659Y-85755341D01*
X144221004Y-85884922D01*
X144229114Y-85900094D01*
X144300024Y-86032758D01*
X144348687Y-86193177D01*
X144365117Y-86360000D01*
X144348687Y-86526823D01*
X144300024Y-86687242D01*
X144262619Y-86757221D01*
X144221004Y-86835078D01*
X144114659Y-86964659D01*
X143985078Y-87071004D01*
X143985076Y-87071005D01*
X143837242Y-87150024D01*
X143676823Y-87198687D01*
X143551804Y-87211000D01*
X143468196Y-87211000D01*
X143343177Y-87198687D01*
X143182758Y-87150024D01*
X143034924Y-87071005D01*
X143034922Y-87071004D01*
X142905341Y-86964659D01*
X142798996Y-86835078D01*
X142757381Y-86757221D01*
X142719976Y-86687242D01*
X142671313Y-86526823D01*
X142654883Y-86360000D01*
X142671313Y-86193177D01*
X142719976Y-86032758D01*
X142790886Y-85900094D01*
X142798996Y-85884922D01*
X142905341Y-85755341D01*
X143034922Y-85648996D01*
X143050094Y-85640886D01*
X143182758Y-85569976D01*
X143343177Y-85521313D01*
X143468196Y-85509000D01*
X143551804Y-85509000D01*
X143676823Y-85521313D01*
X143676823Y-85521313D01*
G37*
G36*
X158916823Y-85521313D02*
G01*
X159077242Y-85569976D01*
X159209906Y-85640886D01*
X159225078Y-85648996D01*
X159354659Y-85755341D01*
X159461004Y-85884922D01*
X159469114Y-85900094D01*
X159540024Y-86032758D01*
X159588687Y-86193177D01*
X159605117Y-86360000D01*
X159588687Y-86526823D01*
X159540024Y-86687242D01*
X159502619Y-86757221D01*
X159461004Y-86835078D01*
X159354659Y-86964659D01*
X159225078Y-87071004D01*
X159225076Y-87071005D01*
X159077242Y-87150024D01*
X158916823Y-87198687D01*
X158791804Y-87211000D01*
X158708196Y-87211000D01*
X158583177Y-87198687D01*
X158422758Y-87150024D01*
X158274924Y-87071005D01*
X158274922Y-87071004D01*
X158145341Y-86964659D01*
X158038996Y-86835078D01*
X157997381Y-86757221D01*
X157959976Y-86687242D01*
X157911313Y-86526823D01*
X157894883Y-86360000D01*
X157911313Y-86193177D01*
X157959976Y-86032758D01*
X158030886Y-85900094D01*
X158038996Y-85884922D01*
X158145341Y-85755341D01*
X158274922Y-85648996D01*
X158290094Y-85640886D01*
X158422758Y-85569976D01*
X158583177Y-85521313D01*
X158708196Y-85509000D01*
X158791804Y-85509000D01*
X158916823Y-85521313D01*
X158916823Y-85521313D01*
G37*
G36*
X132823443Y-84115519D02*
G01*
X132889627Y-84122037D01*
X133059466Y-84173557D01*
X133215991Y-84257222D01*
X133247388Y-84282989D01*
X133353186Y-84369814D01*
X133398195Y-84424659D01*
X133465778Y-84507009D01*
X133549443Y-84663534D01*
X133600963Y-84833373D01*
X133618359Y-85010000D01*
X133600963Y-85186627D01*
X133549443Y-85356466D01*
X133465778Y-85512991D01*
X133458948Y-85521313D01*
X133353186Y-85650186D01*
X133251729Y-85733448D01*
X133215991Y-85762778D01*
X133059466Y-85846443D01*
X132889627Y-85897963D01*
X132823442Y-85904482D01*
X132757260Y-85911000D01*
X132418740Y-85911000D01*
X132352558Y-85904482D01*
X132286373Y-85897963D01*
X132116534Y-85846443D01*
X131960009Y-85762778D01*
X131924271Y-85733448D01*
X131822814Y-85650186D01*
X131717052Y-85521313D01*
X131710222Y-85512991D01*
X131626557Y-85356466D01*
X131575037Y-85186627D01*
X131557641Y-85010000D01*
X131575037Y-84833373D01*
X131626557Y-84663534D01*
X131710222Y-84507009D01*
X131777805Y-84424659D01*
X131822814Y-84369814D01*
X131928612Y-84282989D01*
X131960009Y-84257222D01*
X132116534Y-84173557D01*
X132286373Y-84122037D01*
X132352557Y-84115519D01*
X132418740Y-84109000D01*
X132757260Y-84109000D01*
X132823443Y-84115519D01*
X132823443Y-84115519D01*
G37*
G36*
X141276416Y-82809879D02*
G01*
X141388891Y-82856468D01*
X141467594Y-82889068D01*
X141639648Y-83004031D01*
X141785969Y-83150352D01*
X141870599Y-83277009D01*
X141900933Y-83322408D01*
X141980121Y-83513584D01*
X142020490Y-83716534D01*
X142020490Y-83923466D01*
X141980121Y-84126416D01*
X141900933Y-84317592D01*
X141900932Y-84317594D01*
X141785969Y-84489648D01*
X141639648Y-84635969D01*
X141467594Y-84750932D01*
X141467593Y-84750933D01*
X141467592Y-84750933D01*
X141276416Y-84830121D01*
X141073466Y-84870490D01*
X140866534Y-84870490D01*
X140663584Y-84830121D01*
X140472408Y-84750933D01*
X140472407Y-84750933D01*
X140472406Y-84750932D01*
X140300352Y-84635969D01*
X140154031Y-84489648D01*
X140039068Y-84317594D01*
X140039067Y-84317592D01*
X139959879Y-84126416D01*
X139919510Y-83923466D01*
X139919510Y-83716534D01*
X139959879Y-83513584D01*
X140039067Y-83322408D01*
X140069402Y-83277009D01*
X140154031Y-83150352D01*
X140300352Y-83004031D01*
X140472406Y-82889068D01*
X140551109Y-82856468D01*
X140663584Y-82809879D01*
X140866534Y-82769510D01*
X141073466Y-82769510D01*
X141276416Y-82809879D01*
X141276416Y-82809879D01*
G37*
G36*
X161596416Y-82809879D02*
G01*
X161708891Y-82856468D01*
X161787594Y-82889068D01*
X161959648Y-83004031D01*
X162105969Y-83150352D01*
X162190599Y-83277009D01*
X162220933Y-83322408D01*
X162300121Y-83513584D01*
X162340490Y-83716534D01*
X162340490Y-83923466D01*
X162300121Y-84126416D01*
X162220933Y-84317592D01*
X162220932Y-84317594D01*
X162105969Y-84489648D01*
X161959648Y-84635969D01*
X161787594Y-84750932D01*
X161787593Y-84750933D01*
X161787592Y-84750933D01*
X161596416Y-84830121D01*
X161393466Y-84870490D01*
X161186534Y-84870490D01*
X160983584Y-84830121D01*
X160792408Y-84750933D01*
X160792407Y-84750933D01*
X160792406Y-84750932D01*
X160620352Y-84635969D01*
X160474031Y-84489648D01*
X160359068Y-84317594D01*
X160359067Y-84317592D01*
X160279879Y-84126416D01*
X160239510Y-83923466D01*
X160239510Y-83716534D01*
X160279879Y-83513584D01*
X160359067Y-83322408D01*
X160389402Y-83277009D01*
X160474031Y-83150352D01*
X160620352Y-83004031D01*
X160792406Y-82889068D01*
X160871109Y-82856468D01*
X160983584Y-82809879D01*
X161186534Y-82769510D01*
X161393466Y-82769510D01*
X161596416Y-82809879D01*
X161596416Y-82809879D01*
G37*
G36*
X167519442Y-82885518D02*
G01*
X167585627Y-82892037D01*
X167755466Y-82943557D01*
X167911991Y-83027222D01*
X167947729Y-83056552D01*
X168049186Y-83139814D01*
X168111168Y-83215341D01*
X168161778Y-83277009D01*
X168245443Y-83433534D01*
X168296963Y-83603373D01*
X168314359Y-83780000D01*
X168296963Y-83956627D01*
X168245443Y-84126466D01*
X168161778Y-84282991D01*
X168151860Y-84295076D01*
X168049186Y-84420186D01*
X167964545Y-84489648D01*
X167911991Y-84532778D01*
X167755466Y-84616443D01*
X167585627Y-84667963D01*
X167519443Y-84674481D01*
X167453260Y-84681000D01*
X167064740Y-84681000D01*
X166998557Y-84674481D01*
X166932373Y-84667963D01*
X166762534Y-84616443D01*
X166606009Y-84532778D01*
X166553455Y-84489648D01*
X166468814Y-84420186D01*
X166366140Y-84295076D01*
X166356222Y-84282991D01*
X166272557Y-84126466D01*
X166221037Y-83956627D01*
X166203641Y-83780000D01*
X166221037Y-83603373D01*
X166272557Y-83433534D01*
X166356222Y-83277009D01*
X166406832Y-83215341D01*
X166468814Y-83139814D01*
X166570271Y-83056552D01*
X166606009Y-83027222D01*
X166762534Y-82943557D01*
X166932373Y-82892037D01*
X166998558Y-82885518D01*
X167064740Y-82879000D01*
X167453260Y-82879000D01*
X167519442Y-82885518D01*
X167519442Y-82885518D01*
G37*
G36*
X143676823Y-82981313D02*
G01*
X143781244Y-83012989D01*
X143828164Y-83027222D01*
X143837242Y-83029976D01*
X143969906Y-83100886D01*
X143985078Y-83108996D01*
X144114659Y-83215341D01*
X144221004Y-83344922D01*
X144221005Y-83344924D01*
X144300024Y-83492758D01*
X144348687Y-83653177D01*
X144365117Y-83820000D01*
X144348687Y-83986823D01*
X144300024Y-84147242D01*
X144241239Y-84257221D01*
X144221004Y-84295078D01*
X144114659Y-84424659D01*
X143985078Y-84531004D01*
X143985076Y-84531005D01*
X143837242Y-84610024D01*
X143676823Y-84658687D01*
X143551804Y-84671000D01*
X143468196Y-84671000D01*
X143343177Y-84658687D01*
X143182758Y-84610024D01*
X143034924Y-84531005D01*
X143034922Y-84531004D01*
X142905341Y-84424659D01*
X142798996Y-84295078D01*
X142778761Y-84257221D01*
X142719976Y-84147242D01*
X142671313Y-83986823D01*
X142654883Y-83820000D01*
X142671313Y-83653177D01*
X142719976Y-83492758D01*
X142798995Y-83344924D01*
X142798996Y-83344922D01*
X142905341Y-83215341D01*
X143034922Y-83108996D01*
X143050094Y-83100886D01*
X143182758Y-83029976D01*
X143191837Y-83027222D01*
X143238756Y-83012989D01*
X143343177Y-82981313D01*
X143468196Y-82969000D01*
X143551804Y-82969000D01*
X143676823Y-82981313D01*
X143676823Y-82981313D01*
G37*
G36*
X158916823Y-82981313D02*
G01*
X159021244Y-83012989D01*
X159068164Y-83027222D01*
X159077242Y-83029976D01*
X159209906Y-83100886D01*
X159225078Y-83108996D01*
X159354659Y-83215341D01*
X159461004Y-83344922D01*
X159461005Y-83344924D01*
X159540024Y-83492758D01*
X159588687Y-83653177D01*
X159605117Y-83820000D01*
X159588687Y-83986823D01*
X159540024Y-84147242D01*
X159481239Y-84257221D01*
X159461004Y-84295078D01*
X159354659Y-84424659D01*
X159225078Y-84531004D01*
X159225076Y-84531005D01*
X159077242Y-84610024D01*
X158916823Y-84658687D01*
X158791804Y-84671000D01*
X158708196Y-84671000D01*
X158583177Y-84658687D01*
X158422758Y-84610024D01*
X158274924Y-84531005D01*
X158274922Y-84531004D01*
X158145341Y-84424659D01*
X158038996Y-84295078D01*
X158018761Y-84257221D01*
X157959976Y-84147242D01*
X157911313Y-83986823D01*
X157894883Y-83820000D01*
X157911313Y-83653177D01*
X157959976Y-83492758D01*
X158038995Y-83344924D01*
X158038996Y-83344922D01*
X158145341Y-83215341D01*
X158274922Y-83108996D01*
X158290094Y-83100886D01*
X158422758Y-83029976D01*
X158431837Y-83027222D01*
X158478756Y-83012989D01*
X158583177Y-82981313D01*
X158708196Y-82969000D01*
X158791804Y-82969000D01*
X158916823Y-82981313D01*
X158916823Y-82981313D01*
G37*
G36*
X132823442Y-81615518D02*
G01*
X132889627Y-81622037D01*
X133059466Y-81673557D01*
X133215991Y-81757222D01*
X133240812Y-81777592D01*
X133353186Y-81869814D01*
X133418703Y-81949648D01*
X133465778Y-82007009D01*
X133549443Y-82163534D01*
X133600963Y-82333373D01*
X133618359Y-82510000D01*
X133600963Y-82686627D01*
X133549443Y-82856466D01*
X133465778Y-83012991D01*
X133436448Y-83048729D01*
X133353186Y-83150186D01*
X133273793Y-83215341D01*
X133215991Y-83262778D01*
X133059466Y-83346443D01*
X132889627Y-83397963D01*
X132823442Y-83404482D01*
X132757260Y-83411000D01*
X132418740Y-83411000D01*
X132352558Y-83404482D01*
X132286373Y-83397963D01*
X132116534Y-83346443D01*
X131960009Y-83262778D01*
X131902207Y-83215341D01*
X131822814Y-83150186D01*
X131739552Y-83048729D01*
X131710222Y-83012991D01*
X131626557Y-82856466D01*
X131575037Y-82686627D01*
X131557641Y-82510000D01*
X131575037Y-82333373D01*
X131626557Y-82163534D01*
X131710222Y-82007009D01*
X131757297Y-81949648D01*
X131822814Y-81869814D01*
X131935188Y-81777592D01*
X131960009Y-81757222D01*
X132116534Y-81673557D01*
X132286373Y-81622037D01*
X132352558Y-81615518D01*
X132418740Y-81609000D01*
X132757260Y-81609000D01*
X132823442Y-81615518D01*
X132823442Y-81615518D01*
G37*
G36*
X161596416Y-80269879D02*
G01*
X161787592Y-80349067D01*
X161787594Y-80349068D01*
X161925648Y-80441313D01*
X161959648Y-80464031D01*
X162105969Y-80610352D01*
X162220933Y-80782408D01*
X162300121Y-80973584D01*
X162340490Y-81176534D01*
X162340490Y-81383466D01*
X162300121Y-81586416D01*
X162220933Y-81777592D01*
X162220932Y-81777594D01*
X162105969Y-81949648D01*
X161959648Y-82095969D01*
X161787594Y-82210932D01*
X161787593Y-82210933D01*
X161787592Y-82210933D01*
X161596416Y-82290121D01*
X161393466Y-82330490D01*
X161186534Y-82330490D01*
X160983584Y-82290121D01*
X160792408Y-82210933D01*
X160792407Y-82210933D01*
X160792406Y-82210932D01*
X160620352Y-82095969D01*
X160474031Y-81949648D01*
X160359068Y-81777594D01*
X160359067Y-81777592D01*
X160279879Y-81586416D01*
X160239510Y-81383466D01*
X160239510Y-81176534D01*
X160279879Y-80973584D01*
X160359067Y-80782408D01*
X160474031Y-80610352D01*
X160620352Y-80464031D01*
X160654352Y-80441313D01*
X160792406Y-80349068D01*
X160792408Y-80349067D01*
X160983584Y-80269879D01*
X161186534Y-80229510D01*
X161393466Y-80229510D01*
X161596416Y-80269879D01*
X161596416Y-80269879D01*
G37*
G36*
X141276416Y-80269879D02*
G01*
X141467592Y-80349067D01*
X141467594Y-80349068D01*
X141605648Y-80441313D01*
X141639648Y-80464031D01*
X141785969Y-80610352D01*
X141900933Y-80782408D01*
X141980121Y-80973584D01*
X142020490Y-81176534D01*
X142020490Y-81383466D01*
X141980121Y-81586416D01*
X141900933Y-81777592D01*
X141900932Y-81777594D01*
X141785969Y-81949648D01*
X141639648Y-82095969D01*
X141467594Y-82210932D01*
X141467593Y-82210933D01*
X141467592Y-82210933D01*
X141276416Y-82290121D01*
X141073466Y-82330490D01*
X140866534Y-82330490D01*
X140663584Y-82290121D01*
X140472408Y-82210933D01*
X140472407Y-82210933D01*
X140472406Y-82210932D01*
X140300352Y-82095969D01*
X140154031Y-81949648D01*
X140039068Y-81777594D01*
X140039067Y-81777592D01*
X139959879Y-81586416D01*
X139919510Y-81383466D01*
X139919510Y-81176534D01*
X139959879Y-80973584D01*
X140039067Y-80782408D01*
X140154031Y-80610352D01*
X140300352Y-80464031D01*
X140334352Y-80441313D01*
X140472406Y-80349068D01*
X140472408Y-80349067D01*
X140663584Y-80269879D01*
X140866534Y-80229510D01*
X141073466Y-80229510D01*
X141276416Y-80269879D01*
X141276416Y-80269879D01*
G37*
G36*
X168167600Y-80382989D02*
G01*
X168200652Y-80393015D01*
X168231103Y-80409292D01*
X168257799Y-80431201D01*
X168279708Y-80457897D01*
X168295985Y-80488348D01*
X168306011Y-80521400D01*
X168310000Y-80561903D01*
X168310000Y-81998097D01*
X168306011Y-82038600D01*
X168295985Y-82071652D01*
X168279708Y-82102103D01*
X168257799Y-82128799D01*
X168231103Y-82150708D01*
X168200652Y-82166985D01*
X168167600Y-82177011D01*
X168127097Y-82181000D01*
X166390903Y-82181000D01*
X166350400Y-82177011D01*
X166317348Y-82166985D01*
X166286897Y-82150708D01*
X166260201Y-82128799D01*
X166238292Y-82102103D01*
X166222015Y-82071652D01*
X166211989Y-82038600D01*
X166208000Y-81998097D01*
X166208000Y-80561903D01*
X166211989Y-80521400D01*
X166222015Y-80488348D01*
X166238292Y-80457897D01*
X166260201Y-80431201D01*
X166286897Y-80409292D01*
X166317348Y-80393015D01*
X166350400Y-80382989D01*
X166390903Y-80379000D01*
X168127097Y-80379000D01*
X168167600Y-80382989D01*
X168167600Y-80382989D01*
G37*
G36*
X144361000Y-82131000D02*
G01*
X142659000Y-82131000D01*
X142659000Y-80429000D01*
X144361000Y-80429000D01*
X144361000Y-82131000D01*
X144361000Y-82131000D01*
G37*
G36*
X158916823Y-80441313D02*
G01*
X159077242Y-80489976D01*
X159175674Y-80542589D01*
X159225078Y-80568996D01*
X159354659Y-80675341D01*
X159461004Y-80804922D01*
X159461005Y-80804924D01*
X159540024Y-80952758D01*
X159588687Y-81113177D01*
X159605117Y-81280000D01*
X159588687Y-81446823D01*
X159540024Y-81607242D01*
X159504578Y-81673557D01*
X159461004Y-81755078D01*
X159354659Y-81884659D01*
X159225078Y-81991004D01*
X159225076Y-81991005D01*
X159077242Y-82070024D01*
X158916823Y-82118687D01*
X158791804Y-82131000D01*
X158708196Y-82131000D01*
X158583177Y-82118687D01*
X158422758Y-82070024D01*
X158274924Y-81991005D01*
X158274922Y-81991004D01*
X158145341Y-81884659D01*
X158038996Y-81755078D01*
X157995422Y-81673557D01*
X157959976Y-81607242D01*
X157911313Y-81446823D01*
X157894883Y-81280000D01*
X157911313Y-81113177D01*
X157959976Y-80952758D01*
X158038995Y-80804924D01*
X158038996Y-80804922D01*
X158145341Y-80675341D01*
X158274922Y-80568996D01*
X158324326Y-80542589D01*
X158422758Y-80489976D01*
X158583177Y-80441313D01*
X158708196Y-80429000D01*
X158791804Y-80429000D01*
X158916823Y-80441313D01*
X158916823Y-80441313D01*
G37*
G36*
X133471600Y-79112989D02*
G01*
X133504652Y-79123015D01*
X133535103Y-79139292D01*
X133561799Y-79161201D01*
X133583708Y-79187897D01*
X133599985Y-79218348D01*
X133610011Y-79251400D01*
X133614000Y-79291903D01*
X133614000Y-80728097D01*
X133610011Y-80768600D01*
X133599985Y-80801652D01*
X133583708Y-80832103D01*
X133561799Y-80858799D01*
X133535103Y-80880708D01*
X133504652Y-80896985D01*
X133471600Y-80907011D01*
X133431097Y-80911000D01*
X131744903Y-80911000D01*
X131704400Y-80907011D01*
X131671348Y-80896985D01*
X131640897Y-80880708D01*
X131614201Y-80858799D01*
X131592292Y-80832103D01*
X131576015Y-80801652D01*
X131565989Y-80768600D01*
X131562000Y-80728097D01*
X131562000Y-79291903D01*
X131565989Y-79251400D01*
X131576015Y-79218348D01*
X131592292Y-79187897D01*
X131614201Y-79161201D01*
X131640897Y-79139292D01*
X131671348Y-79123015D01*
X131704400Y-79112989D01*
X131744903Y-79109000D01*
X133431097Y-79109000D01*
X133471600Y-79112989D01*
X133471600Y-79112989D01*
G37*
G36*
X165025416Y-70490879D02*
G01*
X165216592Y-70570067D01*
X165216594Y-70570068D01*
X165388648Y-70685031D01*
X165534969Y-70831352D01*
X165649933Y-71003408D01*
X165729121Y-71194584D01*
X165769490Y-71397534D01*
X165769490Y-71604466D01*
X165729121Y-71807416D01*
X165649933Y-71998592D01*
X165649932Y-71998594D01*
X165534969Y-72170648D01*
X165388648Y-72316969D01*
X165216594Y-72431932D01*
X165216593Y-72431933D01*
X165216592Y-72431933D01*
X165025416Y-72511121D01*
X164822466Y-72551490D01*
X164615534Y-72551490D01*
X164412584Y-72511121D01*
X164221408Y-72431933D01*
X164221407Y-72431933D01*
X164221406Y-72431932D01*
X164049352Y-72316969D01*
X163903031Y-72170648D01*
X163788068Y-71998594D01*
X163788067Y-71998592D01*
X163708879Y-71807416D01*
X163668510Y-71604466D01*
X163668510Y-71397534D01*
X163708879Y-71194584D01*
X163788067Y-71003408D01*
X163903031Y-70831352D01*
X164049352Y-70685031D01*
X164221406Y-70570068D01*
X164221408Y-70570067D01*
X164412584Y-70490879D01*
X164615534Y-70450510D01*
X164822466Y-70450510D01*
X165025416Y-70490879D01*
X165025416Y-70490879D01*
G37*
G36*
X152325416Y-70490879D02*
G01*
X152516592Y-70570067D01*
X152516594Y-70570068D01*
X152688648Y-70685031D01*
X152834969Y-70831352D01*
X152949933Y-71003408D01*
X153029121Y-71194584D01*
X153069490Y-71397534D01*
X153069490Y-71604466D01*
X153029121Y-71807416D01*
X152949933Y-71998592D01*
X152949932Y-71998594D01*
X152834969Y-72170648D01*
X152688648Y-72316969D01*
X152516594Y-72431932D01*
X152516593Y-72431933D01*
X152516592Y-72431933D01*
X152325416Y-72511121D01*
X152122466Y-72551490D01*
X151915534Y-72551490D01*
X151712584Y-72511121D01*
X151521408Y-72431933D01*
X151521407Y-72431933D01*
X151521406Y-72431932D01*
X151349352Y-72316969D01*
X151203031Y-72170648D01*
X151088068Y-71998594D01*
X151088067Y-71998592D01*
X151008879Y-71807416D01*
X150968510Y-71604466D01*
X150968510Y-71397534D01*
X151008879Y-71194584D01*
X151088067Y-71003408D01*
X151203031Y-70831352D01*
X151349352Y-70685031D01*
X151521406Y-70570068D01*
X151521408Y-70570067D01*
X151712584Y-70490879D01*
X151915534Y-70450510D01*
X152122466Y-70450510D01*
X152325416Y-70490879D01*
X152325416Y-70490879D01*
G37*
G36*
X139625416Y-70490879D02*
G01*
X139816592Y-70570067D01*
X139816594Y-70570068D01*
X139988648Y-70685031D01*
X140134969Y-70831352D01*
X140249933Y-71003408D01*
X140329121Y-71194584D01*
X140369490Y-71397534D01*
X140369490Y-71604466D01*
X140329121Y-71807416D01*
X140249933Y-71998592D01*
X140249932Y-71998594D01*
X140134969Y-72170648D01*
X139988648Y-72316969D01*
X139816594Y-72431932D01*
X139816593Y-72431933D01*
X139816592Y-72431933D01*
X139625416Y-72511121D01*
X139422466Y-72551490D01*
X139215534Y-72551490D01*
X139012584Y-72511121D01*
X138821408Y-72431933D01*
X138821407Y-72431933D01*
X138821406Y-72431932D01*
X138649352Y-72316969D01*
X138503031Y-72170648D01*
X138388068Y-71998594D01*
X138388067Y-71998592D01*
X138308879Y-71807416D01*
X138268510Y-71604466D01*
X138268510Y-71397534D01*
X138308879Y-71194584D01*
X138388067Y-71003408D01*
X138503031Y-70831352D01*
X138649352Y-70685031D01*
X138821406Y-70570068D01*
X138821408Y-70570067D01*
X139012584Y-70490879D01*
X139215534Y-70450510D01*
X139422466Y-70450510D01*
X139625416Y-70490879D01*
X139625416Y-70490879D01*
G37*
G36*
X149785416Y-70490879D02*
G01*
X149976592Y-70570067D01*
X149976594Y-70570068D01*
X150148648Y-70685031D01*
X150294969Y-70831352D01*
X150409933Y-71003408D01*
X150489121Y-71194584D01*
X150529490Y-71397534D01*
X150529490Y-71604466D01*
X150489121Y-71807416D01*
X150409933Y-71998592D01*
X150409932Y-71998594D01*
X150294969Y-72170648D01*
X150148648Y-72316969D01*
X149976594Y-72431932D01*
X149976593Y-72431933D01*
X149976592Y-72431933D01*
X149785416Y-72511121D01*
X149582466Y-72551490D01*
X149375534Y-72551490D01*
X149172584Y-72511121D01*
X148981408Y-72431933D01*
X148981407Y-72431933D01*
X148981406Y-72431932D01*
X148809352Y-72316969D01*
X148663031Y-72170648D01*
X148548068Y-71998594D01*
X148548067Y-71998592D01*
X148468879Y-71807416D01*
X148428510Y-71604466D01*
X148428510Y-71397534D01*
X148468879Y-71194584D01*
X148548067Y-71003408D01*
X148663031Y-70831352D01*
X148809352Y-70685031D01*
X148981406Y-70570068D01*
X148981408Y-70570067D01*
X149172584Y-70490879D01*
X149375534Y-70450510D01*
X149582466Y-70450510D01*
X149785416Y-70490879D01*
X149785416Y-70490879D01*
G37*
G36*
X147245416Y-70490879D02*
G01*
X147436592Y-70570067D01*
X147436594Y-70570068D01*
X147608648Y-70685031D01*
X147754969Y-70831352D01*
X147869933Y-71003408D01*
X147949121Y-71194584D01*
X147989490Y-71397534D01*
X147989490Y-71604466D01*
X147949121Y-71807416D01*
X147869933Y-71998592D01*
X147869932Y-71998594D01*
X147754969Y-72170648D01*
X147608648Y-72316969D01*
X147436594Y-72431932D01*
X147436593Y-72431933D01*
X147436592Y-72431933D01*
X147245416Y-72511121D01*
X147042466Y-72551490D01*
X146835534Y-72551490D01*
X146632584Y-72511121D01*
X146441408Y-72431933D01*
X146441407Y-72431933D01*
X146441406Y-72431932D01*
X146269352Y-72316969D01*
X146123031Y-72170648D01*
X146008068Y-71998594D01*
X146008067Y-71998592D01*
X145928879Y-71807416D01*
X145888510Y-71604466D01*
X145888510Y-71397534D01*
X145928879Y-71194584D01*
X146008067Y-71003408D01*
X146123031Y-70831352D01*
X146269352Y-70685031D01*
X146441406Y-70570068D01*
X146441408Y-70570067D01*
X146632584Y-70490879D01*
X146835534Y-70450510D01*
X147042466Y-70450510D01*
X147245416Y-70490879D01*
X147245416Y-70490879D01*
G37*
G36*
X154865416Y-70490879D02*
G01*
X155056592Y-70570067D01*
X155056594Y-70570068D01*
X155228648Y-70685031D01*
X155374969Y-70831352D01*
X155489933Y-71003408D01*
X155569121Y-71194584D01*
X155609490Y-71397534D01*
X155609490Y-71604466D01*
X155569121Y-71807416D01*
X155489933Y-71998592D01*
X155489932Y-71998594D01*
X155374969Y-72170648D01*
X155228648Y-72316969D01*
X155056594Y-72431932D01*
X155056593Y-72431933D01*
X155056592Y-72431933D01*
X154865416Y-72511121D01*
X154662466Y-72551490D01*
X154455534Y-72551490D01*
X154252584Y-72511121D01*
X154061408Y-72431933D01*
X154061407Y-72431933D01*
X154061406Y-72431932D01*
X153889352Y-72316969D01*
X153743031Y-72170648D01*
X153628068Y-71998594D01*
X153628067Y-71998592D01*
X153548879Y-71807416D01*
X153508510Y-71604466D01*
X153508510Y-71397534D01*
X153548879Y-71194584D01*
X153628067Y-71003408D01*
X153743031Y-70831352D01*
X153889352Y-70685031D01*
X154061406Y-70570068D01*
X154061408Y-70570067D01*
X154252584Y-70490879D01*
X154455534Y-70450510D01*
X154662466Y-70450510D01*
X154865416Y-70490879D01*
X154865416Y-70490879D01*
G37*
G36*
X157405416Y-70490879D02*
G01*
X157596592Y-70570067D01*
X157596594Y-70570068D01*
X157768648Y-70685031D01*
X157914969Y-70831352D01*
X158029933Y-71003408D01*
X158109121Y-71194584D01*
X158149490Y-71397534D01*
X158149490Y-71604466D01*
X158109121Y-71807416D01*
X158029933Y-71998592D01*
X158029932Y-71998594D01*
X157914969Y-72170648D01*
X157768648Y-72316969D01*
X157596594Y-72431932D01*
X157596593Y-72431933D01*
X157596592Y-72431933D01*
X157405416Y-72511121D01*
X157202466Y-72551490D01*
X156995534Y-72551490D01*
X156792584Y-72511121D01*
X156601408Y-72431933D01*
X156601407Y-72431933D01*
X156601406Y-72431932D01*
X156429352Y-72316969D01*
X156283031Y-72170648D01*
X156168068Y-71998594D01*
X156168067Y-71998592D01*
X156088879Y-71807416D01*
X156048510Y-71604466D01*
X156048510Y-71397534D01*
X156088879Y-71194584D01*
X156168067Y-71003408D01*
X156283031Y-70831352D01*
X156429352Y-70685031D01*
X156601406Y-70570068D01*
X156601408Y-70570067D01*
X156792584Y-70490879D01*
X156995534Y-70450510D01*
X157202466Y-70450510D01*
X157405416Y-70490879D01*
X157405416Y-70490879D01*
G37*
G36*
X142165416Y-70490879D02*
G01*
X142356592Y-70570067D01*
X142356594Y-70570068D01*
X142528648Y-70685031D01*
X142674969Y-70831352D01*
X142789933Y-71003408D01*
X142869121Y-71194584D01*
X142909490Y-71397534D01*
X142909490Y-71604466D01*
X142869121Y-71807416D01*
X142789933Y-71998592D01*
X142789932Y-71998594D01*
X142674969Y-72170648D01*
X142528648Y-72316969D01*
X142356594Y-72431932D01*
X142356593Y-72431933D01*
X142356592Y-72431933D01*
X142165416Y-72511121D01*
X141962466Y-72551490D01*
X141755534Y-72551490D01*
X141552584Y-72511121D01*
X141361408Y-72431933D01*
X141361407Y-72431933D01*
X141361406Y-72431932D01*
X141189352Y-72316969D01*
X141043031Y-72170648D01*
X140928068Y-71998594D01*
X140928067Y-71998592D01*
X140848879Y-71807416D01*
X140808510Y-71604466D01*
X140808510Y-71397534D01*
X140848879Y-71194584D01*
X140928067Y-71003408D01*
X141043031Y-70831352D01*
X141189352Y-70685031D01*
X141361406Y-70570068D01*
X141361408Y-70570067D01*
X141552584Y-70490879D01*
X141755534Y-70450510D01*
X141962466Y-70450510D01*
X142165416Y-70490879D01*
X142165416Y-70490879D01*
G37*
G36*
X162485416Y-70490879D02*
G01*
X162676592Y-70570067D01*
X162676594Y-70570068D01*
X162848648Y-70685031D01*
X162994969Y-70831352D01*
X163109933Y-71003408D01*
X163189121Y-71194584D01*
X163229490Y-71397534D01*
X163229490Y-71604466D01*
X163189121Y-71807416D01*
X163109933Y-71998592D01*
X163109932Y-71998594D01*
X162994969Y-72170648D01*
X162848648Y-72316969D01*
X162676594Y-72431932D01*
X162676593Y-72431933D01*
X162676592Y-72431933D01*
X162485416Y-72511121D01*
X162282466Y-72551490D01*
X162075534Y-72551490D01*
X161872584Y-72511121D01*
X161681408Y-72431933D01*
X161681407Y-72431933D01*
X161681406Y-72431932D01*
X161509352Y-72316969D01*
X161363031Y-72170648D01*
X161248068Y-71998594D01*
X161248067Y-71998592D01*
X161168879Y-71807416D01*
X161128510Y-71604466D01*
X161128510Y-71397534D01*
X161168879Y-71194584D01*
X161248067Y-71003408D01*
X161363031Y-70831352D01*
X161509352Y-70685031D01*
X161681406Y-70570068D01*
X161681408Y-70570067D01*
X161872584Y-70490879D01*
X162075534Y-70450510D01*
X162282466Y-70450510D01*
X162485416Y-70490879D01*
X162485416Y-70490879D01*
G37*
G36*
X159945416Y-70490879D02*
G01*
X160136592Y-70570067D01*
X160136594Y-70570068D01*
X160308648Y-70685031D01*
X160454969Y-70831352D01*
X160569933Y-71003408D01*
X160649121Y-71194584D01*
X160689490Y-71397534D01*
X160689490Y-71604466D01*
X160649121Y-71807416D01*
X160569933Y-71998592D01*
X160569932Y-71998594D01*
X160454969Y-72170648D01*
X160308648Y-72316969D01*
X160136594Y-72431932D01*
X160136593Y-72431933D01*
X160136592Y-72431933D01*
X159945416Y-72511121D01*
X159742466Y-72551490D01*
X159535534Y-72551490D01*
X159332584Y-72511121D01*
X159141408Y-72431933D01*
X159141407Y-72431933D01*
X159141406Y-72431932D01*
X158969352Y-72316969D01*
X158823031Y-72170648D01*
X158708068Y-71998594D01*
X158708067Y-71998592D01*
X158628879Y-71807416D01*
X158588510Y-71604466D01*
X158588510Y-71397534D01*
X158628879Y-71194584D01*
X158708067Y-71003408D01*
X158823031Y-70831352D01*
X158969352Y-70685031D01*
X159141406Y-70570068D01*
X159141408Y-70570067D01*
X159332584Y-70490879D01*
X159535534Y-70450510D01*
X159742466Y-70450510D01*
X159945416Y-70490879D01*
X159945416Y-70490879D01*
G37*
G36*
X144705416Y-70490879D02*
G01*
X144896592Y-70570067D01*
X144896594Y-70570068D01*
X145068648Y-70685031D01*
X145214969Y-70831352D01*
X145329933Y-71003408D01*
X145409121Y-71194584D01*
X145449490Y-71397534D01*
X145449490Y-71604466D01*
X145409121Y-71807416D01*
X145329933Y-71998592D01*
X145329932Y-71998594D01*
X145214969Y-72170648D01*
X145068648Y-72316969D01*
X144896594Y-72431932D01*
X144896593Y-72431933D01*
X144896592Y-72431933D01*
X144705416Y-72511121D01*
X144502466Y-72551490D01*
X144295534Y-72551490D01*
X144092584Y-72511121D01*
X143901408Y-72431933D01*
X143901407Y-72431933D01*
X143901406Y-72431932D01*
X143729352Y-72316969D01*
X143583031Y-72170648D01*
X143468068Y-71998594D01*
X143468067Y-71998592D01*
X143388879Y-71807416D01*
X143348510Y-71604466D01*
X143348510Y-71397534D01*
X143388879Y-71194584D01*
X143468067Y-71003408D01*
X143583031Y-70831352D01*
X143729352Y-70685031D01*
X143901406Y-70570068D01*
X143901408Y-70570067D01*
X144092584Y-70490879D01*
X144295534Y-70450510D01*
X144502466Y-70450510D01*
X144705416Y-70490879D01*
X144705416Y-70490879D01*
G37*
G36*
X139625416Y-67950879D02*
G01*
X139816592Y-68030067D01*
X139816594Y-68030068D01*
X139988648Y-68145031D01*
X140134969Y-68291352D01*
X140249933Y-68463408D01*
X140329121Y-68654584D01*
X140369490Y-68857534D01*
X140369490Y-69064466D01*
X140329121Y-69267416D01*
X140249933Y-69458592D01*
X140249932Y-69458594D01*
X140134969Y-69630648D01*
X139988648Y-69776969D01*
X139816594Y-69891932D01*
X139816593Y-69891933D01*
X139816592Y-69891933D01*
X139625416Y-69971121D01*
X139422466Y-70011490D01*
X139215534Y-70011490D01*
X139012584Y-69971121D01*
X138821408Y-69891933D01*
X138821407Y-69891933D01*
X138821406Y-69891932D01*
X138649352Y-69776969D01*
X138503031Y-69630648D01*
X138388068Y-69458594D01*
X138388067Y-69458592D01*
X138308879Y-69267416D01*
X138268510Y-69064466D01*
X138268510Y-68857534D01*
X138308879Y-68654584D01*
X138388067Y-68463408D01*
X138503031Y-68291352D01*
X138649352Y-68145031D01*
X138821406Y-68030068D01*
X138821408Y-68030067D01*
X139012584Y-67950879D01*
X139215534Y-67910510D01*
X139422466Y-67910510D01*
X139625416Y-67950879D01*
X139625416Y-67950879D01*
G37*
G36*
X165025416Y-67950879D02*
G01*
X165216592Y-68030067D01*
X165216594Y-68030068D01*
X165388648Y-68145031D01*
X165534969Y-68291352D01*
X165649933Y-68463408D01*
X165729121Y-68654584D01*
X165769490Y-68857534D01*
X165769490Y-69064466D01*
X165729121Y-69267416D01*
X165649933Y-69458592D01*
X165649932Y-69458594D01*
X165534969Y-69630648D01*
X165388648Y-69776969D01*
X165216594Y-69891932D01*
X165216593Y-69891933D01*
X165216592Y-69891933D01*
X165025416Y-69971121D01*
X164822466Y-70011490D01*
X164615534Y-70011490D01*
X164412584Y-69971121D01*
X164221408Y-69891933D01*
X164221407Y-69891933D01*
X164221406Y-69891932D01*
X164049352Y-69776969D01*
X163903031Y-69630648D01*
X163788068Y-69458594D01*
X163788067Y-69458592D01*
X163708879Y-69267416D01*
X163668510Y-69064466D01*
X163668510Y-68857534D01*
X163708879Y-68654584D01*
X163788067Y-68463408D01*
X163903031Y-68291352D01*
X164049352Y-68145031D01*
X164221406Y-68030068D01*
X164221408Y-68030067D01*
X164412584Y-67950879D01*
X164615534Y-67910510D01*
X164822466Y-67910510D01*
X165025416Y-67950879D01*
X165025416Y-67950879D01*
G37*
G36*
X162485416Y-67950879D02*
G01*
X162676592Y-68030067D01*
X162676594Y-68030068D01*
X162848648Y-68145031D01*
X162994969Y-68291352D01*
X163109933Y-68463408D01*
X163189121Y-68654584D01*
X163229490Y-68857534D01*
X163229490Y-69064466D01*
X163189121Y-69267416D01*
X163109933Y-69458592D01*
X163109932Y-69458594D01*
X162994969Y-69630648D01*
X162848648Y-69776969D01*
X162676594Y-69891932D01*
X162676593Y-69891933D01*
X162676592Y-69891933D01*
X162485416Y-69971121D01*
X162282466Y-70011490D01*
X162075534Y-70011490D01*
X161872584Y-69971121D01*
X161681408Y-69891933D01*
X161681407Y-69891933D01*
X161681406Y-69891932D01*
X161509352Y-69776969D01*
X161363031Y-69630648D01*
X161248068Y-69458594D01*
X161248067Y-69458592D01*
X161168879Y-69267416D01*
X161128510Y-69064466D01*
X161128510Y-68857534D01*
X161168879Y-68654584D01*
X161248067Y-68463408D01*
X161363031Y-68291352D01*
X161509352Y-68145031D01*
X161681406Y-68030068D01*
X161681408Y-68030067D01*
X161872584Y-67950879D01*
X162075534Y-67910510D01*
X162282466Y-67910510D01*
X162485416Y-67950879D01*
X162485416Y-67950879D01*
G37*
G36*
X159945416Y-67950879D02*
G01*
X160136592Y-68030067D01*
X160136594Y-68030068D01*
X160308648Y-68145031D01*
X160454969Y-68291352D01*
X160569933Y-68463408D01*
X160649121Y-68654584D01*
X160689490Y-68857534D01*
X160689490Y-69064466D01*
X160649121Y-69267416D01*
X160569933Y-69458592D01*
X160569932Y-69458594D01*
X160454969Y-69630648D01*
X160308648Y-69776969D01*
X160136594Y-69891932D01*
X160136593Y-69891933D01*
X160136592Y-69891933D01*
X159945416Y-69971121D01*
X159742466Y-70011490D01*
X159535534Y-70011490D01*
X159332584Y-69971121D01*
X159141408Y-69891933D01*
X159141407Y-69891933D01*
X159141406Y-69891932D01*
X158969352Y-69776969D01*
X158823031Y-69630648D01*
X158708068Y-69458594D01*
X158708067Y-69458592D01*
X158628879Y-69267416D01*
X158588510Y-69064466D01*
X158588510Y-68857534D01*
X158628879Y-68654584D01*
X158708067Y-68463408D01*
X158823031Y-68291352D01*
X158969352Y-68145031D01*
X159141406Y-68030068D01*
X159141408Y-68030067D01*
X159332584Y-67950879D01*
X159535534Y-67910510D01*
X159742466Y-67910510D01*
X159945416Y-67950879D01*
X159945416Y-67950879D01*
G37*
G36*
X157405416Y-67950879D02*
G01*
X157596592Y-68030067D01*
X157596594Y-68030068D01*
X157768648Y-68145031D01*
X157914969Y-68291352D01*
X158029933Y-68463408D01*
X158109121Y-68654584D01*
X158149490Y-68857534D01*
X158149490Y-69064466D01*
X158109121Y-69267416D01*
X158029933Y-69458592D01*
X158029932Y-69458594D01*
X157914969Y-69630648D01*
X157768648Y-69776969D01*
X157596594Y-69891932D01*
X157596593Y-69891933D01*
X157596592Y-69891933D01*
X157405416Y-69971121D01*
X157202466Y-70011490D01*
X156995534Y-70011490D01*
X156792584Y-69971121D01*
X156601408Y-69891933D01*
X156601407Y-69891933D01*
X156601406Y-69891932D01*
X156429352Y-69776969D01*
X156283031Y-69630648D01*
X156168068Y-69458594D01*
X156168067Y-69458592D01*
X156088879Y-69267416D01*
X156048510Y-69064466D01*
X156048510Y-68857534D01*
X156088879Y-68654584D01*
X156168067Y-68463408D01*
X156283031Y-68291352D01*
X156429352Y-68145031D01*
X156601406Y-68030068D01*
X156601408Y-68030067D01*
X156792584Y-67950879D01*
X156995534Y-67910510D01*
X157202466Y-67910510D01*
X157405416Y-67950879D01*
X157405416Y-67950879D01*
G37*
G36*
X154865416Y-67950879D02*
G01*
X155056592Y-68030067D01*
X155056594Y-68030068D01*
X155228648Y-68145031D01*
X155374969Y-68291352D01*
X155489933Y-68463408D01*
X155569121Y-68654584D01*
X155609490Y-68857534D01*
X155609490Y-69064466D01*
X155569121Y-69267416D01*
X155489933Y-69458592D01*
X155489932Y-69458594D01*
X155374969Y-69630648D01*
X155228648Y-69776969D01*
X155056594Y-69891932D01*
X155056593Y-69891933D01*
X155056592Y-69891933D01*
X154865416Y-69971121D01*
X154662466Y-70011490D01*
X154455534Y-70011490D01*
X154252584Y-69971121D01*
X154061408Y-69891933D01*
X154061407Y-69891933D01*
X154061406Y-69891932D01*
X153889352Y-69776969D01*
X153743031Y-69630648D01*
X153628068Y-69458594D01*
X153628067Y-69458592D01*
X153548879Y-69267416D01*
X153508510Y-69064466D01*
X153508510Y-68857534D01*
X153548879Y-68654584D01*
X153628067Y-68463408D01*
X153743031Y-68291352D01*
X153889352Y-68145031D01*
X154061406Y-68030068D01*
X154061408Y-68030067D01*
X154252584Y-67950879D01*
X154455534Y-67910510D01*
X154662466Y-67910510D01*
X154865416Y-67950879D01*
X154865416Y-67950879D01*
G37*
G36*
X147245416Y-67950879D02*
G01*
X147436592Y-68030067D01*
X147436594Y-68030068D01*
X147608648Y-68145031D01*
X147754969Y-68291352D01*
X147869933Y-68463408D01*
X147949121Y-68654584D01*
X147989490Y-68857534D01*
X147989490Y-69064466D01*
X147949121Y-69267416D01*
X147869933Y-69458592D01*
X147869932Y-69458594D01*
X147754969Y-69630648D01*
X147608648Y-69776969D01*
X147436594Y-69891932D01*
X147436593Y-69891933D01*
X147436592Y-69891933D01*
X147245416Y-69971121D01*
X147042466Y-70011490D01*
X146835534Y-70011490D01*
X146632584Y-69971121D01*
X146441408Y-69891933D01*
X146441407Y-69891933D01*
X146441406Y-69891932D01*
X146269352Y-69776969D01*
X146123031Y-69630648D01*
X146008068Y-69458594D01*
X146008067Y-69458592D01*
X145928879Y-69267416D01*
X145888510Y-69064466D01*
X145888510Y-68857534D01*
X145928879Y-68654584D01*
X146008067Y-68463408D01*
X146123031Y-68291352D01*
X146269352Y-68145031D01*
X146441406Y-68030068D01*
X146441408Y-68030067D01*
X146632584Y-67950879D01*
X146835534Y-67910510D01*
X147042466Y-67910510D01*
X147245416Y-67950879D01*
X147245416Y-67950879D01*
G37*
G36*
X149785416Y-67950879D02*
G01*
X149976592Y-68030067D01*
X149976594Y-68030068D01*
X150148648Y-68145031D01*
X150294969Y-68291352D01*
X150409933Y-68463408D01*
X150489121Y-68654584D01*
X150529490Y-68857534D01*
X150529490Y-69064466D01*
X150489121Y-69267416D01*
X150409933Y-69458592D01*
X150409932Y-69458594D01*
X150294969Y-69630648D01*
X150148648Y-69776969D01*
X149976594Y-69891932D01*
X149976593Y-69891933D01*
X149976592Y-69891933D01*
X149785416Y-69971121D01*
X149582466Y-70011490D01*
X149375534Y-70011490D01*
X149172584Y-69971121D01*
X148981408Y-69891933D01*
X148981407Y-69891933D01*
X148981406Y-69891932D01*
X148809352Y-69776969D01*
X148663031Y-69630648D01*
X148548068Y-69458594D01*
X148548067Y-69458592D01*
X148468879Y-69267416D01*
X148428510Y-69064466D01*
X148428510Y-68857534D01*
X148468879Y-68654584D01*
X148548067Y-68463408D01*
X148663031Y-68291352D01*
X148809352Y-68145031D01*
X148981406Y-68030068D01*
X148981408Y-68030067D01*
X149172584Y-67950879D01*
X149375534Y-67910510D01*
X149582466Y-67910510D01*
X149785416Y-67950879D01*
X149785416Y-67950879D01*
G37*
G36*
X144705416Y-67950879D02*
G01*
X144896592Y-68030067D01*
X144896594Y-68030068D01*
X145068648Y-68145031D01*
X145214969Y-68291352D01*
X145329933Y-68463408D01*
X145409121Y-68654584D01*
X145449490Y-68857534D01*
X145449490Y-69064466D01*
X145409121Y-69267416D01*
X145329933Y-69458592D01*
X145329932Y-69458594D01*
X145214969Y-69630648D01*
X145068648Y-69776969D01*
X144896594Y-69891932D01*
X144896593Y-69891933D01*
X144896592Y-69891933D01*
X144705416Y-69971121D01*
X144502466Y-70011490D01*
X144295534Y-70011490D01*
X144092584Y-69971121D01*
X143901408Y-69891933D01*
X143901407Y-69891933D01*
X143901406Y-69891932D01*
X143729352Y-69776969D01*
X143583031Y-69630648D01*
X143468068Y-69458594D01*
X143468067Y-69458592D01*
X143388879Y-69267416D01*
X143348510Y-69064466D01*
X143348510Y-68857534D01*
X143388879Y-68654584D01*
X143468067Y-68463408D01*
X143583031Y-68291352D01*
X143729352Y-68145031D01*
X143901406Y-68030068D01*
X143901408Y-68030067D01*
X144092584Y-67950879D01*
X144295534Y-67910510D01*
X144502466Y-67910510D01*
X144705416Y-67950879D01*
X144705416Y-67950879D01*
G37*
G36*
X142165416Y-67950879D02*
G01*
X142356592Y-68030067D01*
X142356594Y-68030068D01*
X142528648Y-68145031D01*
X142674969Y-68291352D01*
X142789933Y-68463408D01*
X142869121Y-68654584D01*
X142909490Y-68857534D01*
X142909490Y-69064466D01*
X142869121Y-69267416D01*
X142789933Y-69458592D01*
X142789932Y-69458594D01*
X142674969Y-69630648D01*
X142528648Y-69776969D01*
X142356594Y-69891932D01*
X142356593Y-69891933D01*
X142356592Y-69891933D01*
X142165416Y-69971121D01*
X141962466Y-70011490D01*
X141755534Y-70011490D01*
X141552584Y-69971121D01*
X141361408Y-69891933D01*
X141361407Y-69891933D01*
X141361406Y-69891932D01*
X141189352Y-69776969D01*
X141043031Y-69630648D01*
X140928068Y-69458594D01*
X140928067Y-69458592D01*
X140848879Y-69267416D01*
X140808510Y-69064466D01*
X140808510Y-68857534D01*
X140848879Y-68654584D01*
X140928067Y-68463408D01*
X141043031Y-68291352D01*
X141189352Y-68145031D01*
X141361406Y-68030068D01*
X141361408Y-68030067D01*
X141552584Y-67950879D01*
X141755534Y-67910510D01*
X141962466Y-67910510D01*
X142165416Y-67950879D01*
X142165416Y-67950879D01*
G37*
G36*
X152325416Y-67950879D02*
G01*
X152516592Y-68030067D01*
X152516594Y-68030068D01*
X152688648Y-68145031D01*
X152834969Y-68291352D01*
X152949933Y-68463408D01*
X153029121Y-68654584D01*
X153069490Y-68857534D01*
X153069490Y-69064466D01*
X153029121Y-69267416D01*
X152949933Y-69458592D01*
X152949932Y-69458594D01*
X152834969Y-69630648D01*
X152688648Y-69776969D01*
X152516594Y-69891932D01*
X152516593Y-69891933D01*
X152516592Y-69891933D01*
X152325416Y-69971121D01*
X152122466Y-70011490D01*
X151915534Y-70011490D01*
X151712584Y-69971121D01*
X151521408Y-69891933D01*
X151521407Y-69891933D01*
X151521406Y-69891932D01*
X151349352Y-69776969D01*
X151203031Y-69630648D01*
X151088068Y-69458594D01*
X151088067Y-69458592D01*
X151008879Y-69267416D01*
X150968510Y-69064466D01*
X150968510Y-68857534D01*
X151008879Y-68654584D01*
X151088067Y-68463408D01*
X151203031Y-68291352D01*
X151349352Y-68145031D01*
X151521406Y-68030068D01*
X151521408Y-68030067D01*
X151712584Y-67950879D01*
X151915534Y-67910510D01*
X152122466Y-67910510D01*
X152325416Y-67950879D01*
X152325416Y-67950879D01*
G37*
G36*
X165025416Y-65410879D02*
G01*
X165216592Y-65490067D01*
X165216594Y-65490068D01*
X165388648Y-65605031D01*
X165534969Y-65751352D01*
X165649933Y-65923408D01*
X165729121Y-66114584D01*
X165769490Y-66317534D01*
X165769490Y-66524466D01*
X165729121Y-66727416D01*
X165649933Y-66918592D01*
X165649932Y-66918594D01*
X165534969Y-67090648D01*
X165388648Y-67236969D01*
X165216594Y-67351932D01*
X165216593Y-67351933D01*
X165216592Y-67351933D01*
X165025416Y-67431121D01*
X164822466Y-67471490D01*
X164615534Y-67471490D01*
X164412584Y-67431121D01*
X164221408Y-67351933D01*
X164221407Y-67351933D01*
X164221406Y-67351932D01*
X164049352Y-67236969D01*
X163903031Y-67090648D01*
X163788068Y-66918594D01*
X163788067Y-66918592D01*
X163708879Y-66727416D01*
X163668510Y-66524466D01*
X163668510Y-66317534D01*
X163708879Y-66114584D01*
X163788067Y-65923408D01*
X163903031Y-65751352D01*
X164049352Y-65605031D01*
X164221406Y-65490068D01*
X164221408Y-65490067D01*
X164412584Y-65410879D01*
X164615534Y-65370510D01*
X164822466Y-65370510D01*
X165025416Y-65410879D01*
X165025416Y-65410879D01*
G37*
G36*
X162485416Y-65410879D02*
G01*
X162676592Y-65490067D01*
X162676594Y-65490068D01*
X162848648Y-65605031D01*
X162994969Y-65751352D01*
X163109933Y-65923408D01*
X163189121Y-66114584D01*
X163229490Y-66317534D01*
X163229490Y-66524466D01*
X163189121Y-66727416D01*
X163109933Y-66918592D01*
X163109932Y-66918594D01*
X162994969Y-67090648D01*
X162848648Y-67236969D01*
X162676594Y-67351932D01*
X162676593Y-67351933D01*
X162676592Y-67351933D01*
X162485416Y-67431121D01*
X162282466Y-67471490D01*
X162075534Y-67471490D01*
X161872584Y-67431121D01*
X161681408Y-67351933D01*
X161681407Y-67351933D01*
X161681406Y-67351932D01*
X161509352Y-67236969D01*
X161363031Y-67090648D01*
X161248068Y-66918594D01*
X161248067Y-66918592D01*
X161168879Y-66727416D01*
X161128510Y-66524466D01*
X161128510Y-66317534D01*
X161168879Y-66114584D01*
X161248067Y-65923408D01*
X161363031Y-65751352D01*
X161509352Y-65605031D01*
X161681406Y-65490068D01*
X161681408Y-65490067D01*
X161872584Y-65410879D01*
X162075534Y-65370510D01*
X162282466Y-65370510D01*
X162485416Y-65410879D01*
X162485416Y-65410879D01*
G37*
G36*
X154865416Y-65410879D02*
G01*
X155056592Y-65490067D01*
X155056594Y-65490068D01*
X155228648Y-65605031D01*
X155374969Y-65751352D01*
X155489933Y-65923408D01*
X155569121Y-66114584D01*
X155609490Y-66317534D01*
X155609490Y-66524466D01*
X155569121Y-66727416D01*
X155489933Y-66918592D01*
X155489932Y-66918594D01*
X155374969Y-67090648D01*
X155228648Y-67236969D01*
X155056594Y-67351932D01*
X155056593Y-67351933D01*
X155056592Y-67351933D01*
X154865416Y-67431121D01*
X154662466Y-67471490D01*
X154455534Y-67471490D01*
X154252584Y-67431121D01*
X154061408Y-67351933D01*
X154061407Y-67351933D01*
X154061406Y-67351932D01*
X153889352Y-67236969D01*
X153743031Y-67090648D01*
X153628068Y-66918594D01*
X153628067Y-66918592D01*
X153548879Y-66727416D01*
X153508510Y-66524466D01*
X153508510Y-66317534D01*
X153548879Y-66114584D01*
X153628067Y-65923408D01*
X153743031Y-65751352D01*
X153889352Y-65605031D01*
X154061406Y-65490068D01*
X154061408Y-65490067D01*
X154252584Y-65410879D01*
X154455534Y-65370510D01*
X154662466Y-65370510D01*
X154865416Y-65410879D01*
X154865416Y-65410879D01*
G37*
G36*
X152325416Y-65410879D02*
G01*
X152516592Y-65490067D01*
X152516594Y-65490068D01*
X152688648Y-65605031D01*
X152834969Y-65751352D01*
X152949933Y-65923408D01*
X153029121Y-66114584D01*
X153069490Y-66317534D01*
X153069490Y-66524466D01*
X153029121Y-66727416D01*
X152949933Y-66918592D01*
X152949932Y-66918594D01*
X152834969Y-67090648D01*
X152688648Y-67236969D01*
X152516594Y-67351932D01*
X152516593Y-67351933D01*
X152516592Y-67351933D01*
X152325416Y-67431121D01*
X152122466Y-67471490D01*
X151915534Y-67471490D01*
X151712584Y-67431121D01*
X151521408Y-67351933D01*
X151521407Y-67351933D01*
X151521406Y-67351932D01*
X151349352Y-67236969D01*
X151203031Y-67090648D01*
X151088068Y-66918594D01*
X151088067Y-66918592D01*
X151008879Y-66727416D01*
X150968510Y-66524466D01*
X150968510Y-66317534D01*
X151008879Y-66114584D01*
X151088067Y-65923408D01*
X151203031Y-65751352D01*
X151349352Y-65605031D01*
X151521406Y-65490068D01*
X151521408Y-65490067D01*
X151712584Y-65410879D01*
X151915534Y-65370510D01*
X152122466Y-65370510D01*
X152325416Y-65410879D01*
X152325416Y-65410879D01*
G37*
G36*
X149785416Y-65410879D02*
G01*
X149976592Y-65490067D01*
X149976594Y-65490068D01*
X150148648Y-65605031D01*
X150294969Y-65751352D01*
X150409933Y-65923408D01*
X150489121Y-66114584D01*
X150529490Y-66317534D01*
X150529490Y-66524466D01*
X150489121Y-66727416D01*
X150409933Y-66918592D01*
X150409932Y-66918594D01*
X150294969Y-67090648D01*
X150148648Y-67236969D01*
X149976594Y-67351932D01*
X149976593Y-67351933D01*
X149976592Y-67351933D01*
X149785416Y-67431121D01*
X149582466Y-67471490D01*
X149375534Y-67471490D01*
X149172584Y-67431121D01*
X148981408Y-67351933D01*
X148981407Y-67351933D01*
X148981406Y-67351932D01*
X148809352Y-67236969D01*
X148663031Y-67090648D01*
X148548068Y-66918594D01*
X148548067Y-66918592D01*
X148468879Y-66727416D01*
X148428510Y-66524466D01*
X148428510Y-66317534D01*
X148468879Y-66114584D01*
X148548067Y-65923408D01*
X148663031Y-65751352D01*
X148809352Y-65605031D01*
X148981406Y-65490068D01*
X148981408Y-65490067D01*
X149172584Y-65410879D01*
X149375534Y-65370510D01*
X149582466Y-65370510D01*
X149785416Y-65410879D01*
X149785416Y-65410879D01*
G37*
G36*
X147245416Y-65410879D02*
G01*
X147436592Y-65490067D01*
X147436594Y-65490068D01*
X147608648Y-65605031D01*
X147754969Y-65751352D01*
X147869933Y-65923408D01*
X147949121Y-66114584D01*
X147989490Y-66317534D01*
X147989490Y-66524466D01*
X147949121Y-66727416D01*
X147869933Y-66918592D01*
X147869932Y-66918594D01*
X147754969Y-67090648D01*
X147608648Y-67236969D01*
X147436594Y-67351932D01*
X147436593Y-67351933D01*
X147436592Y-67351933D01*
X147245416Y-67431121D01*
X147042466Y-67471490D01*
X146835534Y-67471490D01*
X146632584Y-67431121D01*
X146441408Y-67351933D01*
X146441407Y-67351933D01*
X146441406Y-67351932D01*
X146269352Y-67236969D01*
X146123031Y-67090648D01*
X146008068Y-66918594D01*
X146008067Y-66918592D01*
X145928879Y-66727416D01*
X145888510Y-66524466D01*
X145888510Y-66317534D01*
X145928879Y-66114584D01*
X146008067Y-65923408D01*
X146123031Y-65751352D01*
X146269352Y-65605031D01*
X146441406Y-65490068D01*
X146441408Y-65490067D01*
X146632584Y-65410879D01*
X146835534Y-65370510D01*
X147042466Y-65370510D01*
X147245416Y-65410879D01*
X147245416Y-65410879D01*
G37*
G36*
X157405416Y-65410879D02*
G01*
X157596592Y-65490067D01*
X157596594Y-65490068D01*
X157768648Y-65605031D01*
X157914969Y-65751352D01*
X158029933Y-65923408D01*
X158109121Y-66114584D01*
X158149490Y-66317534D01*
X158149490Y-66524466D01*
X158109121Y-66727416D01*
X158029933Y-66918592D01*
X158029932Y-66918594D01*
X157914969Y-67090648D01*
X157768648Y-67236969D01*
X157596594Y-67351932D01*
X157596593Y-67351933D01*
X157596592Y-67351933D01*
X157405416Y-67431121D01*
X157202466Y-67471490D01*
X156995534Y-67471490D01*
X156792584Y-67431121D01*
X156601408Y-67351933D01*
X156601407Y-67351933D01*
X156601406Y-67351932D01*
X156429352Y-67236969D01*
X156283031Y-67090648D01*
X156168068Y-66918594D01*
X156168067Y-66918592D01*
X156088879Y-66727416D01*
X156048510Y-66524466D01*
X156048510Y-66317534D01*
X156088879Y-66114584D01*
X156168067Y-65923408D01*
X156283031Y-65751352D01*
X156429352Y-65605031D01*
X156601406Y-65490068D01*
X156601408Y-65490067D01*
X156792584Y-65410879D01*
X156995534Y-65370510D01*
X157202466Y-65370510D01*
X157405416Y-65410879D01*
X157405416Y-65410879D01*
G37*
G36*
X159945416Y-65410879D02*
G01*
X160136592Y-65490067D01*
X160136594Y-65490068D01*
X160308648Y-65605031D01*
X160454969Y-65751352D01*
X160569933Y-65923408D01*
X160649121Y-66114584D01*
X160689490Y-66317534D01*
X160689490Y-66524466D01*
X160649121Y-66727416D01*
X160569933Y-66918592D01*
X160569932Y-66918594D01*
X160454969Y-67090648D01*
X160308648Y-67236969D01*
X160136594Y-67351932D01*
X160136593Y-67351933D01*
X160136592Y-67351933D01*
X159945416Y-67431121D01*
X159742466Y-67471490D01*
X159535534Y-67471490D01*
X159332584Y-67431121D01*
X159141408Y-67351933D01*
X159141407Y-67351933D01*
X159141406Y-67351932D01*
X158969352Y-67236969D01*
X158823031Y-67090648D01*
X158708068Y-66918594D01*
X158708067Y-66918592D01*
X158628879Y-66727416D01*
X158588510Y-66524466D01*
X158588510Y-66317534D01*
X158628879Y-66114584D01*
X158708067Y-65923408D01*
X158823031Y-65751352D01*
X158969352Y-65605031D01*
X159141406Y-65490068D01*
X159141408Y-65490067D01*
X159332584Y-65410879D01*
X159535534Y-65370510D01*
X159742466Y-65370510D01*
X159945416Y-65410879D01*
X159945416Y-65410879D01*
G37*
G36*
X139625416Y-65410879D02*
G01*
X139816592Y-65490067D01*
X139816594Y-65490068D01*
X139988648Y-65605031D01*
X140134969Y-65751352D01*
X140249933Y-65923408D01*
X140329121Y-66114584D01*
X140369490Y-66317534D01*
X140369490Y-66524466D01*
X140329121Y-66727416D01*
X140249933Y-66918592D01*
X140249932Y-66918594D01*
X140134969Y-67090648D01*
X139988648Y-67236969D01*
X139816594Y-67351932D01*
X139816593Y-67351933D01*
X139816592Y-67351933D01*
X139625416Y-67431121D01*
X139422466Y-67471490D01*
X139215534Y-67471490D01*
X139012584Y-67431121D01*
X138821408Y-67351933D01*
X138821407Y-67351933D01*
X138821406Y-67351932D01*
X138649352Y-67236969D01*
X138503031Y-67090648D01*
X138388068Y-66918594D01*
X138388067Y-66918592D01*
X138308879Y-66727416D01*
X138268510Y-66524466D01*
X138268510Y-66317534D01*
X138308879Y-66114584D01*
X138388067Y-65923408D01*
X138503031Y-65751352D01*
X138649352Y-65605031D01*
X138821406Y-65490068D01*
X138821408Y-65490067D01*
X139012584Y-65410879D01*
X139215534Y-65370510D01*
X139422466Y-65370510D01*
X139625416Y-65410879D01*
X139625416Y-65410879D01*
G37*
G36*
X142165416Y-65410879D02*
G01*
X142356592Y-65490067D01*
X142356594Y-65490068D01*
X142528648Y-65605031D01*
X142674969Y-65751352D01*
X142789933Y-65923408D01*
X142869121Y-66114584D01*
X142909490Y-66317534D01*
X142909490Y-66524466D01*
X142869121Y-66727416D01*
X142789933Y-66918592D01*
X142789932Y-66918594D01*
X142674969Y-67090648D01*
X142528648Y-67236969D01*
X142356594Y-67351932D01*
X142356593Y-67351933D01*
X142356592Y-67351933D01*
X142165416Y-67431121D01*
X141962466Y-67471490D01*
X141755534Y-67471490D01*
X141552584Y-67431121D01*
X141361408Y-67351933D01*
X141361407Y-67351933D01*
X141361406Y-67351932D01*
X141189352Y-67236969D01*
X141043031Y-67090648D01*
X140928068Y-66918594D01*
X140928067Y-66918592D01*
X140848879Y-66727416D01*
X140808510Y-66524466D01*
X140808510Y-66317534D01*
X140848879Y-66114584D01*
X140928067Y-65923408D01*
X141043031Y-65751352D01*
X141189352Y-65605031D01*
X141361406Y-65490068D01*
X141361408Y-65490067D01*
X141552584Y-65410879D01*
X141755534Y-65370510D01*
X141962466Y-65370510D01*
X142165416Y-65410879D01*
X142165416Y-65410879D01*
G37*
G36*
X144705416Y-65410879D02*
G01*
X144896592Y-65490067D01*
X144896594Y-65490068D01*
X145068648Y-65605031D01*
X145214969Y-65751352D01*
X145329933Y-65923408D01*
X145409121Y-66114584D01*
X145449490Y-66317534D01*
X145449490Y-66524466D01*
X145409121Y-66727416D01*
X145329933Y-66918592D01*
X145329932Y-66918594D01*
X145214969Y-67090648D01*
X145068648Y-67236969D01*
X144896594Y-67351932D01*
X144896593Y-67351933D01*
X144896592Y-67351933D01*
X144705416Y-67431121D01*
X144502466Y-67471490D01*
X144295534Y-67471490D01*
X144092584Y-67431121D01*
X143901408Y-67351933D01*
X143901407Y-67351933D01*
X143901406Y-67351932D01*
X143729352Y-67236969D01*
X143583031Y-67090648D01*
X143468068Y-66918594D01*
X143468067Y-66918592D01*
X143388879Y-66727416D01*
X143348510Y-66524466D01*
X143348510Y-66317534D01*
X143388879Y-66114584D01*
X143468067Y-65923408D01*
X143583031Y-65751352D01*
X143729352Y-65605031D01*
X143901406Y-65490068D01*
X143901408Y-65490067D01*
X144092584Y-65410879D01*
X144295534Y-65370510D01*
X144502466Y-65370510D01*
X144705416Y-65410879D01*
X144705416Y-65410879D01*
G37*
G36*
X162485416Y-62870879D02*
G01*
X162633602Y-62932260D01*
X162676594Y-62950068D01*
X162848039Y-63064624D01*
X162848648Y-63065031D01*
X162994969Y-63211352D01*
X163109933Y-63383408D01*
X163189121Y-63574584D01*
X163229490Y-63777534D01*
X163229490Y-63984466D01*
X163189121Y-64187416D01*
X163109933Y-64378592D01*
X163109932Y-64378594D01*
X162994969Y-64550648D01*
X162848648Y-64696969D01*
X162676594Y-64811932D01*
X162676593Y-64811933D01*
X162676592Y-64811933D01*
X162485416Y-64891121D01*
X162282466Y-64931490D01*
X162075534Y-64931490D01*
X161872584Y-64891121D01*
X161681408Y-64811933D01*
X161681407Y-64811933D01*
X161681406Y-64811932D01*
X161509352Y-64696969D01*
X161363031Y-64550648D01*
X161248068Y-64378594D01*
X161248067Y-64378592D01*
X161168879Y-64187416D01*
X161128510Y-63984466D01*
X161128510Y-63777534D01*
X161168879Y-63574584D01*
X161248067Y-63383408D01*
X161363031Y-63211352D01*
X161509352Y-63065031D01*
X161509961Y-63064624D01*
X161681406Y-62950068D01*
X161724398Y-62932260D01*
X161872584Y-62870879D01*
X162075534Y-62830510D01*
X162282466Y-62830510D01*
X162485416Y-62870879D01*
X162485416Y-62870879D01*
G37*
G36*
X165025416Y-62870879D02*
G01*
X165173602Y-62932260D01*
X165216594Y-62950068D01*
X165388039Y-63064624D01*
X165388648Y-63065031D01*
X165534969Y-63211352D01*
X165649933Y-63383408D01*
X165729121Y-63574584D01*
X165769490Y-63777534D01*
X165769490Y-63984466D01*
X165729121Y-64187416D01*
X165649933Y-64378592D01*
X165649932Y-64378594D01*
X165534969Y-64550648D01*
X165388648Y-64696969D01*
X165216594Y-64811932D01*
X165216593Y-64811933D01*
X165216592Y-64811933D01*
X165025416Y-64891121D01*
X164822466Y-64931490D01*
X164615534Y-64931490D01*
X164412584Y-64891121D01*
X164221408Y-64811933D01*
X164221407Y-64811933D01*
X164221406Y-64811932D01*
X164049352Y-64696969D01*
X163903031Y-64550648D01*
X163788068Y-64378594D01*
X163788067Y-64378592D01*
X163708879Y-64187416D01*
X163668510Y-63984466D01*
X163668510Y-63777534D01*
X163708879Y-63574584D01*
X163788067Y-63383408D01*
X163903031Y-63211352D01*
X164049352Y-63065031D01*
X164049961Y-63064624D01*
X164221406Y-62950068D01*
X164264398Y-62932260D01*
X164412584Y-62870879D01*
X164615534Y-62830510D01*
X164822466Y-62830510D01*
X165025416Y-62870879D01*
X165025416Y-62870879D01*
G37*
G36*
X157405416Y-62870879D02*
G01*
X157553602Y-62932260D01*
X157596594Y-62950068D01*
X157768039Y-63064624D01*
X157768648Y-63065031D01*
X157914969Y-63211352D01*
X158029933Y-63383408D01*
X158109121Y-63574584D01*
X158149490Y-63777534D01*
X158149490Y-63984466D01*
X158109121Y-64187416D01*
X158029933Y-64378592D01*
X158029932Y-64378594D01*
X157914969Y-64550648D01*
X157768648Y-64696969D01*
X157596594Y-64811932D01*
X157596593Y-64811933D01*
X157596592Y-64811933D01*
X157405416Y-64891121D01*
X157202466Y-64931490D01*
X156995534Y-64931490D01*
X156792584Y-64891121D01*
X156601408Y-64811933D01*
X156601407Y-64811933D01*
X156601406Y-64811932D01*
X156429352Y-64696969D01*
X156283031Y-64550648D01*
X156168068Y-64378594D01*
X156168067Y-64378592D01*
X156088879Y-64187416D01*
X156048510Y-63984466D01*
X156048510Y-63777534D01*
X156088879Y-63574584D01*
X156168067Y-63383408D01*
X156283031Y-63211352D01*
X156429352Y-63065031D01*
X156429961Y-63064624D01*
X156601406Y-62950068D01*
X156644398Y-62932260D01*
X156792584Y-62870879D01*
X156995534Y-62830510D01*
X157202466Y-62830510D01*
X157405416Y-62870879D01*
X157405416Y-62870879D01*
G37*
G36*
X159945416Y-62870879D02*
G01*
X160093602Y-62932260D01*
X160136594Y-62950068D01*
X160308039Y-63064624D01*
X160308648Y-63065031D01*
X160454969Y-63211352D01*
X160569933Y-63383408D01*
X160649121Y-63574584D01*
X160689490Y-63777534D01*
X160689490Y-63984466D01*
X160649121Y-64187416D01*
X160569933Y-64378592D01*
X160569932Y-64378594D01*
X160454969Y-64550648D01*
X160308648Y-64696969D01*
X160136594Y-64811932D01*
X160136593Y-64811933D01*
X160136592Y-64811933D01*
X159945416Y-64891121D01*
X159742466Y-64931490D01*
X159535534Y-64931490D01*
X159332584Y-64891121D01*
X159141408Y-64811933D01*
X159141407Y-64811933D01*
X159141406Y-64811932D01*
X158969352Y-64696969D01*
X158823031Y-64550648D01*
X158708068Y-64378594D01*
X158708067Y-64378592D01*
X158628879Y-64187416D01*
X158588510Y-63984466D01*
X158588510Y-63777534D01*
X158628879Y-63574584D01*
X158708067Y-63383408D01*
X158823031Y-63211352D01*
X158969352Y-63065031D01*
X158969961Y-63064624D01*
X159141406Y-62950068D01*
X159184398Y-62932260D01*
X159332584Y-62870879D01*
X159535534Y-62830510D01*
X159742466Y-62830510D01*
X159945416Y-62870879D01*
X159945416Y-62870879D01*
G37*
G36*
X152325416Y-62870879D02*
G01*
X152473602Y-62932260D01*
X152516594Y-62950068D01*
X152688039Y-63064624D01*
X152688648Y-63065031D01*
X152834969Y-63211352D01*
X152949933Y-63383408D01*
X153029121Y-63574584D01*
X153069490Y-63777534D01*
X153069490Y-63984466D01*
X153029121Y-64187416D01*
X152949933Y-64378592D01*
X152949932Y-64378594D01*
X152834969Y-64550648D01*
X152688648Y-64696969D01*
X152516594Y-64811932D01*
X152516593Y-64811933D01*
X152516592Y-64811933D01*
X152325416Y-64891121D01*
X152122466Y-64931490D01*
X151915534Y-64931490D01*
X151712584Y-64891121D01*
X151521408Y-64811933D01*
X151521407Y-64811933D01*
X151521406Y-64811932D01*
X151349352Y-64696969D01*
X151203031Y-64550648D01*
X151088068Y-64378594D01*
X151088067Y-64378592D01*
X151008879Y-64187416D01*
X150968510Y-63984466D01*
X150968510Y-63777534D01*
X151008879Y-63574584D01*
X151088067Y-63383408D01*
X151203031Y-63211352D01*
X151349352Y-63065031D01*
X151349961Y-63064624D01*
X151521406Y-62950068D01*
X151564398Y-62932260D01*
X151712584Y-62870879D01*
X151915534Y-62830510D01*
X152122466Y-62830510D01*
X152325416Y-62870879D01*
X152325416Y-62870879D01*
G37*
G36*
X147245416Y-62870879D02*
G01*
X147393602Y-62932260D01*
X147436594Y-62950068D01*
X147608039Y-63064624D01*
X147608648Y-63065031D01*
X147754969Y-63211352D01*
X147869933Y-63383408D01*
X147949121Y-63574584D01*
X147989490Y-63777534D01*
X147989490Y-63984466D01*
X147949121Y-64187416D01*
X147869933Y-64378592D01*
X147869932Y-64378594D01*
X147754969Y-64550648D01*
X147608648Y-64696969D01*
X147436594Y-64811932D01*
X147436593Y-64811933D01*
X147436592Y-64811933D01*
X147245416Y-64891121D01*
X147042466Y-64931490D01*
X146835534Y-64931490D01*
X146632584Y-64891121D01*
X146441408Y-64811933D01*
X146441407Y-64811933D01*
X146441406Y-64811932D01*
X146269352Y-64696969D01*
X146123031Y-64550648D01*
X146008068Y-64378594D01*
X146008067Y-64378592D01*
X145928879Y-64187416D01*
X145888510Y-63984466D01*
X145888510Y-63777534D01*
X145928879Y-63574584D01*
X146008067Y-63383408D01*
X146123031Y-63211352D01*
X146269352Y-63065031D01*
X146269961Y-63064624D01*
X146441406Y-62950068D01*
X146484398Y-62932260D01*
X146632584Y-62870879D01*
X146835534Y-62830510D01*
X147042466Y-62830510D01*
X147245416Y-62870879D01*
X147245416Y-62870879D01*
G37*
G36*
X144705416Y-62870879D02*
G01*
X144853602Y-62932260D01*
X144896594Y-62950068D01*
X145068039Y-63064624D01*
X145068648Y-63065031D01*
X145214969Y-63211352D01*
X145329933Y-63383408D01*
X145409121Y-63574584D01*
X145449490Y-63777534D01*
X145449490Y-63984466D01*
X145409121Y-64187416D01*
X145329933Y-64378592D01*
X145329932Y-64378594D01*
X145214969Y-64550648D01*
X145068648Y-64696969D01*
X144896594Y-64811932D01*
X144896593Y-64811933D01*
X144896592Y-64811933D01*
X144705416Y-64891121D01*
X144502466Y-64931490D01*
X144295534Y-64931490D01*
X144092584Y-64891121D01*
X143901408Y-64811933D01*
X143901407Y-64811933D01*
X143901406Y-64811932D01*
X143729352Y-64696969D01*
X143583031Y-64550648D01*
X143468068Y-64378594D01*
X143468067Y-64378592D01*
X143388879Y-64187416D01*
X143348510Y-63984466D01*
X143348510Y-63777534D01*
X143388879Y-63574584D01*
X143468067Y-63383408D01*
X143583031Y-63211352D01*
X143729352Y-63065031D01*
X143729961Y-63064624D01*
X143901406Y-62950068D01*
X143944398Y-62932260D01*
X144092584Y-62870879D01*
X144295534Y-62830510D01*
X144502466Y-62830510D01*
X144705416Y-62870879D01*
X144705416Y-62870879D01*
G37*
G36*
X142165416Y-62870879D02*
G01*
X142313602Y-62932260D01*
X142356594Y-62950068D01*
X142528039Y-63064624D01*
X142528648Y-63065031D01*
X142674969Y-63211352D01*
X142789933Y-63383408D01*
X142869121Y-63574584D01*
X142909490Y-63777534D01*
X142909490Y-63984466D01*
X142869121Y-64187416D01*
X142789933Y-64378592D01*
X142789932Y-64378594D01*
X142674969Y-64550648D01*
X142528648Y-64696969D01*
X142356594Y-64811932D01*
X142356593Y-64811933D01*
X142356592Y-64811933D01*
X142165416Y-64891121D01*
X141962466Y-64931490D01*
X141755534Y-64931490D01*
X141552584Y-64891121D01*
X141361408Y-64811933D01*
X141361407Y-64811933D01*
X141361406Y-64811932D01*
X141189352Y-64696969D01*
X141043031Y-64550648D01*
X140928068Y-64378594D01*
X140928067Y-64378592D01*
X140848879Y-64187416D01*
X140808510Y-63984466D01*
X140808510Y-63777534D01*
X140848879Y-63574584D01*
X140928067Y-63383408D01*
X141043031Y-63211352D01*
X141189352Y-63065031D01*
X141189961Y-63064624D01*
X141361406Y-62950068D01*
X141404398Y-62932260D01*
X141552584Y-62870879D01*
X141755534Y-62830510D01*
X141962466Y-62830510D01*
X142165416Y-62870879D01*
X142165416Y-62870879D01*
G37*
G36*
X139625416Y-62870879D02*
G01*
X139773602Y-62932260D01*
X139816594Y-62950068D01*
X139988039Y-63064624D01*
X139988648Y-63065031D01*
X140134969Y-63211352D01*
X140249933Y-63383408D01*
X140329121Y-63574584D01*
X140369490Y-63777534D01*
X140369490Y-63984466D01*
X140329121Y-64187416D01*
X140249933Y-64378592D01*
X140249932Y-64378594D01*
X140134969Y-64550648D01*
X139988648Y-64696969D01*
X139816594Y-64811932D01*
X139816593Y-64811933D01*
X139816592Y-64811933D01*
X139625416Y-64891121D01*
X139422466Y-64931490D01*
X139215534Y-64931490D01*
X139012584Y-64891121D01*
X138821408Y-64811933D01*
X138821407Y-64811933D01*
X138821406Y-64811932D01*
X138649352Y-64696969D01*
X138503031Y-64550648D01*
X138388068Y-64378594D01*
X138388067Y-64378592D01*
X138308879Y-64187416D01*
X138268510Y-63984466D01*
X138268510Y-63777534D01*
X138308879Y-63574584D01*
X138388067Y-63383408D01*
X138503031Y-63211352D01*
X138649352Y-63065031D01*
X138649961Y-63064624D01*
X138821406Y-62950068D01*
X138864398Y-62932260D01*
X139012584Y-62870879D01*
X139215534Y-62830510D01*
X139422466Y-62830510D01*
X139625416Y-62870879D01*
X139625416Y-62870879D01*
G37*
G36*
X154865416Y-62870879D02*
G01*
X155013602Y-62932260D01*
X155056594Y-62950068D01*
X155228039Y-63064624D01*
X155228648Y-63065031D01*
X155374969Y-63211352D01*
X155489933Y-63383408D01*
X155569121Y-63574584D01*
X155609490Y-63777534D01*
X155609490Y-63984466D01*
X155569121Y-64187416D01*
X155489933Y-64378592D01*
X155489932Y-64378594D01*
X155374969Y-64550648D01*
X155228648Y-64696969D01*
X155056594Y-64811932D01*
X155056593Y-64811933D01*
X155056592Y-64811933D01*
X154865416Y-64891121D01*
X154662466Y-64931490D01*
X154455534Y-64931490D01*
X154252584Y-64891121D01*
X154061408Y-64811933D01*
X154061407Y-64811933D01*
X154061406Y-64811932D01*
X153889352Y-64696969D01*
X153743031Y-64550648D01*
X153628068Y-64378594D01*
X153628067Y-64378592D01*
X153548879Y-64187416D01*
X153508510Y-63984466D01*
X153508510Y-63777534D01*
X153548879Y-63574584D01*
X153628067Y-63383408D01*
X153743031Y-63211352D01*
X153889352Y-63065031D01*
X153889961Y-63064624D01*
X154061406Y-62950068D01*
X154104398Y-62932260D01*
X154252584Y-62870879D01*
X154455534Y-62830510D01*
X154662466Y-62830510D01*
X154865416Y-62870879D01*
X154865416Y-62870879D01*
G37*
G36*
X149785416Y-62870879D02*
G01*
X149933602Y-62932260D01*
X149976594Y-62950068D01*
X150148039Y-63064624D01*
X150148648Y-63065031D01*
X150294969Y-63211352D01*
X150409933Y-63383408D01*
X150489121Y-63574584D01*
X150529490Y-63777534D01*
X150529490Y-63984466D01*
X150489121Y-64187416D01*
X150409933Y-64378592D01*
X150409932Y-64378594D01*
X150294969Y-64550648D01*
X150148648Y-64696969D01*
X149976594Y-64811932D01*
X149976593Y-64811933D01*
X149976592Y-64811933D01*
X149785416Y-64891121D01*
X149582466Y-64931490D01*
X149375534Y-64931490D01*
X149172584Y-64891121D01*
X148981408Y-64811933D01*
X148981407Y-64811933D01*
X148981406Y-64811932D01*
X148809352Y-64696969D01*
X148663031Y-64550648D01*
X148548068Y-64378594D01*
X148548067Y-64378592D01*
X148468879Y-64187416D01*
X148428510Y-63984466D01*
X148428510Y-63777534D01*
X148468879Y-63574584D01*
X148548067Y-63383408D01*
X148663031Y-63211352D01*
X148809352Y-63065031D01*
X148809961Y-63064624D01*
X148981406Y-62950068D01*
X149024398Y-62932260D01*
X149172584Y-62870879D01*
X149375534Y-62830510D01*
X149582466Y-62830510D01*
X149785416Y-62870879D01*
X149785416Y-62870879D01*
G37*
G36*
X131534627Y-61700037D02*
G01*
X131704466Y-61751557D01*
X131860991Y-61835222D01*
X131896729Y-61864552D01*
X131998186Y-61947814D01*
X132081448Y-62049271D01*
X132110778Y-62085009D01*
X132194443Y-62241534D01*
X132245963Y-62411374D01*
X132259000Y-62543743D01*
X132259000Y-62932258D01*
X132245963Y-63064627D01*
X132194443Y-63234466D01*
X132110778Y-63390991D01*
X132081448Y-63426729D01*
X131998186Y-63528186D01*
X131860989Y-63640779D01*
X131704467Y-63724442D01*
X131704465Y-63724443D01*
X131534626Y-63775963D01*
X131358000Y-63793359D01*
X131181373Y-63775963D01*
X131011534Y-63724443D01*
X130855009Y-63640778D01*
X130812750Y-63606097D01*
X130717814Y-63528186D01*
X130605221Y-63390989D01*
X130521558Y-63234467D01*
X130470160Y-63065031D01*
X130470037Y-63064626D01*
X130457000Y-62932257D01*
X130457000Y-62543742D01*
X130470037Y-62411373D01*
X130521557Y-62241534D01*
X130605222Y-62085009D01*
X130717815Y-61947815D01*
X130855010Y-61835222D01*
X131011535Y-61751557D01*
X131181374Y-61700037D01*
X131358000Y-61682641D01*
X131534627Y-61700037D01*
X131534627Y-61700037D01*
G37*
G36*
X134616600Y-61690989D02*
G01*
X134649652Y-61701015D01*
X134680103Y-61717292D01*
X134706799Y-61739201D01*
X134728708Y-61765897D01*
X134744985Y-61796348D01*
X134755011Y-61829400D01*
X134759000Y-61869903D01*
X134759000Y-63606097D01*
X134755011Y-63646600D01*
X134744985Y-63679652D01*
X134728708Y-63710103D01*
X134706799Y-63736799D01*
X134680103Y-63758708D01*
X134649652Y-63774985D01*
X134616600Y-63785011D01*
X134576097Y-63789000D01*
X133139903Y-63789000D01*
X133099400Y-63785011D01*
X133066348Y-63774985D01*
X133035897Y-63758708D01*
X133009201Y-63736799D01*
X132987292Y-63710103D01*
X132971015Y-63679652D01*
X132960989Y-63646600D01*
X132957000Y-63606097D01*
X132957000Y-61869903D01*
X132960989Y-61829400D01*
X132971015Y-61796348D01*
X132987292Y-61765897D01*
X133009201Y-61739201D01*
X133035897Y-61717292D01*
X133066348Y-61701015D01*
X133099400Y-61690989D01*
X133139903Y-61687000D01*
X134576097Y-61687000D01*
X134616600Y-61690989D01*
X134616600Y-61690989D01*
G37*
G36*
X165025416Y-60330879D02*
G01*
X165216592Y-60410067D01*
X165216594Y-60410068D01*
X165388648Y-60525031D01*
X165534969Y-60671352D01*
X165649933Y-60843408D01*
X165729121Y-61034584D01*
X165769490Y-61237534D01*
X165769490Y-61444466D01*
X165729121Y-61647416D01*
X165680044Y-61765897D01*
X165649932Y-61838594D01*
X165534969Y-62010648D01*
X165388648Y-62156969D01*
X165216594Y-62271932D01*
X165216593Y-62271933D01*
X165216592Y-62271933D01*
X165025416Y-62351121D01*
X164822466Y-62391490D01*
X164615534Y-62391490D01*
X164412584Y-62351121D01*
X164221408Y-62271933D01*
X164221407Y-62271933D01*
X164221406Y-62271932D01*
X164049352Y-62156969D01*
X163903031Y-62010648D01*
X163788068Y-61838594D01*
X163757956Y-61765897D01*
X163708879Y-61647416D01*
X163668510Y-61444466D01*
X163668510Y-61237534D01*
X163708879Y-61034584D01*
X163788067Y-60843408D01*
X163903031Y-60671352D01*
X164049352Y-60525031D01*
X164221406Y-60410068D01*
X164221408Y-60410067D01*
X164412584Y-60330879D01*
X164615534Y-60290510D01*
X164822466Y-60290510D01*
X165025416Y-60330879D01*
X165025416Y-60330879D01*
G37*
G36*
X154865416Y-60330879D02*
G01*
X155056592Y-60410067D01*
X155056594Y-60410068D01*
X155228648Y-60525031D01*
X155374969Y-60671352D01*
X155489933Y-60843408D01*
X155569121Y-61034584D01*
X155609490Y-61237534D01*
X155609490Y-61444466D01*
X155569121Y-61647416D01*
X155520044Y-61765897D01*
X155489932Y-61838594D01*
X155374969Y-62010648D01*
X155228648Y-62156969D01*
X155056594Y-62271932D01*
X155056593Y-62271933D01*
X155056592Y-62271933D01*
X154865416Y-62351121D01*
X154662466Y-62391490D01*
X154455534Y-62391490D01*
X154252584Y-62351121D01*
X154061408Y-62271933D01*
X154061407Y-62271933D01*
X154061406Y-62271932D01*
X153889352Y-62156969D01*
X153743031Y-62010648D01*
X153628068Y-61838594D01*
X153597956Y-61765897D01*
X153548879Y-61647416D01*
X153508510Y-61444466D01*
X153508510Y-61237534D01*
X153548879Y-61034584D01*
X153628067Y-60843408D01*
X153743031Y-60671352D01*
X153889352Y-60525031D01*
X154061406Y-60410068D01*
X154061408Y-60410067D01*
X154252584Y-60330879D01*
X154455534Y-60290510D01*
X154662466Y-60290510D01*
X154865416Y-60330879D01*
X154865416Y-60330879D01*
G37*
G36*
X152325416Y-60330879D02*
G01*
X152516592Y-60410067D01*
X152516594Y-60410068D01*
X152688648Y-60525031D01*
X152834969Y-60671352D01*
X152949933Y-60843408D01*
X153029121Y-61034584D01*
X153069490Y-61237534D01*
X153069490Y-61444466D01*
X153029121Y-61647416D01*
X152980044Y-61765897D01*
X152949932Y-61838594D01*
X152834969Y-62010648D01*
X152688648Y-62156969D01*
X152516594Y-62271932D01*
X152516593Y-62271933D01*
X152516592Y-62271933D01*
X152325416Y-62351121D01*
X152122466Y-62391490D01*
X151915534Y-62391490D01*
X151712584Y-62351121D01*
X151521408Y-62271933D01*
X151521407Y-62271933D01*
X151521406Y-62271932D01*
X151349352Y-62156969D01*
X151203031Y-62010648D01*
X151088068Y-61838594D01*
X151057956Y-61765897D01*
X151008879Y-61647416D01*
X150968510Y-61444466D01*
X150968510Y-61237534D01*
X151008879Y-61034584D01*
X151088067Y-60843408D01*
X151203031Y-60671352D01*
X151349352Y-60525031D01*
X151521406Y-60410068D01*
X151521408Y-60410067D01*
X151712584Y-60330879D01*
X151915534Y-60290510D01*
X152122466Y-60290510D01*
X152325416Y-60330879D01*
X152325416Y-60330879D01*
G37*
G36*
X149785416Y-60330879D02*
G01*
X149976592Y-60410067D01*
X149976594Y-60410068D01*
X150148648Y-60525031D01*
X150294969Y-60671352D01*
X150409933Y-60843408D01*
X150489121Y-61034584D01*
X150529490Y-61237534D01*
X150529490Y-61444466D01*
X150489121Y-61647416D01*
X150440044Y-61765897D01*
X150409932Y-61838594D01*
X150294969Y-62010648D01*
X150148648Y-62156969D01*
X149976594Y-62271932D01*
X149976593Y-62271933D01*
X149976592Y-62271933D01*
X149785416Y-62351121D01*
X149582466Y-62391490D01*
X149375534Y-62391490D01*
X149172584Y-62351121D01*
X148981408Y-62271933D01*
X148981407Y-62271933D01*
X148981406Y-62271932D01*
X148809352Y-62156969D01*
X148663031Y-62010648D01*
X148548068Y-61838594D01*
X148517956Y-61765897D01*
X148468879Y-61647416D01*
X148428510Y-61444466D01*
X148428510Y-61237534D01*
X148468879Y-61034584D01*
X148548067Y-60843408D01*
X148663031Y-60671352D01*
X148809352Y-60525031D01*
X148981406Y-60410068D01*
X148981408Y-60410067D01*
X149172584Y-60330879D01*
X149375534Y-60290510D01*
X149582466Y-60290510D01*
X149785416Y-60330879D01*
X149785416Y-60330879D01*
G37*
G36*
X147245416Y-60330879D02*
G01*
X147436592Y-60410067D01*
X147436594Y-60410068D01*
X147608648Y-60525031D01*
X147754969Y-60671352D01*
X147869933Y-60843408D01*
X147949121Y-61034584D01*
X147989490Y-61237534D01*
X147989490Y-61444466D01*
X147949121Y-61647416D01*
X147900044Y-61765897D01*
X147869932Y-61838594D01*
X147754969Y-62010648D01*
X147608648Y-62156969D01*
X147436594Y-62271932D01*
X147436593Y-62271933D01*
X147436592Y-62271933D01*
X147245416Y-62351121D01*
X147042466Y-62391490D01*
X146835534Y-62391490D01*
X146632584Y-62351121D01*
X146441408Y-62271933D01*
X146441407Y-62271933D01*
X146441406Y-62271932D01*
X146269352Y-62156969D01*
X146123031Y-62010648D01*
X146008068Y-61838594D01*
X145977956Y-61765897D01*
X145928879Y-61647416D01*
X145888510Y-61444466D01*
X145888510Y-61237534D01*
X145928879Y-61034584D01*
X146008067Y-60843408D01*
X146123031Y-60671352D01*
X146269352Y-60525031D01*
X146441406Y-60410068D01*
X146441408Y-60410067D01*
X146632584Y-60330879D01*
X146835534Y-60290510D01*
X147042466Y-60290510D01*
X147245416Y-60330879D01*
X147245416Y-60330879D01*
G37*
G36*
X144705416Y-60330879D02*
G01*
X144896592Y-60410067D01*
X144896594Y-60410068D01*
X145068648Y-60525031D01*
X145214969Y-60671352D01*
X145329933Y-60843408D01*
X145409121Y-61034584D01*
X145449490Y-61237534D01*
X145449490Y-61444466D01*
X145409121Y-61647416D01*
X145360044Y-61765897D01*
X145329932Y-61838594D01*
X145214969Y-62010648D01*
X145068648Y-62156969D01*
X144896594Y-62271932D01*
X144896593Y-62271933D01*
X144896592Y-62271933D01*
X144705416Y-62351121D01*
X144502466Y-62391490D01*
X144295534Y-62391490D01*
X144092584Y-62351121D01*
X143901408Y-62271933D01*
X143901407Y-62271933D01*
X143901406Y-62271932D01*
X143729352Y-62156969D01*
X143583031Y-62010648D01*
X143468068Y-61838594D01*
X143437956Y-61765897D01*
X143388879Y-61647416D01*
X143348510Y-61444466D01*
X143348510Y-61237534D01*
X143388879Y-61034584D01*
X143468067Y-60843408D01*
X143583031Y-60671352D01*
X143729352Y-60525031D01*
X143901406Y-60410068D01*
X143901408Y-60410067D01*
X144092584Y-60330879D01*
X144295534Y-60290510D01*
X144502466Y-60290510D01*
X144705416Y-60330879D01*
X144705416Y-60330879D01*
G37*
G36*
X142165416Y-60330879D02*
G01*
X142356592Y-60410067D01*
X142356594Y-60410068D01*
X142528648Y-60525031D01*
X142674969Y-60671352D01*
X142789933Y-60843408D01*
X142869121Y-61034584D01*
X142909490Y-61237534D01*
X142909490Y-61444466D01*
X142869121Y-61647416D01*
X142820044Y-61765897D01*
X142789932Y-61838594D01*
X142674969Y-62010648D01*
X142528648Y-62156969D01*
X142356594Y-62271932D01*
X142356593Y-62271933D01*
X142356592Y-62271933D01*
X142165416Y-62351121D01*
X141962466Y-62391490D01*
X141755534Y-62391490D01*
X141552584Y-62351121D01*
X141361408Y-62271933D01*
X141361407Y-62271933D01*
X141361406Y-62271932D01*
X141189352Y-62156969D01*
X141043031Y-62010648D01*
X140928068Y-61838594D01*
X140897956Y-61765897D01*
X140848879Y-61647416D01*
X140808510Y-61444466D01*
X140808510Y-61237534D01*
X140848879Y-61034584D01*
X140928067Y-60843408D01*
X141043031Y-60671352D01*
X141189352Y-60525031D01*
X141361406Y-60410068D01*
X141361408Y-60410067D01*
X141552584Y-60330879D01*
X141755534Y-60290510D01*
X141962466Y-60290510D01*
X142165416Y-60330879D01*
X142165416Y-60330879D01*
G37*
G36*
X139625416Y-60330879D02*
G01*
X139816592Y-60410067D01*
X139816594Y-60410068D01*
X139988648Y-60525031D01*
X140134969Y-60671352D01*
X140249933Y-60843408D01*
X140329121Y-61034584D01*
X140369490Y-61237534D01*
X140369490Y-61444466D01*
X140329121Y-61647416D01*
X140280044Y-61765897D01*
X140249932Y-61838594D01*
X140134969Y-62010648D01*
X139988648Y-62156969D01*
X139816594Y-62271932D01*
X139816593Y-62271933D01*
X139816592Y-62271933D01*
X139625416Y-62351121D01*
X139422466Y-62391490D01*
X139215534Y-62391490D01*
X139012584Y-62351121D01*
X138821408Y-62271933D01*
X138821407Y-62271933D01*
X138821406Y-62271932D01*
X138649352Y-62156969D01*
X138503031Y-62010648D01*
X138388068Y-61838594D01*
X138357956Y-61765897D01*
X138308879Y-61647416D01*
X138268510Y-61444466D01*
X138268510Y-61237534D01*
X138308879Y-61034584D01*
X138388067Y-60843408D01*
X138503031Y-60671352D01*
X138649352Y-60525031D01*
X138821406Y-60410068D01*
X138821408Y-60410067D01*
X139012584Y-60330879D01*
X139215534Y-60290510D01*
X139422466Y-60290510D01*
X139625416Y-60330879D01*
X139625416Y-60330879D01*
G37*
G36*
X157405416Y-60330879D02*
G01*
X157596592Y-60410067D01*
X157596594Y-60410068D01*
X157768648Y-60525031D01*
X157914969Y-60671352D01*
X158029933Y-60843408D01*
X158109121Y-61034584D01*
X158149490Y-61237534D01*
X158149490Y-61444466D01*
X158109121Y-61647416D01*
X158060044Y-61765897D01*
X158029932Y-61838594D01*
X157914969Y-62010648D01*
X157768648Y-62156969D01*
X157596594Y-62271932D01*
X157596593Y-62271933D01*
X157596592Y-62271933D01*
X157405416Y-62351121D01*
X157202466Y-62391490D01*
X156995534Y-62391490D01*
X156792584Y-62351121D01*
X156601408Y-62271933D01*
X156601407Y-62271933D01*
X156601406Y-62271932D01*
X156429352Y-62156969D01*
X156283031Y-62010648D01*
X156168068Y-61838594D01*
X156137956Y-61765897D01*
X156088879Y-61647416D01*
X156048510Y-61444466D01*
X156048510Y-61237534D01*
X156088879Y-61034584D01*
X156168067Y-60843408D01*
X156283031Y-60671352D01*
X156429352Y-60525031D01*
X156601406Y-60410068D01*
X156601408Y-60410067D01*
X156792584Y-60330879D01*
X156995534Y-60290510D01*
X157202466Y-60290510D01*
X157405416Y-60330879D01*
X157405416Y-60330879D01*
G37*
G36*
X162485416Y-60330879D02*
G01*
X162676592Y-60410067D01*
X162676594Y-60410068D01*
X162848648Y-60525031D01*
X162994969Y-60671352D01*
X163109933Y-60843408D01*
X163189121Y-61034584D01*
X163229490Y-61237534D01*
X163229490Y-61444466D01*
X163189121Y-61647416D01*
X163140044Y-61765897D01*
X163109932Y-61838594D01*
X162994969Y-62010648D01*
X162848648Y-62156969D01*
X162676594Y-62271932D01*
X162676593Y-62271933D01*
X162676592Y-62271933D01*
X162485416Y-62351121D01*
X162282466Y-62391490D01*
X162075534Y-62391490D01*
X161872584Y-62351121D01*
X161681408Y-62271933D01*
X161681407Y-62271933D01*
X161681406Y-62271932D01*
X161509352Y-62156969D01*
X161363031Y-62010648D01*
X161248068Y-61838594D01*
X161217956Y-61765897D01*
X161168879Y-61647416D01*
X161128510Y-61444466D01*
X161128510Y-61237534D01*
X161168879Y-61034584D01*
X161248067Y-60843408D01*
X161363031Y-60671352D01*
X161509352Y-60525031D01*
X161681406Y-60410068D01*
X161681408Y-60410067D01*
X161872584Y-60330879D01*
X162075534Y-60290510D01*
X162282466Y-60290510D01*
X162485416Y-60330879D01*
X162485416Y-60330879D01*
G37*
G36*
X159945416Y-60330879D02*
G01*
X160136592Y-60410067D01*
X160136594Y-60410068D01*
X160308648Y-60525031D01*
X160454969Y-60671352D01*
X160569933Y-60843408D01*
X160649121Y-61034584D01*
X160689490Y-61237534D01*
X160689490Y-61444466D01*
X160649121Y-61647416D01*
X160600044Y-61765897D01*
X160569932Y-61838594D01*
X160454969Y-62010648D01*
X160308648Y-62156969D01*
X160136594Y-62271932D01*
X160136593Y-62271933D01*
X160136592Y-62271933D01*
X159945416Y-62351121D01*
X159742466Y-62391490D01*
X159535534Y-62391490D01*
X159332584Y-62351121D01*
X159141408Y-62271933D01*
X159141407Y-62271933D01*
X159141406Y-62271932D01*
X158969352Y-62156969D01*
X158823031Y-62010648D01*
X158708068Y-61838594D01*
X158677956Y-61765897D01*
X158628879Y-61647416D01*
X158588510Y-61444466D01*
X158588510Y-61237534D01*
X158628879Y-61034584D01*
X158708067Y-60843408D01*
X158823031Y-60671352D01*
X158969352Y-60525031D01*
X159141406Y-60410068D01*
X159141408Y-60410067D01*
X159332584Y-60330879D01*
X159535534Y-60290510D01*
X159742466Y-60290510D01*
X159945416Y-60330879D01*
X159945416Y-60330879D01*
G37*
M02*
