M48
; DRILL file {KiCad (5.1.4)-1} date 2/11/2020 6:28:21 PM
; FORMAT={-:-/ absolute / inch / decimal}
; #@! TF.CreationDate,2020-02-11T18:28:21-06:00
; #@! TF.GenerationSoftware,Kicad,Pcbnew,(5.1.4)-1
; #@! TF.FileFunction,Plated,1,2,PTH
FMAT,2
INCH
T1C0.0315
T2C0.0315
T3C0.0374
T4C0.0394
T5C0.1181
%
G90
G05
T1
X5.65Y-3.2
X5.65Y-3.3
X5.65Y-3.4
X5.65Y-3.5
X5.65Y-3.6
X5.65Y-3.7
X5.65Y-3.8
X5.65Y-3.9
X5.65Y-4.0
X5.65Y-4.1
X5.65Y-4.2
X5.65Y-4.3
X5.65Y-4.4
X5.65Y-4.5
X5.65Y-4.6
X6.25Y-3.2
X6.25Y-3.3
X6.25Y-3.4
X6.25Y-3.5
X6.25Y-3.6
X6.25Y-3.7
X6.25Y-3.8
X6.25Y-3.9
X6.25Y-4.0
X6.25Y-4.1
X6.25Y-4.2
X6.25Y-4.3
X6.25Y-4.4
X6.25Y-4.5
X6.25Y-4.6
T2
X5.585Y-2.415
X5.485Y-2.715
X5.885Y-2.615
X6.35Y-4.5
X5.785Y-2.515
X5.55Y-4.0
X5.485Y-2.515
X6.285Y-2.715
X5.885Y-2.815
X5.55Y-3.8
X6.485Y-2.715
X5.985Y-2.715
X5.785Y-2.615
X6.35Y-3.2
X6.085Y-2.815
X5.55Y-4.4
X6.185Y-2.815
X6.35Y-3.4
X6.385Y-2.415
X5.985Y-2.815
X6.35Y-3.8
X5.55Y-3.3
X6.385Y-2.815
X6.285Y-2.515
X6.35Y-4.1
X5.685Y-2.615
X6.285Y-2.615
X6.35Y-4.3
X5.585Y-2.515
X5.485Y-2.615
X5.785Y-2.815
X5.585Y-2.715
X6.385Y-2.615
X5.585Y-2.615
X6.35Y-3.3
X5.485Y-2.415
X6.285Y-2.815
X5.885Y-2.715
X5.55Y-4.1
X6.185Y-2.415
X5.785Y-2.715
X5.55Y-4.6
X5.55Y-4.3
X6.185Y-2.715
X5.55Y-3.5
X6.485Y-2.515
X6.085Y-2.615
X5.55Y-3.4
X6.385Y-2.515
X6.285Y-2.415
X6.35Y-4.4
X5.55Y-3.7
X6.185Y-2.515
X6.35Y-3.9
X5.685Y-2.515
X5.985Y-2.515
X6.35Y-3.7
X5.885Y-2.415
X6.35Y-4.6
X5.685Y-2.415
X5.55Y-3.9
X5.485Y-2.815
X5.885Y-2.515
X5.55Y-3.2
X5.585Y-2.815
X6.485Y-2.815
X6.085Y-2.515
X5.785Y-2.415
X5.55Y-4.2
X6.485Y-2.615
X6.085Y-2.415
X5.685Y-2.815
X5.55Y-4.5
X6.185Y-2.615
X6.35Y-3.5
X6.485Y-2.415
X5.985Y-2.415
X6.35Y-4.0
X5.55Y-3.6
X6.385Y-2.715
X6.085Y-2.715
X6.35Y-3.6
X5.685Y-2.715
X5.985Y-2.615
X6.35Y-4.2
T3
X5.22Y-4.34
X5.22Y-4.4384
X5.22Y-4.5369
X5.22Y-4.6353
X6.56Y-3.6167
X6.56Y-3.7151
X6.56Y-3.8136
X6.56Y-3.912
X5.22Y-3.74
X5.22Y-3.8384
X5.22Y-3.9369
X5.22Y-4.0353
X5.22Y-3.15
X5.22Y-3.2484
X5.22Y-3.3469
X5.22Y-3.4453
T4
X5.1716Y-2.47
X5.27Y-2.47
X6.585Y-3.2
X6.585Y-3.2984
T5
X4.975Y-2.25
X4.975Y-4.88
X6.66Y-2.25
T0
M30
