G04 #@! TF.GenerationSoftware,KiCad,Pcbnew,(5.1.4)-1*
G04 #@! TF.CreationDate,2020-02-11T18:39:35-06:00*
G04 #@! TF.ProjectId,ArduinoBreakoutboardControl,41726475-696e-46f4-9272-65616b6f7574,rev?*
G04 #@! TF.SameCoordinates,Original*
G04 #@! TF.FileFunction,Other,User*
%FSLAX46Y46*%
G04 Gerber Fmt 4.6, Leading zero omitted, Abs format (unit mm)*
G04 Created by KiCad (PCBNEW (5.1.4)-1) date 2020-02-11 18:39:35*
%MOMM*%
%LPD*%
G04 APERTURE LIST*
%ADD10C,0.050000*%
G04 APERTURE END LIST*
D10*
X139470000Y-88495000D02*
X139470000Y-85495000D01*
X139470000Y-88495000D02*
X142470000Y-88495000D01*
X142470000Y-85495000D02*
X139470000Y-85495000D01*
X142470000Y-85495000D02*
X142470000Y-88495000D01*
X138244000Y-93685000D02*
X138244000Y-80185000D01*
X133444000Y-93685000D02*
X138244000Y-93685000D01*
X133444000Y-80185000D02*
X133444000Y-93685000D01*
X138244000Y-80185000D02*
X133444000Y-80185000D01*
X160895000Y-113915000D02*
X142615000Y-113915000D01*
X160895000Y-113915000D02*
X160895000Y-67695000D01*
X142615000Y-67695000D02*
X142615000Y-113915000D01*
X142615000Y-67695000D02*
X160895000Y-67695000D01*
X164870000Y-57380000D02*
X164870000Y-54380000D01*
X164870000Y-57380000D02*
X167870000Y-57380000D01*
X167870000Y-54380000D02*
X164870000Y-54380000D01*
X167870000Y-54380000D02*
X167870000Y-57380000D01*
X159790000Y-62460000D02*
X159790000Y-59460000D01*
X159790000Y-62460000D02*
X162790000Y-62460000D01*
X162790000Y-59460000D02*
X159790000Y-59460000D01*
X162790000Y-59460000D02*
X162790000Y-62460000D01*
X159790000Y-57380000D02*
X159790000Y-54380000D01*
X159790000Y-57380000D02*
X162790000Y-57380000D01*
X162790000Y-54380000D02*
X159790000Y-54380000D01*
X162790000Y-54380000D02*
X162790000Y-57380000D01*
X159790000Y-49760000D02*
X159790000Y-46760000D01*
X159790000Y-49760000D02*
X162790000Y-49760000D01*
X162790000Y-46760000D02*
X159790000Y-46760000D01*
X162790000Y-46760000D02*
X162790000Y-49760000D01*
X157250000Y-47220000D02*
X157250000Y-44220000D01*
X157250000Y-47220000D02*
X160250000Y-47220000D01*
X160250000Y-44220000D02*
X157250000Y-44220000D01*
X160250000Y-44220000D02*
X160250000Y-47220000D01*
X154710000Y-47220000D02*
X154710000Y-44220000D01*
X154710000Y-47220000D02*
X157710000Y-47220000D01*
X157710000Y-44220000D02*
X154710000Y-44220000D01*
X157710000Y-44220000D02*
X157710000Y-47220000D01*
X152170000Y-47220000D02*
X152170000Y-44220000D01*
X152170000Y-47220000D02*
X155170000Y-47220000D01*
X155170000Y-44220000D02*
X152170000Y-44220000D01*
X155170000Y-44220000D02*
X155170000Y-47220000D01*
X149630000Y-47220000D02*
X149630000Y-44220000D01*
X149630000Y-47220000D02*
X152630000Y-47220000D01*
X152630000Y-44220000D02*
X149630000Y-44220000D01*
X152630000Y-44220000D02*
X152630000Y-47220000D01*
X162330000Y-54840000D02*
X162330000Y-51840000D01*
X162330000Y-54840000D02*
X165330000Y-54840000D01*
X165330000Y-51840000D02*
X162330000Y-51840000D01*
X165330000Y-51840000D02*
X165330000Y-54840000D01*
X164870000Y-49760000D02*
X164870000Y-46760000D01*
X164870000Y-49760000D02*
X167870000Y-49760000D01*
X167870000Y-46760000D02*
X164870000Y-46760000D01*
X167870000Y-46760000D02*
X167870000Y-49760000D01*
X164870000Y-54840000D02*
X164870000Y-51840000D01*
X164870000Y-54840000D02*
X167870000Y-54840000D01*
X167870000Y-51840000D02*
X164870000Y-51840000D01*
X167870000Y-51840000D02*
X167870000Y-54840000D01*
X162330000Y-65000000D02*
X162330000Y-62000000D01*
X162330000Y-65000000D02*
X165330000Y-65000000D01*
X165330000Y-62000000D02*
X162330000Y-62000000D01*
X165330000Y-62000000D02*
X165330000Y-65000000D01*
X162330000Y-62460000D02*
X162330000Y-59460000D01*
X162330000Y-62460000D02*
X165330000Y-62460000D01*
X165330000Y-59460000D02*
X162330000Y-59460000D01*
X165330000Y-59460000D02*
X165330000Y-62460000D01*
X162330000Y-57380000D02*
X162330000Y-54380000D01*
X162330000Y-57380000D02*
X165330000Y-57380000D01*
X165330000Y-54380000D02*
X162330000Y-54380000D01*
X165330000Y-54380000D02*
X165330000Y-57380000D01*
X162330000Y-52300000D02*
X162330000Y-49300000D01*
X162330000Y-52300000D02*
X165330000Y-52300000D01*
X165330000Y-49300000D02*
X162330000Y-49300000D01*
X165330000Y-49300000D02*
X165330000Y-52300000D01*
X162330000Y-47220000D02*
X162330000Y-44220000D01*
X162330000Y-47220000D02*
X165330000Y-47220000D01*
X165330000Y-44220000D02*
X162330000Y-44220000D01*
X165330000Y-44220000D02*
X165330000Y-47220000D01*
X164870000Y-62460000D02*
X164870000Y-59460000D01*
X164870000Y-62460000D02*
X167870000Y-62460000D01*
X167870000Y-59460000D02*
X164870000Y-59460000D01*
X167870000Y-59460000D02*
X167870000Y-62460000D01*
X164870000Y-59920000D02*
X164870000Y-56920000D01*
X164870000Y-59920000D02*
X167870000Y-59920000D01*
X167870000Y-56920000D02*
X164870000Y-56920000D01*
X167870000Y-56920000D02*
X167870000Y-59920000D01*
X164870000Y-52300000D02*
X164870000Y-49300000D01*
X164870000Y-52300000D02*
X167870000Y-52300000D01*
X167870000Y-49300000D02*
X164870000Y-49300000D01*
X167870000Y-49300000D02*
X167870000Y-52300000D01*
X164870000Y-65000000D02*
X164870000Y-62000000D01*
X164870000Y-65000000D02*
X167870000Y-65000000D01*
X167870000Y-62000000D02*
X164870000Y-62000000D01*
X167870000Y-62000000D02*
X167870000Y-65000000D01*
X164870000Y-47220000D02*
X164870000Y-44220000D01*
X164870000Y-47220000D02*
X167870000Y-47220000D01*
X167870000Y-44220000D02*
X164870000Y-44220000D01*
X167870000Y-44220000D02*
X167870000Y-47220000D01*
X162330000Y-59920000D02*
X162330000Y-56920000D01*
X162330000Y-59920000D02*
X165330000Y-59920000D01*
X165330000Y-56920000D02*
X162330000Y-56920000D01*
X165330000Y-56920000D02*
X165330000Y-59920000D01*
X162330000Y-49760000D02*
X162330000Y-46760000D01*
X162330000Y-49760000D02*
X165330000Y-49760000D01*
X165330000Y-46760000D02*
X162330000Y-46760000D01*
X165330000Y-46760000D02*
X165330000Y-49760000D01*
X159790000Y-65000000D02*
X159790000Y-62000000D01*
X159790000Y-65000000D02*
X162790000Y-65000000D01*
X162790000Y-62000000D02*
X159790000Y-62000000D01*
X162790000Y-62000000D02*
X162790000Y-65000000D01*
X159790000Y-59920000D02*
X159790000Y-56920000D01*
X159790000Y-59920000D02*
X162790000Y-59920000D01*
X162790000Y-56920000D02*
X159790000Y-56920000D01*
X162790000Y-56920000D02*
X162790000Y-59920000D01*
X159790000Y-54840000D02*
X159790000Y-51840000D01*
X159790000Y-54840000D02*
X162790000Y-54840000D01*
X162790000Y-51840000D02*
X159790000Y-51840000D01*
X162790000Y-51840000D02*
X162790000Y-54840000D01*
X159790000Y-52300000D02*
X159790000Y-49300000D01*
X159790000Y-52300000D02*
X162790000Y-52300000D01*
X162790000Y-49300000D02*
X159790000Y-49300000D01*
X162790000Y-49300000D02*
X162790000Y-52300000D01*
X162790000Y-44220000D02*
X162790000Y-47220000D01*
X162790000Y-44220000D02*
X159790000Y-44220000D01*
X159790000Y-47220000D02*
X162790000Y-47220000D01*
X159790000Y-47220000D02*
X159790000Y-44220000D01*
X157250000Y-49760000D02*
X157250000Y-46760000D01*
X157250000Y-49760000D02*
X160250000Y-49760000D01*
X160250000Y-46760000D02*
X157250000Y-46760000D01*
X160250000Y-46760000D02*
X160250000Y-49760000D01*
X154710000Y-49760000D02*
X154710000Y-46760000D01*
X154710000Y-49760000D02*
X157710000Y-49760000D01*
X157710000Y-46760000D02*
X154710000Y-46760000D01*
X157710000Y-46760000D02*
X157710000Y-49760000D01*
X152170000Y-49760000D02*
X152170000Y-46760000D01*
X152170000Y-49760000D02*
X155170000Y-49760000D01*
X155170000Y-46760000D02*
X152170000Y-46760000D01*
X155170000Y-46760000D02*
X155170000Y-49760000D01*
X149630000Y-49760000D02*
X149630000Y-46760000D01*
X149630000Y-49760000D02*
X152630000Y-49760000D01*
X152630000Y-46760000D02*
X149630000Y-46760000D01*
X152630000Y-46760000D02*
X152630000Y-49760000D01*
X147090000Y-47220000D02*
X147090000Y-44220000D01*
X147090000Y-47220000D02*
X150090000Y-47220000D01*
X150090000Y-44220000D02*
X147090000Y-44220000D01*
X150090000Y-44220000D02*
X150090000Y-47220000D01*
X144550000Y-49760000D02*
X144550000Y-46760000D01*
X144550000Y-49760000D02*
X147550000Y-49760000D01*
X147550000Y-46760000D02*
X144550000Y-46760000D01*
X147550000Y-46760000D02*
X147550000Y-49760000D01*
X147550000Y-44220000D02*
X147550000Y-47220000D01*
X147550000Y-44220000D02*
X144550000Y-44220000D01*
X144550000Y-47220000D02*
X147550000Y-47220000D01*
X144550000Y-47220000D02*
X144550000Y-44220000D01*
X160250000Y-62000000D02*
X160250000Y-65000000D01*
X160250000Y-62000000D02*
X157250000Y-62000000D01*
X157250000Y-65000000D02*
X160250000Y-65000000D01*
X157250000Y-65000000D02*
X157250000Y-62000000D01*
X160250000Y-51840000D02*
X160250000Y-54840000D01*
X160250000Y-51840000D02*
X157250000Y-51840000D01*
X157250000Y-54840000D02*
X160250000Y-54840000D01*
X157250000Y-54840000D02*
X157250000Y-51840000D01*
X160250000Y-49300000D02*
X160250000Y-52300000D01*
X160250000Y-49300000D02*
X157250000Y-49300000D01*
X157250000Y-52300000D02*
X160250000Y-52300000D01*
X157250000Y-52300000D02*
X157250000Y-49300000D01*
X157710000Y-62000000D02*
X157710000Y-65000000D01*
X157710000Y-62000000D02*
X154710000Y-62000000D01*
X154710000Y-65000000D02*
X157710000Y-65000000D01*
X154710000Y-65000000D02*
X154710000Y-62000000D01*
X147090000Y-49760000D02*
X147090000Y-46760000D01*
X147090000Y-49760000D02*
X150090000Y-49760000D01*
X150090000Y-46760000D02*
X147090000Y-46760000D01*
X150090000Y-46760000D02*
X150090000Y-49760000D01*
X157710000Y-59460000D02*
X157710000Y-62460000D01*
X157710000Y-59460000D02*
X154710000Y-59460000D01*
X154710000Y-62460000D02*
X157710000Y-62460000D01*
X154710000Y-62460000D02*
X154710000Y-59460000D01*
X157710000Y-56920000D02*
X157710000Y-59920000D01*
X157710000Y-56920000D02*
X154710000Y-56920000D01*
X154710000Y-59920000D02*
X157710000Y-59920000D01*
X154710000Y-59920000D02*
X154710000Y-56920000D01*
X157710000Y-54380000D02*
X157710000Y-57380000D01*
X157710000Y-54380000D02*
X154710000Y-54380000D01*
X154710000Y-57380000D02*
X157710000Y-57380000D01*
X154710000Y-57380000D02*
X154710000Y-54380000D01*
X157710000Y-51840000D02*
X157710000Y-54840000D01*
X157710000Y-51840000D02*
X154710000Y-51840000D01*
X154710000Y-54840000D02*
X157710000Y-54840000D01*
X154710000Y-54840000D02*
X154710000Y-51840000D01*
X160250000Y-54380000D02*
X160250000Y-57380000D01*
X160250000Y-54380000D02*
X157250000Y-54380000D01*
X157250000Y-57380000D02*
X160250000Y-57380000D01*
X157250000Y-57380000D02*
X157250000Y-54380000D01*
X160250000Y-56920000D02*
X160250000Y-59920000D01*
X160250000Y-56920000D02*
X157250000Y-56920000D01*
X157250000Y-59920000D02*
X160250000Y-59920000D01*
X157250000Y-59920000D02*
X157250000Y-56920000D01*
X157710000Y-49300000D02*
X157710000Y-52300000D01*
X157710000Y-49300000D02*
X154710000Y-49300000D01*
X154710000Y-52300000D02*
X157710000Y-52300000D01*
X154710000Y-52300000D02*
X154710000Y-49300000D01*
X160250000Y-59460000D02*
X160250000Y-62460000D01*
X160250000Y-59460000D02*
X157250000Y-59460000D01*
X157250000Y-62460000D02*
X160250000Y-62460000D01*
X157250000Y-62460000D02*
X157250000Y-59460000D01*
X150090000Y-49300000D02*
X150090000Y-52300000D01*
X150090000Y-49300000D02*
X147090000Y-49300000D01*
X147090000Y-52300000D02*
X150090000Y-52300000D01*
X147090000Y-52300000D02*
X147090000Y-49300000D01*
X155170000Y-59460000D02*
X155170000Y-62460000D01*
X155170000Y-59460000D02*
X152170000Y-59460000D01*
X152170000Y-62460000D02*
X155170000Y-62460000D01*
X152170000Y-62460000D02*
X152170000Y-59460000D01*
X147550000Y-62000000D02*
X147550000Y-65000000D01*
X147550000Y-62000000D02*
X144550000Y-62000000D01*
X144550000Y-65000000D02*
X147550000Y-65000000D01*
X144550000Y-65000000D02*
X144550000Y-62000000D01*
X147550000Y-59460000D02*
X147550000Y-62460000D01*
X147550000Y-59460000D02*
X144550000Y-59460000D01*
X144550000Y-62460000D02*
X147550000Y-62460000D01*
X144550000Y-62460000D02*
X144550000Y-59460000D01*
X147550000Y-51840000D02*
X147550000Y-54840000D01*
X147550000Y-51840000D02*
X144550000Y-51840000D01*
X144550000Y-54840000D02*
X147550000Y-54840000D01*
X144550000Y-54840000D02*
X144550000Y-51840000D01*
X147550000Y-54380000D02*
X147550000Y-57380000D01*
X147550000Y-54380000D02*
X144550000Y-54380000D01*
X144550000Y-57380000D02*
X147550000Y-57380000D01*
X144550000Y-57380000D02*
X144550000Y-54380000D01*
X152630000Y-49300000D02*
X152630000Y-52300000D01*
X152630000Y-49300000D02*
X149630000Y-49300000D01*
X149630000Y-52300000D02*
X152630000Y-52300000D01*
X149630000Y-52300000D02*
X149630000Y-49300000D01*
X147550000Y-49300000D02*
X147550000Y-52300000D01*
X147550000Y-49300000D02*
X144550000Y-49300000D01*
X144550000Y-52300000D02*
X147550000Y-52300000D01*
X144550000Y-52300000D02*
X144550000Y-49300000D01*
X145010000Y-59460000D02*
X145010000Y-62460000D01*
X145010000Y-59460000D02*
X142010000Y-59460000D01*
X142010000Y-62460000D02*
X145010000Y-62460000D01*
X142010000Y-62460000D02*
X142010000Y-59460000D01*
X145010000Y-49300000D02*
X145010000Y-52300000D01*
X145010000Y-49300000D02*
X142010000Y-49300000D01*
X142010000Y-52300000D02*
X145010000Y-52300000D01*
X142010000Y-52300000D02*
X142010000Y-49300000D01*
X155170000Y-62000000D02*
X155170000Y-65000000D01*
X155170000Y-62000000D02*
X152170000Y-62000000D01*
X152170000Y-65000000D02*
X155170000Y-65000000D01*
X152170000Y-65000000D02*
X152170000Y-62000000D01*
X155170000Y-49300000D02*
X155170000Y-52300000D01*
X155170000Y-49300000D02*
X152170000Y-49300000D01*
X152170000Y-52300000D02*
X155170000Y-52300000D01*
X152170000Y-52300000D02*
X152170000Y-49300000D01*
X152630000Y-59460000D02*
X152630000Y-62460000D01*
X152630000Y-59460000D02*
X149630000Y-59460000D01*
X149630000Y-62460000D02*
X152630000Y-62460000D01*
X149630000Y-62460000D02*
X149630000Y-59460000D01*
X155170000Y-56920000D02*
X155170000Y-59920000D01*
X155170000Y-56920000D02*
X152170000Y-56920000D01*
X152170000Y-59920000D02*
X155170000Y-59920000D01*
X152170000Y-59920000D02*
X152170000Y-56920000D01*
X155170000Y-54380000D02*
X155170000Y-57380000D01*
X155170000Y-54380000D02*
X152170000Y-54380000D01*
X152170000Y-57380000D02*
X155170000Y-57380000D01*
X152170000Y-57380000D02*
X152170000Y-54380000D01*
X155170000Y-51840000D02*
X155170000Y-54840000D01*
X155170000Y-51840000D02*
X152170000Y-51840000D01*
X152170000Y-54840000D02*
X155170000Y-54840000D01*
X152170000Y-54840000D02*
X152170000Y-51840000D01*
X152630000Y-62000000D02*
X152630000Y-65000000D01*
X152630000Y-62000000D02*
X149630000Y-62000000D01*
X149630000Y-65000000D02*
X152630000Y-65000000D01*
X149630000Y-65000000D02*
X149630000Y-62000000D01*
X152630000Y-54380000D02*
X152630000Y-57380000D01*
X152630000Y-54380000D02*
X149630000Y-54380000D01*
X149630000Y-57380000D02*
X152630000Y-57380000D01*
X149630000Y-57380000D02*
X149630000Y-54380000D01*
X152630000Y-51840000D02*
X152630000Y-54840000D01*
X152630000Y-51840000D02*
X149630000Y-51840000D01*
X149630000Y-54840000D02*
X152630000Y-54840000D01*
X149630000Y-54840000D02*
X149630000Y-51840000D01*
X150090000Y-56920000D02*
X150090000Y-59920000D01*
X150090000Y-56920000D02*
X147090000Y-56920000D01*
X147090000Y-59920000D02*
X150090000Y-59920000D01*
X147090000Y-59920000D02*
X147090000Y-56920000D01*
X150090000Y-54380000D02*
X150090000Y-57380000D01*
X150090000Y-54380000D02*
X147090000Y-54380000D01*
X147090000Y-57380000D02*
X150090000Y-57380000D01*
X147090000Y-57380000D02*
X147090000Y-54380000D01*
X150090000Y-51840000D02*
X150090000Y-54840000D01*
X150090000Y-51840000D02*
X147090000Y-51840000D01*
X147090000Y-54840000D02*
X150090000Y-54840000D01*
X147090000Y-54840000D02*
X147090000Y-51840000D01*
X150090000Y-59460000D02*
X150090000Y-62460000D01*
X150090000Y-59460000D02*
X147090000Y-59460000D01*
X147090000Y-62460000D02*
X150090000Y-62460000D01*
X147090000Y-62460000D02*
X147090000Y-59460000D01*
X145010000Y-62000000D02*
X145010000Y-65000000D01*
X145010000Y-62000000D02*
X142010000Y-62000000D01*
X142010000Y-65000000D02*
X145010000Y-65000000D01*
X142010000Y-65000000D02*
X142010000Y-62000000D01*
X147550000Y-56920000D02*
X147550000Y-59920000D01*
X147550000Y-56920000D02*
X144550000Y-56920000D01*
X144550000Y-59920000D02*
X147550000Y-59920000D01*
X144550000Y-59920000D02*
X144550000Y-56920000D01*
X145010000Y-56920000D02*
X145010000Y-59920000D01*
X145010000Y-56920000D02*
X142010000Y-56920000D01*
X142010000Y-59920000D02*
X145010000Y-59920000D01*
X142010000Y-59920000D02*
X142010000Y-56920000D01*
X152630000Y-56920000D02*
X152630000Y-59920000D01*
X152630000Y-56920000D02*
X149630000Y-56920000D01*
X149630000Y-59920000D02*
X152630000Y-59920000D01*
X149630000Y-59920000D02*
X149630000Y-56920000D01*
X150090000Y-62000000D02*
X150090000Y-65000000D01*
X150090000Y-62000000D02*
X147090000Y-62000000D01*
X147090000Y-65000000D02*
X150090000Y-65000000D01*
X147090000Y-65000000D02*
X147090000Y-62000000D01*
X145010000Y-54380000D02*
X145010000Y-57380000D01*
X145010000Y-54380000D02*
X142010000Y-54380000D01*
X142010000Y-57380000D02*
X145010000Y-57380000D01*
X142010000Y-57380000D02*
X142010000Y-54380000D01*
X145010000Y-51840000D02*
X145010000Y-54840000D01*
X145010000Y-51840000D02*
X142010000Y-51840000D01*
X142010000Y-54840000D02*
X145010000Y-54840000D01*
X142010000Y-54840000D02*
X142010000Y-51840000D01*
X139470000Y-52300000D02*
X139470000Y-49300000D01*
X139470000Y-52300000D02*
X142470000Y-52300000D01*
X142470000Y-49300000D02*
X139470000Y-49300000D01*
X142470000Y-49300000D02*
X142470000Y-52300000D01*
X142470000Y-51840000D02*
X142470000Y-54840000D01*
X142470000Y-51840000D02*
X139470000Y-51840000D01*
X139470000Y-54840000D02*
X142470000Y-54840000D01*
X139470000Y-54840000D02*
X139470000Y-51840000D01*
X139930000Y-62000000D02*
X139930000Y-65000000D01*
X139930000Y-62000000D02*
X136930000Y-62000000D01*
X136930000Y-65000000D02*
X139930000Y-65000000D01*
X136930000Y-65000000D02*
X136930000Y-62000000D01*
X136930000Y-62460000D02*
X136930000Y-59460000D01*
X136930000Y-62460000D02*
X139930000Y-62460000D01*
X139930000Y-59460000D02*
X136930000Y-59460000D01*
X139930000Y-59460000D02*
X139930000Y-62460000D01*
X139930000Y-56920000D02*
X139930000Y-59920000D01*
X139930000Y-56920000D02*
X136930000Y-56920000D01*
X136930000Y-59920000D02*
X139930000Y-59920000D01*
X136930000Y-59920000D02*
X136930000Y-56920000D01*
X142470000Y-59460000D02*
X142470000Y-62460000D01*
X142470000Y-59460000D02*
X139470000Y-59460000D01*
X139470000Y-62460000D02*
X142470000Y-62460000D01*
X139470000Y-62460000D02*
X139470000Y-59460000D01*
X142470000Y-56920000D02*
X142470000Y-59920000D01*
X142470000Y-56920000D02*
X139470000Y-56920000D01*
X139470000Y-59920000D02*
X142470000Y-59920000D01*
X139470000Y-59920000D02*
X139470000Y-56920000D01*
X142470000Y-54380000D02*
X142470000Y-57380000D01*
X142470000Y-54380000D02*
X139470000Y-54380000D01*
X139470000Y-57380000D02*
X142470000Y-57380000D01*
X139470000Y-57380000D02*
X139470000Y-54380000D01*
X142470000Y-62000000D02*
X142470000Y-65000000D01*
X142470000Y-62000000D02*
X139470000Y-62000000D01*
X139470000Y-65000000D02*
X142470000Y-65000000D01*
X139470000Y-65000000D02*
X139470000Y-62000000D01*
X139930000Y-49300000D02*
X139930000Y-52300000D01*
X139930000Y-49300000D02*
X136930000Y-49300000D01*
X136930000Y-52300000D02*
X139930000Y-52300000D01*
X136930000Y-52300000D02*
X136930000Y-49300000D01*
X136930000Y-54840000D02*
X136930000Y-51840000D01*
X136930000Y-54840000D02*
X139930000Y-54840000D01*
X139930000Y-51840000D02*
X136930000Y-51840000D01*
X139930000Y-51840000D02*
X139930000Y-54840000D01*
X139930000Y-54380000D02*
X139930000Y-57380000D01*
X139930000Y-54380000D02*
X136930000Y-54380000D01*
X136930000Y-57380000D02*
X139930000Y-57380000D01*
X136930000Y-57380000D02*
X136930000Y-54380000D01*
X138244000Y-112655000D02*
X138244000Y-94155000D01*
X133444000Y-112655000D02*
X138244000Y-112655000D01*
X133444000Y-94155000D02*
X133444000Y-112655000D01*
X138244000Y-94155000D02*
X133444000Y-94155000D01*
X140882000Y-116772000D02*
X132382000Y-116772000D01*
X140882000Y-121572000D02*
X140882000Y-116772000D01*
X132382000Y-121572000D02*
X140882000Y-121572000D01*
X132382000Y-116772000D02*
X132382000Y-121572000D01*
X164060000Y-88035000D02*
X164060000Y-91035000D01*
X164060000Y-88035000D02*
X161060000Y-88035000D01*
X161060000Y-91035000D02*
X164060000Y-91035000D01*
X161060000Y-91035000D02*
X161060000Y-88035000D01*
X169740000Y-86700000D02*
X169740000Y-73200000D01*
X164940000Y-86700000D02*
X169740000Y-86700000D01*
X164940000Y-73200000D02*
X164940000Y-86700000D01*
X169740000Y-73200000D02*
X164940000Y-73200000D01*
X164060000Y-72795000D02*
X164060000Y-75795000D01*
X164060000Y-72795000D02*
X161060000Y-72795000D01*
X161060000Y-75795000D02*
X164060000Y-75795000D01*
X161060000Y-75795000D02*
X161060000Y-72795000D01*
X156615000Y-118340000D02*
X156615000Y-115340000D01*
X156615000Y-118340000D02*
X159615000Y-118340000D01*
X159615000Y-115340000D02*
X156615000Y-115340000D01*
X159615000Y-115340000D02*
X159615000Y-118340000D01*
X139470000Y-106275000D02*
X139470000Y-103275000D01*
X139470000Y-106275000D02*
X142470000Y-106275000D01*
X142470000Y-103275000D02*
X139470000Y-103275000D01*
X142470000Y-103275000D02*
X142470000Y-106275000D01*
X164695000Y-115340000D02*
X164695000Y-118340000D01*
X164695000Y-115340000D02*
X161695000Y-115340000D01*
X161695000Y-118340000D02*
X164695000Y-118340000D01*
X161695000Y-118340000D02*
X161695000Y-115340000D01*
X151535000Y-118340000D02*
X151535000Y-115340000D01*
X151535000Y-118340000D02*
X154535000Y-118340000D01*
X154535000Y-115340000D02*
X151535000Y-115340000D01*
X154535000Y-115340000D02*
X154535000Y-118340000D01*
X139470000Y-98655000D02*
X139470000Y-95655000D01*
X139470000Y-98655000D02*
X142470000Y-98655000D01*
X142470000Y-95655000D02*
X139470000Y-95655000D01*
X142470000Y-95655000D02*
X142470000Y-98655000D01*
X139470000Y-91035000D02*
X139470000Y-88035000D01*
X139470000Y-91035000D02*
X142470000Y-91035000D01*
X142470000Y-88035000D02*
X139470000Y-88035000D01*
X142470000Y-88035000D02*
X142470000Y-91035000D01*
X139470000Y-85955000D02*
X139470000Y-82955000D01*
X139470000Y-85955000D02*
X142470000Y-85955000D01*
X142470000Y-82955000D02*
X139470000Y-82955000D01*
X142470000Y-82955000D02*
X142470000Y-85955000D01*
X154075000Y-118340000D02*
X154075000Y-115340000D01*
X154075000Y-118340000D02*
X157075000Y-118340000D01*
X157075000Y-115340000D02*
X154075000Y-115340000D01*
X157075000Y-115340000D02*
X157075000Y-118340000D01*
X151535000Y-120880000D02*
X151535000Y-117880000D01*
X151535000Y-120880000D02*
X154535000Y-120880000D01*
X154535000Y-117880000D02*
X151535000Y-117880000D01*
X154535000Y-117880000D02*
X154535000Y-120880000D01*
X164060000Y-105815000D02*
X164060000Y-108815000D01*
X164060000Y-105815000D02*
X161060000Y-105815000D01*
X161060000Y-108815000D02*
X164060000Y-108815000D01*
X161060000Y-108815000D02*
X161060000Y-105815000D01*
X164060000Y-90575000D02*
X164060000Y-93575000D01*
X164060000Y-90575000D02*
X161060000Y-90575000D01*
X161060000Y-93575000D02*
X164060000Y-93575000D01*
X161060000Y-93575000D02*
X161060000Y-90575000D01*
X164060000Y-103275000D02*
X164060000Y-106275000D01*
X164060000Y-103275000D02*
X161060000Y-103275000D01*
X161060000Y-106275000D02*
X164060000Y-106275000D01*
X161060000Y-106275000D02*
X161060000Y-103275000D01*
X164060000Y-82955000D02*
X164060000Y-85955000D01*
X164060000Y-82955000D02*
X161060000Y-82955000D01*
X161060000Y-85955000D02*
X164060000Y-85955000D01*
X161060000Y-85955000D02*
X161060000Y-82955000D01*
X164060000Y-93115000D02*
X164060000Y-96115000D01*
X164060000Y-93115000D02*
X161060000Y-93115000D01*
X161060000Y-96115000D02*
X164060000Y-96115000D01*
X161060000Y-96115000D02*
X161060000Y-93115000D01*
X164060000Y-85495000D02*
X164060000Y-88495000D01*
X164060000Y-85495000D02*
X161060000Y-85495000D01*
X161060000Y-88495000D02*
X164060000Y-88495000D01*
X161060000Y-88495000D02*
X161060000Y-85495000D01*
X159155000Y-118340000D02*
X159155000Y-115340000D01*
X159155000Y-118340000D02*
X162155000Y-118340000D01*
X162155000Y-115340000D02*
X159155000Y-115340000D01*
X162155000Y-115340000D02*
X162155000Y-118340000D01*
X161695000Y-120880000D02*
X161695000Y-117880000D01*
X161695000Y-120880000D02*
X164695000Y-120880000D01*
X164695000Y-117880000D02*
X161695000Y-117880000D01*
X164695000Y-117880000D02*
X164695000Y-120880000D01*
X164060000Y-98195000D02*
X164060000Y-101195000D01*
X164060000Y-98195000D02*
X161060000Y-98195000D01*
X161060000Y-101195000D02*
X164060000Y-101195000D01*
X161060000Y-101195000D02*
X161060000Y-98195000D01*
X164060000Y-80415000D02*
X164060000Y-83415000D01*
X164060000Y-80415000D02*
X161060000Y-80415000D01*
X161060000Y-83415000D02*
X164060000Y-83415000D01*
X161060000Y-83415000D02*
X161060000Y-80415000D01*
X156615000Y-120880000D02*
X156615000Y-117880000D01*
X156615000Y-120880000D02*
X159615000Y-120880000D01*
X159615000Y-117880000D02*
X156615000Y-117880000D01*
X159615000Y-117880000D02*
X159615000Y-120880000D01*
X164060000Y-100735000D02*
X164060000Y-103735000D01*
X164060000Y-100735000D02*
X161060000Y-100735000D01*
X161060000Y-103735000D02*
X164060000Y-103735000D01*
X161060000Y-103735000D02*
X161060000Y-100735000D01*
X164060000Y-95655000D02*
X164060000Y-98655000D01*
X164060000Y-95655000D02*
X161060000Y-95655000D01*
X161060000Y-98655000D02*
X164060000Y-98655000D01*
X161060000Y-98655000D02*
X161060000Y-95655000D01*
X154075000Y-120880000D02*
X154075000Y-117880000D01*
X154075000Y-120880000D02*
X157075000Y-120880000D01*
X157075000Y-117880000D02*
X154075000Y-117880000D01*
X157075000Y-117880000D02*
X157075000Y-120880000D01*
X159155000Y-120880000D02*
X159155000Y-117880000D01*
X159155000Y-120880000D02*
X162155000Y-120880000D01*
X162155000Y-117880000D02*
X159155000Y-117880000D01*
X162155000Y-117880000D02*
X162155000Y-120880000D01*
X164060000Y-77875000D02*
X164060000Y-80875000D01*
X164060000Y-77875000D02*
X161060000Y-77875000D01*
X161060000Y-80875000D02*
X164060000Y-80875000D01*
X161060000Y-80875000D02*
X161060000Y-77875000D01*
X164060000Y-75335000D02*
X164060000Y-78335000D01*
X164060000Y-75335000D02*
X161060000Y-75335000D01*
X161060000Y-78335000D02*
X164060000Y-78335000D01*
X161060000Y-78335000D02*
X161060000Y-75335000D01*
X161060000Y-73255000D02*
X161060000Y-70255000D01*
X161060000Y-73255000D02*
X164060000Y-73255000D01*
X164060000Y-70255000D02*
X161060000Y-70255000D01*
X164060000Y-70255000D02*
X164060000Y-73255000D01*
X139470000Y-108815000D02*
X139470000Y-105815000D01*
X139470000Y-108815000D02*
X142470000Y-108815000D01*
X142470000Y-105815000D02*
X139470000Y-105815000D01*
X142470000Y-105815000D02*
X142470000Y-108815000D01*
X139470000Y-103735000D02*
X139470000Y-100735000D01*
X139470000Y-103735000D02*
X142470000Y-103735000D01*
X142470000Y-100735000D02*
X139470000Y-100735000D01*
X142470000Y-100735000D02*
X142470000Y-103735000D01*
X139470000Y-101195000D02*
X139470000Y-98195000D01*
X139470000Y-101195000D02*
X142470000Y-101195000D01*
X142470000Y-98195000D02*
X139470000Y-98195000D01*
X142470000Y-98195000D02*
X142470000Y-101195000D01*
X139470000Y-96115000D02*
X139470000Y-93115000D01*
X139470000Y-96115000D02*
X142470000Y-96115000D01*
X142470000Y-93115000D02*
X139470000Y-93115000D01*
X142470000Y-93115000D02*
X142470000Y-96115000D01*
X139470000Y-93575000D02*
X139470000Y-90575000D01*
X139470000Y-93575000D02*
X142470000Y-93575000D01*
X142470000Y-90575000D02*
X139470000Y-90575000D01*
X142470000Y-90575000D02*
X142470000Y-93575000D01*
X139470000Y-78335000D02*
X139470000Y-75335000D01*
X139470000Y-78335000D02*
X142470000Y-78335000D01*
X142470000Y-75335000D02*
X139470000Y-75335000D01*
X142470000Y-75335000D02*
X142470000Y-78335000D01*
X142470000Y-70255000D02*
X142470000Y-73255000D01*
X142470000Y-70255000D02*
X139470000Y-70255000D01*
X139470000Y-73255000D02*
X142470000Y-73255000D01*
X139470000Y-73255000D02*
X139470000Y-70255000D01*
X139470000Y-80875000D02*
X139470000Y-77875000D01*
X139470000Y-80875000D02*
X142470000Y-80875000D01*
X142470000Y-77875000D02*
X139470000Y-77875000D01*
X142470000Y-77875000D02*
X142470000Y-80875000D01*
X139470000Y-75795000D02*
X139470000Y-72795000D01*
X139470000Y-75795000D02*
X142470000Y-75795000D01*
X142470000Y-72795000D02*
X139470000Y-72795000D01*
X142470000Y-72795000D02*
X142470000Y-75795000D01*
X138244000Y-79795000D02*
X138244000Y-66295000D01*
X133444000Y-79795000D02*
X138244000Y-79795000D01*
X133444000Y-66295000D02*
X133444000Y-79795000D01*
X138244000Y-66295000D02*
X133444000Y-66295000D01*
X139470000Y-83415000D02*
X139470000Y-80415000D01*
X139470000Y-83415000D02*
X142470000Y-83415000D01*
X142470000Y-80415000D02*
X139470000Y-80415000D01*
X142470000Y-80415000D02*
X142470000Y-83415000D01*
X143295000Y-42985000D02*
X134795000Y-42985000D01*
X143295000Y-47785000D02*
X143295000Y-42985000D01*
X134795000Y-47785000D02*
X143295000Y-47785000D01*
X134795000Y-42985000D02*
X134795000Y-47785000D01*
M02*
