G04 #@! TF.GenerationSoftware,KiCad,Pcbnew,(5.1.4)-1*
G04 #@! TF.CreationDate,2020-02-11T18:39:35-06:00*
G04 #@! TF.ProjectId,ArduinoBreakoutboardControl,41726475-696e-46f4-9272-65616b6f7574,rev?*
G04 #@! TF.SameCoordinates,Original*
G04 #@! TF.FileFunction,Legend,Bot*
G04 #@! TF.FilePolarity,Positive*
%FSLAX46Y46*%
G04 Gerber Fmt 4.6, Leading zero omitted, Abs format (unit mm)*
G04 Created by KiCad (PCBNEW (5.1.4)-1) date 2020-02-11 18:39:35*
%MOMM*%
%LPD*%
G04 APERTURE LIST*
%ADD10C,0.150000*%
%ADD11C,0.120000*%
G04 APERTURE END LIST*
D10*
X172299380Y-104394238D02*
X173299380Y-104727571D01*
X172299380Y-105060904D01*
X173299380Y-106679952D02*
X173299380Y-106108523D01*
X173299380Y-106394238D02*
X172299380Y-106394238D01*
X172442238Y-106299000D01*
X172537476Y-106203761D01*
X172585095Y-106108523D01*
X173204142Y-107108523D02*
X173251761Y-107156142D01*
X173299380Y-107108523D01*
X173251761Y-107060904D01*
X173204142Y-107108523D01*
X173299380Y-107108523D01*
X172299380Y-107775190D02*
X172299380Y-107870428D01*
X172347000Y-107965666D01*
X172394619Y-108013285D01*
X172489857Y-108060904D01*
X172680333Y-108108523D01*
X172918428Y-108108523D01*
X173108904Y-108060904D01*
X173204142Y-108013285D01*
X173251761Y-107965666D01*
X173299380Y-107870428D01*
X173299380Y-107775190D01*
X173251761Y-107679952D01*
X173204142Y-107632333D01*
X173108904Y-107584714D01*
X172918428Y-107537095D01*
X172680333Y-107537095D01*
X172489857Y-107584714D01*
X172394619Y-107632333D01*
X172347000Y-107679952D01*
X172299380Y-107775190D01*
X171521380Y-98568857D02*
X170521380Y-98568857D01*
X170521380Y-98806952D01*
X170569000Y-98949809D01*
X170664238Y-99045047D01*
X170759476Y-99092666D01*
X170949952Y-99140285D01*
X171092809Y-99140285D01*
X171283285Y-99092666D01*
X171378523Y-99045047D01*
X171473761Y-98949809D01*
X171521380Y-98806952D01*
X171521380Y-98568857D01*
X171473761Y-99949809D02*
X171521380Y-99854571D01*
X171521380Y-99664095D01*
X171473761Y-99568857D01*
X171378523Y-99521238D01*
X170997571Y-99521238D01*
X170902333Y-99568857D01*
X170854714Y-99664095D01*
X170854714Y-99854571D01*
X170902333Y-99949809D01*
X170997571Y-99997428D01*
X171092809Y-99997428D01*
X171188047Y-99521238D01*
X171473761Y-100378380D02*
X171521380Y-100473619D01*
X171521380Y-100664095D01*
X171473761Y-100759333D01*
X171378523Y-100806952D01*
X171330904Y-100806952D01*
X171235666Y-100759333D01*
X171188047Y-100664095D01*
X171188047Y-100521238D01*
X171140428Y-100426000D01*
X171045190Y-100378380D01*
X170997571Y-100378380D01*
X170902333Y-100426000D01*
X170854714Y-100521238D01*
X170854714Y-100664095D01*
X170902333Y-100759333D01*
X171521380Y-101235523D02*
X170854714Y-101235523D01*
X170521380Y-101235523D02*
X170569000Y-101187904D01*
X170616619Y-101235523D01*
X170569000Y-101283142D01*
X170521380Y-101235523D01*
X170616619Y-101235523D01*
X170854714Y-102140285D02*
X171664238Y-102140285D01*
X171759476Y-102092666D01*
X171807095Y-102045047D01*
X171854714Y-101949809D01*
X171854714Y-101806952D01*
X171807095Y-101711714D01*
X171473761Y-102140285D02*
X171521380Y-102045047D01*
X171521380Y-101854571D01*
X171473761Y-101759333D01*
X171426142Y-101711714D01*
X171330904Y-101664095D01*
X171045190Y-101664095D01*
X170949952Y-101711714D01*
X170902333Y-101759333D01*
X170854714Y-101854571D01*
X170854714Y-102045047D01*
X170902333Y-102140285D01*
X170854714Y-102616476D02*
X171521380Y-102616476D01*
X170949952Y-102616476D02*
X170902333Y-102664095D01*
X170854714Y-102759333D01*
X170854714Y-102902190D01*
X170902333Y-102997428D01*
X170997571Y-103045047D01*
X171521380Y-103045047D01*
X171473761Y-103902190D02*
X171521380Y-103806952D01*
X171521380Y-103616476D01*
X171473761Y-103521238D01*
X171378523Y-103473619D01*
X170997571Y-103473619D01*
X170902333Y-103521238D01*
X170854714Y-103616476D01*
X170854714Y-103806952D01*
X170902333Y-103902190D01*
X170997571Y-103949809D01*
X171092809Y-103949809D01*
X171188047Y-103473619D01*
X171521380Y-104378380D02*
X170854714Y-104378380D01*
X171045190Y-104378380D02*
X170949952Y-104426000D01*
X170902333Y-104473619D01*
X170854714Y-104568857D01*
X170854714Y-104664095D01*
X171426142Y-104997428D02*
X171473761Y-105045047D01*
X171521380Y-104997428D01*
X171473761Y-104949809D01*
X171426142Y-104997428D01*
X171521380Y-104997428D01*
X170902333Y-104997428D02*
X170949952Y-105045047D01*
X170997571Y-104997428D01*
X170949952Y-104949809D01*
X170902333Y-104997428D01*
X170997571Y-104997428D01*
X170521380Y-105759333D02*
X171235666Y-105759333D01*
X171378523Y-105711714D01*
X171473761Y-105616476D01*
X171521380Y-105473619D01*
X171521380Y-105378380D01*
X171521380Y-106378380D02*
X171473761Y-106283142D01*
X171426142Y-106235523D01*
X171330904Y-106187904D01*
X171045190Y-106187904D01*
X170949952Y-106235523D01*
X170902333Y-106283142D01*
X170854714Y-106378380D01*
X170854714Y-106521238D01*
X170902333Y-106616476D01*
X170949952Y-106664095D01*
X171045190Y-106711714D01*
X171330904Y-106711714D01*
X171426142Y-106664095D01*
X171473761Y-106616476D01*
X171521380Y-106521238D01*
X171521380Y-106378380D01*
X171521380Y-107140285D02*
X170854714Y-107140285D01*
X171045190Y-107140285D02*
X170949952Y-107187904D01*
X170902333Y-107235523D01*
X170854714Y-107330761D01*
X170854714Y-107426000D01*
X170854714Y-108187904D02*
X171664238Y-108187904D01*
X171759476Y-108140285D01*
X171807095Y-108092666D01*
X171854714Y-107997428D01*
X171854714Y-107854571D01*
X171807095Y-107759333D01*
X171473761Y-108187904D02*
X171521380Y-108092666D01*
X171521380Y-107902190D01*
X171473761Y-107806952D01*
X171426142Y-107759333D01*
X171330904Y-107711714D01*
X171045190Y-107711714D01*
X170949952Y-107759333D01*
X170902333Y-107806952D01*
X170854714Y-107902190D01*
X170854714Y-108092666D01*
X170902333Y-108187904D01*
X171473761Y-109045047D02*
X171521380Y-108949809D01*
X171521380Y-108759333D01*
X171473761Y-108664095D01*
X171378523Y-108616476D01*
X170997571Y-108616476D01*
X170902333Y-108664095D01*
X170854714Y-108759333D01*
X170854714Y-108949809D01*
X170902333Y-109045047D01*
X170997571Y-109092666D01*
X171092809Y-109092666D01*
X171188047Y-108616476D01*
X170997571Y-110283142D02*
X170997571Y-110616476D01*
X171521380Y-110759333D02*
X171521380Y-110283142D01*
X170521380Y-110283142D01*
X170521380Y-110759333D01*
X171521380Y-111092666D02*
X170854714Y-111616476D01*
X170854714Y-111092666D02*
X171521380Y-111616476D01*
X171521380Y-111997428D02*
X170854714Y-111997428D01*
X170521380Y-111997428D02*
X170569000Y-111949809D01*
X170616619Y-111997428D01*
X170569000Y-112045047D01*
X170521380Y-111997428D01*
X170616619Y-111997428D01*
X170854714Y-112473619D02*
X171521380Y-112473619D01*
X170949952Y-112473619D02*
X170902333Y-112521238D01*
X170854714Y-112616476D01*
X170854714Y-112759333D01*
X170902333Y-112854571D01*
X170997571Y-112902190D01*
X171521380Y-112902190D01*
X171521380Y-113378380D02*
X170854714Y-113378380D01*
X170521380Y-113378380D02*
X170569000Y-113330761D01*
X170616619Y-113378380D01*
X170569000Y-113426000D01*
X170521380Y-113378380D01*
X170616619Y-113378380D01*
X171521380Y-114283142D02*
X170997571Y-114283142D01*
X170902333Y-114235523D01*
X170854714Y-114140285D01*
X170854714Y-113949809D01*
X170902333Y-113854571D01*
X171473761Y-114283142D02*
X171521380Y-114187904D01*
X171521380Y-113949809D01*
X171473761Y-113854571D01*
X171378523Y-113806952D01*
X171283285Y-113806952D01*
X171188047Y-113854571D01*
X171140428Y-113949809D01*
X171140428Y-114187904D01*
X171092809Y-114283142D01*
D11*
X151892000Y-81025999D02*
G75*
G02X151892001Y-79502001I508000J761999D01*
G01*
X151892000Y-79502000D02*
G75*
G02X151892000Y-81026000I0J-762000D01*
G01*
X152048406Y-83976406D02*
G75*
G03X152048406Y-83976406I-1934406J0D01*
G01*
X151813494Y-83976406D02*
G75*
G03X151813494Y-83976406I-1699494J0D01*
G01*
X151865254Y-83976406D02*
G75*
G03X151865254Y-83976406I-1751254J0D01*
G01*
X153416000Y-78232000D02*
G75*
G02X153416000Y-80264000I0J-1016000D01*
G01*
X151865254Y-76734747D02*
G75*
G03X151865254Y-76734747I-1751254J0D01*
G01*
X151813494Y-76708000D02*
G75*
G03X151813494Y-76708000I-1699494J0D01*
G01*
X152048406Y-76708000D02*
G75*
G03X152048406Y-76708000I-1934406J0D01*
G01*
X153416000Y-80264000D02*
G75*
G02X153416000Y-82296000I0J-1016000D01*
G01*
X154178000Y-76200000D02*
X154686000Y-74168000D01*
X153670000Y-84582000D02*
X153670000Y-86868000D01*
X153162000Y-76200000D02*
X152908000Y-74168000D01*
X154178000Y-84582000D02*
X154432000Y-86614000D01*
X153670000Y-76200000D02*
X153670000Y-73914000D01*
X153162000Y-84582000D02*
X152654000Y-86614000D01*
X154178000Y-103124000D02*
X154432000Y-105156000D01*
X153670000Y-103124000D02*
X153670000Y-105410000D01*
X153162000Y-103124000D02*
X152654000Y-105156000D01*
X151865254Y-102518406D02*
G75*
G03X151865254Y-102518406I-1751254J0D01*
G01*
X153162000Y-94742000D02*
X152908000Y-92710000D01*
X151813494Y-95250000D02*
G75*
G03X151813494Y-95250000I-1699494J0D01*
G01*
X151865254Y-95276747D02*
G75*
G03X151865254Y-95276747I-1751254J0D01*
G01*
X152048406Y-95250000D02*
G75*
G03X152048406Y-95250000I-1934406J0D01*
G01*
X154178000Y-94742000D02*
X154686000Y-92710000D01*
X153670000Y-94742000D02*
X153670000Y-92456000D01*
X153416000Y-96774000D02*
G75*
G02X153416000Y-98806000I0J-1016000D01*
G01*
X153416000Y-98806000D02*
G75*
G02X153416000Y-100838000I0J-1016000D01*
G01*
X151892000Y-99567999D02*
G75*
G02X151892001Y-98044001I508000J761999D01*
G01*
X151892000Y-98044000D02*
G75*
G02X151892000Y-99568000I0J-762000D01*
G01*
X151813494Y-102518406D02*
G75*
G03X151813494Y-102518406I-1699494J0D01*
G01*
X152048406Y-102518406D02*
G75*
G03X152048406Y-102518406I-1934406J0D01*
G01*
M02*
