G04 #@! TF.GenerationSoftware,KiCad,Pcbnew,(5.1.4)-1*
G04 #@! TF.CreationDate,2020-02-11T18:39:35-06:00*
G04 #@! TF.ProjectId,ArduinoBreakoutboardControl,41726475-696e-46f4-9272-65616b6f7574,rev?*
G04 #@! TF.SameCoordinates,Original*
G04 #@! TF.FileFunction,Soldermask,Top*
G04 #@! TF.FilePolarity,Negative*
%FSLAX46Y46*%
G04 Gerber Fmt 4.6, Leading zero omitted, Abs format (unit mm)*
G04 Created by KiCad (PCBNEW (5.1.4)-1) date 2020-02-11 18:39:35*
%MOMM*%
%LPD*%
G04 APERTURE LIST*
%ADD10C,0.100000*%
G04 APERTURE END LIST*
D10*
G36*
X163501357Y-118370071D02*
G01*
X163692497Y-118449244D01*
X163692499Y-118449245D01*
X163864521Y-118564186D01*
X164010814Y-118710479D01*
X164125755Y-118882501D01*
X164125756Y-118882503D01*
X164204929Y-119073643D01*
X164245290Y-119276554D01*
X164245290Y-119483446D01*
X164204929Y-119686357D01*
X164139133Y-119845201D01*
X164125755Y-119877499D01*
X164010814Y-120049521D01*
X163864521Y-120195814D01*
X163692499Y-120310755D01*
X163692498Y-120310756D01*
X163692497Y-120310756D01*
X163501357Y-120389929D01*
X163298446Y-120430290D01*
X163091554Y-120430290D01*
X162888643Y-120389929D01*
X162697503Y-120310756D01*
X162697502Y-120310756D01*
X162697501Y-120310755D01*
X162525479Y-120195814D01*
X162379186Y-120049521D01*
X162264245Y-119877499D01*
X162250867Y-119845201D01*
X162185071Y-119686357D01*
X162144710Y-119483446D01*
X162144710Y-119276554D01*
X162185071Y-119073643D01*
X162264244Y-118882503D01*
X162264245Y-118882501D01*
X162379186Y-118710479D01*
X162525479Y-118564186D01*
X162697501Y-118449245D01*
X162697503Y-118449244D01*
X162888643Y-118370071D01*
X163091554Y-118329710D01*
X163298446Y-118329710D01*
X163501357Y-118370071D01*
X163501357Y-118370071D01*
G37*
G36*
X160961357Y-118370071D02*
G01*
X161152497Y-118449244D01*
X161152499Y-118449245D01*
X161324521Y-118564186D01*
X161470814Y-118710479D01*
X161585755Y-118882501D01*
X161585756Y-118882503D01*
X161664929Y-119073643D01*
X161705290Y-119276554D01*
X161705290Y-119483446D01*
X161664929Y-119686357D01*
X161599133Y-119845201D01*
X161585755Y-119877499D01*
X161470814Y-120049521D01*
X161324521Y-120195814D01*
X161152499Y-120310755D01*
X161152498Y-120310756D01*
X161152497Y-120310756D01*
X160961357Y-120389929D01*
X160758446Y-120430290D01*
X160551554Y-120430290D01*
X160348643Y-120389929D01*
X160157503Y-120310756D01*
X160157502Y-120310756D01*
X160157501Y-120310755D01*
X159985479Y-120195814D01*
X159839186Y-120049521D01*
X159724245Y-119877499D01*
X159710867Y-119845201D01*
X159645071Y-119686357D01*
X159604710Y-119483446D01*
X159604710Y-119276554D01*
X159645071Y-119073643D01*
X159724244Y-118882503D01*
X159724245Y-118882501D01*
X159839186Y-118710479D01*
X159985479Y-118564186D01*
X160157501Y-118449245D01*
X160157503Y-118449244D01*
X160348643Y-118370071D01*
X160551554Y-118329710D01*
X160758446Y-118329710D01*
X160961357Y-118370071D01*
X160961357Y-118370071D01*
G37*
G36*
X155881357Y-118370071D02*
G01*
X156072497Y-118449244D01*
X156072499Y-118449245D01*
X156244521Y-118564186D01*
X156390814Y-118710479D01*
X156505755Y-118882501D01*
X156505756Y-118882503D01*
X156584929Y-119073643D01*
X156625290Y-119276554D01*
X156625290Y-119483446D01*
X156584929Y-119686357D01*
X156519133Y-119845201D01*
X156505755Y-119877499D01*
X156390814Y-120049521D01*
X156244521Y-120195814D01*
X156072499Y-120310755D01*
X156072498Y-120310756D01*
X156072497Y-120310756D01*
X155881357Y-120389929D01*
X155678446Y-120430290D01*
X155471554Y-120430290D01*
X155268643Y-120389929D01*
X155077503Y-120310756D01*
X155077502Y-120310756D01*
X155077501Y-120310755D01*
X154905479Y-120195814D01*
X154759186Y-120049521D01*
X154644245Y-119877499D01*
X154630867Y-119845201D01*
X154565071Y-119686357D01*
X154524710Y-119483446D01*
X154524710Y-119276554D01*
X154565071Y-119073643D01*
X154644244Y-118882503D01*
X154644245Y-118882501D01*
X154759186Y-118710479D01*
X154905479Y-118564186D01*
X155077501Y-118449245D01*
X155077503Y-118449244D01*
X155268643Y-118370071D01*
X155471554Y-118329710D01*
X155678446Y-118329710D01*
X155881357Y-118370071D01*
X155881357Y-118370071D01*
G37*
G36*
X153341357Y-118370071D02*
G01*
X153532497Y-118449244D01*
X153532499Y-118449245D01*
X153704521Y-118564186D01*
X153850814Y-118710479D01*
X153965755Y-118882501D01*
X153965756Y-118882503D01*
X154044929Y-119073643D01*
X154085290Y-119276554D01*
X154085290Y-119483446D01*
X154044929Y-119686357D01*
X153979133Y-119845201D01*
X153965755Y-119877499D01*
X153850814Y-120049521D01*
X153704521Y-120195814D01*
X153532499Y-120310755D01*
X153532498Y-120310756D01*
X153532497Y-120310756D01*
X153341357Y-120389929D01*
X153138446Y-120430290D01*
X152931554Y-120430290D01*
X152728643Y-120389929D01*
X152537503Y-120310756D01*
X152537502Y-120310756D01*
X152537501Y-120310755D01*
X152365479Y-120195814D01*
X152219186Y-120049521D01*
X152104245Y-119877499D01*
X152090867Y-119845201D01*
X152025071Y-119686357D01*
X151984710Y-119483446D01*
X151984710Y-119276554D01*
X152025071Y-119073643D01*
X152104244Y-118882503D01*
X152104245Y-118882501D01*
X152219186Y-118710479D01*
X152365479Y-118564186D01*
X152537501Y-118449245D01*
X152537503Y-118449244D01*
X152728643Y-118370071D01*
X152931554Y-118329710D01*
X153138446Y-118329710D01*
X153341357Y-118370071D01*
X153341357Y-118370071D01*
G37*
G36*
X158421357Y-118370071D02*
G01*
X158612497Y-118449244D01*
X158612499Y-118449245D01*
X158784521Y-118564186D01*
X158930814Y-118710479D01*
X159045755Y-118882501D01*
X159045756Y-118882503D01*
X159124929Y-119073643D01*
X159165290Y-119276554D01*
X159165290Y-119483446D01*
X159124929Y-119686357D01*
X159059133Y-119845201D01*
X159045755Y-119877499D01*
X158930814Y-120049521D01*
X158784521Y-120195814D01*
X158612499Y-120310755D01*
X158612498Y-120310756D01*
X158612497Y-120310756D01*
X158421357Y-120389929D01*
X158218446Y-120430290D01*
X158011554Y-120430290D01*
X157808643Y-120389929D01*
X157617503Y-120310756D01*
X157617502Y-120310756D01*
X157617501Y-120310755D01*
X157445479Y-120195814D01*
X157299186Y-120049521D01*
X157184245Y-119877499D01*
X157170867Y-119845201D01*
X157105071Y-119686357D01*
X157064710Y-119483446D01*
X157064710Y-119276554D01*
X157105071Y-119073643D01*
X157184244Y-118882503D01*
X157184245Y-118882501D01*
X157299186Y-118710479D01*
X157445479Y-118564186D01*
X157617501Y-118449245D01*
X157617503Y-118449244D01*
X157808643Y-118370071D01*
X158011554Y-118329710D01*
X158218446Y-118329710D01*
X158421357Y-118370071D01*
X158421357Y-118370071D01*
G37*
G36*
X138058587Y-117834234D02*
G01*
X138110326Y-117849929D01*
X138228389Y-117885743D01*
X138384877Y-117969387D01*
X138522043Y-118081957D01*
X138634613Y-118219123D01*
X138718257Y-118375610D01*
X138740594Y-118449244D01*
X138769766Y-118545412D01*
X138782800Y-118677751D01*
X138782800Y-119066248D01*
X138769766Y-119198587D01*
X138746115Y-119276554D01*
X138718257Y-119368390D01*
X138634613Y-119524877D01*
X138522043Y-119662043D01*
X138384877Y-119774613D01*
X138228390Y-119858257D01*
X138143866Y-119883897D01*
X138058588Y-119909766D01*
X137882000Y-119927158D01*
X137705413Y-119909766D01*
X137620135Y-119883897D01*
X137535611Y-119858257D01*
X137379124Y-119774613D01*
X137276875Y-119690699D01*
X137241957Y-119662043D01*
X137129389Y-119524879D01*
X137129387Y-119524876D01*
X137045743Y-119368390D01*
X136994234Y-119198587D01*
X136981200Y-119066250D01*
X136981200Y-118677751D01*
X136994234Y-118545414D01*
X136994235Y-118545412D01*
X137045743Y-118375612D01*
X137045743Y-118375611D01*
X137129387Y-118219123D01*
X137241957Y-118081957D01*
X137379123Y-117969387D01*
X137535610Y-117885743D01*
X137653673Y-117849929D01*
X137705412Y-117834234D01*
X137882000Y-117816842D01*
X138058587Y-117834234D01*
X138058587Y-117834234D01*
G37*
G36*
X136097905Y-117825849D02*
G01*
X136140943Y-117838905D01*
X136180602Y-117860103D01*
X136215366Y-117888634D01*
X136243897Y-117923398D01*
X136265095Y-117963057D01*
X136278151Y-118006095D01*
X136282800Y-118053301D01*
X136282800Y-119690699D01*
X136278151Y-119737905D01*
X136265095Y-119780943D01*
X136243897Y-119820602D01*
X136215366Y-119855366D01*
X136180602Y-119883897D01*
X136140943Y-119905095D01*
X136097905Y-119918151D01*
X136050699Y-119922800D01*
X134713301Y-119922800D01*
X134666095Y-119918151D01*
X134623057Y-119905095D01*
X134583398Y-119883897D01*
X134548634Y-119855366D01*
X134520103Y-119820602D01*
X134498905Y-119780943D01*
X134485849Y-119737905D01*
X134481200Y-119690699D01*
X134481200Y-118053301D01*
X134485849Y-118006095D01*
X134498905Y-117963057D01*
X134520103Y-117923398D01*
X134548634Y-117888634D01*
X134583398Y-117860103D01*
X134623057Y-117838905D01*
X134666095Y-117825849D01*
X134713301Y-117821200D01*
X136050699Y-117821200D01*
X136097905Y-117825849D01*
X136097905Y-117825849D01*
G37*
G36*
X163501357Y-115830071D02*
G01*
X163692497Y-115909244D01*
X163692499Y-115909245D01*
X163864521Y-116024186D01*
X164010814Y-116170479D01*
X164125755Y-116342501D01*
X164125756Y-116342503D01*
X164204929Y-116533643D01*
X164245290Y-116736554D01*
X164245290Y-116943446D01*
X164204929Y-117146357D01*
X164125756Y-117337497D01*
X164125755Y-117337499D01*
X164010814Y-117509521D01*
X163864521Y-117655814D01*
X163692499Y-117770755D01*
X163692498Y-117770756D01*
X163692497Y-117770756D01*
X163501357Y-117849929D01*
X163298446Y-117890290D01*
X163091554Y-117890290D01*
X162888643Y-117849929D01*
X162697503Y-117770756D01*
X162697502Y-117770756D01*
X162697501Y-117770755D01*
X162525479Y-117655814D01*
X162379186Y-117509521D01*
X162264245Y-117337499D01*
X162264244Y-117337497D01*
X162185071Y-117146357D01*
X162144710Y-116943446D01*
X162144710Y-116736554D01*
X162185071Y-116533643D01*
X162264244Y-116342503D01*
X162264245Y-116342501D01*
X162379186Y-116170479D01*
X162525479Y-116024186D01*
X162697501Y-115909245D01*
X162697503Y-115909244D01*
X162888643Y-115830071D01*
X163091554Y-115789710D01*
X163298446Y-115789710D01*
X163501357Y-115830071D01*
X163501357Y-115830071D01*
G37*
G36*
X160961357Y-115830071D02*
G01*
X161152497Y-115909244D01*
X161152499Y-115909245D01*
X161324521Y-116024186D01*
X161470814Y-116170479D01*
X161585755Y-116342501D01*
X161585756Y-116342503D01*
X161664929Y-116533643D01*
X161705290Y-116736554D01*
X161705290Y-116943446D01*
X161664929Y-117146357D01*
X161585756Y-117337497D01*
X161585755Y-117337499D01*
X161470814Y-117509521D01*
X161324521Y-117655814D01*
X161152499Y-117770755D01*
X161152498Y-117770756D01*
X161152497Y-117770756D01*
X160961357Y-117849929D01*
X160758446Y-117890290D01*
X160551554Y-117890290D01*
X160348643Y-117849929D01*
X160157503Y-117770756D01*
X160157502Y-117770756D01*
X160157501Y-117770755D01*
X159985479Y-117655814D01*
X159839186Y-117509521D01*
X159724245Y-117337499D01*
X159724244Y-117337497D01*
X159645071Y-117146357D01*
X159604710Y-116943446D01*
X159604710Y-116736554D01*
X159645071Y-116533643D01*
X159724244Y-116342503D01*
X159724245Y-116342501D01*
X159839186Y-116170479D01*
X159985479Y-116024186D01*
X160157501Y-115909245D01*
X160157503Y-115909244D01*
X160348643Y-115830071D01*
X160551554Y-115789710D01*
X160758446Y-115789710D01*
X160961357Y-115830071D01*
X160961357Y-115830071D01*
G37*
G36*
X155881357Y-115830071D02*
G01*
X156072497Y-115909244D01*
X156072499Y-115909245D01*
X156244521Y-116024186D01*
X156390814Y-116170479D01*
X156505755Y-116342501D01*
X156505756Y-116342503D01*
X156584929Y-116533643D01*
X156625290Y-116736554D01*
X156625290Y-116943446D01*
X156584929Y-117146357D01*
X156505756Y-117337497D01*
X156505755Y-117337499D01*
X156390814Y-117509521D01*
X156244521Y-117655814D01*
X156072499Y-117770755D01*
X156072498Y-117770756D01*
X156072497Y-117770756D01*
X155881357Y-117849929D01*
X155678446Y-117890290D01*
X155471554Y-117890290D01*
X155268643Y-117849929D01*
X155077503Y-117770756D01*
X155077502Y-117770756D01*
X155077501Y-117770755D01*
X154905479Y-117655814D01*
X154759186Y-117509521D01*
X154644245Y-117337499D01*
X154644244Y-117337497D01*
X154565071Y-117146357D01*
X154524710Y-116943446D01*
X154524710Y-116736554D01*
X154565071Y-116533643D01*
X154644244Y-116342503D01*
X154644245Y-116342501D01*
X154759186Y-116170479D01*
X154905479Y-116024186D01*
X155077501Y-115909245D01*
X155077503Y-115909244D01*
X155268643Y-115830071D01*
X155471554Y-115789710D01*
X155678446Y-115789710D01*
X155881357Y-115830071D01*
X155881357Y-115830071D01*
G37*
G36*
X153341357Y-115830071D02*
G01*
X153532497Y-115909244D01*
X153532499Y-115909245D01*
X153704521Y-116024186D01*
X153850814Y-116170479D01*
X153965755Y-116342501D01*
X153965756Y-116342503D01*
X154044929Y-116533643D01*
X154085290Y-116736554D01*
X154085290Y-116943446D01*
X154044929Y-117146357D01*
X153965756Y-117337497D01*
X153965755Y-117337499D01*
X153850814Y-117509521D01*
X153704521Y-117655814D01*
X153532499Y-117770755D01*
X153532498Y-117770756D01*
X153532497Y-117770756D01*
X153341357Y-117849929D01*
X153138446Y-117890290D01*
X152931554Y-117890290D01*
X152728643Y-117849929D01*
X152537503Y-117770756D01*
X152537502Y-117770756D01*
X152537501Y-117770755D01*
X152365479Y-117655814D01*
X152219186Y-117509521D01*
X152104245Y-117337499D01*
X152104244Y-117337497D01*
X152025071Y-117146357D01*
X151984710Y-116943446D01*
X151984710Y-116736554D01*
X152025071Y-116533643D01*
X152104244Y-116342503D01*
X152104245Y-116342501D01*
X152219186Y-116170479D01*
X152365479Y-116024186D01*
X152537501Y-115909245D01*
X152537503Y-115909244D01*
X152728643Y-115830071D01*
X152931554Y-115789710D01*
X153138446Y-115789710D01*
X153341357Y-115830071D01*
X153341357Y-115830071D01*
G37*
G36*
X158421357Y-115830071D02*
G01*
X158612497Y-115909244D01*
X158612499Y-115909245D01*
X158784521Y-116024186D01*
X158930814Y-116170479D01*
X159045755Y-116342501D01*
X159045756Y-116342503D01*
X159124929Y-116533643D01*
X159165290Y-116736554D01*
X159165290Y-116943446D01*
X159124929Y-117146357D01*
X159045756Y-117337497D01*
X159045755Y-117337499D01*
X158930814Y-117509521D01*
X158784521Y-117655814D01*
X158612499Y-117770755D01*
X158612498Y-117770756D01*
X158612497Y-117770756D01*
X158421357Y-117849929D01*
X158218446Y-117890290D01*
X158011554Y-117890290D01*
X157808643Y-117849929D01*
X157617503Y-117770756D01*
X157617502Y-117770756D01*
X157617501Y-117770755D01*
X157445479Y-117655814D01*
X157299186Y-117509521D01*
X157184245Y-117337499D01*
X157184244Y-117337497D01*
X157105071Y-117146357D01*
X157064710Y-116943446D01*
X157064710Y-116736554D01*
X157105071Y-116533643D01*
X157184244Y-116342503D01*
X157184245Y-116342501D01*
X157299186Y-116170479D01*
X157445479Y-116024186D01*
X157617501Y-115909245D01*
X157617503Y-115909244D01*
X157808643Y-115830071D01*
X158011554Y-115789710D01*
X158218446Y-115789710D01*
X158421357Y-115830071D01*
X158421357Y-115830071D01*
G37*
G36*
X136445588Y-108767234D02*
G01*
X136530489Y-108792989D01*
X136615390Y-108818743D01*
X136771877Y-108902387D01*
X136909043Y-109014957D01*
X137021613Y-109152123D01*
X137105257Y-109308610D01*
X137156766Y-109478413D01*
X137174158Y-109655000D01*
X137156766Y-109831587D01*
X137105257Y-110001390D01*
X137021613Y-110157877D01*
X136909043Y-110295043D01*
X136771877Y-110407613D01*
X136615390Y-110491257D01*
X136530489Y-110517011D01*
X136445588Y-110542766D01*
X136313250Y-110555800D01*
X135974750Y-110555800D01*
X135842412Y-110542766D01*
X135757511Y-110517011D01*
X135672610Y-110491257D01*
X135516123Y-110407613D01*
X135378957Y-110295043D01*
X135266387Y-110157877D01*
X135182743Y-110001390D01*
X135131234Y-109831587D01*
X135113842Y-109655000D01*
X135131234Y-109478413D01*
X135182743Y-109308610D01*
X135266387Y-109152123D01*
X135378957Y-109014957D01*
X135516123Y-108902387D01*
X135672610Y-108818743D01*
X135757511Y-108792989D01*
X135842412Y-108767234D01*
X135974750Y-108754200D01*
X136313250Y-108754200D01*
X136445588Y-108767234D01*
X136445588Y-108767234D01*
G37*
G36*
X141276357Y-106305071D02*
G01*
X141467497Y-106384244D01*
X141467499Y-106384245D01*
X141639521Y-106499186D01*
X141785814Y-106645479D01*
X141894814Y-106808610D01*
X141900756Y-106817503D01*
X141979929Y-107008643D01*
X142020290Y-107211554D01*
X142020290Y-107418446D01*
X141979929Y-107621357D01*
X141900756Y-107812497D01*
X141900755Y-107812499D01*
X141785814Y-107984521D01*
X141639521Y-108130814D01*
X141467499Y-108245755D01*
X141467498Y-108245756D01*
X141467497Y-108245756D01*
X141276357Y-108324929D01*
X141073446Y-108365290D01*
X140866554Y-108365290D01*
X140663643Y-108324929D01*
X140472503Y-108245756D01*
X140472502Y-108245756D01*
X140472501Y-108245755D01*
X140300479Y-108130814D01*
X140154186Y-107984521D01*
X140039245Y-107812499D01*
X140039244Y-107812497D01*
X139960071Y-107621357D01*
X139919710Y-107418446D01*
X139919710Y-107211554D01*
X139960071Y-107008643D01*
X140039244Y-106817503D01*
X140045186Y-106808610D01*
X140154186Y-106645479D01*
X140300479Y-106499186D01*
X140472501Y-106384245D01*
X140472503Y-106384244D01*
X140663643Y-106305071D01*
X140866554Y-106264710D01*
X141073446Y-106264710D01*
X141276357Y-106305071D01*
X141276357Y-106305071D01*
G37*
G36*
X162866357Y-106305071D02*
G01*
X163057497Y-106384244D01*
X163057499Y-106384245D01*
X163229521Y-106499186D01*
X163375814Y-106645479D01*
X163484814Y-106808610D01*
X163490756Y-106817503D01*
X163569929Y-107008643D01*
X163610290Y-107211554D01*
X163610290Y-107418446D01*
X163569929Y-107621357D01*
X163490756Y-107812497D01*
X163490755Y-107812499D01*
X163375814Y-107984521D01*
X163229521Y-108130814D01*
X163057499Y-108245755D01*
X163057498Y-108245756D01*
X163057497Y-108245756D01*
X162866357Y-108324929D01*
X162663446Y-108365290D01*
X162456554Y-108365290D01*
X162253643Y-108324929D01*
X162062503Y-108245756D01*
X162062502Y-108245756D01*
X162062501Y-108245755D01*
X161890479Y-108130814D01*
X161744186Y-107984521D01*
X161629245Y-107812499D01*
X161629244Y-107812497D01*
X161550071Y-107621357D01*
X161509710Y-107418446D01*
X161509710Y-107211554D01*
X161550071Y-107008643D01*
X161629244Y-106817503D01*
X161635186Y-106808610D01*
X161744186Y-106645479D01*
X161890479Y-106499186D01*
X162062501Y-106384245D01*
X162062503Y-106384244D01*
X162253643Y-106305071D01*
X162456554Y-106264710D01*
X162663446Y-106264710D01*
X162866357Y-106305071D01*
X162866357Y-106305071D01*
G37*
G36*
X159551785Y-106476510D02*
G01*
X159712164Y-106525161D01*
X159859964Y-106604161D01*
X159989517Y-106710483D01*
X160095839Y-106840036D01*
X160174839Y-106987836D01*
X160223490Y-107148215D01*
X160239916Y-107315000D01*
X160223490Y-107481785D01*
X160174839Y-107642164D01*
X160095839Y-107789964D01*
X159989517Y-107919517D01*
X159859964Y-108025839D01*
X159712164Y-108104839D01*
X159551785Y-108153490D01*
X159426794Y-108165800D01*
X159343206Y-108165800D01*
X159218215Y-108153490D01*
X159057836Y-108104839D01*
X158910036Y-108025839D01*
X158780483Y-107919517D01*
X158674161Y-107789964D01*
X158595161Y-107642164D01*
X158546510Y-107481785D01*
X158530084Y-107315000D01*
X158546510Y-107148215D01*
X158595161Y-106987836D01*
X158674161Y-106840036D01*
X158780483Y-106710483D01*
X158910036Y-106604161D01*
X159057836Y-106525161D01*
X159218215Y-106476510D01*
X159343206Y-106464200D01*
X159426794Y-106464200D01*
X159551785Y-106476510D01*
X159551785Y-106476510D01*
G37*
G36*
X144311785Y-106476510D02*
G01*
X144472164Y-106525161D01*
X144619964Y-106604161D01*
X144749517Y-106710483D01*
X144855839Y-106840036D01*
X144934839Y-106987836D01*
X144983490Y-107148215D01*
X144999916Y-107315000D01*
X144983490Y-107481785D01*
X144934839Y-107642164D01*
X144855839Y-107789964D01*
X144749517Y-107919517D01*
X144619964Y-108025839D01*
X144472164Y-108104839D01*
X144311785Y-108153490D01*
X144186794Y-108165800D01*
X144103206Y-108165800D01*
X143978215Y-108153490D01*
X143817836Y-108104839D01*
X143670036Y-108025839D01*
X143540483Y-107919517D01*
X143434161Y-107789964D01*
X143355161Y-107642164D01*
X143306510Y-107481785D01*
X143290084Y-107315000D01*
X143306510Y-107148215D01*
X143355161Y-106987836D01*
X143434161Y-106840036D01*
X143540483Y-106710483D01*
X143670036Y-106604161D01*
X143817836Y-106525161D01*
X143978215Y-106476510D01*
X144103206Y-106464200D01*
X144186794Y-106464200D01*
X144311785Y-106476510D01*
X144311785Y-106476510D01*
G37*
G36*
X136445588Y-106267234D02*
G01*
X136530488Y-106292988D01*
X136615390Y-106318743D01*
X136771877Y-106402387D01*
X136909043Y-106514957D01*
X137021613Y-106652123D01*
X137105257Y-106808610D01*
X137156766Y-106978413D01*
X137174158Y-107155000D01*
X137156766Y-107331587D01*
X137105257Y-107501390D01*
X137021613Y-107657877D01*
X136909043Y-107795043D01*
X136771877Y-107907613D01*
X136615390Y-107991257D01*
X136530488Y-108017012D01*
X136445588Y-108042766D01*
X136313250Y-108055800D01*
X135974750Y-108055800D01*
X135842412Y-108042766D01*
X135757512Y-108017012D01*
X135672610Y-107991257D01*
X135516123Y-107907613D01*
X135378957Y-107795043D01*
X135266387Y-107657877D01*
X135182743Y-107501390D01*
X135131234Y-107331587D01*
X135113842Y-107155000D01*
X135131234Y-106978413D01*
X135182743Y-106808610D01*
X135266387Y-106652123D01*
X135378957Y-106514957D01*
X135516123Y-106402387D01*
X135672610Y-106318743D01*
X135757512Y-106292988D01*
X135842412Y-106267234D01*
X135974750Y-106254200D01*
X136313250Y-106254200D01*
X136445588Y-106267234D01*
X136445588Y-106267234D01*
G37*
G36*
X162866357Y-103765071D02*
G01*
X162995932Y-103818743D01*
X163057499Y-103844245D01*
X163229521Y-103959186D01*
X163375814Y-104105479D01*
X163490755Y-104277501D01*
X163490756Y-104277503D01*
X163569929Y-104468643D01*
X163610290Y-104671554D01*
X163610290Y-104878446D01*
X163569929Y-105081357D01*
X163490756Y-105272497D01*
X163490755Y-105272499D01*
X163375814Y-105444521D01*
X163229521Y-105590814D01*
X163057499Y-105705755D01*
X163057498Y-105705756D01*
X163057497Y-105705756D01*
X162866357Y-105784929D01*
X162663446Y-105825290D01*
X162456554Y-105825290D01*
X162253643Y-105784929D01*
X162062503Y-105705756D01*
X162062502Y-105705756D01*
X162062501Y-105705755D01*
X161890479Y-105590814D01*
X161744186Y-105444521D01*
X161629245Y-105272499D01*
X161629244Y-105272497D01*
X161550071Y-105081357D01*
X161509710Y-104878446D01*
X161509710Y-104671554D01*
X161550071Y-104468643D01*
X161629244Y-104277503D01*
X161629245Y-104277501D01*
X161744186Y-104105479D01*
X161890479Y-103959186D01*
X162062501Y-103844245D01*
X162124068Y-103818743D01*
X162253643Y-103765071D01*
X162456554Y-103724710D01*
X162663446Y-103724710D01*
X162866357Y-103765071D01*
X162866357Y-103765071D01*
G37*
G36*
X141276357Y-103765071D02*
G01*
X141405932Y-103818743D01*
X141467499Y-103844245D01*
X141639521Y-103959186D01*
X141785814Y-104105479D01*
X141900755Y-104277501D01*
X141900756Y-104277503D01*
X141979929Y-104468643D01*
X142020290Y-104671554D01*
X142020290Y-104878446D01*
X141979929Y-105081357D01*
X141900756Y-105272497D01*
X141900755Y-105272499D01*
X141785814Y-105444521D01*
X141639521Y-105590814D01*
X141467499Y-105705755D01*
X141467498Y-105705756D01*
X141467497Y-105705756D01*
X141276357Y-105784929D01*
X141073446Y-105825290D01*
X140866554Y-105825290D01*
X140663643Y-105784929D01*
X140472503Y-105705756D01*
X140472502Y-105705756D01*
X140472501Y-105705755D01*
X140300479Y-105590814D01*
X140154186Y-105444521D01*
X140039245Y-105272499D01*
X140039244Y-105272497D01*
X139960071Y-105081357D01*
X139919710Y-104878446D01*
X139919710Y-104671554D01*
X139960071Y-104468643D01*
X140039244Y-104277503D01*
X140039245Y-104277501D01*
X140154186Y-104105479D01*
X140300479Y-103959186D01*
X140472501Y-103844245D01*
X140534068Y-103818743D01*
X140663643Y-103765071D01*
X140866554Y-103724710D01*
X141073446Y-103724710D01*
X141276357Y-103765071D01*
X141276357Y-103765071D01*
G37*
G36*
X159551785Y-103936510D02*
G01*
X159712164Y-103985161D01*
X159859964Y-104064161D01*
X159989517Y-104170483D01*
X160095839Y-104300036D01*
X160174839Y-104447836D01*
X160223490Y-104608215D01*
X160239916Y-104775000D01*
X160223490Y-104941785D01*
X160174839Y-105102164D01*
X160095839Y-105249964D01*
X159989517Y-105379517D01*
X159859964Y-105485839D01*
X159712164Y-105564839D01*
X159551785Y-105613490D01*
X159426794Y-105625800D01*
X159343206Y-105625800D01*
X159218215Y-105613490D01*
X159057836Y-105564839D01*
X158910036Y-105485839D01*
X158780483Y-105379517D01*
X158674161Y-105249964D01*
X158595161Y-105102164D01*
X158546510Y-104941785D01*
X158530084Y-104775000D01*
X158546510Y-104608215D01*
X158595161Y-104447836D01*
X158674161Y-104300036D01*
X158780483Y-104170483D01*
X158910036Y-104064161D01*
X159057836Y-103985161D01*
X159218215Y-103936510D01*
X159343206Y-103924200D01*
X159426794Y-103924200D01*
X159551785Y-103936510D01*
X159551785Y-103936510D01*
G37*
G36*
X144311785Y-103936510D02*
G01*
X144472164Y-103985161D01*
X144619964Y-104064161D01*
X144749517Y-104170483D01*
X144855839Y-104300036D01*
X144934839Y-104447836D01*
X144983490Y-104608215D01*
X144999916Y-104775000D01*
X144983490Y-104941785D01*
X144934839Y-105102164D01*
X144855839Y-105249964D01*
X144749517Y-105379517D01*
X144619964Y-105485839D01*
X144472164Y-105564839D01*
X144311785Y-105613490D01*
X144186794Y-105625800D01*
X144103206Y-105625800D01*
X143978215Y-105613490D01*
X143817836Y-105564839D01*
X143670036Y-105485839D01*
X143540483Y-105379517D01*
X143434161Y-105249964D01*
X143355161Y-105102164D01*
X143306510Y-104941785D01*
X143290084Y-104775000D01*
X143306510Y-104608215D01*
X143355161Y-104447836D01*
X143434161Y-104300036D01*
X143540483Y-104170483D01*
X143670036Y-104064161D01*
X143817836Y-103985161D01*
X143978215Y-103936510D01*
X144103206Y-103924200D01*
X144186794Y-103924200D01*
X144311785Y-103936510D01*
X144311785Y-103936510D01*
G37*
G36*
X136379418Y-103760717D02*
G01*
X136445588Y-103767234D01*
X136530488Y-103792988D01*
X136615390Y-103818743D01*
X136771877Y-103902387D01*
X136909043Y-104014957D01*
X137021613Y-104152123D01*
X137105257Y-104308610D01*
X137105257Y-104308611D01*
X137153803Y-104468643D01*
X137156766Y-104478413D01*
X137174158Y-104655000D01*
X137156766Y-104831587D01*
X137105257Y-105001390D01*
X137021613Y-105157877D01*
X136909043Y-105295043D01*
X136771877Y-105407613D01*
X136615390Y-105491257D01*
X136530489Y-105517011D01*
X136445588Y-105542766D01*
X136379418Y-105549283D01*
X136313250Y-105555800D01*
X135974750Y-105555800D01*
X135908582Y-105549283D01*
X135842412Y-105542766D01*
X135757511Y-105517011D01*
X135672610Y-105491257D01*
X135516123Y-105407613D01*
X135378957Y-105295043D01*
X135266387Y-105157877D01*
X135182743Y-105001390D01*
X135131234Y-104831587D01*
X135113842Y-104655000D01*
X135131234Y-104478413D01*
X135134198Y-104468643D01*
X135182743Y-104308611D01*
X135182743Y-104308610D01*
X135266387Y-104152123D01*
X135378957Y-104014957D01*
X135516123Y-103902387D01*
X135672610Y-103818743D01*
X135757512Y-103792988D01*
X135842412Y-103767234D01*
X135908582Y-103760717D01*
X135974750Y-103754200D01*
X136313250Y-103754200D01*
X136379418Y-103760717D01*
X136379418Y-103760717D01*
G37*
G36*
X162866357Y-101225071D02*
G01*
X163057497Y-101304244D01*
X163057499Y-101304245D01*
X163229521Y-101419186D01*
X163375814Y-101565479D01*
X163433707Y-101652123D01*
X163490756Y-101737503D01*
X163569929Y-101928643D01*
X163610290Y-102131554D01*
X163610290Y-102338446D01*
X163569929Y-102541357D01*
X163490756Y-102732497D01*
X163490755Y-102732499D01*
X163375814Y-102904521D01*
X163229521Y-103050814D01*
X163057499Y-103165755D01*
X163057498Y-103165756D01*
X163057497Y-103165756D01*
X162866357Y-103244929D01*
X162663446Y-103285290D01*
X162456554Y-103285290D01*
X162253643Y-103244929D01*
X162062503Y-103165756D01*
X162062502Y-103165756D01*
X162062501Y-103165755D01*
X161890479Y-103050814D01*
X161744186Y-102904521D01*
X161629245Y-102732499D01*
X161629244Y-102732497D01*
X161550071Y-102541357D01*
X161509710Y-102338446D01*
X161509710Y-102131554D01*
X161550071Y-101928643D01*
X161629244Y-101737503D01*
X161686293Y-101652123D01*
X161744186Y-101565479D01*
X161890479Y-101419186D01*
X162062501Y-101304245D01*
X162062503Y-101304244D01*
X162253643Y-101225071D01*
X162456554Y-101184710D01*
X162663446Y-101184710D01*
X162866357Y-101225071D01*
X162866357Y-101225071D01*
G37*
G36*
X141276357Y-101225071D02*
G01*
X141467497Y-101304244D01*
X141467499Y-101304245D01*
X141639521Y-101419186D01*
X141785814Y-101565479D01*
X141843707Y-101652123D01*
X141900756Y-101737503D01*
X141979929Y-101928643D01*
X142020290Y-102131554D01*
X142020290Y-102338446D01*
X141979929Y-102541357D01*
X141900756Y-102732497D01*
X141900755Y-102732499D01*
X141785814Y-102904521D01*
X141639521Y-103050814D01*
X141467499Y-103165755D01*
X141467498Y-103165756D01*
X141467497Y-103165756D01*
X141276357Y-103244929D01*
X141073446Y-103285290D01*
X140866554Y-103285290D01*
X140663643Y-103244929D01*
X140472503Y-103165756D01*
X140472502Y-103165756D01*
X140472501Y-103165755D01*
X140300479Y-103050814D01*
X140154186Y-102904521D01*
X140039245Y-102732499D01*
X140039244Y-102732497D01*
X139960071Y-102541357D01*
X139919710Y-102338446D01*
X139919710Y-102131554D01*
X139960071Y-101928643D01*
X140039244Y-101737503D01*
X140096293Y-101652123D01*
X140154186Y-101565479D01*
X140300479Y-101419186D01*
X140472501Y-101304245D01*
X140472503Y-101304244D01*
X140663643Y-101225071D01*
X140866554Y-101184710D01*
X141073446Y-101184710D01*
X141276357Y-101225071D01*
X141276357Y-101225071D01*
G37*
G36*
X144311785Y-101396510D02*
G01*
X144472164Y-101445161D01*
X144619964Y-101524161D01*
X144749517Y-101630483D01*
X144855839Y-101760036D01*
X144934839Y-101907836D01*
X144983490Y-102068215D01*
X144999916Y-102235000D01*
X144983490Y-102401785D01*
X144934839Y-102562164D01*
X144855839Y-102709964D01*
X144749517Y-102839517D01*
X144619964Y-102945839D01*
X144472164Y-103024839D01*
X144311785Y-103073490D01*
X144186794Y-103085800D01*
X144103206Y-103085800D01*
X143978215Y-103073490D01*
X143817836Y-103024839D01*
X143670036Y-102945839D01*
X143540483Y-102839517D01*
X143434161Y-102709964D01*
X143355161Y-102562164D01*
X143306510Y-102401785D01*
X143290084Y-102235000D01*
X143306510Y-102068215D01*
X143355161Y-101907836D01*
X143434161Y-101760036D01*
X143540483Y-101630483D01*
X143670036Y-101524161D01*
X143817836Y-101445161D01*
X143978215Y-101396510D01*
X144103206Y-101384200D01*
X144186794Y-101384200D01*
X144311785Y-101396510D01*
X144311785Y-101396510D01*
G37*
G36*
X159551785Y-101396510D02*
G01*
X159712164Y-101445161D01*
X159859964Y-101524161D01*
X159989517Y-101630483D01*
X160095839Y-101760036D01*
X160174839Y-101907836D01*
X160223490Y-102068215D01*
X160239916Y-102235000D01*
X160223490Y-102401785D01*
X160174839Y-102562164D01*
X160095839Y-102709964D01*
X159989517Y-102839517D01*
X159859964Y-102945839D01*
X159712164Y-103024839D01*
X159551785Y-103073490D01*
X159426794Y-103085800D01*
X159343206Y-103085800D01*
X159218215Y-103073490D01*
X159057836Y-103024839D01*
X158910036Y-102945839D01*
X158780483Y-102839517D01*
X158674161Y-102709964D01*
X158595161Y-102562164D01*
X158546510Y-102401785D01*
X158530084Y-102235000D01*
X158546510Y-102068215D01*
X158595161Y-101907836D01*
X158674161Y-101760036D01*
X158780483Y-101630483D01*
X158910036Y-101524161D01*
X159057836Y-101445161D01*
X159218215Y-101396510D01*
X159343206Y-101384200D01*
X159426794Y-101384200D01*
X159551785Y-101396510D01*
X159551785Y-101396510D01*
G37*
G36*
X136445588Y-101267234D02*
G01*
X136530488Y-101292988D01*
X136615390Y-101318743D01*
X136771877Y-101402387D01*
X136909043Y-101514957D01*
X137021613Y-101652123D01*
X137105257Y-101808610D01*
X137105257Y-101808611D01*
X137156766Y-101978412D01*
X137174158Y-102155000D01*
X137156766Y-102331588D01*
X137135472Y-102401785D01*
X137105257Y-102501390D01*
X137021613Y-102657877D01*
X136909043Y-102795043D01*
X136771877Y-102907613D01*
X136615390Y-102991257D01*
X136530488Y-103017012D01*
X136445588Y-103042766D01*
X136313250Y-103055800D01*
X135974750Y-103055800D01*
X135842412Y-103042766D01*
X135757512Y-103017012D01*
X135672610Y-102991257D01*
X135516123Y-102907613D01*
X135378957Y-102795043D01*
X135266387Y-102657877D01*
X135182743Y-102501390D01*
X135152528Y-102401785D01*
X135131234Y-102331588D01*
X135113842Y-102155000D01*
X135131234Y-101978412D01*
X135182743Y-101808611D01*
X135182743Y-101808610D01*
X135266387Y-101652123D01*
X135378957Y-101514957D01*
X135516123Y-101402387D01*
X135672610Y-101318743D01*
X135757512Y-101292988D01*
X135842412Y-101267234D01*
X135974750Y-101254200D01*
X136313250Y-101254200D01*
X136445588Y-101267234D01*
X136445588Y-101267234D01*
G37*
G36*
X141276357Y-98685071D02*
G01*
X141467497Y-98764244D01*
X141467499Y-98764245D01*
X141639521Y-98879186D01*
X141785814Y-99025479D01*
X141900755Y-99197501D01*
X141900756Y-99197503D01*
X141979929Y-99388643D01*
X142020290Y-99591554D01*
X142020290Y-99798446D01*
X141979929Y-100001357D01*
X141900756Y-100192497D01*
X141900755Y-100192499D01*
X141785814Y-100364521D01*
X141639521Y-100510814D01*
X141467499Y-100625755D01*
X141467498Y-100625756D01*
X141467497Y-100625756D01*
X141276357Y-100704929D01*
X141073446Y-100745290D01*
X140866554Y-100745290D01*
X140663643Y-100704929D01*
X140472503Y-100625756D01*
X140472502Y-100625756D01*
X140472501Y-100625755D01*
X140300479Y-100510814D01*
X140154186Y-100364521D01*
X140039245Y-100192499D01*
X140039244Y-100192497D01*
X139960071Y-100001357D01*
X139919710Y-99798446D01*
X139919710Y-99591554D01*
X139960071Y-99388643D01*
X140039244Y-99197503D01*
X140039245Y-99197501D01*
X140154186Y-99025479D01*
X140300479Y-98879186D01*
X140472501Y-98764245D01*
X140472503Y-98764244D01*
X140663643Y-98685071D01*
X140866554Y-98644710D01*
X141073446Y-98644710D01*
X141276357Y-98685071D01*
X141276357Y-98685071D01*
G37*
G36*
X162866357Y-98685071D02*
G01*
X163057497Y-98764244D01*
X163057499Y-98764245D01*
X163229521Y-98879186D01*
X163375814Y-99025479D01*
X163490755Y-99197501D01*
X163490756Y-99197503D01*
X163569929Y-99388643D01*
X163610290Y-99591554D01*
X163610290Y-99798446D01*
X163569929Y-100001357D01*
X163490756Y-100192497D01*
X163490755Y-100192499D01*
X163375814Y-100364521D01*
X163229521Y-100510814D01*
X163057499Y-100625755D01*
X163057498Y-100625756D01*
X163057497Y-100625756D01*
X162866357Y-100704929D01*
X162663446Y-100745290D01*
X162456554Y-100745290D01*
X162253643Y-100704929D01*
X162062503Y-100625756D01*
X162062502Y-100625756D01*
X162062501Y-100625755D01*
X161890479Y-100510814D01*
X161744186Y-100364521D01*
X161629245Y-100192499D01*
X161629244Y-100192497D01*
X161550071Y-100001357D01*
X161509710Y-99798446D01*
X161509710Y-99591554D01*
X161550071Y-99388643D01*
X161629244Y-99197503D01*
X161629245Y-99197501D01*
X161744186Y-99025479D01*
X161890479Y-98879186D01*
X162062501Y-98764245D01*
X162062503Y-98764244D01*
X162253643Y-98685071D01*
X162456554Y-98644710D01*
X162663446Y-98644710D01*
X162866357Y-98685071D01*
X162866357Y-98685071D01*
G37*
G36*
X136445588Y-98767234D02*
G01*
X136530488Y-98792988D01*
X136615390Y-98818743D01*
X136771877Y-98902387D01*
X136909043Y-99014957D01*
X137021613Y-99152123D01*
X137105257Y-99308610D01*
X137156766Y-99478413D01*
X137174158Y-99655000D01*
X137156766Y-99831587D01*
X137105257Y-100001390D01*
X137021613Y-100157877D01*
X136909043Y-100295043D01*
X136771877Y-100407613D01*
X136615390Y-100491257D01*
X136550919Y-100510814D01*
X136445588Y-100542766D01*
X136379418Y-100549283D01*
X136313250Y-100555800D01*
X135974750Y-100555800D01*
X135842412Y-100542766D01*
X135737081Y-100510814D01*
X135672610Y-100491257D01*
X135516123Y-100407613D01*
X135378957Y-100295043D01*
X135266387Y-100157877D01*
X135182743Y-100001390D01*
X135131234Y-99831587D01*
X135113842Y-99655000D01*
X135131234Y-99478413D01*
X135182743Y-99308610D01*
X135266387Y-99152123D01*
X135378957Y-99014957D01*
X135516123Y-98902387D01*
X135672610Y-98818743D01*
X135757512Y-98792988D01*
X135842412Y-98767234D01*
X135908582Y-98760717D01*
X135974750Y-98754200D01*
X136313250Y-98754200D01*
X136445588Y-98767234D01*
X136445588Y-98767234D01*
G37*
G36*
X159551785Y-98856510D02*
G01*
X159712164Y-98905161D01*
X159859964Y-98984161D01*
X159989517Y-99090483D01*
X160095839Y-99220036D01*
X160174839Y-99367836D01*
X160223490Y-99528215D01*
X160239916Y-99695000D01*
X160223490Y-99861785D01*
X160174839Y-100022164D01*
X160095839Y-100169964D01*
X159989517Y-100299517D01*
X159859964Y-100405839D01*
X159712164Y-100484839D01*
X159551785Y-100533490D01*
X159426794Y-100545800D01*
X159343206Y-100545800D01*
X159218215Y-100533490D01*
X159057836Y-100484839D01*
X158910036Y-100405839D01*
X158780483Y-100299517D01*
X158674161Y-100169964D01*
X158595161Y-100022164D01*
X158546510Y-99861785D01*
X158530084Y-99695000D01*
X158546510Y-99528215D01*
X158595161Y-99367836D01*
X158674161Y-99220036D01*
X158780483Y-99090483D01*
X158910036Y-98984161D01*
X159057836Y-98905161D01*
X159218215Y-98856510D01*
X159343206Y-98844200D01*
X159426794Y-98844200D01*
X159551785Y-98856510D01*
X159551785Y-98856510D01*
G37*
G36*
X144311785Y-98856510D02*
G01*
X144472164Y-98905161D01*
X144619964Y-98984161D01*
X144749517Y-99090483D01*
X144855839Y-99220036D01*
X144934839Y-99367836D01*
X144983490Y-99528215D01*
X144999916Y-99695000D01*
X144983490Y-99861785D01*
X144934839Y-100022164D01*
X144855839Y-100169964D01*
X144749517Y-100299517D01*
X144619964Y-100405839D01*
X144472164Y-100484839D01*
X144311785Y-100533490D01*
X144186794Y-100545800D01*
X144103206Y-100545800D01*
X143978215Y-100533490D01*
X143817836Y-100484839D01*
X143670036Y-100405839D01*
X143540483Y-100299517D01*
X143434161Y-100169964D01*
X143355161Y-100022164D01*
X143306510Y-99861785D01*
X143290084Y-99695000D01*
X143306510Y-99528215D01*
X143355161Y-99367836D01*
X143434161Y-99220036D01*
X143540483Y-99090483D01*
X143670036Y-98984161D01*
X143817836Y-98905161D01*
X143978215Y-98856510D01*
X144103206Y-98844200D01*
X144186794Y-98844200D01*
X144311785Y-98856510D01*
X144311785Y-98856510D01*
G37*
G36*
X162866357Y-96145071D02*
G01*
X163057497Y-96224244D01*
X163057499Y-96224245D01*
X163229521Y-96339186D01*
X163375814Y-96485479D01*
X163490755Y-96657501D01*
X163490756Y-96657503D01*
X163569929Y-96848643D01*
X163610290Y-97051554D01*
X163610290Y-97258446D01*
X163569929Y-97461357D01*
X163490756Y-97652497D01*
X163490755Y-97652499D01*
X163375814Y-97824521D01*
X163229521Y-97970814D01*
X163057499Y-98085755D01*
X163057498Y-98085756D01*
X163057497Y-98085756D01*
X162866357Y-98164929D01*
X162663446Y-98205290D01*
X162456554Y-98205290D01*
X162253643Y-98164929D01*
X162062503Y-98085756D01*
X162062502Y-98085756D01*
X162062501Y-98085755D01*
X161890479Y-97970814D01*
X161744186Y-97824521D01*
X161629245Y-97652499D01*
X161629244Y-97652497D01*
X161550071Y-97461357D01*
X161509710Y-97258446D01*
X161509710Y-97051554D01*
X161550071Y-96848643D01*
X161629244Y-96657503D01*
X161629245Y-96657501D01*
X161744186Y-96485479D01*
X161890479Y-96339186D01*
X162062501Y-96224245D01*
X162062503Y-96224244D01*
X162253643Y-96145071D01*
X162456554Y-96104710D01*
X162663446Y-96104710D01*
X162866357Y-96145071D01*
X162866357Y-96145071D01*
G37*
G36*
X141276357Y-96145071D02*
G01*
X141467497Y-96224244D01*
X141467499Y-96224245D01*
X141639521Y-96339186D01*
X141785814Y-96485479D01*
X141900755Y-96657501D01*
X141900756Y-96657503D01*
X141979929Y-96848643D01*
X142020290Y-97051554D01*
X142020290Y-97258446D01*
X141979929Y-97461357D01*
X141900756Y-97652497D01*
X141900755Y-97652499D01*
X141785814Y-97824521D01*
X141639521Y-97970814D01*
X141467499Y-98085755D01*
X141467498Y-98085756D01*
X141467497Y-98085756D01*
X141276357Y-98164929D01*
X141073446Y-98205290D01*
X140866554Y-98205290D01*
X140663643Y-98164929D01*
X140472503Y-98085756D01*
X140472502Y-98085756D01*
X140472501Y-98085755D01*
X140300479Y-97970814D01*
X140154186Y-97824521D01*
X140039245Y-97652499D01*
X140039244Y-97652497D01*
X139960071Y-97461357D01*
X139919710Y-97258446D01*
X139919710Y-97051554D01*
X139960071Y-96848643D01*
X140039244Y-96657503D01*
X140039245Y-96657501D01*
X140154186Y-96485479D01*
X140300479Y-96339186D01*
X140472501Y-96224245D01*
X140472503Y-96224244D01*
X140663643Y-96145071D01*
X140866554Y-96104710D01*
X141073446Y-96104710D01*
X141276357Y-96145071D01*
X141276357Y-96145071D01*
G37*
G36*
X136984905Y-96258849D02*
G01*
X137027943Y-96271905D01*
X137067602Y-96293103D01*
X137102366Y-96321634D01*
X137130897Y-96356398D01*
X137152095Y-96396057D01*
X137165151Y-96439095D01*
X137169800Y-96486301D01*
X137169800Y-97823699D01*
X137165151Y-97870905D01*
X137152095Y-97913943D01*
X137130897Y-97953602D01*
X137102366Y-97988366D01*
X137067602Y-98016897D01*
X137027943Y-98038095D01*
X136984905Y-98051151D01*
X136937699Y-98055800D01*
X135350301Y-98055800D01*
X135303095Y-98051151D01*
X135260057Y-98038095D01*
X135220398Y-98016897D01*
X135185634Y-97988366D01*
X135157103Y-97953602D01*
X135135905Y-97913943D01*
X135122849Y-97870905D01*
X135118200Y-97823699D01*
X135118200Y-96486301D01*
X135122849Y-96439095D01*
X135135905Y-96396057D01*
X135157103Y-96356398D01*
X135185634Y-96321634D01*
X135220398Y-96293103D01*
X135260057Y-96271905D01*
X135303095Y-96258849D01*
X135350301Y-96254200D01*
X136937699Y-96254200D01*
X136984905Y-96258849D01*
X136984905Y-96258849D01*
G37*
G36*
X144311785Y-96316510D02*
G01*
X144472164Y-96365161D01*
X144619964Y-96444161D01*
X144749517Y-96550483D01*
X144855839Y-96680036D01*
X144934839Y-96827836D01*
X144983490Y-96988215D01*
X144999916Y-97155000D01*
X144983490Y-97321785D01*
X144934839Y-97482164D01*
X144855839Y-97629964D01*
X144749517Y-97759517D01*
X144619964Y-97865839D01*
X144472164Y-97944839D01*
X144311785Y-97993490D01*
X144186794Y-98005800D01*
X144103206Y-98005800D01*
X143978215Y-97993490D01*
X143817836Y-97944839D01*
X143670036Y-97865839D01*
X143540483Y-97759517D01*
X143434161Y-97629964D01*
X143355161Y-97482164D01*
X143306510Y-97321785D01*
X143290084Y-97155000D01*
X143306510Y-96988215D01*
X143355161Y-96827836D01*
X143434161Y-96680036D01*
X143540483Y-96550483D01*
X143670036Y-96444161D01*
X143817836Y-96365161D01*
X143978215Y-96316510D01*
X144103206Y-96304200D01*
X144186794Y-96304200D01*
X144311785Y-96316510D01*
X144311785Y-96316510D01*
G37*
G36*
X159551785Y-96316510D02*
G01*
X159712164Y-96365161D01*
X159859964Y-96444161D01*
X159989517Y-96550483D01*
X160095839Y-96680036D01*
X160174839Y-96827836D01*
X160223490Y-96988215D01*
X160239916Y-97155000D01*
X160223490Y-97321785D01*
X160174839Y-97482164D01*
X160095839Y-97629964D01*
X159989517Y-97759517D01*
X159859964Y-97865839D01*
X159712164Y-97944839D01*
X159551785Y-97993490D01*
X159426794Y-98005800D01*
X159343206Y-98005800D01*
X159218215Y-97993490D01*
X159057836Y-97944839D01*
X158910036Y-97865839D01*
X158780483Y-97759517D01*
X158674161Y-97629964D01*
X158595161Y-97482164D01*
X158546510Y-97321785D01*
X158530084Y-97155000D01*
X158546510Y-96988215D01*
X158595161Y-96827836D01*
X158674161Y-96680036D01*
X158780483Y-96550483D01*
X158910036Y-96444161D01*
X159057836Y-96365161D01*
X159218215Y-96316510D01*
X159343206Y-96304200D01*
X159426794Y-96304200D01*
X159551785Y-96316510D01*
X159551785Y-96316510D01*
G37*
G36*
X141276357Y-93605071D02*
G01*
X141467497Y-93684244D01*
X141467499Y-93684245D01*
X141639521Y-93799186D01*
X141785814Y-93945479D01*
X141900755Y-94117501D01*
X141900756Y-94117503D01*
X141979929Y-94308643D01*
X142020290Y-94511554D01*
X142020290Y-94718446D01*
X141979929Y-94921357D01*
X141900756Y-95112497D01*
X141900755Y-95112499D01*
X141785814Y-95284521D01*
X141639521Y-95430814D01*
X141467499Y-95545755D01*
X141467498Y-95545756D01*
X141467497Y-95545756D01*
X141276357Y-95624929D01*
X141073446Y-95665290D01*
X140866554Y-95665290D01*
X140663643Y-95624929D01*
X140472503Y-95545756D01*
X140472502Y-95545756D01*
X140472501Y-95545755D01*
X140300479Y-95430814D01*
X140154186Y-95284521D01*
X140039245Y-95112499D01*
X140039244Y-95112497D01*
X139960071Y-94921357D01*
X139919710Y-94718446D01*
X139919710Y-94511554D01*
X139960071Y-94308643D01*
X140039244Y-94117503D01*
X140039245Y-94117501D01*
X140154186Y-93945479D01*
X140300479Y-93799186D01*
X140472501Y-93684245D01*
X140472503Y-93684244D01*
X140663643Y-93605071D01*
X140866554Y-93564710D01*
X141073446Y-93564710D01*
X141276357Y-93605071D01*
X141276357Y-93605071D01*
G37*
G36*
X162866357Y-93605071D02*
G01*
X163057497Y-93684244D01*
X163057499Y-93684245D01*
X163229521Y-93799186D01*
X163375814Y-93945479D01*
X163490755Y-94117501D01*
X163490756Y-94117503D01*
X163569929Y-94308643D01*
X163610290Y-94511554D01*
X163610290Y-94718446D01*
X163569929Y-94921357D01*
X163490756Y-95112497D01*
X163490755Y-95112499D01*
X163375814Y-95284521D01*
X163229521Y-95430814D01*
X163057499Y-95545755D01*
X163057498Y-95545756D01*
X163057497Y-95545756D01*
X162866357Y-95624929D01*
X162663446Y-95665290D01*
X162456554Y-95665290D01*
X162253643Y-95624929D01*
X162062503Y-95545756D01*
X162062502Y-95545756D01*
X162062501Y-95545755D01*
X161890479Y-95430814D01*
X161744186Y-95284521D01*
X161629245Y-95112499D01*
X161629244Y-95112497D01*
X161550071Y-94921357D01*
X161509710Y-94718446D01*
X161509710Y-94511554D01*
X161550071Y-94308643D01*
X161629244Y-94117503D01*
X161629245Y-94117501D01*
X161744186Y-93945479D01*
X161890479Y-93799186D01*
X162062501Y-93684245D01*
X162062503Y-93684244D01*
X162253643Y-93605071D01*
X162456554Y-93564710D01*
X162663446Y-93564710D01*
X162866357Y-93605071D01*
X162866357Y-93605071D01*
G37*
G36*
X159551785Y-93776510D02*
G01*
X159712164Y-93825161D01*
X159859964Y-93904161D01*
X159989517Y-94010483D01*
X160095839Y-94140036D01*
X160174839Y-94287836D01*
X160223490Y-94448215D01*
X160239916Y-94615000D01*
X160223490Y-94781785D01*
X160174839Y-94942164D01*
X160095839Y-95089964D01*
X159989517Y-95219517D01*
X159859964Y-95325839D01*
X159712164Y-95404839D01*
X159551785Y-95453490D01*
X159426794Y-95465800D01*
X159343206Y-95465800D01*
X159218215Y-95453490D01*
X159057836Y-95404839D01*
X158910036Y-95325839D01*
X158780483Y-95219517D01*
X158674161Y-95089964D01*
X158595161Y-94942164D01*
X158546510Y-94781785D01*
X158530084Y-94615000D01*
X158546510Y-94448215D01*
X158595161Y-94287836D01*
X158674161Y-94140036D01*
X158780483Y-94010483D01*
X158910036Y-93904161D01*
X159057836Y-93825161D01*
X159218215Y-93776510D01*
X159343206Y-93764200D01*
X159426794Y-93764200D01*
X159551785Y-93776510D01*
X159551785Y-93776510D01*
G37*
G36*
X144311785Y-93776510D02*
G01*
X144472164Y-93825161D01*
X144619964Y-93904161D01*
X144749517Y-94010483D01*
X144855839Y-94140036D01*
X144934839Y-94287836D01*
X144983490Y-94448215D01*
X144999916Y-94615000D01*
X144983490Y-94781785D01*
X144934839Y-94942164D01*
X144855839Y-95089964D01*
X144749517Y-95219517D01*
X144619964Y-95325839D01*
X144472164Y-95404839D01*
X144311785Y-95453490D01*
X144186794Y-95465800D01*
X144103206Y-95465800D01*
X143978215Y-95453490D01*
X143817836Y-95404839D01*
X143670036Y-95325839D01*
X143540483Y-95219517D01*
X143434161Y-95089964D01*
X143355161Y-94942164D01*
X143306510Y-94781785D01*
X143290084Y-94615000D01*
X143306510Y-94448215D01*
X143355161Y-94287836D01*
X143434161Y-94140036D01*
X143540483Y-94010483D01*
X143670036Y-93904161D01*
X143817836Y-93825161D01*
X143978215Y-93776510D01*
X144103206Y-93764200D01*
X144186794Y-93764200D01*
X144311785Y-93776510D01*
X144311785Y-93776510D01*
G37*
G36*
X162866357Y-91065071D02*
G01*
X163057497Y-91144244D01*
X163057499Y-91144245D01*
X163229521Y-91259186D01*
X163375814Y-91405479D01*
X163487591Y-91572766D01*
X163490756Y-91577503D01*
X163569929Y-91768643D01*
X163610290Y-91971554D01*
X163610290Y-92178446D01*
X163569929Y-92381357D01*
X163490756Y-92572497D01*
X163490755Y-92572499D01*
X163375814Y-92744521D01*
X163229521Y-92890814D01*
X163057499Y-93005755D01*
X163057498Y-93005756D01*
X163057497Y-93005756D01*
X162866357Y-93084929D01*
X162663446Y-93125290D01*
X162456554Y-93125290D01*
X162253643Y-93084929D01*
X162062503Y-93005756D01*
X162062502Y-93005756D01*
X162062501Y-93005755D01*
X161890479Y-92890814D01*
X161744186Y-92744521D01*
X161629245Y-92572499D01*
X161629244Y-92572497D01*
X161550071Y-92381357D01*
X161509710Y-92178446D01*
X161509710Y-91971554D01*
X161550071Y-91768643D01*
X161629244Y-91577503D01*
X161632409Y-91572766D01*
X161744186Y-91405479D01*
X161890479Y-91259186D01*
X162062501Y-91144245D01*
X162062503Y-91144244D01*
X162253643Y-91065071D01*
X162456554Y-91024710D01*
X162663446Y-91024710D01*
X162866357Y-91065071D01*
X162866357Y-91065071D01*
G37*
G36*
X141276357Y-91065071D02*
G01*
X141467497Y-91144244D01*
X141467499Y-91144245D01*
X141639521Y-91259186D01*
X141785814Y-91405479D01*
X141897591Y-91572766D01*
X141900756Y-91577503D01*
X141979929Y-91768643D01*
X142020290Y-91971554D01*
X142020290Y-92178446D01*
X141979929Y-92381357D01*
X141900756Y-92572497D01*
X141900755Y-92572499D01*
X141785814Y-92744521D01*
X141639521Y-92890814D01*
X141467499Y-93005755D01*
X141467498Y-93005756D01*
X141467497Y-93005756D01*
X141276357Y-93084929D01*
X141073446Y-93125290D01*
X140866554Y-93125290D01*
X140663643Y-93084929D01*
X140472503Y-93005756D01*
X140472502Y-93005756D01*
X140472501Y-93005755D01*
X140300479Y-92890814D01*
X140154186Y-92744521D01*
X140039245Y-92572499D01*
X140039244Y-92572497D01*
X139960071Y-92381357D01*
X139919710Y-92178446D01*
X139919710Y-91971554D01*
X139960071Y-91768643D01*
X140039244Y-91577503D01*
X140042409Y-91572766D01*
X140154186Y-91405479D01*
X140300479Y-91259186D01*
X140472501Y-91144245D01*
X140472503Y-91144244D01*
X140663643Y-91065071D01*
X140866554Y-91024710D01*
X141073446Y-91024710D01*
X141276357Y-91065071D01*
X141276357Y-91065071D01*
G37*
G36*
X144311785Y-91236510D02*
G01*
X144472164Y-91285161D01*
X144619964Y-91364161D01*
X144749517Y-91470483D01*
X144855839Y-91600036D01*
X144934839Y-91747836D01*
X144983490Y-91908215D01*
X144999916Y-92075000D01*
X144983490Y-92241785D01*
X144934839Y-92402164D01*
X144855839Y-92549964D01*
X144749517Y-92679517D01*
X144619964Y-92785839D01*
X144472164Y-92864839D01*
X144311785Y-92913490D01*
X144186794Y-92925800D01*
X144103206Y-92925800D01*
X143978215Y-92913490D01*
X143817836Y-92864839D01*
X143670036Y-92785839D01*
X143540483Y-92679517D01*
X143434161Y-92549964D01*
X143355161Y-92402164D01*
X143306510Y-92241785D01*
X143290084Y-92075000D01*
X143306510Y-91908215D01*
X143355161Y-91747836D01*
X143434161Y-91600036D01*
X143540483Y-91470483D01*
X143670036Y-91364161D01*
X143817836Y-91285161D01*
X143978215Y-91236510D01*
X144103206Y-91224200D01*
X144186794Y-91224200D01*
X144311785Y-91236510D01*
X144311785Y-91236510D01*
G37*
G36*
X159551785Y-91236510D02*
G01*
X159712164Y-91285161D01*
X159859964Y-91364161D01*
X159989517Y-91470483D01*
X160095839Y-91600036D01*
X160174839Y-91747836D01*
X160223490Y-91908215D01*
X160239916Y-92075000D01*
X160223490Y-92241785D01*
X160174839Y-92402164D01*
X160095839Y-92549964D01*
X159989517Y-92679517D01*
X159859964Y-92785839D01*
X159712164Y-92864839D01*
X159551785Y-92913490D01*
X159426794Y-92925800D01*
X159343206Y-92925800D01*
X159218215Y-92913490D01*
X159057836Y-92864839D01*
X158910036Y-92785839D01*
X158780483Y-92679517D01*
X158674161Y-92549964D01*
X158595161Y-92402164D01*
X158546510Y-92241785D01*
X158530084Y-92075000D01*
X158546510Y-91908215D01*
X158595161Y-91747836D01*
X158674161Y-91600036D01*
X158780483Y-91470483D01*
X158910036Y-91364161D01*
X159057836Y-91285161D01*
X159218215Y-91236510D01*
X159343206Y-91224200D01*
X159426794Y-91224200D01*
X159551785Y-91236510D01*
X159551785Y-91236510D01*
G37*
G36*
X136445588Y-89797234D02*
G01*
X136530489Y-89822989D01*
X136615390Y-89848743D01*
X136771877Y-89932387D01*
X136909043Y-90044957D01*
X137021613Y-90182123D01*
X137105257Y-90338610D01*
X137105257Y-90338611D01*
X137156766Y-90508412D01*
X137164338Y-90585290D01*
X137174158Y-90685000D01*
X137156766Y-90861587D01*
X137105257Y-91031390D01*
X137021613Y-91187877D01*
X136909043Y-91325043D01*
X136771877Y-91437613D01*
X136615390Y-91521257D01*
X136530489Y-91547011D01*
X136445588Y-91572766D01*
X136397512Y-91577501D01*
X136313250Y-91585800D01*
X135974750Y-91585800D01*
X135890488Y-91577501D01*
X135842412Y-91572766D01*
X135757511Y-91547011D01*
X135672610Y-91521257D01*
X135516123Y-91437613D01*
X135378957Y-91325043D01*
X135266387Y-91187877D01*
X135182743Y-91031390D01*
X135131234Y-90861587D01*
X135113842Y-90685000D01*
X135123662Y-90585290D01*
X135131234Y-90508412D01*
X135182743Y-90338611D01*
X135182743Y-90338610D01*
X135266387Y-90182123D01*
X135378957Y-90044957D01*
X135516123Y-89932387D01*
X135672610Y-89848743D01*
X135757511Y-89822989D01*
X135842412Y-89797234D01*
X135974750Y-89784200D01*
X136313250Y-89784200D01*
X136445588Y-89797234D01*
X136445588Y-89797234D01*
G37*
G36*
X162866357Y-88525071D02*
G01*
X163057497Y-88604244D01*
X163057499Y-88604245D01*
X163229521Y-88719186D01*
X163375814Y-88865479D01*
X163479901Y-89021257D01*
X163490756Y-89037503D01*
X163569929Y-89228643D01*
X163610290Y-89431554D01*
X163610290Y-89638446D01*
X163569929Y-89841357D01*
X163490756Y-90032497D01*
X163490755Y-90032499D01*
X163375814Y-90204521D01*
X163229521Y-90350814D01*
X163057499Y-90465755D01*
X163057498Y-90465756D01*
X163057497Y-90465756D01*
X162866357Y-90544929D01*
X162663446Y-90585290D01*
X162456554Y-90585290D01*
X162253643Y-90544929D01*
X162062503Y-90465756D01*
X162062502Y-90465756D01*
X162062501Y-90465755D01*
X161890479Y-90350814D01*
X161744186Y-90204521D01*
X161629245Y-90032499D01*
X161629244Y-90032497D01*
X161550071Y-89841357D01*
X161509710Y-89638446D01*
X161509710Y-89431554D01*
X161550071Y-89228643D01*
X161629244Y-89037503D01*
X161640099Y-89021257D01*
X161744186Y-88865479D01*
X161890479Y-88719186D01*
X162062501Y-88604245D01*
X162062503Y-88604244D01*
X162253643Y-88525071D01*
X162456554Y-88484710D01*
X162663446Y-88484710D01*
X162866357Y-88525071D01*
X162866357Y-88525071D01*
G37*
G36*
X141276357Y-88525071D02*
G01*
X141467497Y-88604244D01*
X141467499Y-88604245D01*
X141639521Y-88719186D01*
X141785814Y-88865479D01*
X141889901Y-89021257D01*
X141900756Y-89037503D01*
X141979929Y-89228643D01*
X142020290Y-89431554D01*
X142020290Y-89638446D01*
X141979929Y-89841357D01*
X141900756Y-90032497D01*
X141900755Y-90032499D01*
X141785814Y-90204521D01*
X141639521Y-90350814D01*
X141467499Y-90465755D01*
X141467498Y-90465756D01*
X141467497Y-90465756D01*
X141276357Y-90544929D01*
X141073446Y-90585290D01*
X140866554Y-90585290D01*
X140663643Y-90544929D01*
X140472503Y-90465756D01*
X140472502Y-90465756D01*
X140472501Y-90465755D01*
X140300479Y-90350814D01*
X140154186Y-90204521D01*
X140039245Y-90032499D01*
X140039244Y-90032497D01*
X139960071Y-89841357D01*
X139919710Y-89638446D01*
X139919710Y-89431554D01*
X139960071Y-89228643D01*
X140039244Y-89037503D01*
X140050099Y-89021257D01*
X140154186Y-88865479D01*
X140300479Y-88719186D01*
X140472501Y-88604245D01*
X140472503Y-88604244D01*
X140663643Y-88525071D01*
X140866554Y-88484710D01*
X141073446Y-88484710D01*
X141276357Y-88525071D01*
X141276357Y-88525071D01*
G37*
G36*
X159551785Y-88696510D02*
G01*
X159712164Y-88745161D01*
X159859964Y-88824161D01*
X159989517Y-88930483D01*
X160095839Y-89060036D01*
X160174839Y-89207836D01*
X160223490Y-89368215D01*
X160239916Y-89535000D01*
X160223490Y-89701785D01*
X160174839Y-89862164D01*
X160095839Y-90009964D01*
X159989517Y-90139517D01*
X159859964Y-90245839D01*
X159712164Y-90324839D01*
X159551785Y-90373490D01*
X159426794Y-90385800D01*
X159343206Y-90385800D01*
X159218215Y-90373490D01*
X159057836Y-90324839D01*
X158910036Y-90245839D01*
X158780483Y-90139517D01*
X158674161Y-90009964D01*
X158595161Y-89862164D01*
X158546510Y-89701785D01*
X158530084Y-89535000D01*
X158546510Y-89368215D01*
X158595161Y-89207836D01*
X158674161Y-89060036D01*
X158780483Y-88930483D01*
X158910036Y-88824161D01*
X159057836Y-88745161D01*
X159218215Y-88696510D01*
X159343206Y-88684200D01*
X159426794Y-88684200D01*
X159551785Y-88696510D01*
X159551785Y-88696510D01*
G37*
G36*
X144311785Y-88696510D02*
G01*
X144472164Y-88745161D01*
X144619964Y-88824161D01*
X144749517Y-88930483D01*
X144855839Y-89060036D01*
X144934839Y-89207836D01*
X144983490Y-89368215D01*
X144999916Y-89535000D01*
X144983490Y-89701785D01*
X144934839Y-89862164D01*
X144855839Y-90009964D01*
X144749517Y-90139517D01*
X144619964Y-90245839D01*
X144472164Y-90324839D01*
X144311785Y-90373490D01*
X144186794Y-90385800D01*
X144103206Y-90385800D01*
X143978215Y-90373490D01*
X143817836Y-90324839D01*
X143670036Y-90245839D01*
X143540483Y-90139517D01*
X143434161Y-90009964D01*
X143355161Y-89862164D01*
X143306510Y-89701785D01*
X143290084Y-89535000D01*
X143306510Y-89368215D01*
X143355161Y-89207836D01*
X143434161Y-89060036D01*
X143540483Y-88930483D01*
X143670036Y-88824161D01*
X143817836Y-88745161D01*
X143978215Y-88696510D01*
X144103206Y-88684200D01*
X144186794Y-88684200D01*
X144311785Y-88696510D01*
X144311785Y-88696510D01*
G37*
G36*
X136445588Y-87297234D02*
G01*
X136530488Y-87322988D01*
X136615390Y-87348743D01*
X136771877Y-87432387D01*
X136909043Y-87544957D01*
X137021613Y-87682123D01*
X137105257Y-87838610D01*
X137156766Y-88008413D01*
X137174158Y-88185000D01*
X137156766Y-88361587D01*
X137105257Y-88531390D01*
X137021613Y-88687877D01*
X136909043Y-88825043D01*
X136771877Y-88937613D01*
X136615390Y-89021257D01*
X136561834Y-89037503D01*
X136445588Y-89072766D01*
X136379418Y-89079283D01*
X136313250Y-89085800D01*
X135974750Y-89085800D01*
X135908582Y-89079283D01*
X135842412Y-89072766D01*
X135726166Y-89037503D01*
X135672610Y-89021257D01*
X135516123Y-88937613D01*
X135378957Y-88825043D01*
X135266387Y-88687877D01*
X135182743Y-88531390D01*
X135131234Y-88361587D01*
X135113842Y-88185000D01*
X135131234Y-88008413D01*
X135182743Y-87838610D01*
X135266387Y-87682123D01*
X135378957Y-87544957D01*
X135516123Y-87432387D01*
X135672610Y-87348743D01*
X135757512Y-87322988D01*
X135842412Y-87297234D01*
X135974750Y-87284200D01*
X136313250Y-87284200D01*
X136445588Y-87297234D01*
X136445588Y-87297234D01*
G37*
G36*
X162866357Y-85985071D02*
G01*
X163057497Y-86064244D01*
X163057499Y-86064245D01*
X163229521Y-86179186D01*
X163375814Y-86325479D01*
X163450739Y-86437613D01*
X163490756Y-86497503D01*
X163569929Y-86688643D01*
X163610290Y-86891554D01*
X163610290Y-87098446D01*
X163569929Y-87301357D01*
X163490756Y-87492497D01*
X163490755Y-87492499D01*
X163375814Y-87664521D01*
X163229521Y-87810814D01*
X163057499Y-87925755D01*
X163057498Y-87925756D01*
X163057497Y-87925756D01*
X162866357Y-88004929D01*
X162663446Y-88045290D01*
X162456554Y-88045290D01*
X162253643Y-88004929D01*
X162062503Y-87925756D01*
X162062502Y-87925756D01*
X162062501Y-87925755D01*
X161890479Y-87810814D01*
X161744186Y-87664521D01*
X161629245Y-87492499D01*
X161629244Y-87492497D01*
X161550071Y-87301357D01*
X161509710Y-87098446D01*
X161509710Y-86891554D01*
X161550071Y-86688643D01*
X161629244Y-86497503D01*
X161669261Y-86437613D01*
X161744186Y-86325479D01*
X161890479Y-86179186D01*
X162062501Y-86064245D01*
X162062503Y-86064244D01*
X162253643Y-85985071D01*
X162456554Y-85944710D01*
X162663446Y-85944710D01*
X162866357Y-85985071D01*
X162866357Y-85985071D01*
G37*
G36*
X141276357Y-85985071D02*
G01*
X141467497Y-86064244D01*
X141467499Y-86064245D01*
X141639521Y-86179186D01*
X141785814Y-86325479D01*
X141860739Y-86437613D01*
X141900756Y-86497503D01*
X141979929Y-86688643D01*
X142020290Y-86891554D01*
X142020290Y-87098446D01*
X141979929Y-87301357D01*
X141900756Y-87492497D01*
X141900755Y-87492499D01*
X141785814Y-87664521D01*
X141639521Y-87810814D01*
X141467499Y-87925755D01*
X141467498Y-87925756D01*
X141467497Y-87925756D01*
X141276357Y-88004929D01*
X141073446Y-88045290D01*
X140866554Y-88045290D01*
X140663643Y-88004929D01*
X140472503Y-87925756D01*
X140472502Y-87925756D01*
X140472501Y-87925755D01*
X140300479Y-87810814D01*
X140154186Y-87664521D01*
X140039245Y-87492499D01*
X140039244Y-87492497D01*
X139960071Y-87301357D01*
X139919710Y-87098446D01*
X139919710Y-86891554D01*
X139960071Y-86688643D01*
X140039244Y-86497503D01*
X140079261Y-86437613D01*
X140154186Y-86325479D01*
X140300479Y-86179186D01*
X140472501Y-86064245D01*
X140472503Y-86064244D01*
X140663643Y-85985071D01*
X140866554Y-85944710D01*
X141073446Y-85944710D01*
X141276357Y-85985071D01*
X141276357Y-85985071D01*
G37*
G36*
X144311785Y-86156510D02*
G01*
X144472164Y-86205161D01*
X144619964Y-86284161D01*
X144749517Y-86390483D01*
X144855839Y-86520036D01*
X144934839Y-86667836D01*
X144983490Y-86828215D01*
X144999916Y-86995000D01*
X144983490Y-87161785D01*
X144934839Y-87322164D01*
X144855839Y-87469964D01*
X144749517Y-87599517D01*
X144619964Y-87705839D01*
X144472164Y-87784839D01*
X144311785Y-87833490D01*
X144186794Y-87845800D01*
X144103206Y-87845800D01*
X143978215Y-87833490D01*
X143817836Y-87784839D01*
X143670036Y-87705839D01*
X143540483Y-87599517D01*
X143434161Y-87469964D01*
X143355161Y-87322164D01*
X143306510Y-87161785D01*
X143290084Y-86995000D01*
X143306510Y-86828215D01*
X143355161Y-86667836D01*
X143434161Y-86520036D01*
X143540483Y-86390483D01*
X143670036Y-86284161D01*
X143817836Y-86205161D01*
X143978215Y-86156510D01*
X144103206Y-86144200D01*
X144186794Y-86144200D01*
X144311785Y-86156510D01*
X144311785Y-86156510D01*
G37*
G36*
X159551785Y-86156510D02*
G01*
X159712164Y-86205161D01*
X159859964Y-86284161D01*
X159989517Y-86390483D01*
X160095839Y-86520036D01*
X160174839Y-86667836D01*
X160223490Y-86828215D01*
X160239916Y-86995000D01*
X160223490Y-87161785D01*
X160174839Y-87322164D01*
X160095839Y-87469964D01*
X159989517Y-87599517D01*
X159859964Y-87705839D01*
X159712164Y-87784839D01*
X159551785Y-87833490D01*
X159426794Y-87845800D01*
X159343206Y-87845800D01*
X159218215Y-87833490D01*
X159057836Y-87784839D01*
X158910036Y-87705839D01*
X158780483Y-87599517D01*
X158674161Y-87469964D01*
X158595161Y-87322164D01*
X158546510Y-87161785D01*
X158530084Y-86995000D01*
X158546510Y-86828215D01*
X158595161Y-86667836D01*
X158674161Y-86520036D01*
X158780483Y-86390483D01*
X158910036Y-86284161D01*
X159057836Y-86205161D01*
X159218215Y-86156510D01*
X159343206Y-86144200D01*
X159426794Y-86144200D01*
X159551785Y-86156510D01*
X159551785Y-86156510D01*
G37*
G36*
X136379418Y-84790717D02*
G01*
X136445588Y-84797234D01*
X136530489Y-84822989D01*
X136615390Y-84848743D01*
X136771877Y-84932387D01*
X136909043Y-85044957D01*
X137021613Y-85182123D01*
X137105257Y-85338610D01*
X137156766Y-85508413D01*
X137174158Y-85685000D01*
X137156766Y-85861587D01*
X137105257Y-86031390D01*
X137021613Y-86187877D01*
X136909043Y-86325043D01*
X136771877Y-86437613D01*
X136615390Y-86521257D01*
X136530489Y-86547011D01*
X136445588Y-86572766D01*
X136313250Y-86585800D01*
X135974750Y-86585800D01*
X135842412Y-86572766D01*
X135757511Y-86547011D01*
X135672610Y-86521257D01*
X135516123Y-86437613D01*
X135378957Y-86325043D01*
X135266387Y-86187877D01*
X135182743Y-86031390D01*
X135131234Y-85861587D01*
X135113842Y-85685000D01*
X135131234Y-85508413D01*
X135182743Y-85338610D01*
X135266387Y-85182123D01*
X135378957Y-85044957D01*
X135516123Y-84932387D01*
X135672610Y-84848743D01*
X135757511Y-84822989D01*
X135842412Y-84797234D01*
X135908582Y-84790717D01*
X135974750Y-84784200D01*
X136313250Y-84784200D01*
X136379418Y-84790717D01*
X136379418Y-84790717D01*
G37*
G36*
X141276357Y-83445071D02*
G01*
X141467497Y-83524244D01*
X141467499Y-83524245D01*
X141639521Y-83639186D01*
X141785814Y-83785479D01*
X141900755Y-83957501D01*
X141900756Y-83957503D01*
X141979929Y-84148643D01*
X142020290Y-84351554D01*
X142020290Y-84558446D01*
X141979929Y-84761357D01*
X141909086Y-84932387D01*
X141900755Y-84952499D01*
X141785814Y-85124521D01*
X141639521Y-85270814D01*
X141467499Y-85385755D01*
X141467498Y-85385756D01*
X141467497Y-85385756D01*
X141276357Y-85464929D01*
X141073446Y-85505290D01*
X140866554Y-85505290D01*
X140663643Y-85464929D01*
X140472503Y-85385756D01*
X140472502Y-85385756D01*
X140472501Y-85385755D01*
X140300479Y-85270814D01*
X140154186Y-85124521D01*
X140039245Y-84952499D01*
X140030914Y-84932387D01*
X139960071Y-84761357D01*
X139919710Y-84558446D01*
X139919710Y-84351554D01*
X139960071Y-84148643D01*
X140039244Y-83957503D01*
X140039245Y-83957501D01*
X140154186Y-83785479D01*
X140300479Y-83639186D01*
X140472501Y-83524245D01*
X140472503Y-83524244D01*
X140663643Y-83445071D01*
X140866554Y-83404710D01*
X141073446Y-83404710D01*
X141276357Y-83445071D01*
X141276357Y-83445071D01*
G37*
G36*
X162866357Y-83445071D02*
G01*
X163057497Y-83524244D01*
X163057499Y-83524245D01*
X163229521Y-83639186D01*
X163375814Y-83785479D01*
X163490755Y-83957501D01*
X163490756Y-83957503D01*
X163569929Y-84148643D01*
X163610290Y-84351554D01*
X163610290Y-84558446D01*
X163569929Y-84761357D01*
X163499086Y-84932387D01*
X163490755Y-84952499D01*
X163375814Y-85124521D01*
X163229521Y-85270814D01*
X163057499Y-85385755D01*
X163057498Y-85385756D01*
X163057497Y-85385756D01*
X162866357Y-85464929D01*
X162663446Y-85505290D01*
X162456554Y-85505290D01*
X162253643Y-85464929D01*
X162062503Y-85385756D01*
X162062502Y-85385756D01*
X162062501Y-85385755D01*
X161890479Y-85270814D01*
X161744186Y-85124521D01*
X161629245Y-84952499D01*
X161620914Y-84932387D01*
X161550071Y-84761357D01*
X161509710Y-84558446D01*
X161509710Y-84351554D01*
X161550071Y-84148643D01*
X161629244Y-83957503D01*
X161629245Y-83957501D01*
X161744186Y-83785479D01*
X161890479Y-83639186D01*
X162062501Y-83524245D01*
X162062503Y-83524244D01*
X162253643Y-83445071D01*
X162456554Y-83404710D01*
X162663446Y-83404710D01*
X162866357Y-83445071D01*
X162866357Y-83445071D01*
G37*
G36*
X159551785Y-83616510D02*
G01*
X159712164Y-83665161D01*
X159859964Y-83744161D01*
X159989517Y-83850483D01*
X160095839Y-83980036D01*
X160174839Y-84127836D01*
X160223490Y-84288215D01*
X160239916Y-84455000D01*
X160223490Y-84621785D01*
X160174839Y-84782164D01*
X160095839Y-84929964D01*
X159989517Y-85059517D01*
X159859964Y-85165839D01*
X159712164Y-85244839D01*
X159551785Y-85293490D01*
X159426794Y-85305800D01*
X159343206Y-85305800D01*
X159218215Y-85293490D01*
X159057836Y-85244839D01*
X158910036Y-85165839D01*
X158780483Y-85059517D01*
X158674161Y-84929964D01*
X158595161Y-84782164D01*
X158546510Y-84621785D01*
X158530084Y-84455000D01*
X158546510Y-84288215D01*
X158595161Y-84127836D01*
X158674161Y-83980036D01*
X158780483Y-83850483D01*
X158910036Y-83744161D01*
X159057836Y-83665161D01*
X159218215Y-83616510D01*
X159343206Y-83604200D01*
X159426794Y-83604200D01*
X159551785Y-83616510D01*
X159551785Y-83616510D01*
G37*
G36*
X144311785Y-83616510D02*
G01*
X144472164Y-83665161D01*
X144619964Y-83744161D01*
X144749517Y-83850483D01*
X144855839Y-83980036D01*
X144934839Y-84127836D01*
X144983490Y-84288215D01*
X144999916Y-84455000D01*
X144983490Y-84621785D01*
X144934839Y-84782164D01*
X144855839Y-84929964D01*
X144749517Y-85059517D01*
X144619964Y-85165839D01*
X144472164Y-85244839D01*
X144311785Y-85293490D01*
X144186794Y-85305800D01*
X144103206Y-85305800D01*
X143978215Y-85293490D01*
X143817836Y-85244839D01*
X143670036Y-85165839D01*
X143540483Y-85059517D01*
X143434161Y-84929964D01*
X143355161Y-84782164D01*
X143306510Y-84621785D01*
X143290084Y-84455000D01*
X143306510Y-84288215D01*
X143355161Y-84127836D01*
X143434161Y-83980036D01*
X143540483Y-83850483D01*
X143670036Y-83744161D01*
X143817836Y-83665161D01*
X143978215Y-83616510D01*
X144103206Y-83604200D01*
X144186794Y-83604200D01*
X144311785Y-83616510D01*
X144311785Y-83616510D01*
G37*
G36*
X167941588Y-82812234D02*
G01*
X168026489Y-82837989D01*
X168111390Y-82863743D01*
X168267877Y-82947387D01*
X168405043Y-83059957D01*
X168517613Y-83197123D01*
X168601257Y-83353610D01*
X168652766Y-83523413D01*
X168670158Y-83700000D01*
X168652766Y-83876587D01*
X168601257Y-84046390D01*
X168517613Y-84202877D01*
X168405043Y-84340043D01*
X168267877Y-84452613D01*
X168111390Y-84536257D01*
X168038246Y-84558445D01*
X167941588Y-84587766D01*
X167809250Y-84600800D01*
X167470750Y-84600800D01*
X167338412Y-84587766D01*
X167241754Y-84558445D01*
X167168610Y-84536257D01*
X167012123Y-84452613D01*
X166874957Y-84340043D01*
X166762387Y-84202877D01*
X166678743Y-84046390D01*
X166627234Y-83876587D01*
X166609842Y-83700000D01*
X166627234Y-83523413D01*
X166678743Y-83353610D01*
X166762387Y-83197123D01*
X166874957Y-83059957D01*
X167012123Y-82947387D01*
X167168610Y-82863743D01*
X167253511Y-82837989D01*
X167338412Y-82812234D01*
X167470750Y-82799200D01*
X167809250Y-82799200D01*
X167941588Y-82812234D01*
X167941588Y-82812234D01*
G37*
G36*
X136984905Y-82288849D02*
G01*
X137027943Y-82301905D01*
X137067602Y-82323103D01*
X137102366Y-82351634D01*
X137130897Y-82386398D01*
X137152095Y-82426057D01*
X137165151Y-82469095D01*
X137169800Y-82516301D01*
X137169800Y-83853699D01*
X137165151Y-83900905D01*
X137152095Y-83943943D01*
X137130897Y-83983602D01*
X137102366Y-84018366D01*
X137067602Y-84046897D01*
X137027943Y-84068095D01*
X136984905Y-84081151D01*
X136937699Y-84085800D01*
X135350301Y-84085800D01*
X135303095Y-84081151D01*
X135260057Y-84068095D01*
X135220398Y-84046897D01*
X135185634Y-84018366D01*
X135157103Y-83983602D01*
X135135905Y-83943943D01*
X135122849Y-83900905D01*
X135118200Y-83853699D01*
X135118200Y-82516301D01*
X135122849Y-82469095D01*
X135135905Y-82426057D01*
X135157103Y-82386398D01*
X135185634Y-82351634D01*
X135220398Y-82323103D01*
X135260057Y-82301905D01*
X135303095Y-82288849D01*
X135350301Y-82284200D01*
X136937699Y-82284200D01*
X136984905Y-82288849D01*
X136984905Y-82288849D01*
G37*
G36*
X162866357Y-80905071D02*
G01*
X163057497Y-80984244D01*
X163057499Y-80984245D01*
X163229521Y-81099186D01*
X163375814Y-81245479D01*
X163490755Y-81417501D01*
X163490756Y-81417503D01*
X163569929Y-81608643D01*
X163610290Y-81811554D01*
X163610290Y-82018446D01*
X163569929Y-82221357D01*
X163490756Y-82412497D01*
X163490755Y-82412499D01*
X163375814Y-82584521D01*
X163229521Y-82730814D01*
X163057499Y-82845755D01*
X163057498Y-82845756D01*
X163057497Y-82845756D01*
X162866357Y-82924929D01*
X162663446Y-82965290D01*
X162456554Y-82965290D01*
X162253643Y-82924929D01*
X162062503Y-82845756D01*
X162062502Y-82845756D01*
X162062501Y-82845755D01*
X161890479Y-82730814D01*
X161744186Y-82584521D01*
X161629245Y-82412499D01*
X161629244Y-82412497D01*
X161550071Y-82221357D01*
X161509710Y-82018446D01*
X161509710Y-81811554D01*
X161550071Y-81608643D01*
X161629244Y-81417503D01*
X161629245Y-81417501D01*
X161744186Y-81245479D01*
X161890479Y-81099186D01*
X162062501Y-80984245D01*
X162062503Y-80984244D01*
X162253643Y-80905071D01*
X162456554Y-80864710D01*
X162663446Y-80864710D01*
X162866357Y-80905071D01*
X162866357Y-80905071D01*
G37*
G36*
X141276357Y-80905071D02*
G01*
X141467497Y-80984244D01*
X141467499Y-80984245D01*
X141639521Y-81099186D01*
X141785814Y-81245479D01*
X141900755Y-81417501D01*
X141900756Y-81417503D01*
X141979929Y-81608643D01*
X142020290Y-81811554D01*
X142020290Y-82018446D01*
X141979929Y-82221357D01*
X141900756Y-82412497D01*
X141900755Y-82412499D01*
X141785814Y-82584521D01*
X141639521Y-82730814D01*
X141467499Y-82845755D01*
X141467498Y-82845756D01*
X141467497Y-82845756D01*
X141276357Y-82924929D01*
X141073446Y-82965290D01*
X140866554Y-82965290D01*
X140663643Y-82924929D01*
X140472503Y-82845756D01*
X140472502Y-82845756D01*
X140472501Y-82845755D01*
X140300479Y-82730814D01*
X140154186Y-82584521D01*
X140039245Y-82412499D01*
X140039244Y-82412497D01*
X139960071Y-82221357D01*
X139919710Y-82018446D01*
X139919710Y-81811554D01*
X139960071Y-81608643D01*
X140039244Y-81417503D01*
X140039245Y-81417501D01*
X140154186Y-81245479D01*
X140300479Y-81099186D01*
X140472501Y-80984245D01*
X140472503Y-80984244D01*
X140663643Y-80905071D01*
X140866554Y-80864710D01*
X141073446Y-80864710D01*
X141276357Y-80905071D01*
X141276357Y-80905071D01*
G37*
G36*
X159551785Y-81076510D02*
G01*
X159712164Y-81125161D01*
X159859964Y-81204161D01*
X159989517Y-81310483D01*
X160095839Y-81440036D01*
X160174839Y-81587836D01*
X160223490Y-81748215D01*
X160239916Y-81915000D01*
X160223490Y-82081785D01*
X160174839Y-82242164D01*
X160095839Y-82389964D01*
X159989517Y-82519517D01*
X159859964Y-82625839D01*
X159712164Y-82704839D01*
X159551785Y-82753490D01*
X159426794Y-82765800D01*
X159343206Y-82765800D01*
X159218215Y-82753490D01*
X159057836Y-82704839D01*
X158910036Y-82625839D01*
X158780483Y-82519517D01*
X158674161Y-82389964D01*
X158595161Y-82242164D01*
X158546510Y-82081785D01*
X158530084Y-81915000D01*
X158546510Y-81748215D01*
X158595161Y-81587836D01*
X158674161Y-81440036D01*
X158780483Y-81310483D01*
X158910036Y-81204161D01*
X159057836Y-81125161D01*
X159218215Y-81076510D01*
X159343206Y-81064200D01*
X159426794Y-81064200D01*
X159551785Y-81076510D01*
X159551785Y-81076510D01*
G37*
G36*
X144311785Y-81076510D02*
G01*
X144472164Y-81125161D01*
X144619964Y-81204161D01*
X144749517Y-81310483D01*
X144855839Y-81440036D01*
X144934839Y-81587836D01*
X144983490Y-81748215D01*
X144999916Y-81915000D01*
X144983490Y-82081785D01*
X144934839Y-82242164D01*
X144855839Y-82389964D01*
X144749517Y-82519517D01*
X144619964Y-82625839D01*
X144472164Y-82704839D01*
X144311785Y-82753490D01*
X144186794Y-82765800D01*
X144103206Y-82765800D01*
X143978215Y-82753490D01*
X143817836Y-82704839D01*
X143670036Y-82625839D01*
X143540483Y-82519517D01*
X143434161Y-82389964D01*
X143355161Y-82242164D01*
X143306510Y-82081785D01*
X143290084Y-81915000D01*
X143306510Y-81748215D01*
X143355161Y-81587836D01*
X143434161Y-81440036D01*
X143540483Y-81310483D01*
X143670036Y-81204161D01*
X143817836Y-81125161D01*
X143978215Y-81076510D01*
X144103206Y-81064200D01*
X144186794Y-81064200D01*
X144311785Y-81076510D01*
X144311785Y-81076510D01*
G37*
G36*
X167941588Y-80312234D02*
G01*
X168026488Y-80337988D01*
X168111390Y-80363743D01*
X168267877Y-80447387D01*
X168405043Y-80559957D01*
X168517613Y-80697123D01*
X168601257Y-80853610D01*
X168652766Y-81023413D01*
X168670158Y-81200000D01*
X168652766Y-81376587D01*
X168601257Y-81546390D01*
X168517613Y-81702877D01*
X168405043Y-81840043D01*
X168267877Y-81952613D01*
X168111390Y-82036257D01*
X168026489Y-82062011D01*
X167941588Y-82087766D01*
X167875418Y-82094283D01*
X167809250Y-82100800D01*
X167470750Y-82100800D01*
X167404582Y-82094283D01*
X167338412Y-82087766D01*
X167253511Y-82062011D01*
X167168610Y-82036257D01*
X167012123Y-81952613D01*
X166874957Y-81840043D01*
X166762387Y-81702877D01*
X166678743Y-81546390D01*
X166627234Y-81376587D01*
X166609842Y-81200000D01*
X166627234Y-81023413D01*
X166678743Y-80853610D01*
X166762387Y-80697123D01*
X166874957Y-80559957D01*
X167012123Y-80447387D01*
X167168610Y-80363743D01*
X167253512Y-80337988D01*
X167338412Y-80312234D01*
X167470750Y-80299200D01*
X167809250Y-80299200D01*
X167941588Y-80312234D01*
X167941588Y-80312234D01*
G37*
G36*
X162866357Y-78365071D02*
G01*
X163057497Y-78444244D01*
X163057499Y-78444245D01*
X163229521Y-78559186D01*
X163375814Y-78705479D01*
X163490144Y-78876587D01*
X163490756Y-78877503D01*
X163569929Y-79068643D01*
X163610290Y-79271554D01*
X163610290Y-79478446D01*
X163569929Y-79681357D01*
X163490756Y-79872497D01*
X163490755Y-79872499D01*
X163375814Y-80044521D01*
X163229521Y-80190814D01*
X163057499Y-80305755D01*
X163057498Y-80305756D01*
X163057497Y-80305756D01*
X162866357Y-80384929D01*
X162663446Y-80425290D01*
X162456554Y-80425290D01*
X162253643Y-80384929D01*
X162062503Y-80305756D01*
X162062502Y-80305756D01*
X162062501Y-80305755D01*
X161890479Y-80190814D01*
X161744186Y-80044521D01*
X161629245Y-79872499D01*
X161629244Y-79872497D01*
X161550071Y-79681357D01*
X161509710Y-79478446D01*
X161509710Y-79271554D01*
X161550071Y-79068643D01*
X161629244Y-78877503D01*
X161629856Y-78876587D01*
X161744186Y-78705479D01*
X161890479Y-78559186D01*
X162062501Y-78444245D01*
X162062503Y-78444244D01*
X162253643Y-78365071D01*
X162456554Y-78324710D01*
X162663446Y-78324710D01*
X162866357Y-78365071D01*
X162866357Y-78365071D01*
G37*
G36*
X141276357Y-78365071D02*
G01*
X141467497Y-78444244D01*
X141467499Y-78444245D01*
X141639521Y-78559186D01*
X141785814Y-78705479D01*
X141900144Y-78876587D01*
X141900756Y-78877503D01*
X141979929Y-79068643D01*
X142020290Y-79271554D01*
X142020290Y-79478446D01*
X141979929Y-79681357D01*
X141900756Y-79872497D01*
X141900755Y-79872499D01*
X141785814Y-80044521D01*
X141639521Y-80190814D01*
X141467499Y-80305755D01*
X141467498Y-80305756D01*
X141467497Y-80305756D01*
X141276357Y-80384929D01*
X141073446Y-80425290D01*
X140866554Y-80425290D01*
X140663643Y-80384929D01*
X140472503Y-80305756D01*
X140472502Y-80305756D01*
X140472501Y-80305755D01*
X140300479Y-80190814D01*
X140154186Y-80044521D01*
X140039245Y-79872499D01*
X140039244Y-79872497D01*
X139960071Y-79681357D01*
X139919710Y-79478446D01*
X139919710Y-79271554D01*
X139960071Y-79068643D01*
X140039244Y-78877503D01*
X140039856Y-78876587D01*
X140154186Y-78705479D01*
X140300479Y-78559186D01*
X140472501Y-78444245D01*
X140472503Y-78444244D01*
X140663643Y-78365071D01*
X140866554Y-78324710D01*
X141073446Y-78324710D01*
X141276357Y-78365071D01*
X141276357Y-78365071D01*
G37*
G36*
X144311785Y-78536510D02*
G01*
X144472164Y-78585161D01*
X144619964Y-78664161D01*
X144749517Y-78770483D01*
X144855839Y-78900036D01*
X144934839Y-79047836D01*
X144983490Y-79208215D01*
X144999916Y-79375000D01*
X144983490Y-79541785D01*
X144934839Y-79702164D01*
X144855839Y-79849964D01*
X144749517Y-79979517D01*
X144619964Y-80085839D01*
X144472164Y-80164839D01*
X144311785Y-80213490D01*
X144186794Y-80225800D01*
X144103206Y-80225800D01*
X143978215Y-80213490D01*
X143817836Y-80164839D01*
X143670036Y-80085839D01*
X143540483Y-79979517D01*
X143434161Y-79849964D01*
X143355161Y-79702164D01*
X143306510Y-79541785D01*
X143290084Y-79375000D01*
X143306510Y-79208215D01*
X143355161Y-79047836D01*
X143434161Y-78900036D01*
X143540483Y-78770483D01*
X143670036Y-78664161D01*
X143817836Y-78585161D01*
X143978215Y-78536510D01*
X144103206Y-78524200D01*
X144186794Y-78524200D01*
X144311785Y-78536510D01*
X144311785Y-78536510D01*
G37*
G36*
X159551785Y-78536510D02*
G01*
X159712164Y-78585161D01*
X159859964Y-78664161D01*
X159989517Y-78770483D01*
X160095839Y-78900036D01*
X160174839Y-79047836D01*
X160223490Y-79208215D01*
X160239916Y-79375000D01*
X160223490Y-79541785D01*
X160174839Y-79702164D01*
X160095839Y-79849964D01*
X159989517Y-79979517D01*
X159859964Y-80085839D01*
X159712164Y-80164839D01*
X159551785Y-80213490D01*
X159426794Y-80225800D01*
X159343206Y-80225800D01*
X159218215Y-80213490D01*
X159057836Y-80164839D01*
X158910036Y-80085839D01*
X158780483Y-79979517D01*
X158674161Y-79849964D01*
X158595161Y-79702164D01*
X158546510Y-79541785D01*
X158530084Y-79375000D01*
X158546510Y-79208215D01*
X158595161Y-79047836D01*
X158674161Y-78900036D01*
X158780483Y-78770483D01*
X158910036Y-78664161D01*
X159057836Y-78585161D01*
X159218215Y-78536510D01*
X159343206Y-78524200D01*
X159426794Y-78524200D01*
X159551785Y-78536510D01*
X159551785Y-78536510D01*
G37*
G36*
X167875418Y-77805717D02*
G01*
X167941588Y-77812234D01*
X168026488Y-77837988D01*
X168111390Y-77863743D01*
X168267877Y-77947387D01*
X168405043Y-78059957D01*
X168517613Y-78197123D01*
X168601257Y-78353610D01*
X168604734Y-78365072D01*
X168652766Y-78523412D01*
X168670158Y-78700000D01*
X168652766Y-78876588D01*
X168645653Y-78900036D01*
X168601257Y-79046390D01*
X168517613Y-79202877D01*
X168405043Y-79340043D01*
X168267877Y-79452613D01*
X168111390Y-79536257D01*
X168026488Y-79562012D01*
X167941588Y-79587766D01*
X167809250Y-79600800D01*
X167470750Y-79600800D01*
X167338412Y-79587766D01*
X167253511Y-79562011D01*
X167168610Y-79536257D01*
X167012123Y-79452613D01*
X166874957Y-79340043D01*
X166762387Y-79202877D01*
X166678743Y-79046390D01*
X166634347Y-78900036D01*
X166627234Y-78876588D01*
X166609842Y-78700000D01*
X166627234Y-78523412D01*
X166675266Y-78365072D01*
X166678743Y-78353610D01*
X166762387Y-78197123D01*
X166874957Y-78059957D01*
X167012123Y-77947387D01*
X167168610Y-77863743D01*
X167253511Y-77837989D01*
X167338412Y-77812234D01*
X167404582Y-77805717D01*
X167470750Y-77799200D01*
X167809250Y-77799200D01*
X167875418Y-77805717D01*
X167875418Y-77805717D01*
G37*
G36*
X141276357Y-75825071D02*
G01*
X141467497Y-75904244D01*
X141467499Y-75904245D01*
X141639521Y-76019186D01*
X141785814Y-76165479D01*
X141900755Y-76337501D01*
X141900756Y-76337503D01*
X141979929Y-76528643D01*
X142020290Y-76731554D01*
X142020290Y-76938446D01*
X141979929Y-77141357D01*
X141900756Y-77332497D01*
X141900755Y-77332499D01*
X141785814Y-77504521D01*
X141639521Y-77650814D01*
X141467499Y-77765755D01*
X141467498Y-77765756D01*
X141467497Y-77765756D01*
X141276357Y-77844929D01*
X141073446Y-77885290D01*
X140866554Y-77885290D01*
X140663643Y-77844929D01*
X140472503Y-77765756D01*
X140472502Y-77765756D01*
X140472501Y-77765755D01*
X140300479Y-77650814D01*
X140154186Y-77504521D01*
X140039245Y-77332499D01*
X140039244Y-77332497D01*
X139960071Y-77141357D01*
X139919710Y-76938446D01*
X139919710Y-76731554D01*
X139960071Y-76528643D01*
X140039244Y-76337503D01*
X140039245Y-76337501D01*
X140154186Y-76165479D01*
X140300479Y-76019186D01*
X140472501Y-75904245D01*
X140472503Y-75904244D01*
X140663643Y-75825071D01*
X140866554Y-75784710D01*
X141073446Y-75784710D01*
X141276357Y-75825071D01*
X141276357Y-75825071D01*
G37*
G36*
X162866357Y-75825071D02*
G01*
X163057497Y-75904244D01*
X163057499Y-75904245D01*
X163229521Y-76019186D01*
X163375814Y-76165479D01*
X163490755Y-76337501D01*
X163490756Y-76337503D01*
X163569929Y-76528643D01*
X163610290Y-76731554D01*
X163610290Y-76938446D01*
X163569929Y-77141357D01*
X163490756Y-77332497D01*
X163490755Y-77332499D01*
X163375814Y-77504521D01*
X163229521Y-77650814D01*
X163057499Y-77765755D01*
X163057498Y-77765756D01*
X163057497Y-77765756D01*
X162866357Y-77844929D01*
X162663446Y-77885290D01*
X162456554Y-77885290D01*
X162253643Y-77844929D01*
X162062503Y-77765756D01*
X162062502Y-77765756D01*
X162062501Y-77765755D01*
X161890479Y-77650814D01*
X161744186Y-77504521D01*
X161629245Y-77332499D01*
X161629244Y-77332497D01*
X161550071Y-77141357D01*
X161509710Y-76938446D01*
X161509710Y-76731554D01*
X161550071Y-76528643D01*
X161629244Y-76337503D01*
X161629245Y-76337501D01*
X161744186Y-76165479D01*
X161890479Y-76019186D01*
X162062501Y-75904245D01*
X162062503Y-75904244D01*
X162253643Y-75825071D01*
X162456554Y-75784710D01*
X162663446Y-75784710D01*
X162866357Y-75825071D01*
X162866357Y-75825071D01*
G37*
G36*
X136445588Y-75907234D02*
G01*
X136530488Y-75932988D01*
X136615390Y-75958743D01*
X136771877Y-76042387D01*
X136909043Y-76154957D01*
X137021613Y-76292123D01*
X137105257Y-76448610D01*
X137156766Y-76618413D01*
X137174158Y-76795000D01*
X137156766Y-76971587D01*
X137105257Y-77141390D01*
X137021613Y-77297877D01*
X136909043Y-77435043D01*
X136771877Y-77547613D01*
X136615390Y-77631257D01*
X136550919Y-77650814D01*
X136445588Y-77682766D01*
X136379418Y-77689283D01*
X136313250Y-77695800D01*
X135974750Y-77695800D01*
X135908582Y-77689283D01*
X135842412Y-77682766D01*
X135737081Y-77650814D01*
X135672610Y-77631257D01*
X135516123Y-77547613D01*
X135378957Y-77435043D01*
X135266387Y-77297877D01*
X135182743Y-77141390D01*
X135131234Y-76971587D01*
X135113842Y-76795000D01*
X135131234Y-76618413D01*
X135182743Y-76448610D01*
X135266387Y-76292123D01*
X135378957Y-76154957D01*
X135516123Y-76042387D01*
X135672610Y-75958743D01*
X135757511Y-75932989D01*
X135842412Y-75907234D01*
X135974750Y-75894200D01*
X136313250Y-75894200D01*
X136445588Y-75907234D01*
X136445588Y-75907234D01*
G37*
G36*
X159551785Y-75996510D02*
G01*
X159712164Y-76045161D01*
X159859964Y-76124161D01*
X159989517Y-76230483D01*
X160095839Y-76360036D01*
X160174839Y-76507836D01*
X160223490Y-76668215D01*
X160239916Y-76835000D01*
X160223490Y-77001785D01*
X160174839Y-77162164D01*
X160095839Y-77309964D01*
X159989517Y-77439517D01*
X159859964Y-77545839D01*
X159712164Y-77624839D01*
X159551785Y-77673490D01*
X159426794Y-77685800D01*
X159343206Y-77685800D01*
X159218215Y-77673490D01*
X159057836Y-77624839D01*
X158910036Y-77545839D01*
X158780483Y-77439517D01*
X158674161Y-77309964D01*
X158595161Y-77162164D01*
X158546510Y-77001785D01*
X158530084Y-76835000D01*
X158546510Y-76668215D01*
X158595161Y-76507836D01*
X158674161Y-76360036D01*
X158780483Y-76230483D01*
X158910036Y-76124161D01*
X159057836Y-76045161D01*
X159218215Y-75996510D01*
X159343206Y-75984200D01*
X159426794Y-75984200D01*
X159551785Y-75996510D01*
X159551785Y-75996510D01*
G37*
G36*
X144311785Y-75996510D02*
G01*
X144472164Y-76045161D01*
X144619964Y-76124161D01*
X144749517Y-76230483D01*
X144855839Y-76360036D01*
X144934839Y-76507836D01*
X144983490Y-76668215D01*
X144999916Y-76835000D01*
X144983490Y-77001785D01*
X144934839Y-77162164D01*
X144855839Y-77309964D01*
X144749517Y-77439517D01*
X144619964Y-77545839D01*
X144472164Y-77624839D01*
X144311785Y-77673490D01*
X144186794Y-77685800D01*
X144103206Y-77685800D01*
X143978215Y-77673490D01*
X143817836Y-77624839D01*
X143670036Y-77545839D01*
X143540483Y-77439517D01*
X143434161Y-77309964D01*
X143355161Y-77162164D01*
X143306510Y-77001785D01*
X143290084Y-76835000D01*
X143306510Y-76668215D01*
X143355161Y-76507836D01*
X143434161Y-76360036D01*
X143540483Y-76230483D01*
X143670036Y-76124161D01*
X143817836Y-76045161D01*
X143978215Y-75996510D01*
X144103206Y-75984200D01*
X144186794Y-75984200D01*
X144311785Y-75996510D01*
X144311785Y-75996510D01*
G37*
G36*
X168480905Y-75303849D02*
G01*
X168523943Y-75316905D01*
X168563602Y-75338103D01*
X168598366Y-75366634D01*
X168626897Y-75401398D01*
X168648095Y-75441057D01*
X168661151Y-75484095D01*
X168665800Y-75531301D01*
X168665800Y-76868699D01*
X168661151Y-76915905D01*
X168648095Y-76958943D01*
X168626897Y-76998602D01*
X168598366Y-77033366D01*
X168563602Y-77061897D01*
X168523943Y-77083095D01*
X168480905Y-77096151D01*
X168433699Y-77100800D01*
X166846301Y-77100800D01*
X166799095Y-77096151D01*
X166756057Y-77083095D01*
X166716398Y-77061897D01*
X166681634Y-77033366D01*
X166653103Y-76998602D01*
X166631905Y-76958943D01*
X166618849Y-76915905D01*
X166614200Y-76868699D01*
X166614200Y-75531301D01*
X166618849Y-75484095D01*
X166631905Y-75441057D01*
X166653103Y-75401398D01*
X166681634Y-75366634D01*
X166716398Y-75338103D01*
X166756057Y-75316905D01*
X166799095Y-75303849D01*
X166846301Y-75299200D01*
X168433699Y-75299200D01*
X168480905Y-75303849D01*
X168480905Y-75303849D01*
G37*
G36*
X141276357Y-73285071D02*
G01*
X141467497Y-73364244D01*
X141467499Y-73364245D01*
X141639521Y-73479186D01*
X141785814Y-73625479D01*
X141897160Y-73792121D01*
X141900756Y-73797503D01*
X141979929Y-73988643D01*
X142020290Y-74191554D01*
X142020290Y-74398446D01*
X141979929Y-74601357D01*
X141900756Y-74792497D01*
X141900755Y-74792499D01*
X141785814Y-74964521D01*
X141639521Y-75110814D01*
X141467499Y-75225755D01*
X141467498Y-75225756D01*
X141467497Y-75225756D01*
X141276357Y-75304929D01*
X141073446Y-75345290D01*
X140866554Y-75345290D01*
X140663643Y-75304929D01*
X140472503Y-75225756D01*
X140472502Y-75225756D01*
X140472501Y-75225755D01*
X140300479Y-75110814D01*
X140154186Y-74964521D01*
X140039245Y-74792499D01*
X140039244Y-74792497D01*
X139960071Y-74601357D01*
X139919710Y-74398446D01*
X139919710Y-74191554D01*
X139960071Y-73988643D01*
X140039244Y-73797503D01*
X140042840Y-73792121D01*
X140154186Y-73625479D01*
X140300479Y-73479186D01*
X140472501Y-73364245D01*
X140472503Y-73364244D01*
X140663643Y-73285071D01*
X140866554Y-73244710D01*
X141073446Y-73244710D01*
X141276357Y-73285071D01*
X141276357Y-73285071D01*
G37*
G36*
X162866357Y-73285071D02*
G01*
X163057497Y-73364244D01*
X163057499Y-73364245D01*
X163229521Y-73479186D01*
X163375814Y-73625479D01*
X163487160Y-73792121D01*
X163490756Y-73797503D01*
X163569929Y-73988643D01*
X163610290Y-74191554D01*
X163610290Y-74398446D01*
X163569929Y-74601357D01*
X163490756Y-74792497D01*
X163490755Y-74792499D01*
X163375814Y-74964521D01*
X163229521Y-75110814D01*
X163057499Y-75225755D01*
X163057498Y-75225756D01*
X163057497Y-75225756D01*
X162866357Y-75304929D01*
X162663446Y-75345290D01*
X162456554Y-75345290D01*
X162253643Y-75304929D01*
X162062503Y-75225756D01*
X162062502Y-75225756D01*
X162062501Y-75225755D01*
X161890479Y-75110814D01*
X161744186Y-74964521D01*
X161629245Y-74792499D01*
X161629244Y-74792497D01*
X161550071Y-74601357D01*
X161509710Y-74398446D01*
X161509710Y-74191554D01*
X161550071Y-73988643D01*
X161629244Y-73797503D01*
X161632840Y-73792121D01*
X161744186Y-73625479D01*
X161890479Y-73479186D01*
X162062501Y-73364245D01*
X162062503Y-73364244D01*
X162253643Y-73285071D01*
X162456554Y-73244710D01*
X162663446Y-73244710D01*
X162866357Y-73285071D01*
X162866357Y-73285071D01*
G37*
G36*
X136445588Y-73407234D02*
G01*
X136530489Y-73432989D01*
X136615390Y-73458743D01*
X136771877Y-73542387D01*
X136909043Y-73654957D01*
X137021612Y-73792122D01*
X137105257Y-73948610D01*
X137156766Y-74118413D01*
X137174158Y-74295000D01*
X137156766Y-74471587D01*
X137105257Y-74641390D01*
X137021613Y-74797877D01*
X136909043Y-74935043D01*
X136771877Y-75047613D01*
X136615390Y-75131257D01*
X136567448Y-75145800D01*
X136445588Y-75182766D01*
X136313250Y-75195800D01*
X135974750Y-75195800D01*
X135842412Y-75182766D01*
X135720552Y-75145800D01*
X135672610Y-75131257D01*
X135516123Y-75047613D01*
X135378957Y-74935043D01*
X135266387Y-74797877D01*
X135182743Y-74641390D01*
X135131234Y-74471587D01*
X135113842Y-74295000D01*
X135131234Y-74118413D01*
X135182743Y-73948610D01*
X135266388Y-73792122D01*
X135378957Y-73654957D01*
X135516123Y-73542387D01*
X135672610Y-73458743D01*
X135757512Y-73432988D01*
X135842412Y-73407234D01*
X135974750Y-73394200D01*
X136313250Y-73394200D01*
X136445588Y-73407234D01*
X136445588Y-73407234D01*
G37*
G36*
X144311785Y-73456510D02*
G01*
X144472164Y-73505161D01*
X144619964Y-73584161D01*
X144749517Y-73690483D01*
X144855839Y-73820036D01*
X144934839Y-73967836D01*
X144983490Y-74128215D01*
X144999916Y-74295000D01*
X144983490Y-74461785D01*
X144934839Y-74622164D01*
X144855839Y-74769964D01*
X144749517Y-74899517D01*
X144619964Y-75005839D01*
X144472164Y-75084839D01*
X144311785Y-75133490D01*
X144186794Y-75145800D01*
X144103206Y-75145800D01*
X143978215Y-75133490D01*
X143817836Y-75084839D01*
X143670036Y-75005839D01*
X143540483Y-74899517D01*
X143434161Y-74769964D01*
X143355161Y-74622164D01*
X143306510Y-74461785D01*
X143290084Y-74295000D01*
X143306510Y-74128215D01*
X143355161Y-73967836D01*
X143434161Y-73820036D01*
X143540483Y-73690483D01*
X143670036Y-73584161D01*
X143817836Y-73505161D01*
X143978215Y-73456510D01*
X144103206Y-73444200D01*
X144186794Y-73444200D01*
X144311785Y-73456510D01*
X144311785Y-73456510D01*
G37*
G36*
X159551785Y-73456510D02*
G01*
X159712164Y-73505161D01*
X159859964Y-73584161D01*
X159989517Y-73690483D01*
X160095839Y-73820036D01*
X160174839Y-73967836D01*
X160223490Y-74128215D01*
X160239916Y-74295000D01*
X160223490Y-74461785D01*
X160174839Y-74622164D01*
X160095839Y-74769964D01*
X159989517Y-74899517D01*
X159859964Y-75005839D01*
X159712164Y-75084839D01*
X159551785Y-75133490D01*
X159426794Y-75145800D01*
X159343206Y-75145800D01*
X159218215Y-75133490D01*
X159057836Y-75084839D01*
X158910036Y-75005839D01*
X158780483Y-74899517D01*
X158674161Y-74769964D01*
X158595161Y-74622164D01*
X158546510Y-74461785D01*
X158530084Y-74295000D01*
X158546510Y-74128215D01*
X158595161Y-73967836D01*
X158674161Y-73820036D01*
X158780483Y-73690483D01*
X158910036Y-73584161D01*
X159057836Y-73505161D01*
X159218215Y-73456510D01*
X159343206Y-73444200D01*
X159426794Y-73444200D01*
X159551785Y-73456510D01*
X159551785Y-73456510D01*
G37*
G36*
X141276357Y-70745071D02*
G01*
X141467497Y-70824244D01*
X141467499Y-70824245D01*
X141639521Y-70939186D01*
X141785814Y-71085479D01*
X141900755Y-71257501D01*
X141900756Y-71257503D01*
X141979929Y-71448643D01*
X142020290Y-71651554D01*
X142020290Y-71858446D01*
X141979929Y-72061357D01*
X141900756Y-72252497D01*
X141900755Y-72252499D01*
X141785814Y-72424521D01*
X141639521Y-72570814D01*
X141467499Y-72685755D01*
X141467498Y-72685756D01*
X141467497Y-72685756D01*
X141276357Y-72764929D01*
X141073446Y-72805290D01*
X140866554Y-72805290D01*
X140663643Y-72764929D01*
X140472503Y-72685756D01*
X140472502Y-72685756D01*
X140472501Y-72685755D01*
X140300479Y-72570814D01*
X140154186Y-72424521D01*
X140039245Y-72252499D01*
X140039244Y-72252497D01*
X139960071Y-72061357D01*
X139919710Y-71858446D01*
X139919710Y-71651554D01*
X139960071Y-71448643D01*
X140039244Y-71257503D01*
X140039245Y-71257501D01*
X140154186Y-71085479D01*
X140300479Y-70939186D01*
X140472501Y-70824245D01*
X140472503Y-70824244D01*
X140663643Y-70745071D01*
X140866554Y-70704710D01*
X141073446Y-70704710D01*
X141276357Y-70745071D01*
X141276357Y-70745071D01*
G37*
G36*
X162866357Y-70745071D02*
G01*
X163057497Y-70824244D01*
X163057499Y-70824245D01*
X163229521Y-70939186D01*
X163375814Y-71085479D01*
X163490755Y-71257501D01*
X163490756Y-71257503D01*
X163569929Y-71448643D01*
X163610290Y-71651554D01*
X163610290Y-71858446D01*
X163569929Y-72061357D01*
X163490756Y-72252497D01*
X163490755Y-72252499D01*
X163375814Y-72424521D01*
X163229521Y-72570814D01*
X163057499Y-72685755D01*
X163057498Y-72685756D01*
X163057497Y-72685756D01*
X162866357Y-72764929D01*
X162663446Y-72805290D01*
X162456554Y-72805290D01*
X162253643Y-72764929D01*
X162062503Y-72685756D01*
X162062502Y-72685756D01*
X162062501Y-72685755D01*
X161890479Y-72570814D01*
X161744186Y-72424521D01*
X161629245Y-72252499D01*
X161629244Y-72252497D01*
X161550071Y-72061357D01*
X161509710Y-71858446D01*
X161509710Y-71651554D01*
X161550071Y-71448643D01*
X161629244Y-71257503D01*
X161629245Y-71257501D01*
X161744186Y-71085479D01*
X161890479Y-70939186D01*
X162062501Y-70824245D01*
X162062503Y-70824244D01*
X162253643Y-70745071D01*
X162456554Y-70704710D01*
X162663446Y-70704710D01*
X162866357Y-70745071D01*
X162866357Y-70745071D01*
G37*
G36*
X136445588Y-70907234D02*
G01*
X136530488Y-70932988D01*
X136615390Y-70958743D01*
X136771877Y-71042387D01*
X136909043Y-71154957D01*
X137021613Y-71292123D01*
X137105257Y-71448610D01*
X137156766Y-71618413D01*
X137174158Y-71795000D01*
X137156766Y-71971587D01*
X137105257Y-72141390D01*
X137021613Y-72297877D01*
X136909043Y-72435043D01*
X136771877Y-72547613D01*
X136615390Y-72631257D01*
X136530489Y-72657011D01*
X136445588Y-72682766D01*
X136415229Y-72685756D01*
X136313250Y-72695800D01*
X135974750Y-72695800D01*
X135872771Y-72685756D01*
X135842412Y-72682766D01*
X135757511Y-72657011D01*
X135672610Y-72631257D01*
X135516123Y-72547613D01*
X135378957Y-72435043D01*
X135266387Y-72297877D01*
X135182743Y-72141390D01*
X135131234Y-71971587D01*
X135113842Y-71795000D01*
X135131234Y-71618413D01*
X135182743Y-71448610D01*
X135266387Y-71292123D01*
X135378957Y-71154957D01*
X135516123Y-71042387D01*
X135672610Y-70958743D01*
X135757512Y-70932988D01*
X135842412Y-70907234D01*
X135974750Y-70894200D01*
X136313250Y-70894200D01*
X136445588Y-70907234D01*
X136445588Y-70907234D01*
G37*
G36*
X159551785Y-70916510D02*
G01*
X159712164Y-70965161D01*
X159859964Y-71044161D01*
X159989517Y-71150483D01*
X160095839Y-71280036D01*
X160174839Y-71427836D01*
X160223490Y-71588215D01*
X160239916Y-71755000D01*
X160223490Y-71921785D01*
X160174839Y-72082164D01*
X160095839Y-72229964D01*
X159989517Y-72359517D01*
X159859964Y-72465839D01*
X159712164Y-72544839D01*
X159551785Y-72593490D01*
X159426794Y-72605800D01*
X159343206Y-72605800D01*
X159218215Y-72593490D01*
X159057836Y-72544839D01*
X158910036Y-72465839D01*
X158780483Y-72359517D01*
X158674161Y-72229964D01*
X158595161Y-72082164D01*
X158546510Y-71921785D01*
X158530084Y-71755000D01*
X158546510Y-71588215D01*
X158595161Y-71427836D01*
X158674161Y-71280036D01*
X158780483Y-71150483D01*
X158910036Y-71044161D01*
X159057836Y-70965161D01*
X159218215Y-70916510D01*
X159343206Y-70904200D01*
X159426794Y-70904200D01*
X159551785Y-70916510D01*
X159551785Y-70916510D01*
G37*
G36*
X144995800Y-72605800D02*
G01*
X143294200Y-72605800D01*
X143294200Y-70904200D01*
X144995800Y-70904200D01*
X144995800Y-72605800D01*
X144995800Y-72605800D01*
G37*
G36*
X136984997Y-68398847D02*
G01*
X137028013Y-68411896D01*
X137067652Y-68433083D01*
X137102399Y-68461601D01*
X137130917Y-68496348D01*
X137152104Y-68535987D01*
X137165153Y-68579003D01*
X137169800Y-68626189D01*
X137169800Y-69963811D01*
X137165153Y-70010997D01*
X137152104Y-70054013D01*
X137130917Y-70093652D01*
X137102399Y-70128399D01*
X137067652Y-70156917D01*
X137028013Y-70178104D01*
X136984997Y-70191153D01*
X136937811Y-70195800D01*
X135350189Y-70195800D01*
X135303003Y-70191153D01*
X135259987Y-70178104D01*
X135220348Y-70156917D01*
X135185601Y-70128399D01*
X135157083Y-70093652D01*
X135135896Y-70054013D01*
X135122847Y-70010997D01*
X135118200Y-69963811D01*
X135118200Y-68626189D01*
X135122847Y-68579003D01*
X135135896Y-68535987D01*
X135157083Y-68496348D01*
X135185601Y-68461601D01*
X135220348Y-68433083D01*
X135259987Y-68411896D01*
X135303003Y-68398847D01*
X135350189Y-68394200D01*
X136937811Y-68394200D01*
X136984997Y-68398847D01*
X136984997Y-68398847D01*
G37*
G36*
X166676357Y-62490071D02*
G01*
X166867497Y-62569244D01*
X166867499Y-62569245D01*
X167039521Y-62684186D01*
X167185814Y-62830479D01*
X167300755Y-63002501D01*
X167300756Y-63002503D01*
X167379929Y-63193643D01*
X167420290Y-63396554D01*
X167420290Y-63603446D01*
X167379929Y-63806357D01*
X167300756Y-63997497D01*
X167300755Y-63997499D01*
X167185814Y-64169521D01*
X167039521Y-64315814D01*
X166867499Y-64430755D01*
X166867498Y-64430756D01*
X166867497Y-64430756D01*
X166676357Y-64509929D01*
X166473446Y-64550290D01*
X166266554Y-64550290D01*
X166063643Y-64509929D01*
X165872503Y-64430756D01*
X165872502Y-64430756D01*
X165872501Y-64430755D01*
X165700479Y-64315814D01*
X165554186Y-64169521D01*
X165439245Y-63997499D01*
X165439244Y-63997497D01*
X165360071Y-63806357D01*
X165319710Y-63603446D01*
X165319710Y-63396554D01*
X165360071Y-63193643D01*
X165439244Y-63002503D01*
X165439245Y-63002501D01*
X165554186Y-62830479D01*
X165700479Y-62684186D01*
X165872501Y-62569245D01*
X165872503Y-62569244D01*
X166063643Y-62490071D01*
X166266554Y-62449710D01*
X166473446Y-62449710D01*
X166676357Y-62490071D01*
X166676357Y-62490071D01*
G37*
G36*
X143816357Y-62490071D02*
G01*
X144007497Y-62569244D01*
X144007499Y-62569245D01*
X144179521Y-62684186D01*
X144325814Y-62830479D01*
X144440755Y-63002501D01*
X144440756Y-63002503D01*
X144519929Y-63193643D01*
X144560290Y-63396554D01*
X144560290Y-63603446D01*
X144519929Y-63806357D01*
X144440756Y-63997497D01*
X144440755Y-63997499D01*
X144325814Y-64169521D01*
X144179521Y-64315814D01*
X144007499Y-64430755D01*
X144007498Y-64430756D01*
X144007497Y-64430756D01*
X143816357Y-64509929D01*
X143613446Y-64550290D01*
X143406554Y-64550290D01*
X143203643Y-64509929D01*
X143012503Y-64430756D01*
X143012502Y-64430756D01*
X143012501Y-64430755D01*
X142840479Y-64315814D01*
X142694186Y-64169521D01*
X142579245Y-63997499D01*
X142579244Y-63997497D01*
X142500071Y-63806357D01*
X142459710Y-63603446D01*
X142459710Y-63396554D01*
X142500071Y-63193643D01*
X142579244Y-63002503D01*
X142579245Y-63002501D01*
X142694186Y-62830479D01*
X142840479Y-62684186D01*
X143012501Y-62569245D01*
X143012503Y-62569244D01*
X143203643Y-62490071D01*
X143406554Y-62449710D01*
X143613446Y-62449710D01*
X143816357Y-62490071D01*
X143816357Y-62490071D01*
G37*
G36*
X138736357Y-62490071D02*
G01*
X138927497Y-62569244D01*
X138927499Y-62569245D01*
X139099521Y-62684186D01*
X139245814Y-62830479D01*
X139360755Y-63002501D01*
X139360756Y-63002503D01*
X139439929Y-63193643D01*
X139480290Y-63396554D01*
X139480290Y-63603446D01*
X139439929Y-63806357D01*
X139360756Y-63997497D01*
X139360755Y-63997499D01*
X139245814Y-64169521D01*
X139099521Y-64315814D01*
X138927499Y-64430755D01*
X138927498Y-64430756D01*
X138927497Y-64430756D01*
X138736357Y-64509929D01*
X138533446Y-64550290D01*
X138326554Y-64550290D01*
X138123643Y-64509929D01*
X137932503Y-64430756D01*
X137932502Y-64430756D01*
X137932501Y-64430755D01*
X137760479Y-64315814D01*
X137614186Y-64169521D01*
X137499245Y-63997499D01*
X137499244Y-63997497D01*
X137420071Y-63806357D01*
X137379710Y-63603446D01*
X137379710Y-63396554D01*
X137420071Y-63193643D01*
X137499244Y-63002503D01*
X137499245Y-63002501D01*
X137614186Y-62830479D01*
X137760479Y-62684186D01*
X137932501Y-62569245D01*
X137932503Y-62569244D01*
X138123643Y-62490071D01*
X138326554Y-62449710D01*
X138533446Y-62449710D01*
X138736357Y-62490071D01*
X138736357Y-62490071D01*
G37*
G36*
X164136357Y-62490071D02*
G01*
X164327497Y-62569244D01*
X164327499Y-62569245D01*
X164499521Y-62684186D01*
X164645814Y-62830479D01*
X164760755Y-63002501D01*
X164760756Y-63002503D01*
X164839929Y-63193643D01*
X164880290Y-63396554D01*
X164880290Y-63603446D01*
X164839929Y-63806357D01*
X164760756Y-63997497D01*
X164760755Y-63997499D01*
X164645814Y-64169521D01*
X164499521Y-64315814D01*
X164327499Y-64430755D01*
X164327498Y-64430756D01*
X164327497Y-64430756D01*
X164136357Y-64509929D01*
X163933446Y-64550290D01*
X163726554Y-64550290D01*
X163523643Y-64509929D01*
X163332503Y-64430756D01*
X163332502Y-64430756D01*
X163332501Y-64430755D01*
X163160479Y-64315814D01*
X163014186Y-64169521D01*
X162899245Y-63997499D01*
X162899244Y-63997497D01*
X162820071Y-63806357D01*
X162779710Y-63603446D01*
X162779710Y-63396554D01*
X162820071Y-63193643D01*
X162899244Y-63002503D01*
X162899245Y-63002501D01*
X163014186Y-62830479D01*
X163160479Y-62684186D01*
X163332501Y-62569245D01*
X163332503Y-62569244D01*
X163523643Y-62490071D01*
X163726554Y-62449710D01*
X163933446Y-62449710D01*
X164136357Y-62490071D01*
X164136357Y-62490071D01*
G37*
G36*
X161596357Y-62490071D02*
G01*
X161787497Y-62569244D01*
X161787499Y-62569245D01*
X161959521Y-62684186D01*
X162105814Y-62830479D01*
X162220755Y-63002501D01*
X162220756Y-63002503D01*
X162299929Y-63193643D01*
X162340290Y-63396554D01*
X162340290Y-63603446D01*
X162299929Y-63806357D01*
X162220756Y-63997497D01*
X162220755Y-63997499D01*
X162105814Y-64169521D01*
X161959521Y-64315814D01*
X161787499Y-64430755D01*
X161787498Y-64430756D01*
X161787497Y-64430756D01*
X161596357Y-64509929D01*
X161393446Y-64550290D01*
X161186554Y-64550290D01*
X160983643Y-64509929D01*
X160792503Y-64430756D01*
X160792502Y-64430756D01*
X160792501Y-64430755D01*
X160620479Y-64315814D01*
X160474186Y-64169521D01*
X160359245Y-63997499D01*
X160359244Y-63997497D01*
X160280071Y-63806357D01*
X160239710Y-63603446D01*
X160239710Y-63396554D01*
X160280071Y-63193643D01*
X160359244Y-63002503D01*
X160359245Y-63002501D01*
X160474186Y-62830479D01*
X160620479Y-62684186D01*
X160792501Y-62569245D01*
X160792503Y-62569244D01*
X160983643Y-62490071D01*
X161186554Y-62449710D01*
X161393446Y-62449710D01*
X161596357Y-62490071D01*
X161596357Y-62490071D01*
G37*
G36*
X159056357Y-62490071D02*
G01*
X159247497Y-62569244D01*
X159247499Y-62569245D01*
X159419521Y-62684186D01*
X159565814Y-62830479D01*
X159680755Y-63002501D01*
X159680756Y-63002503D01*
X159759929Y-63193643D01*
X159800290Y-63396554D01*
X159800290Y-63603446D01*
X159759929Y-63806357D01*
X159680756Y-63997497D01*
X159680755Y-63997499D01*
X159565814Y-64169521D01*
X159419521Y-64315814D01*
X159247499Y-64430755D01*
X159247498Y-64430756D01*
X159247497Y-64430756D01*
X159056357Y-64509929D01*
X158853446Y-64550290D01*
X158646554Y-64550290D01*
X158443643Y-64509929D01*
X158252503Y-64430756D01*
X158252502Y-64430756D01*
X158252501Y-64430755D01*
X158080479Y-64315814D01*
X157934186Y-64169521D01*
X157819245Y-63997499D01*
X157819244Y-63997497D01*
X157740071Y-63806357D01*
X157699710Y-63603446D01*
X157699710Y-63396554D01*
X157740071Y-63193643D01*
X157819244Y-63002503D01*
X157819245Y-63002501D01*
X157934186Y-62830479D01*
X158080479Y-62684186D01*
X158252501Y-62569245D01*
X158252503Y-62569244D01*
X158443643Y-62490071D01*
X158646554Y-62449710D01*
X158853446Y-62449710D01*
X159056357Y-62490071D01*
X159056357Y-62490071D01*
G37*
G36*
X153976357Y-62490071D02*
G01*
X154167497Y-62569244D01*
X154167499Y-62569245D01*
X154339521Y-62684186D01*
X154485814Y-62830479D01*
X154600755Y-63002501D01*
X154600756Y-63002503D01*
X154679929Y-63193643D01*
X154720290Y-63396554D01*
X154720290Y-63603446D01*
X154679929Y-63806357D01*
X154600756Y-63997497D01*
X154600755Y-63997499D01*
X154485814Y-64169521D01*
X154339521Y-64315814D01*
X154167499Y-64430755D01*
X154167498Y-64430756D01*
X154167497Y-64430756D01*
X153976357Y-64509929D01*
X153773446Y-64550290D01*
X153566554Y-64550290D01*
X153363643Y-64509929D01*
X153172503Y-64430756D01*
X153172502Y-64430756D01*
X153172501Y-64430755D01*
X153000479Y-64315814D01*
X152854186Y-64169521D01*
X152739245Y-63997499D01*
X152739244Y-63997497D01*
X152660071Y-63806357D01*
X152619710Y-63603446D01*
X152619710Y-63396554D01*
X152660071Y-63193643D01*
X152739244Y-63002503D01*
X152739245Y-63002501D01*
X152854186Y-62830479D01*
X153000479Y-62684186D01*
X153172501Y-62569245D01*
X153172503Y-62569244D01*
X153363643Y-62490071D01*
X153566554Y-62449710D01*
X153773446Y-62449710D01*
X153976357Y-62490071D01*
X153976357Y-62490071D01*
G37*
G36*
X151436357Y-62490071D02*
G01*
X151627497Y-62569244D01*
X151627499Y-62569245D01*
X151799521Y-62684186D01*
X151945814Y-62830479D01*
X152060755Y-63002501D01*
X152060756Y-63002503D01*
X152139929Y-63193643D01*
X152180290Y-63396554D01*
X152180290Y-63603446D01*
X152139929Y-63806357D01*
X152060756Y-63997497D01*
X152060755Y-63997499D01*
X151945814Y-64169521D01*
X151799521Y-64315814D01*
X151627499Y-64430755D01*
X151627498Y-64430756D01*
X151627497Y-64430756D01*
X151436357Y-64509929D01*
X151233446Y-64550290D01*
X151026554Y-64550290D01*
X150823643Y-64509929D01*
X150632503Y-64430756D01*
X150632502Y-64430756D01*
X150632501Y-64430755D01*
X150460479Y-64315814D01*
X150314186Y-64169521D01*
X150199245Y-63997499D01*
X150199244Y-63997497D01*
X150120071Y-63806357D01*
X150079710Y-63603446D01*
X150079710Y-63396554D01*
X150120071Y-63193643D01*
X150199244Y-63002503D01*
X150199245Y-63002501D01*
X150314186Y-62830479D01*
X150460479Y-62684186D01*
X150632501Y-62569245D01*
X150632503Y-62569244D01*
X150823643Y-62490071D01*
X151026554Y-62449710D01*
X151233446Y-62449710D01*
X151436357Y-62490071D01*
X151436357Y-62490071D01*
G37*
G36*
X148896357Y-62490071D02*
G01*
X149087497Y-62569244D01*
X149087499Y-62569245D01*
X149259521Y-62684186D01*
X149405814Y-62830479D01*
X149520755Y-63002501D01*
X149520756Y-63002503D01*
X149599929Y-63193643D01*
X149640290Y-63396554D01*
X149640290Y-63603446D01*
X149599929Y-63806357D01*
X149520756Y-63997497D01*
X149520755Y-63997499D01*
X149405814Y-64169521D01*
X149259521Y-64315814D01*
X149087499Y-64430755D01*
X149087498Y-64430756D01*
X149087497Y-64430756D01*
X148896357Y-64509929D01*
X148693446Y-64550290D01*
X148486554Y-64550290D01*
X148283643Y-64509929D01*
X148092503Y-64430756D01*
X148092502Y-64430756D01*
X148092501Y-64430755D01*
X147920479Y-64315814D01*
X147774186Y-64169521D01*
X147659245Y-63997499D01*
X147659244Y-63997497D01*
X147580071Y-63806357D01*
X147539710Y-63603446D01*
X147539710Y-63396554D01*
X147580071Y-63193643D01*
X147659244Y-63002503D01*
X147659245Y-63002501D01*
X147774186Y-62830479D01*
X147920479Y-62684186D01*
X148092501Y-62569245D01*
X148092503Y-62569244D01*
X148283643Y-62490071D01*
X148486554Y-62449710D01*
X148693446Y-62449710D01*
X148896357Y-62490071D01*
X148896357Y-62490071D01*
G37*
G36*
X146356357Y-62490071D02*
G01*
X146547497Y-62569244D01*
X146547499Y-62569245D01*
X146719521Y-62684186D01*
X146865814Y-62830479D01*
X146980755Y-63002501D01*
X146980756Y-63002503D01*
X147059929Y-63193643D01*
X147100290Y-63396554D01*
X147100290Y-63603446D01*
X147059929Y-63806357D01*
X146980756Y-63997497D01*
X146980755Y-63997499D01*
X146865814Y-64169521D01*
X146719521Y-64315814D01*
X146547499Y-64430755D01*
X146547498Y-64430756D01*
X146547497Y-64430756D01*
X146356357Y-64509929D01*
X146153446Y-64550290D01*
X145946554Y-64550290D01*
X145743643Y-64509929D01*
X145552503Y-64430756D01*
X145552502Y-64430756D01*
X145552501Y-64430755D01*
X145380479Y-64315814D01*
X145234186Y-64169521D01*
X145119245Y-63997499D01*
X145119244Y-63997497D01*
X145040071Y-63806357D01*
X144999710Y-63603446D01*
X144999710Y-63396554D01*
X145040071Y-63193643D01*
X145119244Y-63002503D01*
X145119245Y-63002501D01*
X145234186Y-62830479D01*
X145380479Y-62684186D01*
X145552501Y-62569245D01*
X145552503Y-62569244D01*
X145743643Y-62490071D01*
X145946554Y-62449710D01*
X146153446Y-62449710D01*
X146356357Y-62490071D01*
X146356357Y-62490071D01*
G37*
G36*
X141276357Y-62490071D02*
G01*
X141467497Y-62569244D01*
X141467499Y-62569245D01*
X141639521Y-62684186D01*
X141785814Y-62830479D01*
X141900755Y-63002501D01*
X141900756Y-63002503D01*
X141979929Y-63193643D01*
X142020290Y-63396554D01*
X142020290Y-63603446D01*
X141979929Y-63806357D01*
X141900756Y-63997497D01*
X141900755Y-63997499D01*
X141785814Y-64169521D01*
X141639521Y-64315814D01*
X141467499Y-64430755D01*
X141467498Y-64430756D01*
X141467497Y-64430756D01*
X141276357Y-64509929D01*
X141073446Y-64550290D01*
X140866554Y-64550290D01*
X140663643Y-64509929D01*
X140472503Y-64430756D01*
X140472502Y-64430756D01*
X140472501Y-64430755D01*
X140300479Y-64315814D01*
X140154186Y-64169521D01*
X140039245Y-63997499D01*
X140039244Y-63997497D01*
X139960071Y-63806357D01*
X139919710Y-63603446D01*
X139919710Y-63396554D01*
X139960071Y-63193643D01*
X140039244Y-63002503D01*
X140039245Y-63002501D01*
X140154186Y-62830479D01*
X140300479Y-62684186D01*
X140472501Y-62569245D01*
X140472503Y-62569244D01*
X140663643Y-62490071D01*
X140866554Y-62449710D01*
X141073446Y-62449710D01*
X141276357Y-62490071D01*
X141276357Y-62490071D01*
G37*
G36*
X156516357Y-62490071D02*
G01*
X156707497Y-62569244D01*
X156707499Y-62569245D01*
X156879521Y-62684186D01*
X157025814Y-62830479D01*
X157140755Y-63002501D01*
X157140756Y-63002503D01*
X157219929Y-63193643D01*
X157260290Y-63396554D01*
X157260290Y-63603446D01*
X157219929Y-63806357D01*
X157140756Y-63997497D01*
X157140755Y-63997499D01*
X157025814Y-64169521D01*
X156879521Y-64315814D01*
X156707499Y-64430755D01*
X156707498Y-64430756D01*
X156707497Y-64430756D01*
X156516357Y-64509929D01*
X156313446Y-64550290D01*
X156106554Y-64550290D01*
X155903643Y-64509929D01*
X155712503Y-64430756D01*
X155712502Y-64430756D01*
X155712501Y-64430755D01*
X155540479Y-64315814D01*
X155394186Y-64169521D01*
X155279245Y-63997499D01*
X155279244Y-63997497D01*
X155200071Y-63806357D01*
X155159710Y-63603446D01*
X155159710Y-63396554D01*
X155200071Y-63193643D01*
X155279244Y-63002503D01*
X155279245Y-63002501D01*
X155394186Y-62830479D01*
X155540479Y-62684186D01*
X155712501Y-62569245D01*
X155712503Y-62569244D01*
X155903643Y-62490071D01*
X156106554Y-62449710D01*
X156313446Y-62449710D01*
X156516357Y-62490071D01*
X156516357Y-62490071D01*
G37*
G36*
X146356357Y-59950071D02*
G01*
X146547497Y-60029244D01*
X146547499Y-60029245D01*
X146719521Y-60144186D01*
X146865814Y-60290479D01*
X146980755Y-60462501D01*
X146980756Y-60462503D01*
X147059929Y-60653643D01*
X147100290Y-60856554D01*
X147100290Y-61063446D01*
X147059929Y-61266357D01*
X146980756Y-61457497D01*
X146980755Y-61457499D01*
X146865814Y-61629521D01*
X146719521Y-61775814D01*
X146547499Y-61890755D01*
X146547498Y-61890756D01*
X146547497Y-61890756D01*
X146356357Y-61969929D01*
X146153446Y-62010290D01*
X145946554Y-62010290D01*
X145743643Y-61969929D01*
X145552503Y-61890756D01*
X145552502Y-61890756D01*
X145552501Y-61890755D01*
X145380479Y-61775814D01*
X145234186Y-61629521D01*
X145119245Y-61457499D01*
X145119244Y-61457497D01*
X145040071Y-61266357D01*
X144999710Y-61063446D01*
X144999710Y-60856554D01*
X145040071Y-60653643D01*
X145119244Y-60462503D01*
X145119245Y-60462501D01*
X145234186Y-60290479D01*
X145380479Y-60144186D01*
X145552501Y-60029245D01*
X145552503Y-60029244D01*
X145743643Y-59950071D01*
X145946554Y-59909710D01*
X146153446Y-59909710D01*
X146356357Y-59950071D01*
X146356357Y-59950071D01*
G37*
G36*
X141276357Y-59950071D02*
G01*
X141467497Y-60029244D01*
X141467499Y-60029245D01*
X141639521Y-60144186D01*
X141785814Y-60290479D01*
X141900755Y-60462501D01*
X141900756Y-60462503D01*
X141979929Y-60653643D01*
X142020290Y-60856554D01*
X142020290Y-61063446D01*
X141979929Y-61266357D01*
X141900756Y-61457497D01*
X141900755Y-61457499D01*
X141785814Y-61629521D01*
X141639521Y-61775814D01*
X141467499Y-61890755D01*
X141467498Y-61890756D01*
X141467497Y-61890756D01*
X141276357Y-61969929D01*
X141073446Y-62010290D01*
X140866554Y-62010290D01*
X140663643Y-61969929D01*
X140472503Y-61890756D01*
X140472502Y-61890756D01*
X140472501Y-61890755D01*
X140300479Y-61775814D01*
X140154186Y-61629521D01*
X140039245Y-61457499D01*
X140039244Y-61457497D01*
X139960071Y-61266357D01*
X139919710Y-61063446D01*
X139919710Y-60856554D01*
X139960071Y-60653643D01*
X140039244Y-60462503D01*
X140039245Y-60462501D01*
X140154186Y-60290479D01*
X140300479Y-60144186D01*
X140472501Y-60029245D01*
X140472503Y-60029244D01*
X140663643Y-59950071D01*
X140866554Y-59909710D01*
X141073446Y-59909710D01*
X141276357Y-59950071D01*
X141276357Y-59950071D01*
G37*
G36*
X138736357Y-59950071D02*
G01*
X138927497Y-60029244D01*
X138927499Y-60029245D01*
X139099521Y-60144186D01*
X139245814Y-60290479D01*
X139360755Y-60462501D01*
X139360756Y-60462503D01*
X139439929Y-60653643D01*
X139480290Y-60856554D01*
X139480290Y-61063446D01*
X139439929Y-61266357D01*
X139360756Y-61457497D01*
X139360755Y-61457499D01*
X139245814Y-61629521D01*
X139099521Y-61775814D01*
X138927499Y-61890755D01*
X138927498Y-61890756D01*
X138927497Y-61890756D01*
X138736357Y-61969929D01*
X138533446Y-62010290D01*
X138326554Y-62010290D01*
X138123643Y-61969929D01*
X137932503Y-61890756D01*
X137932502Y-61890756D01*
X137932501Y-61890755D01*
X137760479Y-61775814D01*
X137614186Y-61629521D01*
X137499245Y-61457499D01*
X137499244Y-61457497D01*
X137420071Y-61266357D01*
X137379710Y-61063446D01*
X137379710Y-60856554D01*
X137420071Y-60653643D01*
X137499244Y-60462503D01*
X137499245Y-60462501D01*
X137614186Y-60290479D01*
X137760479Y-60144186D01*
X137932501Y-60029245D01*
X137932503Y-60029244D01*
X138123643Y-59950071D01*
X138326554Y-59909710D01*
X138533446Y-59909710D01*
X138736357Y-59950071D01*
X138736357Y-59950071D01*
G37*
G36*
X148896357Y-59950071D02*
G01*
X149087497Y-60029244D01*
X149087499Y-60029245D01*
X149259521Y-60144186D01*
X149405814Y-60290479D01*
X149520755Y-60462501D01*
X149520756Y-60462503D01*
X149599929Y-60653643D01*
X149640290Y-60856554D01*
X149640290Y-61063446D01*
X149599929Y-61266357D01*
X149520756Y-61457497D01*
X149520755Y-61457499D01*
X149405814Y-61629521D01*
X149259521Y-61775814D01*
X149087499Y-61890755D01*
X149087498Y-61890756D01*
X149087497Y-61890756D01*
X148896357Y-61969929D01*
X148693446Y-62010290D01*
X148486554Y-62010290D01*
X148283643Y-61969929D01*
X148092503Y-61890756D01*
X148092502Y-61890756D01*
X148092501Y-61890755D01*
X147920479Y-61775814D01*
X147774186Y-61629521D01*
X147659245Y-61457499D01*
X147659244Y-61457497D01*
X147580071Y-61266357D01*
X147539710Y-61063446D01*
X147539710Y-60856554D01*
X147580071Y-60653643D01*
X147659244Y-60462503D01*
X147659245Y-60462501D01*
X147774186Y-60290479D01*
X147920479Y-60144186D01*
X148092501Y-60029245D01*
X148092503Y-60029244D01*
X148283643Y-59950071D01*
X148486554Y-59909710D01*
X148693446Y-59909710D01*
X148896357Y-59950071D01*
X148896357Y-59950071D01*
G37*
G36*
X151436357Y-59950071D02*
G01*
X151627497Y-60029244D01*
X151627499Y-60029245D01*
X151799521Y-60144186D01*
X151945814Y-60290479D01*
X152060755Y-60462501D01*
X152060756Y-60462503D01*
X152139929Y-60653643D01*
X152180290Y-60856554D01*
X152180290Y-61063446D01*
X152139929Y-61266357D01*
X152060756Y-61457497D01*
X152060755Y-61457499D01*
X151945814Y-61629521D01*
X151799521Y-61775814D01*
X151627499Y-61890755D01*
X151627498Y-61890756D01*
X151627497Y-61890756D01*
X151436357Y-61969929D01*
X151233446Y-62010290D01*
X151026554Y-62010290D01*
X150823643Y-61969929D01*
X150632503Y-61890756D01*
X150632502Y-61890756D01*
X150632501Y-61890755D01*
X150460479Y-61775814D01*
X150314186Y-61629521D01*
X150199245Y-61457499D01*
X150199244Y-61457497D01*
X150120071Y-61266357D01*
X150079710Y-61063446D01*
X150079710Y-60856554D01*
X150120071Y-60653643D01*
X150199244Y-60462503D01*
X150199245Y-60462501D01*
X150314186Y-60290479D01*
X150460479Y-60144186D01*
X150632501Y-60029245D01*
X150632503Y-60029244D01*
X150823643Y-59950071D01*
X151026554Y-59909710D01*
X151233446Y-59909710D01*
X151436357Y-59950071D01*
X151436357Y-59950071D01*
G37*
G36*
X143816357Y-59950071D02*
G01*
X144007497Y-60029244D01*
X144007499Y-60029245D01*
X144179521Y-60144186D01*
X144325814Y-60290479D01*
X144440755Y-60462501D01*
X144440756Y-60462503D01*
X144519929Y-60653643D01*
X144560290Y-60856554D01*
X144560290Y-61063446D01*
X144519929Y-61266357D01*
X144440756Y-61457497D01*
X144440755Y-61457499D01*
X144325814Y-61629521D01*
X144179521Y-61775814D01*
X144007499Y-61890755D01*
X144007498Y-61890756D01*
X144007497Y-61890756D01*
X143816357Y-61969929D01*
X143613446Y-62010290D01*
X143406554Y-62010290D01*
X143203643Y-61969929D01*
X143012503Y-61890756D01*
X143012502Y-61890756D01*
X143012501Y-61890755D01*
X142840479Y-61775814D01*
X142694186Y-61629521D01*
X142579245Y-61457499D01*
X142579244Y-61457497D01*
X142500071Y-61266357D01*
X142459710Y-61063446D01*
X142459710Y-60856554D01*
X142500071Y-60653643D01*
X142579244Y-60462503D01*
X142579245Y-60462501D01*
X142694186Y-60290479D01*
X142840479Y-60144186D01*
X143012501Y-60029245D01*
X143012503Y-60029244D01*
X143203643Y-59950071D01*
X143406554Y-59909710D01*
X143613446Y-59909710D01*
X143816357Y-59950071D01*
X143816357Y-59950071D01*
G37*
G36*
X159056357Y-59950071D02*
G01*
X159247497Y-60029244D01*
X159247499Y-60029245D01*
X159419521Y-60144186D01*
X159565814Y-60290479D01*
X159680755Y-60462501D01*
X159680756Y-60462503D01*
X159759929Y-60653643D01*
X159800290Y-60856554D01*
X159800290Y-61063446D01*
X159759929Y-61266357D01*
X159680756Y-61457497D01*
X159680755Y-61457499D01*
X159565814Y-61629521D01*
X159419521Y-61775814D01*
X159247499Y-61890755D01*
X159247498Y-61890756D01*
X159247497Y-61890756D01*
X159056357Y-61969929D01*
X158853446Y-62010290D01*
X158646554Y-62010290D01*
X158443643Y-61969929D01*
X158252503Y-61890756D01*
X158252502Y-61890756D01*
X158252501Y-61890755D01*
X158080479Y-61775814D01*
X157934186Y-61629521D01*
X157819245Y-61457499D01*
X157819244Y-61457497D01*
X157740071Y-61266357D01*
X157699710Y-61063446D01*
X157699710Y-60856554D01*
X157740071Y-60653643D01*
X157819244Y-60462503D01*
X157819245Y-60462501D01*
X157934186Y-60290479D01*
X158080479Y-60144186D01*
X158252501Y-60029245D01*
X158252503Y-60029244D01*
X158443643Y-59950071D01*
X158646554Y-59909710D01*
X158853446Y-59909710D01*
X159056357Y-59950071D01*
X159056357Y-59950071D01*
G37*
G36*
X156516357Y-59950071D02*
G01*
X156707497Y-60029244D01*
X156707499Y-60029245D01*
X156879521Y-60144186D01*
X157025814Y-60290479D01*
X157140755Y-60462501D01*
X157140756Y-60462503D01*
X157219929Y-60653643D01*
X157260290Y-60856554D01*
X157260290Y-61063446D01*
X157219929Y-61266357D01*
X157140756Y-61457497D01*
X157140755Y-61457499D01*
X157025814Y-61629521D01*
X156879521Y-61775814D01*
X156707499Y-61890755D01*
X156707498Y-61890756D01*
X156707497Y-61890756D01*
X156516357Y-61969929D01*
X156313446Y-62010290D01*
X156106554Y-62010290D01*
X155903643Y-61969929D01*
X155712503Y-61890756D01*
X155712502Y-61890756D01*
X155712501Y-61890755D01*
X155540479Y-61775814D01*
X155394186Y-61629521D01*
X155279245Y-61457499D01*
X155279244Y-61457497D01*
X155200071Y-61266357D01*
X155159710Y-61063446D01*
X155159710Y-60856554D01*
X155200071Y-60653643D01*
X155279244Y-60462503D01*
X155279245Y-60462501D01*
X155394186Y-60290479D01*
X155540479Y-60144186D01*
X155712501Y-60029245D01*
X155712503Y-60029244D01*
X155903643Y-59950071D01*
X156106554Y-59909710D01*
X156313446Y-59909710D01*
X156516357Y-59950071D01*
X156516357Y-59950071D01*
G37*
G36*
X166676357Y-59950071D02*
G01*
X166867497Y-60029244D01*
X166867499Y-60029245D01*
X167039521Y-60144186D01*
X167185814Y-60290479D01*
X167300755Y-60462501D01*
X167300756Y-60462503D01*
X167379929Y-60653643D01*
X167420290Y-60856554D01*
X167420290Y-61063446D01*
X167379929Y-61266357D01*
X167300756Y-61457497D01*
X167300755Y-61457499D01*
X167185814Y-61629521D01*
X167039521Y-61775814D01*
X166867499Y-61890755D01*
X166867498Y-61890756D01*
X166867497Y-61890756D01*
X166676357Y-61969929D01*
X166473446Y-62010290D01*
X166266554Y-62010290D01*
X166063643Y-61969929D01*
X165872503Y-61890756D01*
X165872502Y-61890756D01*
X165872501Y-61890755D01*
X165700479Y-61775814D01*
X165554186Y-61629521D01*
X165439245Y-61457499D01*
X165439244Y-61457497D01*
X165360071Y-61266357D01*
X165319710Y-61063446D01*
X165319710Y-60856554D01*
X165360071Y-60653643D01*
X165439244Y-60462503D01*
X165439245Y-60462501D01*
X165554186Y-60290479D01*
X165700479Y-60144186D01*
X165872501Y-60029245D01*
X165872503Y-60029244D01*
X166063643Y-59950071D01*
X166266554Y-59909710D01*
X166473446Y-59909710D01*
X166676357Y-59950071D01*
X166676357Y-59950071D01*
G37*
G36*
X164136357Y-59950071D02*
G01*
X164327497Y-60029244D01*
X164327499Y-60029245D01*
X164499521Y-60144186D01*
X164645814Y-60290479D01*
X164760755Y-60462501D01*
X164760756Y-60462503D01*
X164839929Y-60653643D01*
X164880290Y-60856554D01*
X164880290Y-61063446D01*
X164839929Y-61266357D01*
X164760756Y-61457497D01*
X164760755Y-61457499D01*
X164645814Y-61629521D01*
X164499521Y-61775814D01*
X164327499Y-61890755D01*
X164327498Y-61890756D01*
X164327497Y-61890756D01*
X164136357Y-61969929D01*
X163933446Y-62010290D01*
X163726554Y-62010290D01*
X163523643Y-61969929D01*
X163332503Y-61890756D01*
X163332502Y-61890756D01*
X163332501Y-61890755D01*
X163160479Y-61775814D01*
X163014186Y-61629521D01*
X162899245Y-61457499D01*
X162899244Y-61457497D01*
X162820071Y-61266357D01*
X162779710Y-61063446D01*
X162779710Y-60856554D01*
X162820071Y-60653643D01*
X162899244Y-60462503D01*
X162899245Y-60462501D01*
X163014186Y-60290479D01*
X163160479Y-60144186D01*
X163332501Y-60029245D01*
X163332503Y-60029244D01*
X163523643Y-59950071D01*
X163726554Y-59909710D01*
X163933446Y-59909710D01*
X164136357Y-59950071D01*
X164136357Y-59950071D01*
G37*
G36*
X161596357Y-59950071D02*
G01*
X161787497Y-60029244D01*
X161787499Y-60029245D01*
X161959521Y-60144186D01*
X162105814Y-60290479D01*
X162220755Y-60462501D01*
X162220756Y-60462503D01*
X162299929Y-60653643D01*
X162340290Y-60856554D01*
X162340290Y-61063446D01*
X162299929Y-61266357D01*
X162220756Y-61457497D01*
X162220755Y-61457499D01*
X162105814Y-61629521D01*
X161959521Y-61775814D01*
X161787499Y-61890755D01*
X161787498Y-61890756D01*
X161787497Y-61890756D01*
X161596357Y-61969929D01*
X161393446Y-62010290D01*
X161186554Y-62010290D01*
X160983643Y-61969929D01*
X160792503Y-61890756D01*
X160792502Y-61890756D01*
X160792501Y-61890755D01*
X160620479Y-61775814D01*
X160474186Y-61629521D01*
X160359245Y-61457499D01*
X160359244Y-61457497D01*
X160280071Y-61266357D01*
X160239710Y-61063446D01*
X160239710Y-60856554D01*
X160280071Y-60653643D01*
X160359244Y-60462503D01*
X160359245Y-60462501D01*
X160474186Y-60290479D01*
X160620479Y-60144186D01*
X160792501Y-60029245D01*
X160792503Y-60029244D01*
X160983643Y-59950071D01*
X161186554Y-59909710D01*
X161393446Y-59909710D01*
X161596357Y-59950071D01*
X161596357Y-59950071D01*
G37*
G36*
X153976357Y-59950071D02*
G01*
X154167497Y-60029244D01*
X154167499Y-60029245D01*
X154339521Y-60144186D01*
X154485814Y-60290479D01*
X154600755Y-60462501D01*
X154600756Y-60462503D01*
X154679929Y-60653643D01*
X154720290Y-60856554D01*
X154720290Y-61063446D01*
X154679929Y-61266357D01*
X154600756Y-61457497D01*
X154600755Y-61457499D01*
X154485814Y-61629521D01*
X154339521Y-61775814D01*
X154167499Y-61890755D01*
X154167498Y-61890756D01*
X154167497Y-61890756D01*
X153976357Y-61969929D01*
X153773446Y-62010290D01*
X153566554Y-62010290D01*
X153363643Y-61969929D01*
X153172503Y-61890756D01*
X153172502Y-61890756D01*
X153172501Y-61890755D01*
X153000479Y-61775814D01*
X152854186Y-61629521D01*
X152739245Y-61457499D01*
X152739244Y-61457497D01*
X152660071Y-61266357D01*
X152619710Y-61063446D01*
X152619710Y-60856554D01*
X152660071Y-60653643D01*
X152739244Y-60462503D01*
X152739245Y-60462501D01*
X152854186Y-60290479D01*
X153000479Y-60144186D01*
X153172501Y-60029245D01*
X153172503Y-60029244D01*
X153363643Y-59950071D01*
X153566554Y-59909710D01*
X153773446Y-59909710D01*
X153976357Y-59950071D01*
X153976357Y-59950071D01*
G37*
G36*
X161596357Y-57410071D02*
G01*
X161787497Y-57489244D01*
X161787499Y-57489245D01*
X161959521Y-57604186D01*
X162105814Y-57750479D01*
X162220755Y-57922501D01*
X162220756Y-57922503D01*
X162299929Y-58113643D01*
X162340290Y-58316554D01*
X162340290Y-58523446D01*
X162299929Y-58726357D01*
X162220756Y-58917497D01*
X162220755Y-58917499D01*
X162105814Y-59089521D01*
X161959521Y-59235814D01*
X161787499Y-59350755D01*
X161787498Y-59350756D01*
X161787497Y-59350756D01*
X161596357Y-59429929D01*
X161393446Y-59470290D01*
X161186554Y-59470290D01*
X160983643Y-59429929D01*
X160792503Y-59350756D01*
X160792502Y-59350756D01*
X160792501Y-59350755D01*
X160620479Y-59235814D01*
X160474186Y-59089521D01*
X160359245Y-58917499D01*
X160359244Y-58917497D01*
X160280071Y-58726357D01*
X160239710Y-58523446D01*
X160239710Y-58316554D01*
X160280071Y-58113643D01*
X160359244Y-57922503D01*
X160359245Y-57922501D01*
X160474186Y-57750479D01*
X160620479Y-57604186D01*
X160792501Y-57489245D01*
X160792503Y-57489244D01*
X160983643Y-57410071D01*
X161186554Y-57369710D01*
X161393446Y-57369710D01*
X161596357Y-57410071D01*
X161596357Y-57410071D01*
G37*
G36*
X141276357Y-57410071D02*
G01*
X141467497Y-57489244D01*
X141467499Y-57489245D01*
X141639521Y-57604186D01*
X141785814Y-57750479D01*
X141900755Y-57922501D01*
X141900756Y-57922503D01*
X141979929Y-58113643D01*
X142020290Y-58316554D01*
X142020290Y-58523446D01*
X141979929Y-58726357D01*
X141900756Y-58917497D01*
X141900755Y-58917499D01*
X141785814Y-59089521D01*
X141639521Y-59235814D01*
X141467499Y-59350755D01*
X141467498Y-59350756D01*
X141467497Y-59350756D01*
X141276357Y-59429929D01*
X141073446Y-59470290D01*
X140866554Y-59470290D01*
X140663643Y-59429929D01*
X140472503Y-59350756D01*
X140472502Y-59350756D01*
X140472501Y-59350755D01*
X140300479Y-59235814D01*
X140154186Y-59089521D01*
X140039245Y-58917499D01*
X140039244Y-58917497D01*
X139960071Y-58726357D01*
X139919710Y-58523446D01*
X139919710Y-58316554D01*
X139960071Y-58113643D01*
X140039244Y-57922503D01*
X140039245Y-57922501D01*
X140154186Y-57750479D01*
X140300479Y-57604186D01*
X140472501Y-57489245D01*
X140472503Y-57489244D01*
X140663643Y-57410071D01*
X140866554Y-57369710D01*
X141073446Y-57369710D01*
X141276357Y-57410071D01*
X141276357Y-57410071D01*
G37*
G36*
X156516357Y-57410071D02*
G01*
X156707497Y-57489244D01*
X156707499Y-57489245D01*
X156879521Y-57604186D01*
X157025814Y-57750479D01*
X157140755Y-57922501D01*
X157140756Y-57922503D01*
X157219929Y-58113643D01*
X157260290Y-58316554D01*
X157260290Y-58523446D01*
X157219929Y-58726357D01*
X157140756Y-58917497D01*
X157140755Y-58917499D01*
X157025814Y-59089521D01*
X156879521Y-59235814D01*
X156707499Y-59350755D01*
X156707498Y-59350756D01*
X156707497Y-59350756D01*
X156516357Y-59429929D01*
X156313446Y-59470290D01*
X156106554Y-59470290D01*
X155903643Y-59429929D01*
X155712503Y-59350756D01*
X155712502Y-59350756D01*
X155712501Y-59350755D01*
X155540479Y-59235814D01*
X155394186Y-59089521D01*
X155279245Y-58917499D01*
X155279244Y-58917497D01*
X155200071Y-58726357D01*
X155159710Y-58523446D01*
X155159710Y-58316554D01*
X155200071Y-58113643D01*
X155279244Y-57922503D01*
X155279245Y-57922501D01*
X155394186Y-57750479D01*
X155540479Y-57604186D01*
X155712501Y-57489245D01*
X155712503Y-57489244D01*
X155903643Y-57410071D01*
X156106554Y-57369710D01*
X156313446Y-57369710D01*
X156516357Y-57410071D01*
X156516357Y-57410071D01*
G37*
G36*
X146356357Y-57410071D02*
G01*
X146547497Y-57489244D01*
X146547499Y-57489245D01*
X146719521Y-57604186D01*
X146865814Y-57750479D01*
X146980755Y-57922501D01*
X146980756Y-57922503D01*
X147059929Y-58113643D01*
X147100290Y-58316554D01*
X147100290Y-58523446D01*
X147059929Y-58726357D01*
X146980756Y-58917497D01*
X146980755Y-58917499D01*
X146865814Y-59089521D01*
X146719521Y-59235814D01*
X146547499Y-59350755D01*
X146547498Y-59350756D01*
X146547497Y-59350756D01*
X146356357Y-59429929D01*
X146153446Y-59470290D01*
X145946554Y-59470290D01*
X145743643Y-59429929D01*
X145552503Y-59350756D01*
X145552502Y-59350756D01*
X145552501Y-59350755D01*
X145380479Y-59235814D01*
X145234186Y-59089521D01*
X145119245Y-58917499D01*
X145119244Y-58917497D01*
X145040071Y-58726357D01*
X144999710Y-58523446D01*
X144999710Y-58316554D01*
X145040071Y-58113643D01*
X145119244Y-57922503D01*
X145119245Y-57922501D01*
X145234186Y-57750479D01*
X145380479Y-57604186D01*
X145552501Y-57489245D01*
X145552503Y-57489244D01*
X145743643Y-57410071D01*
X145946554Y-57369710D01*
X146153446Y-57369710D01*
X146356357Y-57410071D01*
X146356357Y-57410071D01*
G37*
G36*
X143816357Y-57410071D02*
G01*
X144007497Y-57489244D01*
X144007499Y-57489245D01*
X144179521Y-57604186D01*
X144325814Y-57750479D01*
X144440755Y-57922501D01*
X144440756Y-57922503D01*
X144519929Y-58113643D01*
X144560290Y-58316554D01*
X144560290Y-58523446D01*
X144519929Y-58726357D01*
X144440756Y-58917497D01*
X144440755Y-58917499D01*
X144325814Y-59089521D01*
X144179521Y-59235814D01*
X144007499Y-59350755D01*
X144007498Y-59350756D01*
X144007497Y-59350756D01*
X143816357Y-59429929D01*
X143613446Y-59470290D01*
X143406554Y-59470290D01*
X143203643Y-59429929D01*
X143012503Y-59350756D01*
X143012502Y-59350756D01*
X143012501Y-59350755D01*
X142840479Y-59235814D01*
X142694186Y-59089521D01*
X142579245Y-58917499D01*
X142579244Y-58917497D01*
X142500071Y-58726357D01*
X142459710Y-58523446D01*
X142459710Y-58316554D01*
X142500071Y-58113643D01*
X142579244Y-57922503D01*
X142579245Y-57922501D01*
X142694186Y-57750479D01*
X142840479Y-57604186D01*
X143012501Y-57489245D01*
X143012503Y-57489244D01*
X143203643Y-57410071D01*
X143406554Y-57369710D01*
X143613446Y-57369710D01*
X143816357Y-57410071D01*
X143816357Y-57410071D01*
G37*
G36*
X159056357Y-57410071D02*
G01*
X159247497Y-57489244D01*
X159247499Y-57489245D01*
X159419521Y-57604186D01*
X159565814Y-57750479D01*
X159680755Y-57922501D01*
X159680756Y-57922503D01*
X159759929Y-58113643D01*
X159800290Y-58316554D01*
X159800290Y-58523446D01*
X159759929Y-58726357D01*
X159680756Y-58917497D01*
X159680755Y-58917499D01*
X159565814Y-59089521D01*
X159419521Y-59235814D01*
X159247499Y-59350755D01*
X159247498Y-59350756D01*
X159247497Y-59350756D01*
X159056357Y-59429929D01*
X158853446Y-59470290D01*
X158646554Y-59470290D01*
X158443643Y-59429929D01*
X158252503Y-59350756D01*
X158252502Y-59350756D01*
X158252501Y-59350755D01*
X158080479Y-59235814D01*
X157934186Y-59089521D01*
X157819245Y-58917499D01*
X157819244Y-58917497D01*
X157740071Y-58726357D01*
X157699710Y-58523446D01*
X157699710Y-58316554D01*
X157740071Y-58113643D01*
X157819244Y-57922503D01*
X157819245Y-57922501D01*
X157934186Y-57750479D01*
X158080479Y-57604186D01*
X158252501Y-57489245D01*
X158252503Y-57489244D01*
X158443643Y-57410071D01*
X158646554Y-57369710D01*
X158853446Y-57369710D01*
X159056357Y-57410071D01*
X159056357Y-57410071D01*
G37*
G36*
X164136357Y-57410071D02*
G01*
X164327497Y-57489244D01*
X164327499Y-57489245D01*
X164499521Y-57604186D01*
X164645814Y-57750479D01*
X164760755Y-57922501D01*
X164760756Y-57922503D01*
X164839929Y-58113643D01*
X164880290Y-58316554D01*
X164880290Y-58523446D01*
X164839929Y-58726357D01*
X164760756Y-58917497D01*
X164760755Y-58917499D01*
X164645814Y-59089521D01*
X164499521Y-59235814D01*
X164327499Y-59350755D01*
X164327498Y-59350756D01*
X164327497Y-59350756D01*
X164136357Y-59429929D01*
X163933446Y-59470290D01*
X163726554Y-59470290D01*
X163523643Y-59429929D01*
X163332503Y-59350756D01*
X163332502Y-59350756D01*
X163332501Y-59350755D01*
X163160479Y-59235814D01*
X163014186Y-59089521D01*
X162899245Y-58917499D01*
X162899244Y-58917497D01*
X162820071Y-58726357D01*
X162779710Y-58523446D01*
X162779710Y-58316554D01*
X162820071Y-58113643D01*
X162899244Y-57922503D01*
X162899245Y-57922501D01*
X163014186Y-57750479D01*
X163160479Y-57604186D01*
X163332501Y-57489245D01*
X163332503Y-57489244D01*
X163523643Y-57410071D01*
X163726554Y-57369710D01*
X163933446Y-57369710D01*
X164136357Y-57410071D01*
X164136357Y-57410071D01*
G37*
G36*
X166676357Y-57410071D02*
G01*
X166867497Y-57489244D01*
X166867499Y-57489245D01*
X167039521Y-57604186D01*
X167185814Y-57750479D01*
X167300755Y-57922501D01*
X167300756Y-57922503D01*
X167379929Y-58113643D01*
X167420290Y-58316554D01*
X167420290Y-58523446D01*
X167379929Y-58726357D01*
X167300756Y-58917497D01*
X167300755Y-58917499D01*
X167185814Y-59089521D01*
X167039521Y-59235814D01*
X166867499Y-59350755D01*
X166867498Y-59350756D01*
X166867497Y-59350756D01*
X166676357Y-59429929D01*
X166473446Y-59470290D01*
X166266554Y-59470290D01*
X166063643Y-59429929D01*
X165872503Y-59350756D01*
X165872502Y-59350756D01*
X165872501Y-59350755D01*
X165700479Y-59235814D01*
X165554186Y-59089521D01*
X165439245Y-58917499D01*
X165439244Y-58917497D01*
X165360071Y-58726357D01*
X165319710Y-58523446D01*
X165319710Y-58316554D01*
X165360071Y-58113643D01*
X165439244Y-57922503D01*
X165439245Y-57922501D01*
X165554186Y-57750479D01*
X165700479Y-57604186D01*
X165872501Y-57489245D01*
X165872503Y-57489244D01*
X166063643Y-57410071D01*
X166266554Y-57369710D01*
X166473446Y-57369710D01*
X166676357Y-57410071D01*
X166676357Y-57410071D01*
G37*
G36*
X153976357Y-57410071D02*
G01*
X154167497Y-57489244D01*
X154167499Y-57489245D01*
X154339521Y-57604186D01*
X154485814Y-57750479D01*
X154600755Y-57922501D01*
X154600756Y-57922503D01*
X154679929Y-58113643D01*
X154720290Y-58316554D01*
X154720290Y-58523446D01*
X154679929Y-58726357D01*
X154600756Y-58917497D01*
X154600755Y-58917499D01*
X154485814Y-59089521D01*
X154339521Y-59235814D01*
X154167499Y-59350755D01*
X154167498Y-59350756D01*
X154167497Y-59350756D01*
X153976357Y-59429929D01*
X153773446Y-59470290D01*
X153566554Y-59470290D01*
X153363643Y-59429929D01*
X153172503Y-59350756D01*
X153172502Y-59350756D01*
X153172501Y-59350755D01*
X153000479Y-59235814D01*
X152854186Y-59089521D01*
X152739245Y-58917499D01*
X152739244Y-58917497D01*
X152660071Y-58726357D01*
X152619710Y-58523446D01*
X152619710Y-58316554D01*
X152660071Y-58113643D01*
X152739244Y-57922503D01*
X152739245Y-57922501D01*
X152854186Y-57750479D01*
X153000479Y-57604186D01*
X153172501Y-57489245D01*
X153172503Y-57489244D01*
X153363643Y-57410071D01*
X153566554Y-57369710D01*
X153773446Y-57369710D01*
X153976357Y-57410071D01*
X153976357Y-57410071D01*
G37*
G36*
X138736357Y-57410071D02*
G01*
X138927497Y-57489244D01*
X138927499Y-57489245D01*
X139099521Y-57604186D01*
X139245814Y-57750479D01*
X139360755Y-57922501D01*
X139360756Y-57922503D01*
X139439929Y-58113643D01*
X139480290Y-58316554D01*
X139480290Y-58523446D01*
X139439929Y-58726357D01*
X139360756Y-58917497D01*
X139360755Y-58917499D01*
X139245814Y-59089521D01*
X139099521Y-59235814D01*
X138927499Y-59350755D01*
X138927498Y-59350756D01*
X138927497Y-59350756D01*
X138736357Y-59429929D01*
X138533446Y-59470290D01*
X138326554Y-59470290D01*
X138123643Y-59429929D01*
X137932503Y-59350756D01*
X137932502Y-59350756D01*
X137932501Y-59350755D01*
X137760479Y-59235814D01*
X137614186Y-59089521D01*
X137499245Y-58917499D01*
X137499244Y-58917497D01*
X137420071Y-58726357D01*
X137379710Y-58523446D01*
X137379710Y-58316554D01*
X137420071Y-58113643D01*
X137499244Y-57922503D01*
X137499245Y-57922501D01*
X137614186Y-57750479D01*
X137760479Y-57604186D01*
X137932501Y-57489245D01*
X137932503Y-57489244D01*
X138123643Y-57410071D01*
X138326554Y-57369710D01*
X138533446Y-57369710D01*
X138736357Y-57410071D01*
X138736357Y-57410071D01*
G37*
G36*
X151436357Y-57410071D02*
G01*
X151627497Y-57489244D01*
X151627499Y-57489245D01*
X151799521Y-57604186D01*
X151945814Y-57750479D01*
X152060755Y-57922501D01*
X152060756Y-57922503D01*
X152139929Y-58113643D01*
X152180290Y-58316554D01*
X152180290Y-58523446D01*
X152139929Y-58726357D01*
X152060756Y-58917497D01*
X152060755Y-58917499D01*
X151945814Y-59089521D01*
X151799521Y-59235814D01*
X151627499Y-59350755D01*
X151627498Y-59350756D01*
X151627497Y-59350756D01*
X151436357Y-59429929D01*
X151233446Y-59470290D01*
X151026554Y-59470290D01*
X150823643Y-59429929D01*
X150632503Y-59350756D01*
X150632502Y-59350756D01*
X150632501Y-59350755D01*
X150460479Y-59235814D01*
X150314186Y-59089521D01*
X150199245Y-58917499D01*
X150199244Y-58917497D01*
X150120071Y-58726357D01*
X150079710Y-58523446D01*
X150079710Y-58316554D01*
X150120071Y-58113643D01*
X150199244Y-57922503D01*
X150199245Y-57922501D01*
X150314186Y-57750479D01*
X150460479Y-57604186D01*
X150632501Y-57489245D01*
X150632503Y-57489244D01*
X150823643Y-57410071D01*
X151026554Y-57369710D01*
X151233446Y-57369710D01*
X151436357Y-57410071D01*
X151436357Y-57410071D01*
G37*
G36*
X148896357Y-57410071D02*
G01*
X149087497Y-57489244D01*
X149087499Y-57489245D01*
X149259521Y-57604186D01*
X149405814Y-57750479D01*
X149520755Y-57922501D01*
X149520756Y-57922503D01*
X149599929Y-58113643D01*
X149640290Y-58316554D01*
X149640290Y-58523446D01*
X149599929Y-58726357D01*
X149520756Y-58917497D01*
X149520755Y-58917499D01*
X149405814Y-59089521D01*
X149259521Y-59235814D01*
X149087499Y-59350755D01*
X149087498Y-59350756D01*
X149087497Y-59350756D01*
X148896357Y-59429929D01*
X148693446Y-59470290D01*
X148486554Y-59470290D01*
X148283643Y-59429929D01*
X148092503Y-59350756D01*
X148092502Y-59350756D01*
X148092501Y-59350755D01*
X147920479Y-59235814D01*
X147774186Y-59089521D01*
X147659245Y-58917499D01*
X147659244Y-58917497D01*
X147580071Y-58726357D01*
X147539710Y-58523446D01*
X147539710Y-58316554D01*
X147580071Y-58113643D01*
X147659244Y-57922503D01*
X147659245Y-57922501D01*
X147774186Y-57750479D01*
X147920479Y-57604186D01*
X148092501Y-57489245D01*
X148092503Y-57489244D01*
X148283643Y-57410071D01*
X148486554Y-57369710D01*
X148693446Y-57369710D01*
X148896357Y-57410071D01*
X148896357Y-57410071D01*
G37*
G36*
X148896357Y-54870071D02*
G01*
X149087497Y-54949244D01*
X149087499Y-54949245D01*
X149259521Y-55064186D01*
X149405814Y-55210479D01*
X149520755Y-55382501D01*
X149520756Y-55382503D01*
X149599929Y-55573643D01*
X149640290Y-55776554D01*
X149640290Y-55983446D01*
X149599929Y-56186357D01*
X149520756Y-56377497D01*
X149520755Y-56377499D01*
X149405814Y-56549521D01*
X149259521Y-56695814D01*
X149087499Y-56810755D01*
X149087498Y-56810756D01*
X149087497Y-56810756D01*
X148896357Y-56889929D01*
X148693446Y-56930290D01*
X148486554Y-56930290D01*
X148283643Y-56889929D01*
X148092503Y-56810756D01*
X148092502Y-56810756D01*
X148092501Y-56810755D01*
X147920479Y-56695814D01*
X147774186Y-56549521D01*
X147659245Y-56377499D01*
X147659244Y-56377497D01*
X147580071Y-56186357D01*
X147539710Y-55983446D01*
X147539710Y-55776554D01*
X147580071Y-55573643D01*
X147659244Y-55382503D01*
X147659245Y-55382501D01*
X147774186Y-55210479D01*
X147920479Y-55064186D01*
X148092501Y-54949245D01*
X148092503Y-54949244D01*
X148283643Y-54870071D01*
X148486554Y-54829710D01*
X148693446Y-54829710D01*
X148896357Y-54870071D01*
X148896357Y-54870071D01*
G37*
G36*
X164136357Y-54870071D02*
G01*
X164327497Y-54949244D01*
X164327499Y-54949245D01*
X164499521Y-55064186D01*
X164645814Y-55210479D01*
X164760755Y-55382501D01*
X164760756Y-55382503D01*
X164839929Y-55573643D01*
X164880290Y-55776554D01*
X164880290Y-55983446D01*
X164839929Y-56186357D01*
X164760756Y-56377497D01*
X164760755Y-56377499D01*
X164645814Y-56549521D01*
X164499521Y-56695814D01*
X164327499Y-56810755D01*
X164327498Y-56810756D01*
X164327497Y-56810756D01*
X164136357Y-56889929D01*
X163933446Y-56930290D01*
X163726554Y-56930290D01*
X163523643Y-56889929D01*
X163332503Y-56810756D01*
X163332502Y-56810756D01*
X163332501Y-56810755D01*
X163160479Y-56695814D01*
X163014186Y-56549521D01*
X162899245Y-56377499D01*
X162899244Y-56377497D01*
X162820071Y-56186357D01*
X162779710Y-55983446D01*
X162779710Y-55776554D01*
X162820071Y-55573643D01*
X162899244Y-55382503D01*
X162899245Y-55382501D01*
X163014186Y-55210479D01*
X163160479Y-55064186D01*
X163332501Y-54949245D01*
X163332503Y-54949244D01*
X163523643Y-54870071D01*
X163726554Y-54829710D01*
X163933446Y-54829710D01*
X164136357Y-54870071D01*
X164136357Y-54870071D01*
G37*
G36*
X166676357Y-54870071D02*
G01*
X166867497Y-54949244D01*
X166867499Y-54949245D01*
X167039521Y-55064186D01*
X167185814Y-55210479D01*
X167300755Y-55382501D01*
X167300756Y-55382503D01*
X167379929Y-55573643D01*
X167420290Y-55776554D01*
X167420290Y-55983446D01*
X167379929Y-56186357D01*
X167300756Y-56377497D01*
X167300755Y-56377499D01*
X167185814Y-56549521D01*
X167039521Y-56695814D01*
X166867499Y-56810755D01*
X166867498Y-56810756D01*
X166867497Y-56810756D01*
X166676357Y-56889929D01*
X166473446Y-56930290D01*
X166266554Y-56930290D01*
X166063643Y-56889929D01*
X165872503Y-56810756D01*
X165872502Y-56810756D01*
X165872501Y-56810755D01*
X165700479Y-56695814D01*
X165554186Y-56549521D01*
X165439245Y-56377499D01*
X165439244Y-56377497D01*
X165360071Y-56186357D01*
X165319710Y-55983446D01*
X165319710Y-55776554D01*
X165360071Y-55573643D01*
X165439244Y-55382503D01*
X165439245Y-55382501D01*
X165554186Y-55210479D01*
X165700479Y-55064186D01*
X165872501Y-54949245D01*
X165872503Y-54949244D01*
X166063643Y-54870071D01*
X166266554Y-54829710D01*
X166473446Y-54829710D01*
X166676357Y-54870071D01*
X166676357Y-54870071D01*
G37*
G36*
X156516357Y-54870071D02*
G01*
X156707497Y-54949244D01*
X156707499Y-54949245D01*
X156879521Y-55064186D01*
X157025814Y-55210479D01*
X157140755Y-55382501D01*
X157140756Y-55382503D01*
X157219929Y-55573643D01*
X157260290Y-55776554D01*
X157260290Y-55983446D01*
X157219929Y-56186357D01*
X157140756Y-56377497D01*
X157140755Y-56377499D01*
X157025814Y-56549521D01*
X156879521Y-56695814D01*
X156707499Y-56810755D01*
X156707498Y-56810756D01*
X156707497Y-56810756D01*
X156516357Y-56889929D01*
X156313446Y-56930290D01*
X156106554Y-56930290D01*
X155903643Y-56889929D01*
X155712503Y-56810756D01*
X155712502Y-56810756D01*
X155712501Y-56810755D01*
X155540479Y-56695814D01*
X155394186Y-56549521D01*
X155279245Y-56377499D01*
X155279244Y-56377497D01*
X155200071Y-56186357D01*
X155159710Y-55983446D01*
X155159710Y-55776554D01*
X155200071Y-55573643D01*
X155279244Y-55382503D01*
X155279245Y-55382501D01*
X155394186Y-55210479D01*
X155540479Y-55064186D01*
X155712501Y-54949245D01*
X155712503Y-54949244D01*
X155903643Y-54870071D01*
X156106554Y-54829710D01*
X156313446Y-54829710D01*
X156516357Y-54870071D01*
X156516357Y-54870071D01*
G37*
G36*
X141276357Y-54870071D02*
G01*
X141467497Y-54949244D01*
X141467499Y-54949245D01*
X141639521Y-55064186D01*
X141785814Y-55210479D01*
X141900755Y-55382501D01*
X141900756Y-55382503D01*
X141979929Y-55573643D01*
X142020290Y-55776554D01*
X142020290Y-55983446D01*
X141979929Y-56186357D01*
X141900756Y-56377497D01*
X141900755Y-56377499D01*
X141785814Y-56549521D01*
X141639521Y-56695814D01*
X141467499Y-56810755D01*
X141467498Y-56810756D01*
X141467497Y-56810756D01*
X141276357Y-56889929D01*
X141073446Y-56930290D01*
X140866554Y-56930290D01*
X140663643Y-56889929D01*
X140472503Y-56810756D01*
X140472502Y-56810756D01*
X140472501Y-56810755D01*
X140300479Y-56695814D01*
X140154186Y-56549521D01*
X140039245Y-56377499D01*
X140039244Y-56377497D01*
X139960071Y-56186357D01*
X139919710Y-55983446D01*
X139919710Y-55776554D01*
X139960071Y-55573643D01*
X140039244Y-55382503D01*
X140039245Y-55382501D01*
X140154186Y-55210479D01*
X140300479Y-55064186D01*
X140472501Y-54949245D01*
X140472503Y-54949244D01*
X140663643Y-54870071D01*
X140866554Y-54829710D01*
X141073446Y-54829710D01*
X141276357Y-54870071D01*
X141276357Y-54870071D01*
G37*
G36*
X143816357Y-54870071D02*
G01*
X144007497Y-54949244D01*
X144007499Y-54949245D01*
X144179521Y-55064186D01*
X144325814Y-55210479D01*
X144440755Y-55382501D01*
X144440756Y-55382503D01*
X144519929Y-55573643D01*
X144560290Y-55776554D01*
X144560290Y-55983446D01*
X144519929Y-56186357D01*
X144440756Y-56377497D01*
X144440755Y-56377499D01*
X144325814Y-56549521D01*
X144179521Y-56695814D01*
X144007499Y-56810755D01*
X144007498Y-56810756D01*
X144007497Y-56810756D01*
X143816357Y-56889929D01*
X143613446Y-56930290D01*
X143406554Y-56930290D01*
X143203643Y-56889929D01*
X143012503Y-56810756D01*
X143012502Y-56810756D01*
X143012501Y-56810755D01*
X142840479Y-56695814D01*
X142694186Y-56549521D01*
X142579245Y-56377499D01*
X142579244Y-56377497D01*
X142500071Y-56186357D01*
X142459710Y-55983446D01*
X142459710Y-55776554D01*
X142500071Y-55573643D01*
X142579244Y-55382503D01*
X142579245Y-55382501D01*
X142694186Y-55210479D01*
X142840479Y-55064186D01*
X143012501Y-54949245D01*
X143012503Y-54949244D01*
X143203643Y-54870071D01*
X143406554Y-54829710D01*
X143613446Y-54829710D01*
X143816357Y-54870071D01*
X143816357Y-54870071D01*
G37*
G36*
X151436357Y-54870071D02*
G01*
X151627497Y-54949244D01*
X151627499Y-54949245D01*
X151799521Y-55064186D01*
X151945814Y-55210479D01*
X152060755Y-55382501D01*
X152060756Y-55382503D01*
X152139929Y-55573643D01*
X152180290Y-55776554D01*
X152180290Y-55983446D01*
X152139929Y-56186357D01*
X152060756Y-56377497D01*
X152060755Y-56377499D01*
X151945814Y-56549521D01*
X151799521Y-56695814D01*
X151627499Y-56810755D01*
X151627498Y-56810756D01*
X151627497Y-56810756D01*
X151436357Y-56889929D01*
X151233446Y-56930290D01*
X151026554Y-56930290D01*
X150823643Y-56889929D01*
X150632503Y-56810756D01*
X150632502Y-56810756D01*
X150632501Y-56810755D01*
X150460479Y-56695814D01*
X150314186Y-56549521D01*
X150199245Y-56377499D01*
X150199244Y-56377497D01*
X150120071Y-56186357D01*
X150079710Y-55983446D01*
X150079710Y-55776554D01*
X150120071Y-55573643D01*
X150199244Y-55382503D01*
X150199245Y-55382501D01*
X150314186Y-55210479D01*
X150460479Y-55064186D01*
X150632501Y-54949245D01*
X150632503Y-54949244D01*
X150823643Y-54870071D01*
X151026554Y-54829710D01*
X151233446Y-54829710D01*
X151436357Y-54870071D01*
X151436357Y-54870071D01*
G37*
G36*
X153976357Y-54870071D02*
G01*
X154167497Y-54949244D01*
X154167499Y-54949245D01*
X154339521Y-55064186D01*
X154485814Y-55210479D01*
X154600755Y-55382501D01*
X154600756Y-55382503D01*
X154679929Y-55573643D01*
X154720290Y-55776554D01*
X154720290Y-55983446D01*
X154679929Y-56186357D01*
X154600756Y-56377497D01*
X154600755Y-56377499D01*
X154485814Y-56549521D01*
X154339521Y-56695814D01*
X154167499Y-56810755D01*
X154167498Y-56810756D01*
X154167497Y-56810756D01*
X153976357Y-56889929D01*
X153773446Y-56930290D01*
X153566554Y-56930290D01*
X153363643Y-56889929D01*
X153172503Y-56810756D01*
X153172502Y-56810756D01*
X153172501Y-56810755D01*
X153000479Y-56695814D01*
X152854186Y-56549521D01*
X152739245Y-56377499D01*
X152739244Y-56377497D01*
X152660071Y-56186357D01*
X152619710Y-55983446D01*
X152619710Y-55776554D01*
X152660071Y-55573643D01*
X152739244Y-55382503D01*
X152739245Y-55382501D01*
X152854186Y-55210479D01*
X153000479Y-55064186D01*
X153172501Y-54949245D01*
X153172503Y-54949244D01*
X153363643Y-54870071D01*
X153566554Y-54829710D01*
X153773446Y-54829710D01*
X153976357Y-54870071D01*
X153976357Y-54870071D01*
G37*
G36*
X138736357Y-54870071D02*
G01*
X138927497Y-54949244D01*
X138927499Y-54949245D01*
X139099521Y-55064186D01*
X139245814Y-55210479D01*
X139360755Y-55382501D01*
X139360756Y-55382503D01*
X139439929Y-55573643D01*
X139480290Y-55776554D01*
X139480290Y-55983446D01*
X139439929Y-56186357D01*
X139360756Y-56377497D01*
X139360755Y-56377499D01*
X139245814Y-56549521D01*
X139099521Y-56695814D01*
X138927499Y-56810755D01*
X138927498Y-56810756D01*
X138927497Y-56810756D01*
X138736357Y-56889929D01*
X138533446Y-56930290D01*
X138326554Y-56930290D01*
X138123643Y-56889929D01*
X137932503Y-56810756D01*
X137932502Y-56810756D01*
X137932501Y-56810755D01*
X137760479Y-56695814D01*
X137614186Y-56549521D01*
X137499245Y-56377499D01*
X137499244Y-56377497D01*
X137420071Y-56186357D01*
X137379710Y-55983446D01*
X137379710Y-55776554D01*
X137420071Y-55573643D01*
X137499244Y-55382503D01*
X137499245Y-55382501D01*
X137614186Y-55210479D01*
X137760479Y-55064186D01*
X137932501Y-54949245D01*
X137932503Y-54949244D01*
X138123643Y-54870071D01*
X138326554Y-54829710D01*
X138533446Y-54829710D01*
X138736357Y-54870071D01*
X138736357Y-54870071D01*
G37*
G36*
X146356357Y-54870071D02*
G01*
X146547497Y-54949244D01*
X146547499Y-54949245D01*
X146719521Y-55064186D01*
X146865814Y-55210479D01*
X146980755Y-55382501D01*
X146980756Y-55382503D01*
X147059929Y-55573643D01*
X147100290Y-55776554D01*
X147100290Y-55983446D01*
X147059929Y-56186357D01*
X146980756Y-56377497D01*
X146980755Y-56377499D01*
X146865814Y-56549521D01*
X146719521Y-56695814D01*
X146547499Y-56810755D01*
X146547498Y-56810756D01*
X146547497Y-56810756D01*
X146356357Y-56889929D01*
X146153446Y-56930290D01*
X145946554Y-56930290D01*
X145743643Y-56889929D01*
X145552503Y-56810756D01*
X145552502Y-56810756D01*
X145552501Y-56810755D01*
X145380479Y-56695814D01*
X145234186Y-56549521D01*
X145119245Y-56377499D01*
X145119244Y-56377497D01*
X145040071Y-56186357D01*
X144999710Y-55983446D01*
X144999710Y-55776554D01*
X145040071Y-55573643D01*
X145119244Y-55382503D01*
X145119245Y-55382501D01*
X145234186Y-55210479D01*
X145380479Y-55064186D01*
X145552501Y-54949245D01*
X145552503Y-54949244D01*
X145743643Y-54870071D01*
X145946554Y-54829710D01*
X146153446Y-54829710D01*
X146356357Y-54870071D01*
X146356357Y-54870071D01*
G37*
G36*
X161596357Y-54870071D02*
G01*
X161787497Y-54949244D01*
X161787499Y-54949245D01*
X161959521Y-55064186D01*
X162105814Y-55210479D01*
X162220755Y-55382501D01*
X162220756Y-55382503D01*
X162299929Y-55573643D01*
X162340290Y-55776554D01*
X162340290Y-55983446D01*
X162299929Y-56186357D01*
X162220756Y-56377497D01*
X162220755Y-56377499D01*
X162105814Y-56549521D01*
X161959521Y-56695814D01*
X161787499Y-56810755D01*
X161787498Y-56810756D01*
X161787497Y-56810756D01*
X161596357Y-56889929D01*
X161393446Y-56930290D01*
X161186554Y-56930290D01*
X160983643Y-56889929D01*
X160792503Y-56810756D01*
X160792502Y-56810756D01*
X160792501Y-56810755D01*
X160620479Y-56695814D01*
X160474186Y-56549521D01*
X160359245Y-56377499D01*
X160359244Y-56377497D01*
X160280071Y-56186357D01*
X160239710Y-55983446D01*
X160239710Y-55776554D01*
X160280071Y-55573643D01*
X160359244Y-55382503D01*
X160359245Y-55382501D01*
X160474186Y-55210479D01*
X160620479Y-55064186D01*
X160792501Y-54949245D01*
X160792503Y-54949244D01*
X160983643Y-54870071D01*
X161186554Y-54829710D01*
X161393446Y-54829710D01*
X161596357Y-54870071D01*
X161596357Y-54870071D01*
G37*
G36*
X159056357Y-54870071D02*
G01*
X159247497Y-54949244D01*
X159247499Y-54949245D01*
X159419521Y-55064186D01*
X159565814Y-55210479D01*
X159680755Y-55382501D01*
X159680756Y-55382503D01*
X159759929Y-55573643D01*
X159800290Y-55776554D01*
X159800290Y-55983446D01*
X159759929Y-56186357D01*
X159680756Y-56377497D01*
X159680755Y-56377499D01*
X159565814Y-56549521D01*
X159419521Y-56695814D01*
X159247499Y-56810755D01*
X159247498Y-56810756D01*
X159247497Y-56810756D01*
X159056357Y-56889929D01*
X158853446Y-56930290D01*
X158646554Y-56930290D01*
X158443643Y-56889929D01*
X158252503Y-56810756D01*
X158252502Y-56810756D01*
X158252501Y-56810755D01*
X158080479Y-56695814D01*
X157934186Y-56549521D01*
X157819245Y-56377499D01*
X157819244Y-56377497D01*
X157740071Y-56186357D01*
X157699710Y-55983446D01*
X157699710Y-55776554D01*
X157740071Y-55573643D01*
X157819244Y-55382503D01*
X157819245Y-55382501D01*
X157934186Y-55210479D01*
X158080479Y-55064186D01*
X158252501Y-54949245D01*
X158252503Y-54949244D01*
X158443643Y-54870071D01*
X158646554Y-54829710D01*
X158853446Y-54829710D01*
X159056357Y-54870071D01*
X159056357Y-54870071D01*
G37*
G36*
X151436357Y-52330071D02*
G01*
X151627497Y-52409244D01*
X151627499Y-52409245D01*
X151799521Y-52524186D01*
X151945814Y-52670479D01*
X152060755Y-52842501D01*
X152060756Y-52842503D01*
X152139929Y-53033643D01*
X152180290Y-53236554D01*
X152180290Y-53443446D01*
X152139929Y-53646357D01*
X152060756Y-53837497D01*
X152060755Y-53837499D01*
X151945814Y-54009521D01*
X151799521Y-54155814D01*
X151627499Y-54270755D01*
X151627498Y-54270756D01*
X151627497Y-54270756D01*
X151436357Y-54349929D01*
X151233446Y-54390290D01*
X151026554Y-54390290D01*
X150823643Y-54349929D01*
X150632503Y-54270756D01*
X150632502Y-54270756D01*
X150632501Y-54270755D01*
X150460479Y-54155814D01*
X150314186Y-54009521D01*
X150199245Y-53837499D01*
X150199244Y-53837497D01*
X150120071Y-53646357D01*
X150079710Y-53443446D01*
X150079710Y-53236554D01*
X150120071Y-53033643D01*
X150199244Y-52842503D01*
X150199245Y-52842501D01*
X150314186Y-52670479D01*
X150460479Y-52524186D01*
X150632501Y-52409245D01*
X150632503Y-52409244D01*
X150823643Y-52330071D01*
X151026554Y-52289710D01*
X151233446Y-52289710D01*
X151436357Y-52330071D01*
X151436357Y-52330071D01*
G37*
G36*
X161596357Y-52330071D02*
G01*
X161787497Y-52409244D01*
X161787499Y-52409245D01*
X161959521Y-52524186D01*
X162105814Y-52670479D01*
X162220755Y-52842501D01*
X162220756Y-52842503D01*
X162299929Y-53033643D01*
X162340290Y-53236554D01*
X162340290Y-53443446D01*
X162299929Y-53646357D01*
X162220756Y-53837497D01*
X162220755Y-53837499D01*
X162105814Y-54009521D01*
X161959521Y-54155814D01*
X161787499Y-54270755D01*
X161787498Y-54270756D01*
X161787497Y-54270756D01*
X161596357Y-54349929D01*
X161393446Y-54390290D01*
X161186554Y-54390290D01*
X160983643Y-54349929D01*
X160792503Y-54270756D01*
X160792502Y-54270756D01*
X160792501Y-54270755D01*
X160620479Y-54155814D01*
X160474186Y-54009521D01*
X160359245Y-53837499D01*
X160359244Y-53837497D01*
X160280071Y-53646357D01*
X160239710Y-53443446D01*
X160239710Y-53236554D01*
X160280071Y-53033643D01*
X160359244Y-52842503D01*
X160359245Y-52842501D01*
X160474186Y-52670479D01*
X160620479Y-52524186D01*
X160792501Y-52409245D01*
X160792503Y-52409244D01*
X160983643Y-52330071D01*
X161186554Y-52289710D01*
X161393446Y-52289710D01*
X161596357Y-52330071D01*
X161596357Y-52330071D01*
G37*
G36*
X159056357Y-52330071D02*
G01*
X159247497Y-52409244D01*
X159247499Y-52409245D01*
X159419521Y-52524186D01*
X159565814Y-52670479D01*
X159680755Y-52842501D01*
X159680756Y-52842503D01*
X159759929Y-53033643D01*
X159800290Y-53236554D01*
X159800290Y-53443446D01*
X159759929Y-53646357D01*
X159680756Y-53837497D01*
X159680755Y-53837499D01*
X159565814Y-54009521D01*
X159419521Y-54155814D01*
X159247499Y-54270755D01*
X159247498Y-54270756D01*
X159247497Y-54270756D01*
X159056357Y-54349929D01*
X158853446Y-54390290D01*
X158646554Y-54390290D01*
X158443643Y-54349929D01*
X158252503Y-54270756D01*
X158252502Y-54270756D01*
X158252501Y-54270755D01*
X158080479Y-54155814D01*
X157934186Y-54009521D01*
X157819245Y-53837499D01*
X157819244Y-53837497D01*
X157740071Y-53646357D01*
X157699710Y-53443446D01*
X157699710Y-53236554D01*
X157740071Y-53033643D01*
X157819244Y-52842503D01*
X157819245Y-52842501D01*
X157934186Y-52670479D01*
X158080479Y-52524186D01*
X158252501Y-52409245D01*
X158252503Y-52409244D01*
X158443643Y-52330071D01*
X158646554Y-52289710D01*
X158853446Y-52289710D01*
X159056357Y-52330071D01*
X159056357Y-52330071D01*
G37*
G36*
X153976357Y-52330071D02*
G01*
X154167497Y-52409244D01*
X154167499Y-52409245D01*
X154339521Y-52524186D01*
X154485814Y-52670479D01*
X154600755Y-52842501D01*
X154600756Y-52842503D01*
X154679929Y-53033643D01*
X154720290Y-53236554D01*
X154720290Y-53443446D01*
X154679929Y-53646357D01*
X154600756Y-53837497D01*
X154600755Y-53837499D01*
X154485814Y-54009521D01*
X154339521Y-54155814D01*
X154167499Y-54270755D01*
X154167498Y-54270756D01*
X154167497Y-54270756D01*
X153976357Y-54349929D01*
X153773446Y-54390290D01*
X153566554Y-54390290D01*
X153363643Y-54349929D01*
X153172503Y-54270756D01*
X153172502Y-54270756D01*
X153172501Y-54270755D01*
X153000479Y-54155814D01*
X152854186Y-54009521D01*
X152739245Y-53837499D01*
X152739244Y-53837497D01*
X152660071Y-53646357D01*
X152619710Y-53443446D01*
X152619710Y-53236554D01*
X152660071Y-53033643D01*
X152739244Y-52842503D01*
X152739245Y-52842501D01*
X152854186Y-52670479D01*
X153000479Y-52524186D01*
X153172501Y-52409245D01*
X153172503Y-52409244D01*
X153363643Y-52330071D01*
X153566554Y-52289710D01*
X153773446Y-52289710D01*
X153976357Y-52330071D01*
X153976357Y-52330071D01*
G37*
G36*
X156516357Y-52330071D02*
G01*
X156707497Y-52409244D01*
X156707499Y-52409245D01*
X156879521Y-52524186D01*
X157025814Y-52670479D01*
X157140755Y-52842501D01*
X157140756Y-52842503D01*
X157219929Y-53033643D01*
X157260290Y-53236554D01*
X157260290Y-53443446D01*
X157219929Y-53646357D01*
X157140756Y-53837497D01*
X157140755Y-53837499D01*
X157025814Y-54009521D01*
X156879521Y-54155814D01*
X156707499Y-54270755D01*
X156707498Y-54270756D01*
X156707497Y-54270756D01*
X156516357Y-54349929D01*
X156313446Y-54390290D01*
X156106554Y-54390290D01*
X155903643Y-54349929D01*
X155712503Y-54270756D01*
X155712502Y-54270756D01*
X155712501Y-54270755D01*
X155540479Y-54155814D01*
X155394186Y-54009521D01*
X155279245Y-53837499D01*
X155279244Y-53837497D01*
X155200071Y-53646357D01*
X155159710Y-53443446D01*
X155159710Y-53236554D01*
X155200071Y-53033643D01*
X155279244Y-52842503D01*
X155279245Y-52842501D01*
X155394186Y-52670479D01*
X155540479Y-52524186D01*
X155712501Y-52409245D01*
X155712503Y-52409244D01*
X155903643Y-52330071D01*
X156106554Y-52289710D01*
X156313446Y-52289710D01*
X156516357Y-52330071D01*
X156516357Y-52330071D01*
G37*
G36*
X138736357Y-52330071D02*
G01*
X138927497Y-52409244D01*
X138927499Y-52409245D01*
X139099521Y-52524186D01*
X139245814Y-52670479D01*
X139360755Y-52842501D01*
X139360756Y-52842503D01*
X139439929Y-53033643D01*
X139480290Y-53236554D01*
X139480290Y-53443446D01*
X139439929Y-53646357D01*
X139360756Y-53837497D01*
X139360755Y-53837499D01*
X139245814Y-54009521D01*
X139099521Y-54155814D01*
X138927499Y-54270755D01*
X138927498Y-54270756D01*
X138927497Y-54270756D01*
X138736357Y-54349929D01*
X138533446Y-54390290D01*
X138326554Y-54390290D01*
X138123643Y-54349929D01*
X137932503Y-54270756D01*
X137932502Y-54270756D01*
X137932501Y-54270755D01*
X137760479Y-54155814D01*
X137614186Y-54009521D01*
X137499245Y-53837499D01*
X137499244Y-53837497D01*
X137420071Y-53646357D01*
X137379710Y-53443446D01*
X137379710Y-53236554D01*
X137420071Y-53033643D01*
X137499244Y-52842503D01*
X137499245Y-52842501D01*
X137614186Y-52670479D01*
X137760479Y-52524186D01*
X137932501Y-52409245D01*
X137932503Y-52409244D01*
X138123643Y-52330071D01*
X138326554Y-52289710D01*
X138533446Y-52289710D01*
X138736357Y-52330071D01*
X138736357Y-52330071D01*
G37*
G36*
X166676357Y-52330071D02*
G01*
X166867497Y-52409244D01*
X166867499Y-52409245D01*
X167039521Y-52524186D01*
X167185814Y-52670479D01*
X167300755Y-52842501D01*
X167300756Y-52842503D01*
X167379929Y-53033643D01*
X167420290Y-53236554D01*
X167420290Y-53443446D01*
X167379929Y-53646357D01*
X167300756Y-53837497D01*
X167300755Y-53837499D01*
X167185814Y-54009521D01*
X167039521Y-54155814D01*
X166867499Y-54270755D01*
X166867498Y-54270756D01*
X166867497Y-54270756D01*
X166676357Y-54349929D01*
X166473446Y-54390290D01*
X166266554Y-54390290D01*
X166063643Y-54349929D01*
X165872503Y-54270756D01*
X165872502Y-54270756D01*
X165872501Y-54270755D01*
X165700479Y-54155814D01*
X165554186Y-54009521D01*
X165439245Y-53837499D01*
X165439244Y-53837497D01*
X165360071Y-53646357D01*
X165319710Y-53443446D01*
X165319710Y-53236554D01*
X165360071Y-53033643D01*
X165439244Y-52842503D01*
X165439245Y-52842501D01*
X165554186Y-52670479D01*
X165700479Y-52524186D01*
X165872501Y-52409245D01*
X165872503Y-52409244D01*
X166063643Y-52330071D01*
X166266554Y-52289710D01*
X166473446Y-52289710D01*
X166676357Y-52330071D01*
X166676357Y-52330071D01*
G37*
G36*
X143816357Y-52330071D02*
G01*
X144007497Y-52409244D01*
X144007499Y-52409245D01*
X144179521Y-52524186D01*
X144325814Y-52670479D01*
X144440755Y-52842501D01*
X144440756Y-52842503D01*
X144519929Y-53033643D01*
X144560290Y-53236554D01*
X144560290Y-53443446D01*
X144519929Y-53646357D01*
X144440756Y-53837497D01*
X144440755Y-53837499D01*
X144325814Y-54009521D01*
X144179521Y-54155814D01*
X144007499Y-54270755D01*
X144007498Y-54270756D01*
X144007497Y-54270756D01*
X143816357Y-54349929D01*
X143613446Y-54390290D01*
X143406554Y-54390290D01*
X143203643Y-54349929D01*
X143012503Y-54270756D01*
X143012502Y-54270756D01*
X143012501Y-54270755D01*
X142840479Y-54155814D01*
X142694186Y-54009521D01*
X142579245Y-53837499D01*
X142579244Y-53837497D01*
X142500071Y-53646357D01*
X142459710Y-53443446D01*
X142459710Y-53236554D01*
X142500071Y-53033643D01*
X142579244Y-52842503D01*
X142579245Y-52842501D01*
X142694186Y-52670479D01*
X142840479Y-52524186D01*
X143012501Y-52409245D01*
X143012503Y-52409244D01*
X143203643Y-52330071D01*
X143406554Y-52289710D01*
X143613446Y-52289710D01*
X143816357Y-52330071D01*
X143816357Y-52330071D01*
G37*
G36*
X146356357Y-52330071D02*
G01*
X146547497Y-52409244D01*
X146547499Y-52409245D01*
X146719521Y-52524186D01*
X146865814Y-52670479D01*
X146980755Y-52842501D01*
X146980756Y-52842503D01*
X147059929Y-53033643D01*
X147100290Y-53236554D01*
X147100290Y-53443446D01*
X147059929Y-53646357D01*
X146980756Y-53837497D01*
X146980755Y-53837499D01*
X146865814Y-54009521D01*
X146719521Y-54155814D01*
X146547499Y-54270755D01*
X146547498Y-54270756D01*
X146547497Y-54270756D01*
X146356357Y-54349929D01*
X146153446Y-54390290D01*
X145946554Y-54390290D01*
X145743643Y-54349929D01*
X145552503Y-54270756D01*
X145552502Y-54270756D01*
X145552501Y-54270755D01*
X145380479Y-54155814D01*
X145234186Y-54009521D01*
X145119245Y-53837499D01*
X145119244Y-53837497D01*
X145040071Y-53646357D01*
X144999710Y-53443446D01*
X144999710Y-53236554D01*
X145040071Y-53033643D01*
X145119244Y-52842503D01*
X145119245Y-52842501D01*
X145234186Y-52670479D01*
X145380479Y-52524186D01*
X145552501Y-52409245D01*
X145552503Y-52409244D01*
X145743643Y-52330071D01*
X145946554Y-52289710D01*
X146153446Y-52289710D01*
X146356357Y-52330071D01*
X146356357Y-52330071D01*
G37*
G36*
X148896357Y-52330071D02*
G01*
X149087497Y-52409244D01*
X149087499Y-52409245D01*
X149259521Y-52524186D01*
X149405814Y-52670479D01*
X149520755Y-52842501D01*
X149520756Y-52842503D01*
X149599929Y-53033643D01*
X149640290Y-53236554D01*
X149640290Y-53443446D01*
X149599929Y-53646357D01*
X149520756Y-53837497D01*
X149520755Y-53837499D01*
X149405814Y-54009521D01*
X149259521Y-54155814D01*
X149087499Y-54270755D01*
X149087498Y-54270756D01*
X149087497Y-54270756D01*
X148896357Y-54349929D01*
X148693446Y-54390290D01*
X148486554Y-54390290D01*
X148283643Y-54349929D01*
X148092503Y-54270756D01*
X148092502Y-54270756D01*
X148092501Y-54270755D01*
X147920479Y-54155814D01*
X147774186Y-54009521D01*
X147659245Y-53837499D01*
X147659244Y-53837497D01*
X147580071Y-53646357D01*
X147539710Y-53443446D01*
X147539710Y-53236554D01*
X147580071Y-53033643D01*
X147659244Y-52842503D01*
X147659245Y-52842501D01*
X147774186Y-52670479D01*
X147920479Y-52524186D01*
X148092501Y-52409245D01*
X148092503Y-52409244D01*
X148283643Y-52330071D01*
X148486554Y-52289710D01*
X148693446Y-52289710D01*
X148896357Y-52330071D01*
X148896357Y-52330071D01*
G37*
G36*
X141276357Y-52330071D02*
G01*
X141467497Y-52409244D01*
X141467499Y-52409245D01*
X141639521Y-52524186D01*
X141785814Y-52670479D01*
X141900755Y-52842501D01*
X141900756Y-52842503D01*
X141979929Y-53033643D01*
X142020290Y-53236554D01*
X142020290Y-53443446D01*
X141979929Y-53646357D01*
X141900756Y-53837497D01*
X141900755Y-53837499D01*
X141785814Y-54009521D01*
X141639521Y-54155814D01*
X141467499Y-54270755D01*
X141467498Y-54270756D01*
X141467497Y-54270756D01*
X141276357Y-54349929D01*
X141073446Y-54390290D01*
X140866554Y-54390290D01*
X140663643Y-54349929D01*
X140472503Y-54270756D01*
X140472502Y-54270756D01*
X140472501Y-54270755D01*
X140300479Y-54155814D01*
X140154186Y-54009521D01*
X140039245Y-53837499D01*
X140039244Y-53837497D01*
X139960071Y-53646357D01*
X139919710Y-53443446D01*
X139919710Y-53236554D01*
X139960071Y-53033643D01*
X140039244Y-52842503D01*
X140039245Y-52842501D01*
X140154186Y-52670479D01*
X140300479Y-52524186D01*
X140472501Y-52409245D01*
X140472503Y-52409244D01*
X140663643Y-52330071D01*
X140866554Y-52289710D01*
X141073446Y-52289710D01*
X141276357Y-52330071D01*
X141276357Y-52330071D01*
G37*
G36*
X164136357Y-52330071D02*
G01*
X164327497Y-52409244D01*
X164327499Y-52409245D01*
X164499521Y-52524186D01*
X164645814Y-52670479D01*
X164760755Y-52842501D01*
X164760756Y-52842503D01*
X164839929Y-53033643D01*
X164880290Y-53236554D01*
X164880290Y-53443446D01*
X164839929Y-53646357D01*
X164760756Y-53837497D01*
X164760755Y-53837499D01*
X164645814Y-54009521D01*
X164499521Y-54155814D01*
X164327499Y-54270755D01*
X164327498Y-54270756D01*
X164327497Y-54270756D01*
X164136357Y-54349929D01*
X163933446Y-54390290D01*
X163726554Y-54390290D01*
X163523643Y-54349929D01*
X163332503Y-54270756D01*
X163332502Y-54270756D01*
X163332501Y-54270755D01*
X163160479Y-54155814D01*
X163014186Y-54009521D01*
X162899245Y-53837499D01*
X162899244Y-53837497D01*
X162820071Y-53646357D01*
X162779710Y-53443446D01*
X162779710Y-53236554D01*
X162820071Y-53033643D01*
X162899244Y-52842503D01*
X162899245Y-52842501D01*
X163014186Y-52670479D01*
X163160479Y-52524186D01*
X163332501Y-52409245D01*
X163332503Y-52409244D01*
X163523643Y-52330071D01*
X163726554Y-52289710D01*
X163933446Y-52289710D01*
X164136357Y-52330071D01*
X164136357Y-52330071D01*
G37*
G36*
X146356357Y-49790071D02*
G01*
X146547497Y-49869244D01*
X146547499Y-49869245D01*
X146719521Y-49984186D01*
X146865814Y-50130479D01*
X146980755Y-50302501D01*
X146980756Y-50302503D01*
X147059929Y-50493643D01*
X147100290Y-50696554D01*
X147100290Y-50903446D01*
X147059929Y-51106357D01*
X146980756Y-51297497D01*
X146980755Y-51297499D01*
X146865814Y-51469521D01*
X146719521Y-51615814D01*
X146547499Y-51730755D01*
X146547498Y-51730756D01*
X146547497Y-51730756D01*
X146356357Y-51809929D01*
X146153446Y-51850290D01*
X145946554Y-51850290D01*
X145743643Y-51809929D01*
X145552503Y-51730756D01*
X145552502Y-51730756D01*
X145552501Y-51730755D01*
X145380479Y-51615814D01*
X145234186Y-51469521D01*
X145119245Y-51297499D01*
X145119244Y-51297497D01*
X145040071Y-51106357D01*
X144999710Y-50903446D01*
X144999710Y-50696554D01*
X145040071Y-50493643D01*
X145119244Y-50302503D01*
X145119245Y-50302501D01*
X145234186Y-50130479D01*
X145380479Y-49984186D01*
X145552501Y-49869245D01*
X145552503Y-49869244D01*
X145743643Y-49790071D01*
X145946554Y-49749710D01*
X146153446Y-49749710D01*
X146356357Y-49790071D01*
X146356357Y-49790071D01*
G37*
G36*
X161596357Y-49790071D02*
G01*
X161787497Y-49869244D01*
X161787499Y-49869245D01*
X161959521Y-49984186D01*
X162105814Y-50130479D01*
X162220755Y-50302501D01*
X162220756Y-50302503D01*
X162299929Y-50493643D01*
X162340290Y-50696554D01*
X162340290Y-50903446D01*
X162299929Y-51106357D01*
X162220756Y-51297497D01*
X162220755Y-51297499D01*
X162105814Y-51469521D01*
X161959521Y-51615814D01*
X161787499Y-51730755D01*
X161787498Y-51730756D01*
X161787497Y-51730756D01*
X161596357Y-51809929D01*
X161393446Y-51850290D01*
X161186554Y-51850290D01*
X160983643Y-51809929D01*
X160792503Y-51730756D01*
X160792502Y-51730756D01*
X160792501Y-51730755D01*
X160620479Y-51615814D01*
X160474186Y-51469521D01*
X160359245Y-51297499D01*
X160359244Y-51297497D01*
X160280071Y-51106357D01*
X160239710Y-50903446D01*
X160239710Y-50696554D01*
X160280071Y-50493643D01*
X160359244Y-50302503D01*
X160359245Y-50302501D01*
X160474186Y-50130479D01*
X160620479Y-49984186D01*
X160792501Y-49869245D01*
X160792503Y-49869244D01*
X160983643Y-49790071D01*
X161186554Y-49749710D01*
X161393446Y-49749710D01*
X161596357Y-49790071D01*
X161596357Y-49790071D01*
G37*
G36*
X159056357Y-49790071D02*
G01*
X159247497Y-49869244D01*
X159247499Y-49869245D01*
X159419521Y-49984186D01*
X159565814Y-50130479D01*
X159680755Y-50302501D01*
X159680756Y-50302503D01*
X159759929Y-50493643D01*
X159800290Y-50696554D01*
X159800290Y-50903446D01*
X159759929Y-51106357D01*
X159680756Y-51297497D01*
X159680755Y-51297499D01*
X159565814Y-51469521D01*
X159419521Y-51615814D01*
X159247499Y-51730755D01*
X159247498Y-51730756D01*
X159247497Y-51730756D01*
X159056357Y-51809929D01*
X158853446Y-51850290D01*
X158646554Y-51850290D01*
X158443643Y-51809929D01*
X158252503Y-51730756D01*
X158252502Y-51730756D01*
X158252501Y-51730755D01*
X158080479Y-51615814D01*
X157934186Y-51469521D01*
X157819245Y-51297499D01*
X157819244Y-51297497D01*
X157740071Y-51106357D01*
X157699710Y-50903446D01*
X157699710Y-50696554D01*
X157740071Y-50493643D01*
X157819244Y-50302503D01*
X157819245Y-50302501D01*
X157934186Y-50130479D01*
X158080479Y-49984186D01*
X158252501Y-49869245D01*
X158252503Y-49869244D01*
X158443643Y-49790071D01*
X158646554Y-49749710D01*
X158853446Y-49749710D01*
X159056357Y-49790071D01*
X159056357Y-49790071D01*
G37*
G36*
X156516357Y-49790071D02*
G01*
X156707497Y-49869244D01*
X156707499Y-49869245D01*
X156879521Y-49984186D01*
X157025814Y-50130479D01*
X157140755Y-50302501D01*
X157140756Y-50302503D01*
X157219929Y-50493643D01*
X157260290Y-50696554D01*
X157260290Y-50903446D01*
X157219929Y-51106357D01*
X157140756Y-51297497D01*
X157140755Y-51297499D01*
X157025814Y-51469521D01*
X156879521Y-51615814D01*
X156707499Y-51730755D01*
X156707498Y-51730756D01*
X156707497Y-51730756D01*
X156516357Y-51809929D01*
X156313446Y-51850290D01*
X156106554Y-51850290D01*
X155903643Y-51809929D01*
X155712503Y-51730756D01*
X155712502Y-51730756D01*
X155712501Y-51730755D01*
X155540479Y-51615814D01*
X155394186Y-51469521D01*
X155279245Y-51297499D01*
X155279244Y-51297497D01*
X155200071Y-51106357D01*
X155159710Y-50903446D01*
X155159710Y-50696554D01*
X155200071Y-50493643D01*
X155279244Y-50302503D01*
X155279245Y-50302501D01*
X155394186Y-50130479D01*
X155540479Y-49984186D01*
X155712501Y-49869245D01*
X155712503Y-49869244D01*
X155903643Y-49790071D01*
X156106554Y-49749710D01*
X156313446Y-49749710D01*
X156516357Y-49790071D01*
X156516357Y-49790071D01*
G37*
G36*
X164136357Y-49790071D02*
G01*
X164327497Y-49869244D01*
X164327499Y-49869245D01*
X164499521Y-49984186D01*
X164645814Y-50130479D01*
X164760755Y-50302501D01*
X164760756Y-50302503D01*
X164839929Y-50493643D01*
X164880290Y-50696554D01*
X164880290Y-50903446D01*
X164839929Y-51106357D01*
X164760756Y-51297497D01*
X164760755Y-51297499D01*
X164645814Y-51469521D01*
X164499521Y-51615814D01*
X164327499Y-51730755D01*
X164327498Y-51730756D01*
X164327497Y-51730756D01*
X164136357Y-51809929D01*
X163933446Y-51850290D01*
X163726554Y-51850290D01*
X163523643Y-51809929D01*
X163332503Y-51730756D01*
X163332502Y-51730756D01*
X163332501Y-51730755D01*
X163160479Y-51615814D01*
X163014186Y-51469521D01*
X162899245Y-51297499D01*
X162899244Y-51297497D01*
X162820071Y-51106357D01*
X162779710Y-50903446D01*
X162779710Y-50696554D01*
X162820071Y-50493643D01*
X162899244Y-50302503D01*
X162899245Y-50302501D01*
X163014186Y-50130479D01*
X163160479Y-49984186D01*
X163332501Y-49869245D01*
X163332503Y-49869244D01*
X163523643Y-49790071D01*
X163726554Y-49749710D01*
X163933446Y-49749710D01*
X164136357Y-49790071D01*
X164136357Y-49790071D01*
G37*
G36*
X151436357Y-49790071D02*
G01*
X151627497Y-49869244D01*
X151627499Y-49869245D01*
X151799521Y-49984186D01*
X151945814Y-50130479D01*
X152060755Y-50302501D01*
X152060756Y-50302503D01*
X152139929Y-50493643D01*
X152180290Y-50696554D01*
X152180290Y-50903446D01*
X152139929Y-51106357D01*
X152060756Y-51297497D01*
X152060755Y-51297499D01*
X151945814Y-51469521D01*
X151799521Y-51615814D01*
X151627499Y-51730755D01*
X151627498Y-51730756D01*
X151627497Y-51730756D01*
X151436357Y-51809929D01*
X151233446Y-51850290D01*
X151026554Y-51850290D01*
X150823643Y-51809929D01*
X150632503Y-51730756D01*
X150632502Y-51730756D01*
X150632501Y-51730755D01*
X150460479Y-51615814D01*
X150314186Y-51469521D01*
X150199245Y-51297499D01*
X150199244Y-51297497D01*
X150120071Y-51106357D01*
X150079710Y-50903446D01*
X150079710Y-50696554D01*
X150120071Y-50493643D01*
X150199244Y-50302503D01*
X150199245Y-50302501D01*
X150314186Y-50130479D01*
X150460479Y-49984186D01*
X150632501Y-49869245D01*
X150632503Y-49869244D01*
X150823643Y-49790071D01*
X151026554Y-49749710D01*
X151233446Y-49749710D01*
X151436357Y-49790071D01*
X151436357Y-49790071D01*
G37*
G36*
X148896357Y-49790071D02*
G01*
X149087497Y-49869244D01*
X149087499Y-49869245D01*
X149259521Y-49984186D01*
X149405814Y-50130479D01*
X149520755Y-50302501D01*
X149520756Y-50302503D01*
X149599929Y-50493643D01*
X149640290Y-50696554D01*
X149640290Y-50903446D01*
X149599929Y-51106357D01*
X149520756Y-51297497D01*
X149520755Y-51297499D01*
X149405814Y-51469521D01*
X149259521Y-51615814D01*
X149087499Y-51730755D01*
X149087498Y-51730756D01*
X149087497Y-51730756D01*
X148896357Y-51809929D01*
X148693446Y-51850290D01*
X148486554Y-51850290D01*
X148283643Y-51809929D01*
X148092503Y-51730756D01*
X148092502Y-51730756D01*
X148092501Y-51730755D01*
X147920479Y-51615814D01*
X147774186Y-51469521D01*
X147659245Y-51297499D01*
X147659244Y-51297497D01*
X147580071Y-51106357D01*
X147539710Y-50903446D01*
X147539710Y-50696554D01*
X147580071Y-50493643D01*
X147659244Y-50302503D01*
X147659245Y-50302501D01*
X147774186Y-50130479D01*
X147920479Y-49984186D01*
X148092501Y-49869245D01*
X148092503Y-49869244D01*
X148283643Y-49790071D01*
X148486554Y-49749710D01*
X148693446Y-49749710D01*
X148896357Y-49790071D01*
X148896357Y-49790071D01*
G37*
G36*
X143816357Y-49790071D02*
G01*
X144007497Y-49869244D01*
X144007499Y-49869245D01*
X144179521Y-49984186D01*
X144325814Y-50130479D01*
X144440755Y-50302501D01*
X144440756Y-50302503D01*
X144519929Y-50493643D01*
X144560290Y-50696554D01*
X144560290Y-50903446D01*
X144519929Y-51106357D01*
X144440756Y-51297497D01*
X144440755Y-51297499D01*
X144325814Y-51469521D01*
X144179521Y-51615814D01*
X144007499Y-51730755D01*
X144007498Y-51730756D01*
X144007497Y-51730756D01*
X143816357Y-51809929D01*
X143613446Y-51850290D01*
X143406554Y-51850290D01*
X143203643Y-51809929D01*
X143012503Y-51730756D01*
X143012502Y-51730756D01*
X143012501Y-51730755D01*
X142840479Y-51615814D01*
X142694186Y-51469521D01*
X142579245Y-51297499D01*
X142579244Y-51297497D01*
X142500071Y-51106357D01*
X142459710Y-50903446D01*
X142459710Y-50696554D01*
X142500071Y-50493643D01*
X142579244Y-50302503D01*
X142579245Y-50302501D01*
X142694186Y-50130479D01*
X142840479Y-49984186D01*
X143012501Y-49869245D01*
X143012503Y-49869244D01*
X143203643Y-49790071D01*
X143406554Y-49749710D01*
X143613446Y-49749710D01*
X143816357Y-49790071D01*
X143816357Y-49790071D01*
G37*
G36*
X141276357Y-49790071D02*
G01*
X141467497Y-49869244D01*
X141467499Y-49869245D01*
X141639521Y-49984186D01*
X141785814Y-50130479D01*
X141900755Y-50302501D01*
X141900756Y-50302503D01*
X141979929Y-50493643D01*
X142020290Y-50696554D01*
X142020290Y-50903446D01*
X141979929Y-51106357D01*
X141900756Y-51297497D01*
X141900755Y-51297499D01*
X141785814Y-51469521D01*
X141639521Y-51615814D01*
X141467499Y-51730755D01*
X141467498Y-51730756D01*
X141467497Y-51730756D01*
X141276357Y-51809929D01*
X141073446Y-51850290D01*
X140866554Y-51850290D01*
X140663643Y-51809929D01*
X140472503Y-51730756D01*
X140472502Y-51730756D01*
X140472501Y-51730755D01*
X140300479Y-51615814D01*
X140154186Y-51469521D01*
X140039245Y-51297499D01*
X140039244Y-51297497D01*
X139960071Y-51106357D01*
X139919710Y-50903446D01*
X139919710Y-50696554D01*
X139960071Y-50493643D01*
X140039244Y-50302503D01*
X140039245Y-50302501D01*
X140154186Y-50130479D01*
X140300479Y-49984186D01*
X140472501Y-49869245D01*
X140472503Y-49869244D01*
X140663643Y-49790071D01*
X140866554Y-49749710D01*
X141073446Y-49749710D01*
X141276357Y-49790071D01*
X141276357Y-49790071D01*
G37*
G36*
X153976357Y-49790071D02*
G01*
X154167497Y-49869244D01*
X154167499Y-49869245D01*
X154339521Y-49984186D01*
X154485814Y-50130479D01*
X154600755Y-50302501D01*
X154600756Y-50302503D01*
X154679929Y-50493643D01*
X154720290Y-50696554D01*
X154720290Y-50903446D01*
X154679929Y-51106357D01*
X154600756Y-51297497D01*
X154600755Y-51297499D01*
X154485814Y-51469521D01*
X154339521Y-51615814D01*
X154167499Y-51730755D01*
X154167498Y-51730756D01*
X154167497Y-51730756D01*
X153976357Y-51809929D01*
X153773446Y-51850290D01*
X153566554Y-51850290D01*
X153363643Y-51809929D01*
X153172503Y-51730756D01*
X153172502Y-51730756D01*
X153172501Y-51730755D01*
X153000479Y-51615814D01*
X152854186Y-51469521D01*
X152739245Y-51297499D01*
X152739244Y-51297497D01*
X152660071Y-51106357D01*
X152619710Y-50903446D01*
X152619710Y-50696554D01*
X152660071Y-50493643D01*
X152739244Y-50302503D01*
X152739245Y-50302501D01*
X152854186Y-50130479D01*
X153000479Y-49984186D01*
X153172501Y-49869245D01*
X153172503Y-49869244D01*
X153363643Y-49790071D01*
X153566554Y-49749710D01*
X153773446Y-49749710D01*
X153976357Y-49790071D01*
X153976357Y-49790071D01*
G37*
G36*
X166676357Y-49790071D02*
G01*
X166867497Y-49869244D01*
X166867499Y-49869245D01*
X167039521Y-49984186D01*
X167185814Y-50130479D01*
X167300755Y-50302501D01*
X167300756Y-50302503D01*
X167379929Y-50493643D01*
X167420290Y-50696554D01*
X167420290Y-50903446D01*
X167379929Y-51106357D01*
X167300756Y-51297497D01*
X167300755Y-51297499D01*
X167185814Y-51469521D01*
X167039521Y-51615814D01*
X166867499Y-51730755D01*
X166867498Y-51730756D01*
X166867497Y-51730756D01*
X166676357Y-51809929D01*
X166473446Y-51850290D01*
X166266554Y-51850290D01*
X166063643Y-51809929D01*
X165872503Y-51730756D01*
X165872502Y-51730756D01*
X165872501Y-51730755D01*
X165700479Y-51615814D01*
X165554186Y-51469521D01*
X165439245Y-51297499D01*
X165439244Y-51297497D01*
X165360071Y-51106357D01*
X165319710Y-50903446D01*
X165319710Y-50696554D01*
X165360071Y-50493643D01*
X165439244Y-50302503D01*
X165439245Y-50302501D01*
X165554186Y-50130479D01*
X165700479Y-49984186D01*
X165872501Y-49869245D01*
X165872503Y-49869244D01*
X166063643Y-49790071D01*
X166266554Y-49749710D01*
X166473446Y-49749710D01*
X166676357Y-49790071D01*
X166676357Y-49790071D01*
G37*
G36*
X138736357Y-49790071D02*
G01*
X138927497Y-49869244D01*
X138927499Y-49869245D01*
X139099521Y-49984186D01*
X139245814Y-50130479D01*
X139360755Y-50302501D01*
X139360756Y-50302503D01*
X139439929Y-50493643D01*
X139480290Y-50696554D01*
X139480290Y-50903446D01*
X139439929Y-51106357D01*
X139360756Y-51297497D01*
X139360755Y-51297499D01*
X139245814Y-51469521D01*
X139099521Y-51615814D01*
X138927499Y-51730755D01*
X138927498Y-51730756D01*
X138927497Y-51730756D01*
X138736357Y-51809929D01*
X138533446Y-51850290D01*
X138326554Y-51850290D01*
X138123643Y-51809929D01*
X137932503Y-51730756D01*
X137932502Y-51730756D01*
X137932501Y-51730755D01*
X137760479Y-51615814D01*
X137614186Y-51469521D01*
X137499245Y-51297499D01*
X137499244Y-51297497D01*
X137420071Y-51106357D01*
X137379710Y-50903446D01*
X137379710Y-50696554D01*
X137420071Y-50493643D01*
X137499244Y-50302503D01*
X137499245Y-50302501D01*
X137614186Y-50130479D01*
X137760479Y-49984186D01*
X137932501Y-49869245D01*
X137932503Y-49869244D01*
X138123643Y-49790071D01*
X138326554Y-49749710D01*
X138533446Y-49749710D01*
X138736357Y-49790071D01*
X138736357Y-49790071D01*
G37*
G36*
X161596357Y-47250071D02*
G01*
X161787497Y-47329244D01*
X161787499Y-47329245D01*
X161959521Y-47444186D01*
X162105814Y-47590479D01*
X162220755Y-47762501D01*
X162220756Y-47762503D01*
X162299929Y-47953643D01*
X162340290Y-48156554D01*
X162340290Y-48363446D01*
X162299929Y-48566357D01*
X162220756Y-48757497D01*
X162220755Y-48757499D01*
X162105814Y-48929521D01*
X161959521Y-49075814D01*
X161787499Y-49190755D01*
X161787498Y-49190756D01*
X161787497Y-49190756D01*
X161596357Y-49269929D01*
X161393446Y-49310290D01*
X161186554Y-49310290D01*
X160983643Y-49269929D01*
X160792503Y-49190756D01*
X160792502Y-49190756D01*
X160792501Y-49190755D01*
X160620479Y-49075814D01*
X160474186Y-48929521D01*
X160359245Y-48757499D01*
X160359244Y-48757497D01*
X160280071Y-48566357D01*
X160239710Y-48363446D01*
X160239710Y-48156554D01*
X160280071Y-47953643D01*
X160359244Y-47762503D01*
X160359245Y-47762501D01*
X160474186Y-47590479D01*
X160620479Y-47444186D01*
X160792501Y-47329245D01*
X160792503Y-47329244D01*
X160983643Y-47250071D01*
X161186554Y-47209710D01*
X161393446Y-47209710D01*
X161596357Y-47250071D01*
X161596357Y-47250071D01*
G37*
G36*
X148896357Y-47250071D02*
G01*
X149087497Y-47329244D01*
X149087499Y-47329245D01*
X149259521Y-47444186D01*
X149405814Y-47590479D01*
X149520755Y-47762501D01*
X149520756Y-47762503D01*
X149599929Y-47953643D01*
X149640290Y-48156554D01*
X149640290Y-48363446D01*
X149599929Y-48566357D01*
X149520756Y-48757497D01*
X149520755Y-48757499D01*
X149405814Y-48929521D01*
X149259521Y-49075814D01*
X149087499Y-49190755D01*
X149087498Y-49190756D01*
X149087497Y-49190756D01*
X148896357Y-49269929D01*
X148693446Y-49310290D01*
X148486554Y-49310290D01*
X148283643Y-49269929D01*
X148092503Y-49190756D01*
X148092502Y-49190756D01*
X148092501Y-49190755D01*
X147920479Y-49075814D01*
X147774186Y-48929521D01*
X147659245Y-48757499D01*
X147659244Y-48757497D01*
X147580071Y-48566357D01*
X147539710Y-48363446D01*
X147539710Y-48156554D01*
X147580071Y-47953643D01*
X147659244Y-47762503D01*
X147659245Y-47762501D01*
X147774186Y-47590479D01*
X147920479Y-47444186D01*
X148092501Y-47329245D01*
X148092503Y-47329244D01*
X148283643Y-47250071D01*
X148486554Y-47209710D01*
X148693446Y-47209710D01*
X148896357Y-47250071D01*
X148896357Y-47250071D01*
G37*
G36*
X146356357Y-47250071D02*
G01*
X146547497Y-47329244D01*
X146547499Y-47329245D01*
X146719521Y-47444186D01*
X146865814Y-47590479D01*
X146980755Y-47762501D01*
X146980756Y-47762503D01*
X147059929Y-47953643D01*
X147100290Y-48156554D01*
X147100290Y-48363446D01*
X147059929Y-48566357D01*
X146980756Y-48757497D01*
X146980755Y-48757499D01*
X146865814Y-48929521D01*
X146719521Y-49075814D01*
X146547499Y-49190755D01*
X146547498Y-49190756D01*
X146547497Y-49190756D01*
X146356357Y-49269929D01*
X146153446Y-49310290D01*
X145946554Y-49310290D01*
X145743643Y-49269929D01*
X145552503Y-49190756D01*
X145552502Y-49190756D01*
X145552501Y-49190755D01*
X145380479Y-49075814D01*
X145234186Y-48929521D01*
X145119245Y-48757499D01*
X145119244Y-48757497D01*
X145040071Y-48566357D01*
X144999710Y-48363446D01*
X144999710Y-48156554D01*
X145040071Y-47953643D01*
X145119244Y-47762503D01*
X145119245Y-47762501D01*
X145234186Y-47590479D01*
X145380479Y-47444186D01*
X145552501Y-47329245D01*
X145552503Y-47329244D01*
X145743643Y-47250071D01*
X145946554Y-47209710D01*
X146153446Y-47209710D01*
X146356357Y-47250071D01*
X146356357Y-47250071D01*
G37*
G36*
X151436357Y-47250071D02*
G01*
X151627497Y-47329244D01*
X151627499Y-47329245D01*
X151799521Y-47444186D01*
X151945814Y-47590479D01*
X152060755Y-47762501D01*
X152060756Y-47762503D01*
X152139929Y-47953643D01*
X152180290Y-48156554D01*
X152180290Y-48363446D01*
X152139929Y-48566357D01*
X152060756Y-48757497D01*
X152060755Y-48757499D01*
X151945814Y-48929521D01*
X151799521Y-49075814D01*
X151627499Y-49190755D01*
X151627498Y-49190756D01*
X151627497Y-49190756D01*
X151436357Y-49269929D01*
X151233446Y-49310290D01*
X151026554Y-49310290D01*
X150823643Y-49269929D01*
X150632503Y-49190756D01*
X150632502Y-49190756D01*
X150632501Y-49190755D01*
X150460479Y-49075814D01*
X150314186Y-48929521D01*
X150199245Y-48757499D01*
X150199244Y-48757497D01*
X150120071Y-48566357D01*
X150079710Y-48363446D01*
X150079710Y-48156554D01*
X150120071Y-47953643D01*
X150199244Y-47762503D01*
X150199245Y-47762501D01*
X150314186Y-47590479D01*
X150460479Y-47444186D01*
X150632501Y-47329245D01*
X150632503Y-47329244D01*
X150823643Y-47250071D01*
X151026554Y-47209710D01*
X151233446Y-47209710D01*
X151436357Y-47250071D01*
X151436357Y-47250071D01*
G37*
G36*
X153976357Y-47250071D02*
G01*
X154167497Y-47329244D01*
X154167499Y-47329245D01*
X154339521Y-47444186D01*
X154485814Y-47590479D01*
X154600755Y-47762501D01*
X154600756Y-47762503D01*
X154679929Y-47953643D01*
X154720290Y-48156554D01*
X154720290Y-48363446D01*
X154679929Y-48566357D01*
X154600756Y-48757497D01*
X154600755Y-48757499D01*
X154485814Y-48929521D01*
X154339521Y-49075814D01*
X154167499Y-49190755D01*
X154167498Y-49190756D01*
X154167497Y-49190756D01*
X153976357Y-49269929D01*
X153773446Y-49310290D01*
X153566554Y-49310290D01*
X153363643Y-49269929D01*
X153172503Y-49190756D01*
X153172502Y-49190756D01*
X153172501Y-49190755D01*
X153000479Y-49075814D01*
X152854186Y-48929521D01*
X152739245Y-48757499D01*
X152739244Y-48757497D01*
X152660071Y-48566357D01*
X152619710Y-48363446D01*
X152619710Y-48156554D01*
X152660071Y-47953643D01*
X152739244Y-47762503D01*
X152739245Y-47762501D01*
X152854186Y-47590479D01*
X153000479Y-47444186D01*
X153172501Y-47329245D01*
X153172503Y-47329244D01*
X153363643Y-47250071D01*
X153566554Y-47209710D01*
X153773446Y-47209710D01*
X153976357Y-47250071D01*
X153976357Y-47250071D01*
G37*
G36*
X156516357Y-47250071D02*
G01*
X156707497Y-47329244D01*
X156707499Y-47329245D01*
X156879521Y-47444186D01*
X157025814Y-47590479D01*
X157140755Y-47762501D01*
X157140756Y-47762503D01*
X157219929Y-47953643D01*
X157260290Y-48156554D01*
X157260290Y-48363446D01*
X157219929Y-48566357D01*
X157140756Y-48757497D01*
X157140755Y-48757499D01*
X157025814Y-48929521D01*
X156879521Y-49075814D01*
X156707499Y-49190755D01*
X156707498Y-49190756D01*
X156707497Y-49190756D01*
X156516357Y-49269929D01*
X156313446Y-49310290D01*
X156106554Y-49310290D01*
X155903643Y-49269929D01*
X155712503Y-49190756D01*
X155712502Y-49190756D01*
X155712501Y-49190755D01*
X155540479Y-49075814D01*
X155394186Y-48929521D01*
X155279245Y-48757499D01*
X155279244Y-48757497D01*
X155200071Y-48566357D01*
X155159710Y-48363446D01*
X155159710Y-48156554D01*
X155200071Y-47953643D01*
X155279244Y-47762503D01*
X155279245Y-47762501D01*
X155394186Y-47590479D01*
X155540479Y-47444186D01*
X155712501Y-47329245D01*
X155712503Y-47329244D01*
X155903643Y-47250071D01*
X156106554Y-47209710D01*
X156313446Y-47209710D01*
X156516357Y-47250071D01*
X156516357Y-47250071D01*
G37*
G36*
X159056357Y-47250071D02*
G01*
X159247497Y-47329244D01*
X159247499Y-47329245D01*
X159419521Y-47444186D01*
X159565814Y-47590479D01*
X159680755Y-47762501D01*
X159680756Y-47762503D01*
X159759929Y-47953643D01*
X159800290Y-48156554D01*
X159800290Y-48363446D01*
X159759929Y-48566357D01*
X159680756Y-48757497D01*
X159680755Y-48757499D01*
X159565814Y-48929521D01*
X159419521Y-49075814D01*
X159247499Y-49190755D01*
X159247498Y-49190756D01*
X159247497Y-49190756D01*
X159056357Y-49269929D01*
X158853446Y-49310290D01*
X158646554Y-49310290D01*
X158443643Y-49269929D01*
X158252503Y-49190756D01*
X158252502Y-49190756D01*
X158252501Y-49190755D01*
X158080479Y-49075814D01*
X157934186Y-48929521D01*
X157819245Y-48757499D01*
X157819244Y-48757497D01*
X157740071Y-48566357D01*
X157699710Y-48363446D01*
X157699710Y-48156554D01*
X157740071Y-47953643D01*
X157819244Y-47762503D01*
X157819245Y-47762501D01*
X157934186Y-47590479D01*
X158080479Y-47444186D01*
X158252501Y-47329245D01*
X158252503Y-47329244D01*
X158443643Y-47250071D01*
X158646554Y-47209710D01*
X158853446Y-47209710D01*
X159056357Y-47250071D01*
X159056357Y-47250071D01*
G37*
G36*
X164136357Y-47250071D02*
G01*
X164327497Y-47329244D01*
X164327499Y-47329245D01*
X164499521Y-47444186D01*
X164645814Y-47590479D01*
X164760755Y-47762501D01*
X164760756Y-47762503D01*
X164839929Y-47953643D01*
X164880290Y-48156554D01*
X164880290Y-48363446D01*
X164839929Y-48566357D01*
X164760756Y-48757497D01*
X164760755Y-48757499D01*
X164645814Y-48929521D01*
X164499521Y-49075814D01*
X164327499Y-49190755D01*
X164327498Y-49190756D01*
X164327497Y-49190756D01*
X164136357Y-49269929D01*
X163933446Y-49310290D01*
X163726554Y-49310290D01*
X163523643Y-49269929D01*
X163332503Y-49190756D01*
X163332502Y-49190756D01*
X163332501Y-49190755D01*
X163160479Y-49075814D01*
X163014186Y-48929521D01*
X162899245Y-48757499D01*
X162899244Y-48757497D01*
X162820071Y-48566357D01*
X162779710Y-48363446D01*
X162779710Y-48156554D01*
X162820071Y-47953643D01*
X162899244Y-47762503D01*
X162899245Y-47762501D01*
X163014186Y-47590479D01*
X163160479Y-47444186D01*
X163332501Y-47329245D01*
X163332503Y-47329244D01*
X163523643Y-47250071D01*
X163726554Y-47209710D01*
X163933446Y-47209710D01*
X164136357Y-47250071D01*
X164136357Y-47250071D01*
G37*
G36*
X166676357Y-47250071D02*
G01*
X166867497Y-47329244D01*
X166867499Y-47329245D01*
X167039521Y-47444186D01*
X167185814Y-47590479D01*
X167300755Y-47762501D01*
X167300756Y-47762503D01*
X167379929Y-47953643D01*
X167420290Y-48156554D01*
X167420290Y-48363446D01*
X167379929Y-48566357D01*
X167300756Y-48757497D01*
X167300755Y-48757499D01*
X167185814Y-48929521D01*
X167039521Y-49075814D01*
X166867499Y-49190755D01*
X166867498Y-49190756D01*
X166867497Y-49190756D01*
X166676357Y-49269929D01*
X166473446Y-49310290D01*
X166266554Y-49310290D01*
X166063643Y-49269929D01*
X165872503Y-49190756D01*
X165872502Y-49190756D01*
X165872501Y-49190755D01*
X165700479Y-49075814D01*
X165554186Y-48929521D01*
X165439245Y-48757499D01*
X165439244Y-48757497D01*
X165360071Y-48566357D01*
X165319710Y-48363446D01*
X165319710Y-48156554D01*
X165360071Y-47953643D01*
X165439244Y-47762503D01*
X165439245Y-47762501D01*
X165554186Y-47590479D01*
X165700479Y-47444186D01*
X165872501Y-47329245D01*
X165872503Y-47329244D01*
X166063643Y-47250071D01*
X166266554Y-47209710D01*
X166473446Y-47209710D01*
X166676357Y-47250071D01*
X166676357Y-47250071D01*
G37*
G36*
X148896357Y-44710071D02*
G01*
X149087497Y-44789244D01*
X149087499Y-44789245D01*
X149259521Y-44904186D01*
X149405814Y-45050479D01*
X149520755Y-45222501D01*
X149520756Y-45222503D01*
X149599929Y-45413643D01*
X149640290Y-45616554D01*
X149640290Y-45823446D01*
X149599929Y-46026357D01*
X149554596Y-46135800D01*
X149520755Y-46217499D01*
X149405814Y-46389521D01*
X149259521Y-46535814D01*
X149087499Y-46650755D01*
X149087498Y-46650756D01*
X149087497Y-46650756D01*
X148896357Y-46729929D01*
X148693446Y-46770290D01*
X148486554Y-46770290D01*
X148283643Y-46729929D01*
X148092503Y-46650756D01*
X148092502Y-46650756D01*
X148092501Y-46650755D01*
X147920479Y-46535814D01*
X147774186Y-46389521D01*
X147659245Y-46217499D01*
X147625404Y-46135800D01*
X147580071Y-46026357D01*
X147539710Y-45823446D01*
X147539710Y-45616554D01*
X147580071Y-45413643D01*
X147659244Y-45222503D01*
X147659245Y-45222501D01*
X147774186Y-45050479D01*
X147920479Y-44904186D01*
X148092501Y-44789245D01*
X148092503Y-44789244D01*
X148283643Y-44710071D01*
X148486554Y-44669710D01*
X148693446Y-44669710D01*
X148896357Y-44710071D01*
X148896357Y-44710071D01*
G37*
G36*
X164136357Y-44710071D02*
G01*
X164327497Y-44789244D01*
X164327499Y-44789245D01*
X164499521Y-44904186D01*
X164645814Y-45050479D01*
X164760755Y-45222501D01*
X164760756Y-45222503D01*
X164839929Y-45413643D01*
X164880290Y-45616554D01*
X164880290Y-45823446D01*
X164839929Y-46026357D01*
X164794596Y-46135800D01*
X164760755Y-46217499D01*
X164645814Y-46389521D01*
X164499521Y-46535814D01*
X164327499Y-46650755D01*
X164327498Y-46650756D01*
X164327497Y-46650756D01*
X164136357Y-46729929D01*
X163933446Y-46770290D01*
X163726554Y-46770290D01*
X163523643Y-46729929D01*
X163332503Y-46650756D01*
X163332502Y-46650756D01*
X163332501Y-46650755D01*
X163160479Y-46535814D01*
X163014186Y-46389521D01*
X162899245Y-46217499D01*
X162865404Y-46135800D01*
X162820071Y-46026357D01*
X162779710Y-45823446D01*
X162779710Y-45616554D01*
X162820071Y-45413643D01*
X162899244Y-45222503D01*
X162899245Y-45222501D01*
X163014186Y-45050479D01*
X163160479Y-44904186D01*
X163332501Y-44789245D01*
X163332503Y-44789244D01*
X163523643Y-44710071D01*
X163726554Y-44669710D01*
X163933446Y-44669710D01*
X164136357Y-44710071D01*
X164136357Y-44710071D01*
G37*
G36*
X146356357Y-44710071D02*
G01*
X146547497Y-44789244D01*
X146547499Y-44789245D01*
X146719521Y-44904186D01*
X146865814Y-45050479D01*
X146980755Y-45222501D01*
X146980756Y-45222503D01*
X147059929Y-45413643D01*
X147100290Y-45616554D01*
X147100290Y-45823446D01*
X147059929Y-46026357D01*
X147014596Y-46135800D01*
X146980755Y-46217499D01*
X146865814Y-46389521D01*
X146719521Y-46535814D01*
X146547499Y-46650755D01*
X146547498Y-46650756D01*
X146547497Y-46650756D01*
X146356357Y-46729929D01*
X146153446Y-46770290D01*
X145946554Y-46770290D01*
X145743643Y-46729929D01*
X145552503Y-46650756D01*
X145552502Y-46650756D01*
X145552501Y-46650755D01*
X145380479Y-46535814D01*
X145234186Y-46389521D01*
X145119245Y-46217499D01*
X145085404Y-46135800D01*
X145040071Y-46026357D01*
X144999710Y-45823446D01*
X144999710Y-45616554D01*
X145040071Y-45413643D01*
X145119244Y-45222503D01*
X145119245Y-45222501D01*
X145234186Y-45050479D01*
X145380479Y-44904186D01*
X145552501Y-44789245D01*
X145552503Y-44789244D01*
X145743643Y-44710071D01*
X145946554Y-44669710D01*
X146153446Y-44669710D01*
X146356357Y-44710071D01*
X146356357Y-44710071D01*
G37*
G36*
X161596357Y-44710071D02*
G01*
X161787497Y-44789244D01*
X161787499Y-44789245D01*
X161959521Y-44904186D01*
X162105814Y-45050479D01*
X162220755Y-45222501D01*
X162220756Y-45222503D01*
X162299929Y-45413643D01*
X162340290Y-45616554D01*
X162340290Y-45823446D01*
X162299929Y-46026357D01*
X162254596Y-46135800D01*
X162220755Y-46217499D01*
X162105814Y-46389521D01*
X161959521Y-46535814D01*
X161787499Y-46650755D01*
X161787498Y-46650756D01*
X161787497Y-46650756D01*
X161596357Y-46729929D01*
X161393446Y-46770290D01*
X161186554Y-46770290D01*
X160983643Y-46729929D01*
X160792503Y-46650756D01*
X160792502Y-46650756D01*
X160792501Y-46650755D01*
X160620479Y-46535814D01*
X160474186Y-46389521D01*
X160359245Y-46217499D01*
X160325404Y-46135800D01*
X160280071Y-46026357D01*
X160239710Y-45823446D01*
X160239710Y-45616554D01*
X160280071Y-45413643D01*
X160359244Y-45222503D01*
X160359245Y-45222501D01*
X160474186Y-45050479D01*
X160620479Y-44904186D01*
X160792501Y-44789245D01*
X160792503Y-44789244D01*
X160983643Y-44710071D01*
X161186554Y-44669710D01*
X161393446Y-44669710D01*
X161596357Y-44710071D01*
X161596357Y-44710071D01*
G37*
G36*
X166676357Y-44710071D02*
G01*
X166867497Y-44789244D01*
X166867499Y-44789245D01*
X167039521Y-44904186D01*
X167185814Y-45050479D01*
X167300755Y-45222501D01*
X167300756Y-45222503D01*
X167379929Y-45413643D01*
X167420290Y-45616554D01*
X167420290Y-45823446D01*
X167379929Y-46026357D01*
X167334596Y-46135800D01*
X167300755Y-46217499D01*
X167185814Y-46389521D01*
X167039521Y-46535814D01*
X166867499Y-46650755D01*
X166867498Y-46650756D01*
X166867497Y-46650756D01*
X166676357Y-46729929D01*
X166473446Y-46770290D01*
X166266554Y-46770290D01*
X166063643Y-46729929D01*
X165872503Y-46650756D01*
X165872502Y-46650756D01*
X165872501Y-46650755D01*
X165700479Y-46535814D01*
X165554186Y-46389521D01*
X165439245Y-46217499D01*
X165405404Y-46135800D01*
X165360071Y-46026357D01*
X165319710Y-45823446D01*
X165319710Y-45616554D01*
X165360071Y-45413643D01*
X165439244Y-45222503D01*
X165439245Y-45222501D01*
X165554186Y-45050479D01*
X165700479Y-44904186D01*
X165872501Y-44789245D01*
X165872503Y-44789244D01*
X166063643Y-44710071D01*
X166266554Y-44669710D01*
X166473446Y-44669710D01*
X166676357Y-44710071D01*
X166676357Y-44710071D01*
G37*
G36*
X151436357Y-44710071D02*
G01*
X151627497Y-44789244D01*
X151627499Y-44789245D01*
X151799521Y-44904186D01*
X151945814Y-45050479D01*
X152060755Y-45222501D01*
X152060756Y-45222503D01*
X152139929Y-45413643D01*
X152180290Y-45616554D01*
X152180290Y-45823446D01*
X152139929Y-46026357D01*
X152094596Y-46135800D01*
X152060755Y-46217499D01*
X151945814Y-46389521D01*
X151799521Y-46535814D01*
X151627499Y-46650755D01*
X151627498Y-46650756D01*
X151627497Y-46650756D01*
X151436357Y-46729929D01*
X151233446Y-46770290D01*
X151026554Y-46770290D01*
X150823643Y-46729929D01*
X150632503Y-46650756D01*
X150632502Y-46650756D01*
X150632501Y-46650755D01*
X150460479Y-46535814D01*
X150314186Y-46389521D01*
X150199245Y-46217499D01*
X150165404Y-46135800D01*
X150120071Y-46026357D01*
X150079710Y-45823446D01*
X150079710Y-45616554D01*
X150120071Y-45413643D01*
X150199244Y-45222503D01*
X150199245Y-45222501D01*
X150314186Y-45050479D01*
X150460479Y-44904186D01*
X150632501Y-44789245D01*
X150632503Y-44789244D01*
X150823643Y-44710071D01*
X151026554Y-44669710D01*
X151233446Y-44669710D01*
X151436357Y-44710071D01*
X151436357Y-44710071D01*
G37*
G36*
X153976357Y-44710071D02*
G01*
X154167497Y-44789244D01*
X154167499Y-44789245D01*
X154339521Y-44904186D01*
X154485814Y-45050479D01*
X154600755Y-45222501D01*
X154600756Y-45222503D01*
X154679929Y-45413643D01*
X154720290Y-45616554D01*
X154720290Y-45823446D01*
X154679929Y-46026357D01*
X154634596Y-46135800D01*
X154600755Y-46217499D01*
X154485814Y-46389521D01*
X154339521Y-46535814D01*
X154167499Y-46650755D01*
X154167498Y-46650756D01*
X154167497Y-46650756D01*
X153976357Y-46729929D01*
X153773446Y-46770290D01*
X153566554Y-46770290D01*
X153363643Y-46729929D01*
X153172503Y-46650756D01*
X153172502Y-46650756D01*
X153172501Y-46650755D01*
X153000479Y-46535814D01*
X152854186Y-46389521D01*
X152739245Y-46217499D01*
X152705404Y-46135800D01*
X152660071Y-46026357D01*
X152619710Y-45823446D01*
X152619710Y-45616554D01*
X152660071Y-45413643D01*
X152739244Y-45222503D01*
X152739245Y-45222501D01*
X152854186Y-45050479D01*
X153000479Y-44904186D01*
X153172501Y-44789245D01*
X153172503Y-44789244D01*
X153363643Y-44710071D01*
X153566554Y-44669710D01*
X153773446Y-44669710D01*
X153976357Y-44710071D01*
X153976357Y-44710071D01*
G37*
G36*
X156516357Y-44710071D02*
G01*
X156707497Y-44789244D01*
X156707499Y-44789245D01*
X156879521Y-44904186D01*
X157025814Y-45050479D01*
X157140755Y-45222501D01*
X157140756Y-45222503D01*
X157219929Y-45413643D01*
X157260290Y-45616554D01*
X157260290Y-45823446D01*
X157219929Y-46026357D01*
X157174596Y-46135800D01*
X157140755Y-46217499D01*
X157025814Y-46389521D01*
X156879521Y-46535814D01*
X156707499Y-46650755D01*
X156707498Y-46650756D01*
X156707497Y-46650756D01*
X156516357Y-46729929D01*
X156313446Y-46770290D01*
X156106554Y-46770290D01*
X155903643Y-46729929D01*
X155712503Y-46650756D01*
X155712502Y-46650756D01*
X155712501Y-46650755D01*
X155540479Y-46535814D01*
X155394186Y-46389521D01*
X155279245Y-46217499D01*
X155245404Y-46135800D01*
X155200071Y-46026357D01*
X155159710Y-45823446D01*
X155159710Y-45616554D01*
X155200071Y-45413643D01*
X155279244Y-45222503D01*
X155279245Y-45222501D01*
X155394186Y-45050479D01*
X155540479Y-44904186D01*
X155712501Y-44789245D01*
X155712503Y-44789244D01*
X155903643Y-44710071D01*
X156106554Y-44669710D01*
X156313446Y-44669710D01*
X156516357Y-44710071D01*
X156516357Y-44710071D01*
G37*
G36*
X159056357Y-44710071D02*
G01*
X159247497Y-44789244D01*
X159247499Y-44789245D01*
X159419521Y-44904186D01*
X159565814Y-45050479D01*
X159680755Y-45222501D01*
X159680756Y-45222503D01*
X159759929Y-45413643D01*
X159800290Y-45616554D01*
X159800290Y-45823446D01*
X159759929Y-46026357D01*
X159714596Y-46135800D01*
X159680755Y-46217499D01*
X159565814Y-46389521D01*
X159419521Y-46535814D01*
X159247499Y-46650755D01*
X159247498Y-46650756D01*
X159247497Y-46650756D01*
X159056357Y-46729929D01*
X158853446Y-46770290D01*
X158646554Y-46770290D01*
X158443643Y-46729929D01*
X158252503Y-46650756D01*
X158252502Y-46650756D01*
X158252501Y-46650755D01*
X158080479Y-46535814D01*
X157934186Y-46389521D01*
X157819245Y-46217499D01*
X157785404Y-46135800D01*
X157740071Y-46026357D01*
X157699710Y-45823446D01*
X157699710Y-45616554D01*
X157740071Y-45413643D01*
X157819244Y-45222503D01*
X157819245Y-45222501D01*
X157934186Y-45050479D01*
X158080479Y-44904186D01*
X158252501Y-44789245D01*
X158252503Y-44789244D01*
X158443643Y-44710071D01*
X158646554Y-44669710D01*
X158853446Y-44669710D01*
X159056357Y-44710071D01*
X159056357Y-44710071D01*
G37*
G36*
X140471587Y-44047234D02*
G01*
X140556488Y-44072989D01*
X140641389Y-44098743D01*
X140797877Y-44182387D01*
X140935043Y-44294957D01*
X141047613Y-44432123D01*
X141131257Y-44588610D01*
X141155858Y-44669710D01*
X141182766Y-44758412D01*
X141195800Y-44890751D01*
X141195800Y-45279248D01*
X141182766Y-45411587D01*
X141182142Y-45413643D01*
X141131257Y-45581390D01*
X141047613Y-45737877D01*
X140935043Y-45875043D01*
X140797877Y-45987613D01*
X140641390Y-46071257D01*
X140556866Y-46096897D01*
X140471588Y-46122766D01*
X140295000Y-46140158D01*
X140118413Y-46122766D01*
X140033135Y-46096897D01*
X139948611Y-46071257D01*
X139792124Y-45987613D01*
X139689875Y-45903699D01*
X139654957Y-45875043D01*
X139542389Y-45737879D01*
X139542387Y-45737876D01*
X139458743Y-45581390D01*
X139432988Y-45496488D01*
X139407234Y-45411588D01*
X139394200Y-45279249D01*
X139394200Y-44890752D01*
X139407234Y-44758413D01*
X139458743Y-44588612D01*
X139458743Y-44588611D01*
X139542387Y-44432123D01*
X139654957Y-44294957D01*
X139792123Y-44182387D01*
X139948610Y-44098743D01*
X140033511Y-44072989D01*
X140118412Y-44047234D01*
X140295000Y-44029842D01*
X140471587Y-44047234D01*
X140471587Y-44047234D01*
G37*
G36*
X138510905Y-44038849D02*
G01*
X138553943Y-44051905D01*
X138593602Y-44073103D01*
X138628366Y-44101634D01*
X138656897Y-44136398D01*
X138678095Y-44176057D01*
X138691151Y-44219095D01*
X138695800Y-44266301D01*
X138695800Y-45903699D01*
X138691151Y-45950905D01*
X138678095Y-45993943D01*
X138656897Y-46033602D01*
X138628366Y-46068366D01*
X138593602Y-46096897D01*
X138553943Y-46118095D01*
X138510905Y-46131151D01*
X138463699Y-46135800D01*
X137126301Y-46135800D01*
X137079095Y-46131151D01*
X137036057Y-46118095D01*
X136996398Y-46096897D01*
X136961634Y-46068366D01*
X136933103Y-46033602D01*
X136911905Y-45993943D01*
X136898849Y-45950905D01*
X136894200Y-45903699D01*
X136894200Y-44266301D01*
X136898849Y-44219095D01*
X136911905Y-44176057D01*
X136933103Y-44136398D01*
X136961634Y-44101634D01*
X136996398Y-44073103D01*
X137036057Y-44051905D01*
X137079095Y-44038849D01*
X137126301Y-44034200D01*
X138463699Y-44034200D01*
X138510905Y-44038849D01*
X138510905Y-44038849D01*
G37*
M02*
