G04 #@! TF.GenerationSoftware,KiCad,Pcbnew,(5.1.4)-1*
G04 #@! TF.CreationDate,2020-02-11T18:39:35-06:00*
G04 #@! TF.ProjectId,ArduinoBreakoutboardControl,41726475-696e-46f4-9272-65616b6f7574,rev?*
G04 #@! TF.SameCoordinates,Original*
G04 #@! TF.FileFunction,Legend,Top*
G04 #@! TF.FilePolarity,Positive*
%FSLAX46Y46*%
G04 Gerber Fmt 4.6, Leading zero omitted, Abs format (unit mm)*
G04 Created by KiCad (PCBNEW (5.1.4)-1) date 2020-02-11 18:39:35*
%MOMM*%
%LPD*%
G04 APERTURE LIST*
%ADD10C,0.150000*%
%ADD11C,0.125000*%
%ADD12C,0.120000*%
G04 APERTURE END LIST*
D10*
X137311190Y-42608500D02*
X137250714Y-42578261D01*
X137160000Y-42578261D01*
X137069285Y-42608500D01*
X137008809Y-42668976D01*
X136978571Y-42729452D01*
X136948333Y-42850404D01*
X136948333Y-42941119D01*
X136978571Y-43062071D01*
X137008809Y-43122547D01*
X137069285Y-43183023D01*
X137160000Y-43213261D01*
X137220476Y-43213261D01*
X137311190Y-43183023D01*
X137341428Y-43152785D01*
X137341428Y-42941119D01*
X137220476Y-42941119D01*
X137613571Y-43213261D02*
X137613571Y-42578261D01*
X137976428Y-43213261D01*
X137976428Y-42578261D01*
X138278809Y-43213261D02*
X138278809Y-42578261D01*
X138430000Y-42578261D01*
X138520714Y-42608500D01*
X138581190Y-42668976D01*
X138611428Y-42729452D01*
X138641666Y-42850404D01*
X138641666Y-42941119D01*
X138611428Y-43062071D01*
X138581190Y-43122547D01*
X138520714Y-43183023D01*
X138430000Y-43213261D01*
X138278809Y-43213261D01*
X139458095Y-42578261D02*
X139155714Y-42578261D01*
X139125476Y-42880642D01*
X139155714Y-42850404D01*
X139216190Y-42820166D01*
X139367380Y-42820166D01*
X139427857Y-42850404D01*
X139458095Y-42880642D01*
X139488333Y-42941119D01*
X139488333Y-43092309D01*
X139458095Y-43152785D01*
X139427857Y-43183023D01*
X139367380Y-43213261D01*
X139216190Y-43213261D01*
X139155714Y-43183023D01*
X139125476Y-43152785D01*
X139669761Y-42578261D02*
X139881428Y-43213261D01*
X140093095Y-42578261D01*
X140395476Y-43213261D02*
X140335000Y-43183023D01*
X140304761Y-43152785D01*
X140274523Y-43092309D01*
X140274523Y-42910880D01*
X140304761Y-42850404D01*
X140335000Y-42820166D01*
X140395476Y-42789928D01*
X140486190Y-42789928D01*
X140546666Y-42820166D01*
X140576904Y-42850404D01*
X140607142Y-42910880D01*
X140607142Y-43092309D01*
X140576904Y-43152785D01*
X140546666Y-43183023D01*
X140486190Y-43213261D01*
X140395476Y-43213261D01*
X141151428Y-42789928D02*
X141151428Y-43213261D01*
X140879285Y-42789928D02*
X140879285Y-43122547D01*
X140909523Y-43183023D01*
X140970000Y-43213261D01*
X141060714Y-43213261D01*
X141121190Y-43183023D01*
X141151428Y-43152785D01*
X141363095Y-42789928D02*
X141605000Y-42789928D01*
X141453809Y-42578261D02*
X141453809Y-43122547D01*
X141484047Y-43183023D01*
X141544523Y-43213261D01*
X141605000Y-43213261D01*
X169922976Y-83064047D02*
X169892738Y-83154761D01*
X169892738Y-83305952D01*
X169922976Y-83366428D01*
X169953214Y-83396666D01*
X170013690Y-83426904D01*
X170074166Y-83426904D01*
X170134642Y-83396666D01*
X170164880Y-83366428D01*
X170195119Y-83305952D01*
X170225357Y-83185000D01*
X170255595Y-83124523D01*
X170285833Y-83094285D01*
X170346309Y-83064047D01*
X170406785Y-83064047D01*
X170467261Y-83094285D01*
X170497500Y-83124523D01*
X170527738Y-83185000D01*
X170527738Y-83336190D01*
X170497500Y-83426904D01*
X169953214Y-84061904D02*
X169922976Y-84031666D01*
X169892738Y-83940952D01*
X169892738Y-83880476D01*
X169922976Y-83789761D01*
X169983452Y-83729285D01*
X170043928Y-83699047D01*
X170164880Y-83668809D01*
X170255595Y-83668809D01*
X170376547Y-83699047D01*
X170437023Y-83729285D01*
X170497500Y-83789761D01*
X170527738Y-83880476D01*
X170527738Y-83940952D01*
X170497500Y-84031666D01*
X170467261Y-84061904D01*
X169892738Y-84636428D02*
X169892738Y-84334047D01*
X170527738Y-84334047D01*
X169922976Y-80254928D02*
X169892738Y-80345642D01*
X169892738Y-80496833D01*
X169922976Y-80557309D01*
X169953214Y-80587547D01*
X170013690Y-80617785D01*
X170074166Y-80617785D01*
X170134642Y-80587547D01*
X170164880Y-80557309D01*
X170195119Y-80496833D01*
X170225357Y-80375880D01*
X170255595Y-80315404D01*
X170285833Y-80285166D01*
X170346309Y-80254928D01*
X170406785Y-80254928D01*
X170467261Y-80285166D01*
X170497500Y-80315404D01*
X170527738Y-80375880D01*
X170527738Y-80527071D01*
X170497500Y-80617785D01*
X169892738Y-80889928D02*
X170527738Y-80889928D01*
X170527738Y-81041119D01*
X170497500Y-81131833D01*
X170437023Y-81192309D01*
X170376547Y-81222547D01*
X170255595Y-81252785D01*
X170164880Y-81252785D01*
X170043928Y-81222547D01*
X169983452Y-81192309D01*
X169922976Y-81131833D01*
X169892738Y-81041119D01*
X169892738Y-80889928D01*
X170074166Y-81494690D02*
X170074166Y-81797071D01*
X169892738Y-81434214D02*
X170527738Y-81645880D01*
X169892738Y-81857547D01*
X132770571Y-76636571D02*
X132818190Y-76493714D01*
X132865809Y-76446095D01*
X132961047Y-76398476D01*
X133103904Y-76398476D01*
X133199142Y-76446095D01*
X133246761Y-76493714D01*
X133294380Y-76588952D01*
X133294380Y-76969904D01*
X132294380Y-76969904D01*
X132294380Y-76636571D01*
X132342000Y-76541333D01*
X132389619Y-76493714D01*
X132484857Y-76446095D01*
X132580095Y-76446095D01*
X132675333Y-76493714D01*
X132722952Y-76541333D01*
X132770571Y-76636571D01*
X132770571Y-76969904D01*
X133008666Y-74406095D02*
X133008666Y-73929904D01*
X133294380Y-74501333D02*
X132294380Y-74168000D01*
X133294380Y-73834666D01*
X132770571Y-90606571D02*
X132818190Y-90463714D01*
X132865809Y-90416095D01*
X132961047Y-90368476D01*
X133103904Y-90368476D01*
X133199142Y-90416095D01*
X133246761Y-90463714D01*
X133294380Y-90558952D01*
X133294380Y-90939904D01*
X132294380Y-90939904D01*
X132294380Y-90606571D01*
X132342000Y-90511333D01*
X132389619Y-90463714D01*
X132484857Y-90416095D01*
X132580095Y-90416095D01*
X132675333Y-90463714D01*
X132722952Y-90511333D01*
X132770571Y-90606571D01*
X132770571Y-90939904D01*
X133008666Y-88376095D02*
X133008666Y-87899904D01*
X133294380Y-88471333D02*
X132294380Y-88138000D01*
X133294380Y-87804666D01*
X133383261Y-110363000D02*
X132748261Y-110363000D01*
X133383261Y-110060619D02*
X132748261Y-110060619D01*
X133383261Y-109697761D01*
X132748261Y-109697761D01*
X132959928Y-109123238D02*
X133383261Y-109123238D01*
X132718023Y-109274428D02*
X133171595Y-109425619D01*
X133171595Y-109032523D01*
X133383261Y-107823000D02*
X132748261Y-107823000D01*
X133383261Y-107520619D02*
X132748261Y-107520619D01*
X133383261Y-107157761D01*
X132748261Y-107157761D01*
X132748261Y-106915857D02*
X132748261Y-106522761D01*
X132990166Y-106734428D01*
X132990166Y-106643714D01*
X133020404Y-106583238D01*
X133050642Y-106553000D01*
X133111119Y-106522761D01*
X133262309Y-106522761D01*
X133322785Y-106553000D01*
X133353023Y-106583238D01*
X133383261Y-106643714D01*
X133383261Y-106825142D01*
X133353023Y-106885619D01*
X133322785Y-106915857D01*
X133383261Y-105283000D02*
X132748261Y-105283000D01*
X133383261Y-104980619D02*
X132748261Y-104980619D01*
X133383261Y-104617761D01*
X132748261Y-104617761D01*
X132808738Y-104345619D02*
X132778500Y-104315380D01*
X132748261Y-104254904D01*
X132748261Y-104103714D01*
X132778500Y-104043238D01*
X132808738Y-104013000D01*
X132869214Y-103982761D01*
X132929690Y-103982761D01*
X133020404Y-104013000D01*
X133383261Y-104375857D01*
X133383261Y-103982761D01*
X133383261Y-102743000D02*
X132748261Y-102743000D01*
X133383261Y-102440619D02*
X132748261Y-102440619D01*
X133383261Y-102077761D01*
X132748261Y-102077761D01*
X133383261Y-101442761D02*
X133383261Y-101805619D01*
X133383261Y-101624190D02*
X132748261Y-101624190D01*
X132838976Y-101684666D01*
X132899452Y-101745142D01*
X132929690Y-101805619D01*
X133050642Y-100354190D02*
X133050642Y-100142523D01*
X133383261Y-100051809D02*
X133383261Y-100354190D01*
X132748261Y-100354190D01*
X132748261Y-100051809D01*
X133383261Y-99779666D02*
X132748261Y-99779666D01*
X133383261Y-99416809D01*
X132748261Y-99416809D01*
X133050642Y-98902761D02*
X133080880Y-98812047D01*
X133111119Y-98781809D01*
X133171595Y-98751571D01*
X133262309Y-98751571D01*
X133322785Y-98781809D01*
X133353023Y-98812047D01*
X133383261Y-98872523D01*
X133383261Y-99114428D01*
X132748261Y-99114428D01*
X132748261Y-98902761D01*
X132778500Y-98842285D01*
X132808738Y-98812047D01*
X132869214Y-98781809D01*
X132929690Y-98781809D01*
X132990166Y-98812047D01*
X133020404Y-98842285D01*
X133050642Y-98902761D01*
X133050642Y-99114428D01*
X133050642Y-97768833D02*
X133050642Y-97557166D01*
X133383261Y-97466452D02*
X133383261Y-97768833D01*
X132748261Y-97768833D01*
X132748261Y-97466452D01*
X133383261Y-97194309D02*
X132748261Y-97194309D01*
X133383261Y-96831452D01*
X132748261Y-96831452D01*
X133201833Y-96559309D02*
X133201833Y-96256928D01*
X133383261Y-96619785D02*
X132748261Y-96408119D01*
X133383261Y-96196452D01*
D11*
X132748261Y-83813952D02*
X133383261Y-83602285D01*
X132748261Y-83390619D01*
X133353023Y-82906809D02*
X133383261Y-82967285D01*
X133383261Y-83088238D01*
X133353023Y-83148714D01*
X133322785Y-83178952D01*
X133262309Y-83209190D01*
X133080880Y-83209190D01*
X133020404Y-83178952D01*
X132990166Y-83148714D01*
X132959928Y-83088238D01*
X132959928Y-82967285D01*
X132990166Y-82906809D01*
X133353023Y-82362523D02*
X133383261Y-82423000D01*
X133383261Y-82543952D01*
X133353023Y-82604428D01*
X133322785Y-82634666D01*
X133262309Y-82664904D01*
X133080880Y-82664904D01*
X133020404Y-82634666D01*
X132990166Y-82604428D01*
X132959928Y-82543952D01*
X132959928Y-82423000D01*
X132990166Y-82362523D01*
X132748261Y-70097952D02*
X133383261Y-69886285D01*
X132748261Y-69674619D01*
X133353023Y-69190809D02*
X133383261Y-69251285D01*
X133383261Y-69372238D01*
X133353023Y-69432714D01*
X133322785Y-69462952D01*
X133262309Y-69493190D01*
X133080880Y-69493190D01*
X133020404Y-69462952D01*
X132990166Y-69432714D01*
X132959928Y-69372238D01*
X132959928Y-69251285D01*
X132990166Y-69190809D01*
X133353023Y-68646523D02*
X133383261Y-68707000D01*
X133383261Y-68827952D01*
X133353023Y-68888428D01*
X133322785Y-68918666D01*
X133262309Y-68948904D01*
X133080880Y-68948904D01*
X133020404Y-68918666D01*
X132990166Y-68888428D01*
X132959928Y-68827952D01*
X132959928Y-68707000D01*
X132990166Y-68646523D01*
X170527738Y-75190047D02*
X169892738Y-75401714D01*
X170527738Y-75613380D01*
X169922976Y-76097190D02*
X169892738Y-76036714D01*
X169892738Y-75915761D01*
X169922976Y-75855285D01*
X169953214Y-75825047D01*
X170013690Y-75794809D01*
X170195119Y-75794809D01*
X170255595Y-75825047D01*
X170285833Y-75855285D01*
X170316071Y-75915761D01*
X170316071Y-76036714D01*
X170285833Y-76097190D01*
X169922976Y-76641476D02*
X169892738Y-76581000D01*
X169892738Y-76460047D01*
X169922976Y-76399571D01*
X169953214Y-76369333D01*
X170013690Y-76339095D01*
X170195119Y-76339095D01*
X170255595Y-76369333D01*
X170285833Y-76399571D01*
X170316071Y-76460047D01*
X170316071Y-76581000D01*
X170285833Y-76641476D01*
D10*
X170497500Y-78002190D02*
X170527738Y-77941714D01*
X170527738Y-77851000D01*
X170497500Y-77760285D01*
X170437023Y-77699809D01*
X170376547Y-77669571D01*
X170255595Y-77639333D01*
X170164880Y-77639333D01*
X170043928Y-77669571D01*
X169983452Y-77699809D01*
X169922976Y-77760285D01*
X169892738Y-77851000D01*
X169892738Y-77911476D01*
X169922976Y-78002190D01*
X169953214Y-78032428D01*
X170164880Y-78032428D01*
X170164880Y-77911476D01*
X169892738Y-78304571D02*
X170527738Y-78304571D01*
X169892738Y-78667428D01*
X170527738Y-78667428D01*
X169892738Y-78969809D02*
X170527738Y-78969809D01*
X170527738Y-79121000D01*
X170497500Y-79211714D01*
X170437023Y-79272190D01*
X170376547Y-79302428D01*
X170255595Y-79332666D01*
X170164880Y-79332666D01*
X170043928Y-79302428D01*
X169983452Y-79272190D01*
X169922976Y-79211714D01*
X169892738Y-79121000D01*
X169892738Y-78969809D01*
X134898190Y-116014500D02*
X134837714Y-115984261D01*
X134747000Y-115984261D01*
X134656285Y-116014500D01*
X134595809Y-116074976D01*
X134565571Y-116135452D01*
X134535333Y-116256404D01*
X134535333Y-116347119D01*
X134565571Y-116468071D01*
X134595809Y-116528547D01*
X134656285Y-116589023D01*
X134747000Y-116619261D01*
X134807476Y-116619261D01*
X134898190Y-116589023D01*
X134928428Y-116558785D01*
X134928428Y-116347119D01*
X134807476Y-116347119D01*
X135200571Y-116619261D02*
X135200571Y-115984261D01*
X135563428Y-116619261D01*
X135563428Y-115984261D01*
X135865809Y-116619261D02*
X135865809Y-115984261D01*
X136017000Y-115984261D01*
X136107714Y-116014500D01*
X136168190Y-116074976D01*
X136198428Y-116135452D01*
X136228666Y-116256404D01*
X136228666Y-116347119D01*
X136198428Y-116468071D01*
X136168190Y-116528547D01*
X136107714Y-116589023D01*
X136017000Y-116619261D01*
X135865809Y-116619261D01*
X132778500Y-86335809D02*
X132748261Y-86396285D01*
X132748261Y-86487000D01*
X132778500Y-86577714D01*
X132838976Y-86638190D01*
X132899452Y-86668428D01*
X133020404Y-86698666D01*
X133111119Y-86698666D01*
X133232071Y-86668428D01*
X133292547Y-86638190D01*
X133353023Y-86577714D01*
X133383261Y-86487000D01*
X133383261Y-86426523D01*
X133353023Y-86335809D01*
X133322785Y-86305571D01*
X133111119Y-86305571D01*
X133111119Y-86426523D01*
X133383261Y-86033428D02*
X132748261Y-86033428D01*
X133383261Y-85670571D01*
X132748261Y-85670571D01*
X133383261Y-85368190D02*
X132748261Y-85368190D01*
X132748261Y-85217000D01*
X132778500Y-85126285D01*
X132838976Y-85065809D01*
X132899452Y-85035571D01*
X133020404Y-85005333D01*
X133111119Y-85005333D01*
X133232071Y-85035571D01*
X133292547Y-85065809D01*
X133353023Y-85126285D01*
X133383261Y-85217000D01*
X133383261Y-85368190D01*
X132778500Y-72111809D02*
X132748261Y-72172285D01*
X132748261Y-72263000D01*
X132778500Y-72353714D01*
X132838976Y-72414190D01*
X132899452Y-72444428D01*
X133020404Y-72474666D01*
X133111119Y-72474666D01*
X133232071Y-72444428D01*
X133292547Y-72414190D01*
X133353023Y-72353714D01*
X133383261Y-72263000D01*
X133383261Y-72202523D01*
X133353023Y-72111809D01*
X133322785Y-72081571D01*
X133111119Y-72081571D01*
X133111119Y-72202523D01*
X133383261Y-71809428D02*
X132748261Y-71809428D01*
X133383261Y-71446571D01*
X132748261Y-71446571D01*
X133383261Y-71144190D02*
X132748261Y-71144190D01*
X132748261Y-70993000D01*
X132778500Y-70902285D01*
X132838976Y-70841809D01*
X132899452Y-70811571D01*
X133020404Y-70781333D01*
X133111119Y-70781333D01*
X133232071Y-70811571D01*
X133292547Y-70841809D01*
X133353023Y-70902285D01*
X133383261Y-70993000D01*
X133383261Y-71144190D01*
X159717619Y-114841261D02*
X160110714Y-114841261D01*
X159899047Y-115083166D01*
X159989761Y-115083166D01*
X160050238Y-115113404D01*
X160080476Y-115143642D01*
X160110714Y-115204119D01*
X160110714Y-115355309D01*
X160080476Y-115415785D01*
X160050238Y-115446023D01*
X159989761Y-115476261D01*
X159808333Y-115476261D01*
X159747857Y-115446023D01*
X159717619Y-115415785D01*
X160382857Y-115415785D02*
X160413095Y-115446023D01*
X160382857Y-115476261D01*
X160352619Y-115446023D01*
X160382857Y-115415785D01*
X160382857Y-115476261D01*
X160624761Y-114841261D02*
X161017857Y-114841261D01*
X160806190Y-115083166D01*
X160896904Y-115083166D01*
X160957380Y-115113404D01*
X160987619Y-115143642D01*
X161017857Y-115204119D01*
X161017857Y-115355309D01*
X160987619Y-115415785D01*
X160957380Y-115446023D01*
X160896904Y-115476261D01*
X160715476Y-115476261D01*
X160655000Y-115446023D01*
X160624761Y-115415785D01*
X161199285Y-114841261D02*
X161410952Y-115476261D01*
X161622619Y-114841261D01*
D12*
X156972000Y-115697000D02*
X159258000Y-115697000D01*
X156972000Y-120523000D02*
X156972000Y-115697000D01*
X159258000Y-120523000D02*
X156972000Y-120523000D01*
X159258000Y-115697000D02*
X159258000Y-120523000D01*
D10*
X140849047Y-48801261D02*
X140546666Y-48801261D01*
X140516428Y-49103642D01*
X140546666Y-49073404D01*
X140607142Y-49043166D01*
X140758333Y-49043166D01*
X140818809Y-49073404D01*
X140849047Y-49103642D01*
X140879285Y-49164119D01*
X140879285Y-49315309D01*
X140849047Y-49375785D01*
X140818809Y-49406023D01*
X140758333Y-49436261D01*
X140607142Y-49436261D01*
X140546666Y-49406023D01*
X140516428Y-49375785D01*
X141060714Y-48801261D02*
X141272380Y-49436261D01*
X141484047Y-48801261D01*
X137946190Y-48831500D02*
X137885714Y-48801261D01*
X137795000Y-48801261D01*
X137704285Y-48831500D01*
X137643809Y-48891976D01*
X137613571Y-48952452D01*
X137583333Y-49073404D01*
X137583333Y-49164119D01*
X137613571Y-49285071D01*
X137643809Y-49345547D01*
X137704285Y-49406023D01*
X137795000Y-49436261D01*
X137855476Y-49436261D01*
X137946190Y-49406023D01*
X137976428Y-49375785D01*
X137976428Y-49164119D01*
X137855476Y-49164119D01*
X138248571Y-49436261D02*
X138248571Y-48801261D01*
X138611428Y-49436261D01*
X138611428Y-48801261D01*
X138913809Y-49436261D02*
X138913809Y-48801261D01*
X139065000Y-48801261D01*
X139155714Y-48831500D01*
X139216190Y-48891976D01*
X139246428Y-48952452D01*
X139276666Y-49073404D01*
X139276666Y-49164119D01*
X139246428Y-49285071D01*
X139216190Y-49345547D01*
X139155714Y-49406023D01*
X139065000Y-49436261D01*
X138913809Y-49436261D01*
X163074047Y-114841261D02*
X162771666Y-114841261D01*
X162741428Y-115143642D01*
X162771666Y-115113404D01*
X162832142Y-115083166D01*
X162983333Y-115083166D01*
X163043809Y-115113404D01*
X163074047Y-115143642D01*
X163104285Y-115204119D01*
X163104285Y-115355309D01*
X163074047Y-115415785D01*
X163043809Y-115446023D01*
X162983333Y-115476261D01*
X162832142Y-115476261D01*
X162771666Y-115446023D01*
X162741428Y-115415785D01*
X163285714Y-114841261D02*
X163497380Y-115476261D01*
X163709047Y-114841261D01*
X157631190Y-114871500D02*
X157570714Y-114841261D01*
X157480000Y-114841261D01*
X157389285Y-114871500D01*
X157328809Y-114931976D01*
X157298571Y-114992452D01*
X157268333Y-115113404D01*
X157268333Y-115204119D01*
X157298571Y-115325071D01*
X157328809Y-115385547D01*
X157389285Y-115446023D01*
X157480000Y-115476261D01*
X157540476Y-115476261D01*
X157631190Y-115446023D01*
X157661428Y-115415785D01*
X157661428Y-115204119D01*
X157540476Y-115204119D01*
X157933571Y-115476261D02*
X157933571Y-114841261D01*
X158296428Y-115476261D01*
X158296428Y-114841261D01*
X158598809Y-115476261D02*
X158598809Y-114841261D01*
X158750000Y-114841261D01*
X158840714Y-114871500D01*
X158901190Y-114931976D01*
X158931428Y-114992452D01*
X158961666Y-115113404D01*
X158961666Y-115204119D01*
X158931428Y-115325071D01*
X158901190Y-115385547D01*
X158840714Y-115446023D01*
X158750000Y-115476261D01*
X158598809Y-115476261D01*
D12*
X159512000Y-120523000D02*
X159512000Y-120396000D01*
X161798000Y-120523000D02*
X159512000Y-120523000D01*
X159512000Y-115697000D02*
X159512000Y-120396000D01*
X161798000Y-115697000D02*
X159512000Y-115697000D01*
X161798000Y-120523000D02*
X161798000Y-115697000D01*
X162052000Y-115697000D02*
X162052000Y-120523000D01*
X164338000Y-115697000D02*
X162052000Y-115697000D01*
X164338000Y-120523000D02*
X164338000Y-115697000D01*
X162052000Y-120523000D02*
X164338000Y-120523000D01*
X142113000Y-49657000D02*
X139827000Y-49657000D01*
X142113000Y-49784000D02*
X142113000Y-49657000D01*
X142113000Y-64643000D02*
X142113000Y-49784000D01*
X141986000Y-64643000D02*
X142113000Y-64643000D01*
X139827000Y-64643000D02*
X141986000Y-64643000D01*
X139827000Y-49657000D02*
X139827000Y-64643000D01*
X139573000Y-64643000D02*
X139573000Y-49657000D01*
X137287000Y-64643000D02*
X139573000Y-64643000D01*
X137287000Y-49657000D02*
X137287000Y-64643000D01*
X139573000Y-49657000D02*
X137287000Y-49657000D01*
X133534000Y-80275000D02*
X133534000Y-82775000D01*
X136034000Y-80275000D02*
X133534000Y-80275000D01*
X135334000Y-92295000D02*
X133834000Y-92295000D01*
X135334000Y-93295000D02*
X135334000Y-92295000D01*
X135334000Y-81575000D02*
X133834000Y-81575000D01*
X135334000Y-80575000D02*
X135334000Y-81575000D01*
X136144000Y-92795000D02*
X136144000Y-93295000D01*
X137354000Y-92795000D02*
X136144000Y-92795000D01*
X137354000Y-81075000D02*
X137354000Y-92795000D01*
X136144000Y-81075000D02*
X137354000Y-81075000D01*
X136144000Y-80575000D02*
X136144000Y-81075000D01*
X137854000Y-93295000D02*
X137854000Y-80575000D01*
X133834000Y-93295000D02*
X137854000Y-93295000D01*
X133834000Y-80575000D02*
X133834000Y-93295000D01*
X137854000Y-80575000D02*
X133834000Y-80575000D01*
X160785000Y-67815000D02*
X142745000Y-67815000D01*
X160785000Y-111255000D02*
X160785000Y-67815000D01*
X142745000Y-111255000D02*
X160785000Y-111255000D01*
X145415000Y-108585000D02*
X142745000Y-108585000D01*
X145415000Y-73025000D02*
X145415000Y-108585000D01*
X145415000Y-73025000D02*
X142745000Y-73025000D01*
X158115000Y-108585000D02*
X160785000Y-108585000D01*
X158115000Y-70485000D02*
X158115000Y-108585000D01*
X158115000Y-70485000D02*
X160785000Y-70485000D01*
X142745000Y-67815000D02*
X142745000Y-70485000D01*
X142745000Y-73025000D02*
X142745000Y-111255000D01*
X145415000Y-70485000D02*
X142745000Y-70485000D01*
X145415000Y-73025000D02*
X145415000Y-70485000D01*
X133534000Y-94245000D02*
X133534000Y-96745000D01*
X136034000Y-94245000D02*
X133534000Y-94245000D01*
X135334000Y-111265000D02*
X133834000Y-111265000D01*
X135334000Y-112265000D02*
X135334000Y-111265000D01*
X135334000Y-95545000D02*
X133834000Y-95545000D01*
X135334000Y-94545000D02*
X135334000Y-95545000D01*
X136144000Y-111765000D02*
X136144000Y-112265000D01*
X137354000Y-111765000D02*
X136144000Y-111765000D01*
X137354000Y-95045000D02*
X137354000Y-111765000D01*
X136144000Y-95045000D02*
X137354000Y-95045000D01*
X136144000Y-94545000D02*
X136144000Y-95045000D01*
X137854000Y-112265000D02*
X137854000Y-94545000D01*
X133834000Y-112265000D02*
X137854000Y-112265000D01*
X133834000Y-94545000D02*
X133834000Y-112265000D01*
X137854000Y-94545000D02*
X133834000Y-94545000D01*
X132472000Y-121482000D02*
X134972000Y-121482000D01*
X132472000Y-118982000D02*
X132472000Y-121482000D01*
X139492000Y-119682000D02*
X139492000Y-121182000D01*
X140492000Y-119682000D02*
X139492000Y-119682000D01*
X133772000Y-119682000D02*
X133772000Y-121182000D01*
X132772000Y-119682000D02*
X133772000Y-119682000D01*
X139992000Y-118872000D02*
X140492000Y-118872000D01*
X139992000Y-117662000D02*
X139992000Y-118872000D01*
X133272000Y-117662000D02*
X139992000Y-117662000D01*
X133272000Y-118872000D02*
X133272000Y-117662000D01*
X132772000Y-118872000D02*
X133272000Y-118872000D01*
X140492000Y-117162000D02*
X132772000Y-117162000D01*
X140492000Y-121182000D02*
X140492000Y-117162000D01*
X132772000Y-121182000D02*
X140492000Y-121182000D01*
X132772000Y-117162000D02*
X132772000Y-121182000D01*
X165030000Y-73290000D02*
X165030000Y-75790000D01*
X167530000Y-73290000D02*
X165030000Y-73290000D01*
X166830000Y-85310000D02*
X165330000Y-85310000D01*
X166830000Y-86310000D02*
X166830000Y-85310000D01*
X166830000Y-74590000D02*
X165330000Y-74590000D01*
X166830000Y-73590000D02*
X166830000Y-74590000D01*
X167640000Y-85810000D02*
X167640000Y-86310000D01*
X168850000Y-85810000D02*
X167640000Y-85810000D01*
X168850000Y-74090000D02*
X168850000Y-85810000D01*
X167640000Y-74090000D02*
X168850000Y-74090000D01*
X167640000Y-73590000D02*
X167640000Y-74090000D01*
X169350000Y-86310000D02*
X169350000Y-73590000D01*
X165330000Y-86310000D02*
X169350000Y-86310000D01*
X165330000Y-73590000D02*
X165330000Y-86310000D01*
X169350000Y-73590000D02*
X165330000Y-73590000D01*
X133534000Y-66385000D02*
X133534000Y-68885000D01*
X136034000Y-66385000D02*
X133534000Y-66385000D01*
X135334000Y-78405000D02*
X133834000Y-78405000D01*
X135334000Y-79405000D02*
X135334000Y-78405000D01*
X135334000Y-67685000D02*
X133834000Y-67685000D01*
X135334000Y-66685000D02*
X135334000Y-67685000D01*
X136144000Y-78905000D02*
X136144000Y-79405000D01*
X137354000Y-78905000D02*
X136144000Y-78905000D01*
X137354000Y-67185000D02*
X137354000Y-78905000D01*
X136144000Y-67185000D02*
X137354000Y-67185000D01*
X136144000Y-66685000D02*
X136144000Y-67185000D01*
X137854000Y-79405000D02*
X137854000Y-66685000D01*
X133834000Y-79405000D02*
X137854000Y-79405000D01*
X133834000Y-66685000D02*
X133834000Y-79405000D01*
X137854000Y-66685000D02*
X133834000Y-66685000D01*
X134885000Y-47695000D02*
X137385000Y-47695000D01*
X134885000Y-45195000D02*
X134885000Y-47695000D01*
X141905000Y-45895000D02*
X141905000Y-47395000D01*
X142905000Y-45895000D02*
X141905000Y-45895000D01*
X136185000Y-45895000D02*
X136185000Y-47395000D01*
X135185000Y-45895000D02*
X136185000Y-45895000D01*
X142405000Y-45085000D02*
X142905000Y-45085000D01*
X142405000Y-43875000D02*
X142405000Y-45085000D01*
X135685000Y-43875000D02*
X142405000Y-43875000D01*
X135685000Y-45085000D02*
X135685000Y-43875000D01*
X135185000Y-45085000D02*
X135685000Y-45085000D01*
X142905000Y-43375000D02*
X135185000Y-43375000D01*
X142905000Y-47395000D02*
X142905000Y-43375000D01*
X135185000Y-47395000D02*
X142905000Y-47395000D01*
X135185000Y-43375000D02*
X135185000Y-47395000D01*
D10*
X131246571Y-91629904D02*
X131246571Y-91296571D01*
X131770380Y-91153714D02*
X131770380Y-91629904D01*
X130770380Y-91629904D01*
X130770380Y-91153714D01*
X131770380Y-90725142D02*
X130770380Y-90725142D01*
X131770380Y-90153714D01*
X130770380Y-90153714D01*
X131675142Y-89106095D02*
X131722761Y-89153714D01*
X131770380Y-89296571D01*
X131770380Y-89391809D01*
X131722761Y-89534666D01*
X131627523Y-89629904D01*
X131532285Y-89677523D01*
X131341809Y-89725142D01*
X131198952Y-89725142D01*
X131008476Y-89677523D01*
X130913238Y-89629904D01*
X130818000Y-89534666D01*
X130770380Y-89391809D01*
X130770380Y-89296571D01*
X130818000Y-89153714D01*
X130865619Y-89106095D01*
X130770380Y-88487047D02*
X130770380Y-88296571D01*
X130818000Y-88201333D01*
X130913238Y-88106095D01*
X131103714Y-88058476D01*
X131437047Y-88058476D01*
X131627523Y-88106095D01*
X131722761Y-88201333D01*
X131770380Y-88296571D01*
X131770380Y-88487047D01*
X131722761Y-88582285D01*
X131627523Y-88677523D01*
X131437047Y-88725142D01*
X131103714Y-88725142D01*
X130913238Y-88677523D01*
X130818000Y-88582285D01*
X130770380Y-88487047D01*
X131770380Y-87629904D02*
X130770380Y-87629904D01*
X130770380Y-87391809D01*
X130818000Y-87248952D01*
X130913238Y-87153714D01*
X131008476Y-87106095D01*
X131198952Y-87058476D01*
X131341809Y-87058476D01*
X131532285Y-87106095D01*
X131627523Y-87153714D01*
X131722761Y-87248952D01*
X131770380Y-87391809D01*
X131770380Y-87629904D01*
X131246571Y-86629904D02*
X131246571Y-86296571D01*
X131770380Y-86153714D02*
X131770380Y-86629904D01*
X130770380Y-86629904D01*
X130770380Y-86153714D01*
X131770380Y-85153714D02*
X131294190Y-85487047D01*
X131770380Y-85725142D02*
X130770380Y-85725142D01*
X130770380Y-85344190D01*
X130818000Y-85248952D01*
X130865619Y-85201333D01*
X130960857Y-85153714D01*
X131103714Y-85153714D01*
X131198952Y-85201333D01*
X131246571Y-85248952D01*
X131294190Y-85344190D01*
X131294190Y-85725142D01*
X132151333Y-83677523D02*
X132103714Y-83725142D01*
X131960857Y-83820380D01*
X131865619Y-83868000D01*
X131722761Y-83915619D01*
X131484666Y-83963238D01*
X131294190Y-83963238D01*
X131056095Y-83915619D01*
X130913238Y-83868000D01*
X130818000Y-83820380D01*
X130675142Y-83725142D01*
X130627523Y-83677523D01*
X131770380Y-82725142D02*
X131294190Y-83058476D01*
X131770380Y-83296571D02*
X130770380Y-83296571D01*
X130770380Y-82915619D01*
X130818000Y-82820380D01*
X130865619Y-82772761D01*
X130960857Y-82725142D01*
X131103714Y-82725142D01*
X131198952Y-82772761D01*
X131246571Y-82820380D01*
X131294190Y-82915619D01*
X131294190Y-83296571D01*
X132151333Y-82391809D02*
X132103714Y-82344190D01*
X131960857Y-82248952D01*
X131865619Y-82201333D01*
X131722761Y-82153714D01*
X131484666Y-82106095D01*
X131294190Y-82106095D01*
X131056095Y-82153714D01*
X130913238Y-82201333D01*
X130818000Y-82248952D01*
X130675142Y-82344190D01*
X130627523Y-82391809D01*
X151050714Y-66841666D02*
X151526904Y-66841666D01*
X150955476Y-67127380D02*
X151288809Y-66127380D01*
X151622142Y-67127380D01*
X152479285Y-67127380D02*
X151907857Y-67127380D01*
X152193571Y-67127380D02*
X152193571Y-66127380D01*
X152098333Y-66270238D01*
X152003095Y-66365476D01*
X151907857Y-66413095D01*
X132024380Y-104004857D02*
X132024380Y-104481047D01*
X131024380Y-104481047D01*
X131119619Y-103719142D02*
X131072000Y-103671523D01*
X131024380Y-103576285D01*
X131024380Y-103338190D01*
X131072000Y-103242952D01*
X131119619Y-103195333D01*
X131214857Y-103147714D01*
X131310095Y-103147714D01*
X131452952Y-103195333D01*
X132024380Y-103766761D01*
X132024380Y-103147714D01*
X131452952Y-102576285D02*
X131405333Y-102671523D01*
X131357714Y-102719142D01*
X131262476Y-102766761D01*
X131214857Y-102766761D01*
X131119619Y-102719142D01*
X131072000Y-102671523D01*
X131024380Y-102576285D01*
X131024380Y-102385809D01*
X131072000Y-102290571D01*
X131119619Y-102242952D01*
X131214857Y-102195333D01*
X131262476Y-102195333D01*
X131357714Y-102242952D01*
X131405333Y-102290571D01*
X131452952Y-102385809D01*
X131452952Y-102576285D01*
X131500571Y-102671523D01*
X131548190Y-102719142D01*
X131643428Y-102766761D01*
X131833904Y-102766761D01*
X131929142Y-102719142D01*
X131976761Y-102671523D01*
X132024380Y-102576285D01*
X132024380Y-102385809D01*
X131976761Y-102290571D01*
X131929142Y-102242952D01*
X131833904Y-102195333D01*
X131643428Y-102195333D01*
X131548190Y-102242952D01*
X131500571Y-102290571D01*
X131452952Y-102385809D01*
X132024380Y-101719142D02*
X132024380Y-101528666D01*
X131976761Y-101433428D01*
X131929142Y-101385809D01*
X131786285Y-101290571D01*
X131595809Y-101242952D01*
X131214857Y-101242952D01*
X131119619Y-101290571D01*
X131072000Y-101338190D01*
X131024380Y-101433428D01*
X131024380Y-101623904D01*
X131072000Y-101719142D01*
X131119619Y-101766761D01*
X131214857Y-101814380D01*
X131452952Y-101814380D01*
X131548190Y-101766761D01*
X131595809Y-101719142D01*
X131643428Y-101623904D01*
X131643428Y-101433428D01*
X131595809Y-101338190D01*
X131548190Y-101290571D01*
X131452952Y-101242952D01*
X132024380Y-100814380D02*
X131024380Y-100814380D01*
X132024380Y-100242952D01*
X131024380Y-100242952D01*
X137831285Y-115984261D02*
X137528904Y-115984261D01*
X137498666Y-116286642D01*
X137528904Y-116256404D01*
X137589380Y-116226166D01*
X137740571Y-116226166D01*
X137801047Y-116256404D01*
X137831285Y-116286642D01*
X137861523Y-116347119D01*
X137861523Y-116498309D01*
X137831285Y-116558785D01*
X137801047Y-116589023D01*
X137740571Y-116619261D01*
X137589380Y-116619261D01*
X137528904Y-116589023D01*
X137498666Y-116558785D01*
X138073190Y-116195928D02*
X138224380Y-116619261D01*
X138375571Y-116195928D01*
X171632571Y-83033809D02*
X171680190Y-82890952D01*
X171727809Y-82843333D01*
X171823047Y-82795714D01*
X171965904Y-82795714D01*
X172061142Y-82843333D01*
X172108761Y-82890952D01*
X172156380Y-82986190D01*
X172156380Y-83367142D01*
X171156380Y-83367142D01*
X171156380Y-83033809D01*
X171204000Y-82938571D01*
X171251619Y-82890952D01*
X171346857Y-82843333D01*
X171442095Y-82843333D01*
X171537333Y-82890952D01*
X171584952Y-82938571D01*
X171632571Y-83033809D01*
X171632571Y-83367142D01*
X172156380Y-82367142D02*
X171156380Y-82367142D01*
X172156380Y-81795714D01*
X171156380Y-81795714D01*
X171156380Y-81129047D02*
X171156380Y-80938571D01*
X171204000Y-80843333D01*
X171299238Y-80748095D01*
X171489714Y-80700476D01*
X171823047Y-80700476D01*
X172013523Y-80748095D01*
X172108761Y-80843333D01*
X172156380Y-80938571D01*
X172156380Y-81129047D01*
X172108761Y-81224285D01*
X172013523Y-81319523D01*
X171823047Y-81367142D01*
X171489714Y-81367142D01*
X171299238Y-81319523D01*
X171204000Y-81224285D01*
X171156380Y-81129047D01*
X171775428Y-80271904D02*
X171775428Y-79510000D01*
X171156380Y-78843333D02*
X171156380Y-78748095D01*
X171204000Y-78652857D01*
X171251619Y-78605238D01*
X171346857Y-78557619D01*
X171537333Y-78510000D01*
X171775428Y-78510000D01*
X171965904Y-78557619D01*
X172061142Y-78605238D01*
X172108761Y-78652857D01*
X172156380Y-78748095D01*
X172156380Y-78843333D01*
X172108761Y-78938571D01*
X172061142Y-78986190D01*
X171965904Y-79033809D01*
X171775428Y-79081428D01*
X171537333Y-79081428D01*
X171346857Y-79033809D01*
X171251619Y-78986190D01*
X171204000Y-78938571D01*
X171156380Y-78843333D01*
X171156380Y-77605238D02*
X171156380Y-78081428D01*
X171632571Y-78129047D01*
X171584952Y-78081428D01*
X171537333Y-77986190D01*
X171537333Y-77748095D01*
X171584952Y-77652857D01*
X171632571Y-77605238D01*
X171727809Y-77557619D01*
X171965904Y-77557619D01*
X172061142Y-77605238D01*
X172108761Y-77652857D01*
X172156380Y-77748095D01*
X172156380Y-77986190D01*
X172108761Y-78081428D01*
X172061142Y-78129047D01*
X171156380Y-76652857D02*
X171156380Y-77129047D01*
X171632571Y-77176666D01*
X171584952Y-77129047D01*
X171537333Y-77033809D01*
X171537333Y-76795714D01*
X171584952Y-76700476D01*
X171632571Y-76652857D01*
X171727809Y-76605238D01*
X171965904Y-76605238D01*
X172061142Y-76652857D01*
X172108761Y-76700476D01*
X172156380Y-76795714D01*
X172156380Y-77033809D01*
X172108761Y-77129047D01*
X172061142Y-77176666D01*
X131246571Y-77564666D02*
X131246571Y-77231333D01*
X131770380Y-77088476D02*
X131770380Y-77564666D01*
X130770380Y-77564666D01*
X130770380Y-77088476D01*
X131770380Y-76659904D02*
X130770380Y-76659904D01*
X131770380Y-76088476D01*
X130770380Y-76088476D01*
X131675142Y-75040857D02*
X131722761Y-75088476D01*
X131770380Y-75231333D01*
X131770380Y-75326571D01*
X131722761Y-75469428D01*
X131627523Y-75564666D01*
X131532285Y-75612285D01*
X131341809Y-75659904D01*
X131198952Y-75659904D01*
X131008476Y-75612285D01*
X130913238Y-75564666D01*
X130818000Y-75469428D01*
X130770380Y-75326571D01*
X130770380Y-75231333D01*
X130818000Y-75088476D01*
X130865619Y-75040857D01*
X130770380Y-74421809D02*
X130770380Y-74231333D01*
X130818000Y-74136095D01*
X130913238Y-74040857D01*
X131103714Y-73993238D01*
X131437047Y-73993238D01*
X131627523Y-74040857D01*
X131722761Y-74136095D01*
X131770380Y-74231333D01*
X131770380Y-74421809D01*
X131722761Y-74517047D01*
X131627523Y-74612285D01*
X131437047Y-74659904D01*
X131103714Y-74659904D01*
X130913238Y-74612285D01*
X130818000Y-74517047D01*
X130770380Y-74421809D01*
X131770380Y-73564666D02*
X130770380Y-73564666D01*
X130770380Y-73326571D01*
X130818000Y-73183714D01*
X130913238Y-73088476D01*
X131008476Y-73040857D01*
X131198952Y-72993238D01*
X131341809Y-72993238D01*
X131532285Y-73040857D01*
X131627523Y-73088476D01*
X131722761Y-73183714D01*
X131770380Y-73326571D01*
X131770380Y-73564666D01*
X131246571Y-72564666D02*
X131246571Y-72231333D01*
X131770380Y-72088476D02*
X131770380Y-72564666D01*
X130770380Y-72564666D01*
X130770380Y-72088476D01*
X131770380Y-71088476D02*
X131294190Y-71421809D01*
X131770380Y-71659904D02*
X130770380Y-71659904D01*
X130770380Y-71278952D01*
X130818000Y-71183714D01*
X130865619Y-71136095D01*
X130960857Y-71088476D01*
X131103714Y-71088476D01*
X131198952Y-71136095D01*
X131246571Y-71183714D01*
X131294190Y-71278952D01*
X131294190Y-71659904D01*
X132151333Y-69612285D02*
X132103714Y-69659904D01*
X131960857Y-69755142D01*
X131865619Y-69802761D01*
X131722761Y-69850380D01*
X131484666Y-69898000D01*
X131294190Y-69898000D01*
X131056095Y-69850380D01*
X130913238Y-69802761D01*
X130818000Y-69755142D01*
X130675142Y-69659904D01*
X130627523Y-69612285D01*
X131770380Y-68755142D02*
X131770380Y-69231333D01*
X130770380Y-69231333D01*
X132151333Y-68517047D02*
X132103714Y-68469428D01*
X131960857Y-68374190D01*
X131865619Y-68326571D01*
X131722761Y-68278952D01*
X131484666Y-68231333D01*
X131294190Y-68231333D01*
X131056095Y-68278952D01*
X130913238Y-68326571D01*
X130818000Y-68374190D01*
X130675142Y-68469428D01*
X130627523Y-68517047D01*
X139001523Y-40473380D02*
X138525333Y-40473380D01*
X138477714Y-40949571D01*
X138525333Y-40901952D01*
X138620571Y-40854333D01*
X138858666Y-40854333D01*
X138953904Y-40901952D01*
X139001523Y-40949571D01*
X139049142Y-41044809D01*
X139049142Y-41282904D01*
X139001523Y-41378142D01*
X138953904Y-41425761D01*
X138858666Y-41473380D01*
X138620571Y-41473380D01*
X138525333Y-41425761D01*
X138477714Y-41378142D01*
X139334857Y-40473380D02*
X139668190Y-41473380D01*
X140001523Y-40473380D01*
M02*
