M48
; DRILL file {KiCad (5.1.4)-1} date 2/11/2020 6:39:28 PM
; FORMAT={-:-/ absolute / inch / decimal}
; #@! TF.CreationDate,2020-02-11T18:39:28-06:00
; #@! TF.GenerationSoftware,Kicad,Pcbnew,(5.1.4)-1
; #@! TF.FileFunction,Plated,1,2,PTH
FMAT,2
INCH
T1C0.0315
T2C0.0315
T3C0.0374
T4C0.0394
T5C0.1200
%
G90
G05
T1
X5.675Y-2.825
X5.675Y-2.925
X5.675Y-3.025
X5.675Y-3.125
X5.675Y-3.225
X5.675Y-3.325
X5.675Y-3.425
X5.675Y-3.525
X5.675Y-3.625
X5.675Y-3.725
X5.675Y-3.825
X5.675Y-3.925
X5.675Y-4.025
X5.675Y-4.125
X5.675Y-4.225
X6.275Y-2.825
X6.275Y-2.925
X6.275Y-3.025
X6.275Y-3.125
X6.275Y-3.225
X6.275Y-3.325
X6.275Y-3.425
X6.275Y-3.525
X6.275Y-3.625
X6.275Y-3.725
X6.275Y-3.825
X6.275Y-3.925
X6.275Y-4.025
X6.275Y-4.125
X6.275Y-4.225
T2
X6.05Y-1.9
X6.425Y-4.6
X5.55Y-4.025
X6.55Y-2.3
X5.85Y-2.5
X6.05Y-2.2
X5.75Y-1.9
X6.4Y-3.025
X6.45Y-2.2
X5.65Y-2.0
X6.55Y-1.9
X5.85Y-1.8
X6.15Y-2.1
X5.55Y-4.125
X6.4Y-3.825
X6.55Y-2.0
X5.95Y-2.3
X6.55Y-1.8
X6.15Y-2.0
X6.125Y-4.7
X6.35Y-1.9
X5.55Y-2.4
X6.25Y-2.5
X5.75Y-2.5
X5.65Y-2.1
X6.45Y-1.9
X6.15Y-2.4
X5.85Y-2.2
X5.55Y-3.125
X5.55Y-2.0
X6.05Y-2.4
X5.85Y-2.1
X6.05Y-1.8
X6.4Y-4.225
X6.15Y-2.2
X6.05Y-2.0
X5.55Y-3.225
X6.4Y-3.325
X6.4Y-3.225
X5.65Y-2.5
X6.4Y-3.525
X6.4Y-2.825
X6.55Y-2.5
X5.65Y-2.3
X5.95Y-1.9
X5.55Y-3.825
X5.55Y-3.725
X6.45Y-2.4
X5.95Y-1.8
X5.45Y-2.2
X5.95Y-2.4
X5.55Y-2.825
X6.35Y-2.3
X5.55Y-3.525
X5.55Y-3.925
X6.45Y-1.8
X5.55Y-3.425
X5.45Y-2.4
X6.55Y-2.1
X5.75Y-1.8
X6.25Y-2.2
X5.55Y-3.325
X5.55Y-3.025
X5.55Y-2.1
X6.45Y-2.3
X5.85Y-2.0
X6.325Y-4.6
X5.55Y-2.2
X6.25Y-2.1
X5.75Y-2.4
X6.35Y-2.4
X5.45Y-2.0
X6.25Y-1.9
X5.75Y-2.2
X5.65Y-2.4
X6.35Y-2.2
X6.125Y-4.6
X5.45Y-2.5
X5.75Y-2.0
X5.95Y-2.5
X6.4Y-3.625
X6.15Y-2.3
X5.85Y-2.3
X6.4Y-3.725
X6.325Y-4.7
X5.95Y-2.2
X6.025Y-4.6
X5.55Y-4.225
X6.45Y-2.0
X5.45Y-2.1
X6.05Y-2.3
X6.35Y-2.5
X6.4Y-2.925
X5.55Y-3.625
X6.45Y-2.5
X6.45Y-2.1
X5.95Y-2.1
X6.35Y-2.0
X6.225Y-4.6
X6.225Y-4.7
X6.55Y-2.4
X5.45Y-2.3
X6.35Y-2.1
X6.25Y-2.3
X6.4Y-3.925
X6.55Y-2.2
X5.55Y-2.3
X6.35Y-1.8
X6.15Y-2.5
X6.4Y-4.025
X5.55Y-2.5
X6.25Y-2.0
X5.75Y-2.1
X6.25Y-1.8
X5.65Y-2.2
X6.15Y-1.9
X5.95Y-2.0
X6.05Y-2.1
X6.15Y-1.8
X6.025Y-4.7
X6.25Y-2.4
X6.05Y-2.5
X5.55Y-2.925
X6.4Y-4.125
X6.425Y-4.7
X5.85Y-1.9
X5.85Y-2.4
X6.4Y-3.425
X6.4Y-3.125
X5.75Y-2.3
T3
X5.36Y-3.275
X5.36Y-3.3734
X5.36Y-3.4719
X5.36Y-3.5703
X5.36Y-3.825
X5.36Y-3.9234
X5.36Y-4.0219
X5.36Y-4.1203
X5.36Y-4.2187
X5.36Y-4.3171
X5.36Y-2.7281
X5.36Y-2.8266
X5.36Y-2.925
X5.36Y-3.0234
X6.6Y-3.0
X6.6Y-3.0984
X6.6Y-3.1969
X6.6Y-3.2953
T4
X5.425Y-1.775
X5.5234Y-1.775
X5.33Y-4.68
X5.4284Y-4.68
T5
X5.1Y-1.55
X5.1Y-4.68
X6.7Y-1.55
T0
M30
